<svg width="25" height="25" viewBox="0 0 25 25" fill="none" xmlns="http://www.w3.org/2000/svg">
<rect width="25" height="25" rx="5" fill="#EFF6FF"/>
<path d="M20.8909 5.40918H5.10914C4.49753 5.40918 4 5.90671 4 6.51829V17.2273C4 17.8389 4.49753 18.3364 5.10914 18.3364H10.4468L10.2309 20.0636H9.33637C9.19071 20.0636 9.0727 20.1817 9.0727 20.3273C9.0727 20.4729 9.19071 20.591 9.33637 20.591H16.6636C16.8093 20.591 16.9273 20.4729 16.9273 20.3273C16.9273 20.1817 16.8093 20.0636 16.6636 20.0636H15.7692L15.5532 18.3364H20.8909C21.5024 18.3364 22 17.8389 22 17.2273V6.51829C22 5.90671 21.5025 5.40918 20.8909 5.40918ZM10.7623 20.0636L10.9783 18.3364H11.9487L12.0439 18.7172C12.1538 19.1567 12.547 19.4637 13 19.4637C13.4531 19.4637 13.8463 19.1567 13.9562 18.7172L14.0514 18.3364H15.0218L15.2377 20.0636H10.7623ZM12.4922 18.3364H13.5077L13.4445 18.5893C13.3934 18.7937 13.2107 18.9364 13 18.9364C12.7893 18.9364 12.6065 18.7936 12.5554 18.5893L12.4922 18.3364ZM21.4727 17.2273C21.4727 17.5481 21.2117 17.8091 20.8909 17.8091H5.10914C4.78834 17.8091 4.52734 17.5481 4.52734 17.2273V6.51829C4.52734 6.19749 4.78834 5.93652 5.10914 5.93652H20.8909C21.2117 5.93652 21.4727 6.19749 21.4727 6.51829V17.2273Z" fill="#0400F5"/>
<path d="M18.9181 6.53662H5.39087C5.24522 6.53662 5.1272 6.65464 5.1272 6.80029V16.9457C5.1272 17.0913 5.24522 17.2094 5.39087 17.2094H5.95453C6.10018 17.2094 6.2182 17.0913 6.2182 16.9457C6.21824 16.8001 6.10018 16.682 5.95456 16.682H5.65458V7.06396H18.9181C19.0637 7.06396 19.1818 6.94591 19.1818 6.80029C19.1818 6.65464 19.0637 6.53662 18.9181 6.53662Z" fill="#0400F5"/>
<path d="M20.609 6.53662H20.0453C19.8997 6.53662 19.7817 6.65464 19.7817 6.80029C19.7817 6.94591 19.8997 7.06396 20.0453 7.06396H20.3453V16.682H7.08179C6.93613 16.682 6.81812 16.8001 6.81812 16.9457C6.81812 17.0913 6.93613 17.2094 7.08179 17.2094H20.609C20.7546 17.2094 20.8726 17.0913 20.8726 16.9457V6.80029C20.8727 6.65464 20.7546 6.53662 20.609 6.53662Z" fill="#0400F5"/>
<path d="M16.5895 9.45552C16.5421 9.39494 16.4707 9.3581 16.3939 9.35462L10.1939 9.07277C10.1891 9.07256 10.1843 9.07245 10.1794 9.07252C10.1427 8.95204 10.0652 8.84756 9.96021 8.77753L9.20094 8.27135C9.07979 8.19059 8.91607 8.22332 8.83531 8.34451C8.75456 8.46569 8.78729 8.62938 8.90844 8.71013L9.66767 9.21624C9.67126 9.21863 9.6739 9.22225 9.67509 9.2264L10.6422 12.6113C10.6724 12.7168 10.722 12.8117 10.7857 12.8936L10.4319 13.6013C10.3467 13.7716 10.3556 13.97 10.4558 14.132C10.4921 14.1907 10.5381 14.2408 10.5911 14.2809C10.5218 14.4018 10.482 14.5416 10.482 14.6907C10.482 15.1469 10.8531 15.518 11.3093 15.518C11.7654 15.518 12.1366 15.1468 12.1366 14.6907C12.1366 14.5849 12.1164 14.4838 12.08 14.3907H14.4839C14.4476 14.4838 14.4274 14.5849 14.4274 14.6907C14.4274 15.1469 14.7985 15.518 15.2547 15.518C15.7108 15.518 16.082 15.1468 16.082 14.6907C16.082 14.5583 16.0506 14.4333 15.9951 14.3223C16.0483 14.274 16.082 14.2046 16.082 14.127C16.082 13.9814 15.9639 13.8634 15.8183 13.8634H10.9197C10.9159 13.8634 10.9096 13.8634 10.9043 13.8548C10.899 13.8462 10.9018 13.8405 10.9035 13.8371L11.2295 13.1852C11.2958 13.2023 11.3649 13.2115 11.4356 13.2115C11.4682 13.2115 11.5011 13.2095 11.5343 13.2057L15.2392 12.7698C15.7177 12.7135 16.1027 12.3583 16.1972 11.8858L16.6404 9.66972C16.6555 9.59431 16.6369 9.51609 16.5895 9.45552ZM15.2546 14.3908C15.42 14.3908 15.5546 14.5254 15.5546 14.6907C15.5546 14.8561 15.42 14.9907 15.2546 14.9907C15.0892 14.9907 14.9546 14.8561 14.9546 14.6907C14.9546 14.5253 15.0892 14.3908 15.2546 14.3908ZM11.3092 14.3908C11.4746 14.3908 11.6091 14.5253 11.6091 14.6907C11.6091 14.8561 11.4746 14.9907 11.3092 14.9907C11.1438 14.9907 11.0092 14.8561 11.0092 14.6907C11.0092 14.5253 11.1438 14.3908 11.3092 14.3908ZM10.6626 10.7634L10.3322 9.60697L11.3863 9.65489L11.5691 10.7634H10.6626ZM11.4727 12.6819C11.3256 12.6992 11.1898 12.6086 11.1492 12.4664L10.8133 11.2908H11.656L11.8776 12.6343L11.4727 12.6819ZM13.0182 12.5001L12.4019 12.5726L12.1906 11.2908H13.0182V12.5001ZM13.0182 10.7634H12.1036L11.9248 9.67939L13.0182 9.7291V10.7634ZM14.3535 12.343L13.5456 12.4381V11.2908H14.4488L14.3535 12.343ZM14.4965 10.7634H13.5456V9.75304L14.5837 9.80022L14.4965 10.7634ZM15.6801 11.7824C15.6305 12.0302 15.4286 12.2165 15.1776 12.2461L14.8887 12.2801L14.9783 11.2908H15.7784L15.6801 11.7824ZM15.8839 10.7634H15.026L15.1111 9.8242L16.0631 9.86748L15.8839 10.7634Z" fill="#0400F5"/>
</svg>
