<svg width="25" height="25" viewBox="0 0 25 25" fill="none" xmlns="http://www.w3.org/2000/svg">
<rect width="25" height="25" rx="5" fill="#EFF6FF"/>
<path d="M13.8272 18.8451C13.7453 18.8451 13.6362 18.7906 13.5817 18.7088C13.4999 18.5724 13.5544 18.4088 13.6635 18.3269C13.6908 18.3269 13.6908 18.2997 13.6908 18.2724L13.3635 17.3451C13.3362 17.2633 13.2544 17.1815 13.2272 17.1815C13.1726 17.1542 13.1181 17.1542 13.0362 17.1542L13.0635 17.236C13.1181 17.3724 13.0635 17.536 12.8999 17.5906C12.7635 17.6451 12.5999 17.5906 12.5453 17.4269V17.3179C12.4908 17.1815 12.4908 17.0179 12.5726 16.9088C12.6272 16.7724 12.7362 16.6906 12.8726 16.6633C13.1181 16.5815 13.3362 16.636 13.4726 16.6906C13.6908 16.7997 13.8272 17.0179 13.909 17.1815L14.2362 18.1088C14.3453 18.3542 14.2362 18.6542 13.9908 18.8179C13.9362 18.8451 13.8817 18.8451 13.8272 18.8451Z" fill="#0400F5"/>
<path d="M15.3819 19.3635C14.7819 19.3635 14.1546 19.1726 13.6364 18.8181C13.091 18.4363 12.6819 17.8908 12.491 17.2908C12.4364 17.1544 12.5182 16.9908 12.6546 16.9363C12.791 16.8817 12.9546 16.9635 13.0091 17.0999C13.1728 17.5908 13.5001 18.0272 13.9364 18.3544C14.591 18.8181 15.4091 18.9272 16.1728 18.6817C17.2364 18.3272 17.9455 17.2908 17.891 16.1726C17.891 16.009 18.0001 15.8999 18.1637 15.8999C18.3001 15.8999 18.4364 16.009 18.4364 16.1726C18.491 17.5363 17.6455 18.7908 16.3364 19.2272C16.0364 19.309 15.7091 19.3635 15.3819 19.3635Z" fill="#0400F5"/>
<path d="M18.9546 16.4452H17.2637C17.1001 16.4452 16.991 16.3361 16.991 16.1725V11.8089C16.991 11.6452 17.1001 11.5361 17.2637 11.5361H18.9546C19.1182 11.5361 19.2273 11.6452 19.2273 11.8089V16.1725C19.2273 16.3361 19.1182 16.4452 18.9546 16.4452ZM17.5364 15.8998H18.6819V12.0816H17.5364V15.8998Z" fill="#0400F5"/>
<path d="M18.9817 15.8725C18.8181 15.8725 18.709 15.7634 18.709 15.5997V12.3543C18.709 12.1906 18.8181 12.0815 18.9817 12.0815C19.9363 12.0815 20.7272 12.8725 20.7272 13.827V14.0997C20.7272 15.0815 19.9635 15.8725 18.9817 15.8725ZM19.2544 12.6543V15.2997C19.7999 15.1634 20.1817 14.6997 20.1817 14.0997V13.827C20.1817 13.2543 19.7999 12.7906 19.2544 12.6543Z" fill="#0400F5"/>
<path d="M6.73634 16.4452H5.04543C4.8818 16.4452 4.77271 16.3361 4.77271 16.1725V11.8089C4.77271 11.6452 4.8818 11.5361 5.04543 11.5361H6.73634C6.89998 11.5361 7.00907 11.6452 7.00907 11.8089V16.1725C7.00907 16.3089 6.8727 16.4452 6.73634 16.4452ZM5.31816 15.8998H6.46361V12.0816H5.31816V15.8998Z" fill="#0400F5"/>
<path d="M5.01816 15.8725C4.03634 15.8725 3.27271 15.0815 3.27271 14.0997V13.827C3.27271 12.8725 4.06361 12.0815 5.01816 12.0815C5.1818 12.0815 5.29089 12.1906 5.29089 12.3543V15.5997C5.29089 15.7634 5.1818 15.8725 5.01816 15.8725ZM4.74543 12.6543C4.19998 12.7634 3.81816 13.2543 3.81816 13.827V14.0997C3.81816 14.6997 4.19998 15.1634 4.74543 15.2997V12.6543Z" fill="#0400F5"/>
<path d="M18.6819 11.8908C18.5182 11.8908 18.4091 11.7817 18.4091 11.618C18.4091 8.07259 15.5182 5.18169 11.9728 5.18169C8.42733 5.18169 5.53642 8.07259 5.53642 11.618C5.53642 11.7817 5.42733 11.8908 5.26369 11.8908C5.10006 11.8908 4.99097 11.7817 4.99097 11.618C4.99097 7.77259 8.12733 4.63623 11.9728 4.63623C15.8182 4.63623 18.9546 7.77259 18.9546 11.618C18.9546 11.7817 18.8455 11.8908 18.6819 11.8908Z" fill="#0400F5"/>
<path d="M17.6455 11.8905C17.4819 11.8905 17.3728 11.7815 17.3728 11.6178C17.3728 8.64509 14.9455 6.21782 11.9728 6.21782C9.00007 6.21782 6.5728 8.64509 6.5728 11.6178C6.5728 11.7815 6.46371 11.8905 6.30007 11.8905C6.13643 11.8905 6.02734 11.7815 6.02734 11.6178C6.02734 8.34509 8.70007 5.67236 11.9728 5.67236C15.2455 5.67236 17.9183 8.34509 17.9183 11.6178C17.9183 11.7815 17.8092 11.8905 17.6455 11.8905Z" fill="#0400F5"/>
<path d="M11.591 15.4906C9.65464 15.4906 8.1001 13.9361 8.1001 11.9997C8.1001 10.0633 9.65464 8.50879 11.5637 8.50879C13.5001 8.50879 15.0546 10.0633 15.0546 11.9997C15.0546 12.5997 14.9183 13.1452 14.6728 13.6361L15.8183 14.3724C15.9274 14.427 15.9546 14.5633 15.9274 14.6724C15.9001 14.7815 15.791 14.8633 15.6819 14.8633L13.391 14.9997C12.8456 15.327 12.2183 15.4906 11.591 15.4906ZM11.5637 9.05424C9.95464 9.05424 8.64555 10.3633 8.64555 11.9997C8.64555 13.6361 9.95464 14.9452 11.591 14.9452C12.1365 14.9452 12.6819 14.7815 13.1728 14.4815C13.2001 14.4542 13.2546 14.4542 13.3092 14.4542L14.8092 14.3724L14.1546 13.9633C14.1001 13.9361 14.0456 13.8542 14.0456 13.7997C14.0183 13.7179 14.0456 13.6633 14.0728 13.5815C14.3728 13.1452 14.5092 12.5997 14.5092 12.027C14.5092 10.3633 13.2001 9.05424 11.5637 9.05424Z" fill="#0400F5"/>
<path d="M12.7909 11.1817H10.3909C10.2273 11.1817 10.1182 11.0726 10.1182 10.909C10.1182 10.7453 10.2273 10.6362 10.3909 10.6362H12.7909C12.9545 10.6362 13.0636 10.7453 13.0636 10.909C13.0636 11.0726 12.9545 11.1817 12.7909 11.1817Z" fill="#0400F5"/>
<path d="M12.7909 12.2725H10.3909C10.2273 12.2725 10.1182 12.1634 10.1182 11.9998C10.1182 11.8361 10.2273 11.7271 10.3909 11.7271H12.7909C12.9545 11.7271 13.0636 11.8361 13.0636 11.9998C13.0636 12.1634 12.9545 12.2725 12.7909 12.2725Z" fill="#0400F5"/>
<path d="M12.7909 13.3633H10.3909C10.2273 13.3633 10.1182 13.2542 10.1182 13.0906C10.1182 12.927 10.2273 12.8179 10.3909 12.8179H12.7909C12.9545 12.8179 13.0636 12.927 13.0636 13.0906C13.0636 13.2542 12.9545 13.3633 12.7909 13.3633Z" fill="#0400F5"/>
</svg>
