<svg width="25" height="25" viewBox="0 0 25 25" fill="none" xmlns="http://www.w3.org/2000/svg">
<rect width="25" height="25" rx="5" fill="#EFF6FF"/>
<g clip-path="url(#clip0_45_6106)">
<path fill-rule="evenodd" clip-rule="evenodd" d="M7.12194 16.2341C6.99443 16.7708 6.51157 17.1706 5.9361 17.1706C5.26343 17.1706 4.71729 16.6244 4.71729 15.9518C4.71729 15.2791 5.26343 14.733 5.9361 14.733C6.51157 14.733 6.99443 15.1327 7.12194 15.6694H8.68487C8.70711 15.6694 8.72511 15.6514 8.72511 15.6291V14.7426C8.72511 14.4085 8.99599 14.1376 9.33008 14.1376H10.4098V13.7266H8.08113C6.56966 13.7266 5.33327 12.4902 5.33327 10.9797C5.33327 9.90426 5.95957 8.96808 6.86497 8.51731C6.86483 8.50146 6.86476 8.48558 6.86476 8.46969C6.86476 6.13778 8.75458 4.24707 11.0865 4.24707C12.1646 4.24707 13.1491 4.65147 13.8954 5.31722C14.2529 5.20728 14.6323 5.14799 15.0259 5.14799C16.9414 5.14799 18.5281 6.55033 18.8175 8.38428C19.9125 8.76482 20.6666 9.80635 20.6666 10.9797C20.6666 12.4902 19.4302 13.7266 17.9187 13.7266H15.5901V14.1376H16.6698C17.0039 14.1376 17.2748 14.4085 17.2748 14.7426V15.6291C17.2748 15.6514 17.2928 15.6694 17.315 15.6694H18.8779C19.0054 15.1327 19.4883 14.733 20.0638 14.733C20.7364 14.733 21.2826 15.2791 21.2826 15.9518C21.2826 16.6244 20.7364 17.1706 20.0638 17.1706C19.4883 17.1706 19.0054 16.7708 18.8779 16.2341H17.315C16.9809 16.2341 16.71 15.9633 16.71 15.6291V14.7426C16.71 14.7204 16.692 14.7024 16.6698 14.7024H15.5901V16.0124C15.5901 16.4194 15.2601 16.7494 14.853 16.7494H14.7818V17.8953H17.2651C17.3926 17.3586 17.8755 16.9589 18.451 16.9589C19.1236 16.9589 19.6697 17.505 19.6697 18.1777C19.6697 18.8504 19.1236 19.3965 18.451 19.3965C17.8755 19.3965 17.3926 18.9968 17.2651 18.46H14.4994C14.3435 18.46 14.2171 18.3336 14.2171 18.1777V16.7494H13.2823V19.3483C13.819 19.4758 14.2187 19.9587 14.2187 20.5341C14.2187 21.2068 13.6726 21.753 12.9999 21.753C12.3273 21.753 11.7811 21.2068 11.7811 20.5341C11.7811 19.9587 12.1809 19.4758 12.7176 19.3483V16.7494H11.7828V18.1777C11.7828 18.3336 11.6564 18.46 11.5004 18.46H8.73478C8.60726 18.9968 8.1244 19.3965 7.5489 19.3965C6.87623 19.3965 6.33012 18.8504 6.33012 18.1777C6.33012 17.505 6.87623 16.9589 7.5489 16.9589C8.1244 16.9589 8.60726 17.3586 8.73478 17.8953H11.2181V16.7494H11.1469C10.7398 16.7494 10.4098 16.4194 10.4098 16.0124V14.7024H9.33008C9.30785 14.7024 9.28981 14.7204 9.28981 14.7426V15.6291C9.28981 15.9633 9.01897 16.2341 8.68487 16.2341H7.12194ZM10.4098 13.1619V12.3062C10.4098 11.8992 10.7398 11.5692 11.1469 11.5692H14.853C15.2601 11.5692 15.5901 11.8992 15.5901 12.3062V13.1619H17.9187C19.1195 13.1619 20.1019 12.1797 20.1019 10.9797C20.1019 9.99652 19.4351 9.13019 18.4875 8.873C18.3753 8.84254 18.2933 8.74644 18.2807 8.63085C18.1033 6.98985 16.7142 5.71269 15.0259 5.71269C14.6381 5.71269 14.2663 5.78007 13.921 5.90371C13.8198 5.93999 13.7067 5.91556 13.6294 5.84078C12.9712 5.20361 12.0742 4.81178 11.0865 4.81178C9.06647 4.81178 7.42946 6.44967 7.42946 8.46969C7.42946 8.54007 7.43105 8.61048 7.43507 8.68005C7.44206 8.8004 7.3719 8.91189 7.26037 8.95767C6.46396 9.28442 5.89798 10.0689 5.89798 10.9797C5.89798 12.1797 6.88032 13.1619 8.08113 13.1619H10.4098ZM5.9361 15.2977C5.57507 15.2977 5.28199 15.5908 5.28199 15.9518C5.28199 16.3128 5.57507 16.6059 5.9361 16.6059C6.29709 16.6059 6.59017 16.3128 6.59017 15.9518C6.59017 15.5908 6.29709 15.2977 5.9361 15.2977ZM14.853 12.1339H11.1469C11.0517 12.1339 10.9745 12.211 10.9745 12.3062V16.0124C10.9745 16.1076 11.0517 16.1847 11.1469 16.1847H14.853C14.9482 16.1847 15.0254 16.1076 15.0254 16.0124V12.3062C15.0254 12.211 14.9482 12.1339 14.853 12.1339ZM20.0638 15.2977C19.7028 15.2977 19.4097 15.5908 19.4097 15.9518C19.4097 16.3128 19.7028 16.6059 20.0638 16.6059C20.4248 16.6059 20.7179 16.3128 20.7179 15.9518C20.7179 15.5908 20.4248 15.2977 20.0638 15.2977ZM7.5489 17.5236C7.18791 17.5236 6.89483 17.8167 6.89483 18.1777C6.89483 18.5387 7.18791 18.8318 7.5489 18.8318C7.90992 18.8318 8.203 18.5387 8.203 18.1777C8.203 17.8167 7.90992 17.5236 7.5489 17.5236ZM12.9999 19.8801C12.6389 19.8801 12.3458 20.1732 12.3458 20.5341C12.3458 20.8952 12.6389 21.1882 12.9999 21.1882C13.3609 21.1882 13.654 20.8952 13.654 20.5341C13.654 20.1732 13.3609 19.8801 12.9999 19.8801ZM18.451 17.5236C18.0899 17.5236 17.7969 17.8167 17.7969 18.1777C17.7969 18.5387 18.0899 18.8318 18.451 18.8318C18.812 18.8318 19.105 18.5387 19.105 18.1777C19.105 17.8167 18.812 17.5236 18.451 17.5236Z" fill="#0400F5"/>
</g>
<defs>
<clipPath id="clip0_45_6106">
<rect width="18" height="18" fill="white" transform="translate(4 4)"/>
</clipPath>
</defs>
</svg>
