<svg width="25" height="25" viewBox="0 0 25 25" fill="none" xmlns="http://www.w3.org/2000/svg">
<rect width="25" height="25" rx="5" fill="#EFF6FF"/>
<path d="M15.7074 11.2191C15.7069 11.1272 15.6695 11.0372 15.6045 10.9722L14.7001 10.0678C14.5628 9.93058 14.3402 9.93058 14.2029 10.0678C14.0656 10.2051 14.0656 10.4277 14.2029 10.565L14.5072 10.8693H9.6246L9.92894 10.565C10.0662 10.4277 10.0663 10.2051 9.92894 10.0678C9.79162 9.93054 9.56905 9.93054 9.43176 10.0678L8.52726 10.9722C8.39188 11.1076 8.39198 11.3343 8.5274 11.4696L9.43173 12.3739C9.77436 12.688 10.246 12.2194 9.92894 11.8767L9.62463 11.5724H14.5073L14.2029 11.8768C14.0656 12.0141 14.0656 12.2367 14.2029 12.374C14.3384 12.5094 14.5646 12.5094 14.7001 12.374L15.6046 11.4695C15.6705 11.4034 15.7074 11.3122 15.7074 11.2191Z" fill="#0400F5"/>
<path d="M15.7075 16.7379C15.7066 16.6463 15.6692 16.5571 15.6042 16.4924L14.7002 15.5884C14.5629 15.4511 14.3403 15.4511 14.203 15.5884C14.0657 15.7257 14.0657 15.9483 14.203 16.0856L14.5072 16.3898H9.62471L9.92903 16.0855C10.0663 15.9482 10.0663 15.7256 9.92903 15.5883C9.79174 15.451 9.56913 15.451 9.43181 15.5883L8.52738 16.4928C8.39224 16.6282 8.39224 16.8546 8.52738 16.99L9.43188 17.8945C9.56734 18.0299 9.79364 18.0299 9.9291 17.8945C10.0664 17.7572 10.0664 17.5346 9.9291 17.3973L9.62478 17.093H14.5074L14.203 17.3974C14.0657 17.5346 14.0657 17.7573 14.203 17.8946C14.3385 18.03 14.5647 18.03 14.7002 17.8946L15.6047 16.9901C15.671 16.9237 15.7081 16.8315 15.7075 16.7379Z" fill="#0400F5"/>
<path d="M7.06822 6.5293H4.95386C4.75969 6.5293 4.60229 6.68673 4.60229 6.88086V20.6484C4.60229 20.8426 4.75969 21 4.95386 21H7.06822C7.26239 21 7.41979 20.8426 7.41979 20.6484V6.88086C7.41979 6.68669 7.26239 6.5293 7.06822 6.5293ZM6.71666 20.2969H5.30542V7.23242H6.71666V20.2969Z" fill="#0400F5"/>
<path d="M19.3976 3.35156C19.3976 3.15743 19.2402 3 19.046 3H16.9316C16.7375 3 16.5801 3.15743 16.5801 3.35156V20.6484C16.5801 20.8426 16.7375 21 16.9316 21H19.046C19.2402 21 19.3976 20.8426 19.3976 20.6484V13.4847C19.3803 13.0187 18.7116 13.0191 18.6945 13.4847V20.2969H17.2832V3.70312H18.6945V10.3824C18.7118 10.8484 19.3804 10.848 19.3976 10.3824V3.35156Z" fill="#0400F5"/>
<path d="M12.6743 7.23242H13.4362C13.9022 7.21513 13.9019 6.54645 13.4362 6.5293H12.6743C12.2083 6.54659 12.2087 7.21527 12.6743 7.23242Z" fill="#0400F5"/>
<path d="M10.5969 7.23242H11.3589C11.8248 7.21513 11.8245 6.54642 11.3589 6.5293H10.5969C10.1309 6.54659 10.1313 7.21527 10.5969 7.23242Z" fill="#0400F5"/>
<path d="M9.28173 7.23242C9.74769 7.21513 9.74733 6.54642 9.28173 6.5293H8.51975C8.05379 6.54659 8.05414 7.2153 8.51975 7.23242H9.28173Z" fill="#0400F5"/>
<path d="M19.3386 11.7076C19.2316 11.5488 19.0107 11.5035 18.8509 11.6102C18.4768 11.8874 18.8411 12.4346 19.2412 12.1949C19.4008 12.0889 19.4445 11.8669 19.3386 11.7076Z" fill="#0400F5"/>
<path d="M15.5134 6.5293H14.7514C14.2855 6.54659 14.2858 7.21527 14.7514 7.23242H15.5134C15.9794 7.21509 15.979 6.54642 15.5134 6.5293Z" fill="#0400F5"/>
</svg>
