<svg width="25" height="25" viewBox="0 0 25 25" fill="none" xmlns="http://www.w3.org/2000/svg">
<rect width="25" height="25" rx="5" fill="#EFF6FF"/>
<g clip-path="url(#clip0_46_6124)">
<path d="M12.2735 6.7637H12.9179V5.7359H12.2735V6.7637ZM19.9361 13.7837C19.8561 13.6394 19.7482 13.5124 19.6187 13.4102C19.4892 13.3079 19.3407 13.2324 19.1818 13.188C19.0229 13.1436 18.8567 13.1313 18.693 13.1516C18.5292 13.172 18.3711 13.2247 18.2279 13.3067L17.8967 13.5083V10.7399H16.0589V3.8999H10.6949V6.6899L7.79154 7.5539V14.7323L6.54234 15.4523L6.43074 15.2885C6.32823 15.1286 6.16914 15.0132 5.98527 14.9655C5.8014 14.9178 5.60629 14.9412 5.43894 15.0311L4.06014 15.8141C3.99084 15.8612 3.94014 15.9311 3.91681 16.0116C3.89348 16.0921 3.89898 16.1782 3.93234 16.2551C3.95195 16.2934 3.97914 16.3273 4.01226 16.3547C4.04538 16.3821 4.08374 16.4025 4.125 16.4147C4.16626 16.4268 4.20956 16.4304 4.25225 16.4252C4.29495 16.4201 4.33615 16.4063 4.37334 16.3847L5.75214 15.5999C5.77153 15.5855 5.79582 15.5793 5.81974 15.5827C5.84367 15.586 5.8653 15.5987 5.87994 15.6179L8.36034 19.9199C8.40068 19.9968 8.4699 20.0544 8.55278 20.0803C8.63565 20.1061 8.72538 20.0979 8.80224 20.0576C8.8791 20.0173 8.93679 19.948 8.96262 19.8652C8.98844 19.7823 8.98028 19.6926 8.93994 19.6157L6.86274 16.0157L8.75994 14.9159C9.42054 14.5289 9.87954 14.5667 10.6157 14.7863L14.3147 15.7799C14.3921 15.7988 14.465 15.8329 14.5291 15.8802C14.5932 15.9274 14.6473 15.9869 14.6883 16.0552C14.7293 16.1235 14.7564 16.1992 14.768 16.278C14.7795 16.3568 14.7754 16.4371 14.7557 16.5143C14.6639 16.8635 14.2949 16.9913 13.9655 16.9373L11.1161 16.5305C11.0329 16.5249 10.9506 16.5498 10.8843 16.6005C10.8181 16.6511 10.7725 16.7241 10.7561 16.8059C10.7477 16.8897 10.7715 16.9735 10.8226 17.0404C10.8738 17.1073 10.9485 17.1521 11.0315 17.1659L13.8737 17.5799C14.5163 17.6717 15.1967 17.3405 15.3803 16.6799C15.4501 16.3683 15.404 16.042 15.2507 15.7619L18.5393 13.8683C18.6074 13.8253 18.6836 13.7968 18.7632 13.7846C18.8428 13.7725 18.924 13.7769 19.0018 13.7977C19.0796 13.8185 19.1522 13.8552 19.2151 13.9055C19.278 13.9557 19.3299 14.0184 19.3673 14.0897C19.5689 14.4191 19.3853 14.7503 19.1099 14.9519L14.0573 18.6239C13.7621 18.8813 13.5785 18.9731 12.9179 18.8813C12.1277 18.7895 10.0883 18.4583 9.40794 18.6419C9.36836 18.6517 9.33115 18.6694 9.29852 18.6938C9.2659 18.7183 9.23853 18.7491 9.21805 18.7844C9.19756 18.8196 9.18437 18.8587 9.17927 18.8991C9.17417 18.9396 9.17725 18.9807 9.18834 19.0199C9.21005 19.1013 9.26197 19.1714 9.33354 19.2159C9.4051 19.2604 9.49093 19.2759 9.57354 19.2593C10.0703 19.1117 12.2015 19.4393 12.8261 19.5167C13.4507 19.5941 13.9277 19.5707 14.4605 19.1297L19.5005 15.4595C20.0891 15.0185 20.2727 14.3201 19.9415 13.7693L19.9361 13.7837ZM17.2541 11.3897V13.8683L16.0589 14.5487V13.4687H16.8131V12.8225H16.0589V11.3825L17.2541 11.3897ZM9.88494 13.9799V9.6833H9.24234V14.0339C8.95982 14.1091 8.68818 14.2204 8.43414 14.3651V8.0399L10.6949 7.3595V14.1257C10.4288 14.0574 10.1581 14.0081 9.88494 13.9781V13.9799ZM11.3375 14.3111V4.5425H15.4199V14.9159L14.7953 15.2759C14.7 15.2134 14.5937 15.1695 14.4821 15.1463L11.3375 14.3111ZM13.8359 13.1897H14.4785V12.1619H13.8359V13.1897ZM12.2735 13.1897H12.9179V12.1619H12.2735V13.1897ZM13.8359 11.0423H14.4785V10.0325H13.8359V11.0423ZM12.2735 11.0423H12.9179V10.0325H12.2735V11.0423ZM13.8359 8.8931H14.4785V7.8833H13.8359V8.8931ZM12.2735 8.8931H12.9179V7.8833H12.2735V8.8931ZM13.8359 6.7637H14.4785V5.7359H13.8359V6.7637Z" fill="#0400F5"/>
</g>
<defs>
<clipPath id="clip0_46_6124">
<rect width="18" height="18" fill="white" transform="translate(3 3)"/>
</clipPath>
</defs>
</svg>
