<svg width="25" height="25" viewBox="0 0 25 25" fill="none" xmlns="http://www.w3.org/2000/svg">
<rect width="25" height="25" rx="5" fill="#EFF6FF"/>
<g clip-path="url(#clip0_45_5831)">
<path d="M20.6716 16.2538C20.4814 15.5432 19.7428 15.1115 18.9901 15.2694L13.7441 16.3831C13.8473 16.0994 13.8475 15.7884 13.7447 15.5045C13.6419 15.2205 13.4426 14.9818 13.1816 14.8299L10.1406 13.0739C10.0186 12.9977 9.90392 12.9102 9.79816 12.8127C9.53098 12.5817 9.1984 12.2945 8.57859 12.2284C7.98973 12.1658 7.22332 12.304 6.18797 12.6622C6.15341 12.4426 6.04167 12.2426 5.87283 12.0981C5.70399 11.9535 5.48913 11.8739 5.26688 11.8736H4.21359C3.96641 11.8739 3.72942 11.9722 3.55464 12.147C3.37985 12.3218 3.28153 12.5588 3.28125 12.806V17.9884C3.28153 18.2356 3.37985 18.4725 3.55464 18.6473C3.72942 18.8221 3.96641 18.9204 4.21359 18.9207H5.26371C5.5083 18.9204 5.74299 18.824 5.91729 18.6524C6.09158 18.4808 6.19156 18.2477 6.1957 18.0031C7.03453 17.8854 8.10012 18.4936 9.13301 19.0835C10.0232 19.5918 10.8718 20.0766 11.5809 20.0766C11.7143 20.0777 11.8471 20.0584 11.9747 20.0193L19.6922 17.9515C20.0471 17.8561 20.3496 17.6237 20.5333 17.3053C20.7169 16.987 20.7667 16.6088 20.6716 16.2538ZM5.26371 18.3582H4.21359C4.11553 18.3581 4.02152 18.3191 3.95218 18.2498C3.88284 18.1804 3.84384 18.0864 3.84375 17.9884V12.806C3.84384 12.7079 3.88284 12.6139 3.95218 12.5446C4.02152 12.4752 4.11553 12.4362 4.21359 12.4361H5.26371C5.36177 12.4362 5.45579 12.4752 5.52513 12.5446C5.59447 12.6139 5.63346 12.7079 5.63355 12.806V17.9884C5.63346 18.0864 5.59447 18.1804 5.52513 18.2498C5.45579 18.3191 5.36177 18.3581 5.26371 18.3582ZM19.5466 17.409L11.8242 19.4776L11.8112 19.4815C11.2688 19.6548 10.3252 19.1162 9.41285 18.5952C8.32547 17.9736 7.20469 17.3345 6.19711 17.435V13.2546C8.49457 12.4305 8.96988 12.8408 9.43148 13.2381C9.56367 13.3594 9.70731 13.4676 9.86039 13.5611L12.9014 15.3168C12.9835 15.3645 13.0554 15.4278 13.1131 15.5033C13.1707 15.5787 13.2129 15.6648 13.2373 15.7565C13.2616 15.8483 13.2677 15.9439 13.2551 16.038C13.2425 16.1321 13.2115 16.2228 13.1638 16.3049C13.1162 16.387 13.0529 16.4589 12.9774 16.5166C12.902 16.5742 12.8159 16.6164 12.7242 16.6408C12.6324 16.6651 12.5368 16.6712 12.4427 16.6586C12.3486 16.646 12.2579 16.615 12.1758 16.5674L9.6368 15.1017C9.57237 15.0667 9.49684 15.0583 9.42628 15.0781C9.35572 15.098 9.29571 15.1447 9.25904 15.2082C9.22238 15.2717 9.21194 15.3469 9.22997 15.418C9.248 15.4891 9.29305 15.5503 9.35555 15.5886L11.8945 17.0546C12.0891 17.1672 12.3099 17.2265 12.5347 17.2265C12.7365 17.2262 12.9353 17.1788 13.1155 17.088C13.1287 17.0871 13.1419 17.0854 13.1549 17.0827L19.1054 15.8227C19.5734 15.7236 20.0125 15.9722 20.1274 16.4007C20.1835 16.6113 20.1539 16.8355 20.0451 17.0243C19.9362 17.2131 19.757 17.351 19.5466 17.4079V17.409ZM5.20746 13.4518C5.20774 13.5446 5.18046 13.6355 5.12908 13.7128C5.0777 13.7901 5.00454 13.8504 4.91884 13.8861C4.83315 13.9218 4.73879 13.9313 4.64772 13.9133C4.55664 13.8954 4.47295 13.8508 4.40723 13.7852C4.34152 13.7196 4.29674 13.636 4.27857 13.545C4.2604 13.454 4.26965 13.3596 4.30516 13.2738C4.34067 13.188 4.40083 13.1147 4.47803 13.0632C4.55523 13.0116 4.646 12.9842 4.73883 12.9842C4.86285 12.9845 4.98173 13.0338 5.06952 13.1214C5.15732 13.209 5.2069 13.3278 5.20746 13.4518ZM10.76 10.3619H11.2361C11.3304 10.701 11.4657 11.0273 11.6389 11.3336L11.3025 11.6704C11.2142 11.7576 11.1607 11.8739 11.152 11.9976C11.1432 12.1213 11.1799 12.244 11.255 12.3426C11.5526 12.7374 11.9039 13.0887 12.2988 13.3861C12.3974 13.4614 12.5201 13.4982 12.6438 13.4895C12.7676 13.4809 12.8839 13.4273 12.971 13.339L13.3078 13.0025C13.6141 13.1758 13.9403 13.3113 14.2792 13.4061V13.8821C14.2784 14.0062 14.3229 14.1262 14.4043 14.2198C14.4858 14.3134 14.5985 14.3741 14.7214 14.3905C15.2112 14.4594 15.7082 14.4594 16.198 14.3905C16.3211 14.3741 16.4341 14.3134 16.5156 14.2196C16.5971 14.1259 16.6415 14.0056 16.6406 13.8814V13.4061C16.9797 13.3116 17.3059 13.1764 17.6123 13.0032L17.9488 13.3397C18.0359 13.428 18.1522 13.4816 18.276 13.4902C18.3997 13.4989 18.5224 13.4621 18.621 13.3868C19.0158 13.0892 19.3669 12.7377 19.6641 12.3426C19.7393 12.244 19.776 12.1214 19.7673 11.9976C19.7586 11.8739 19.7052 11.7576 19.617 11.6704L19.2802 11.3336C19.4534 11.0274 19.5887 10.7012 19.683 10.3623H20.1594C20.2835 10.3631 20.4036 10.3186 20.4972 10.2372C20.5908 10.1558 20.6514 10.043 20.6678 9.92001C20.7367 9.43023 20.7367 8.93321 20.6678 8.44344C20.6513 8.32053 20.5906 8.20783 20.4971 8.12647C20.4035 8.04512 20.2834 8.00069 20.1594 8.00153H19.6827C19.5882 7.66247 19.4528 7.33617 19.2795 7.02981L19.6163 6.69336C19.704 6.6064 19.7572 6.49055 19.766 6.36731C19.7748 6.24407 19.7386 6.12183 19.6641 6.02329C19.3667 5.62821 19.0154 5.27684 18.6203 4.9795C18.5217 4.90415 18.399 4.86736 18.2753 4.87603C18.1515 4.88471 18.0352 4.93825 17.9481 5.02661L17.6116 5.3634C17.3055 5.18971 16.9795 5.05383 16.6406 4.95876V4.48274C16.6415 4.3587 16.5971 4.2386 16.5157 4.14495C16.4344 4.05131 16.3217 3.99054 16.1987 3.97403C15.7089 3.90579 15.212 3.90579 14.7221 3.97403C14.5992 3.99061 14.4866 4.0514 14.4052 4.14503C14.3239 4.23866 14.2795 4.35872 14.2802 4.48274V4.95876C13.9409 5.05325 13.6144 5.18866 13.3078 5.362L12.971 5.0252C12.8838 4.93698 12.7675 4.88353 12.6438 4.87486C12.5201 4.86619 12.3974 4.90289 12.2988 4.97809C11.9036 5.27587 11.5523 5.62771 11.255 6.02329C11.1798 6.12192 11.1431 6.2446 11.1519 6.36834C11.1606 6.49208 11.2142 6.60839 11.3025 6.69547L11.6389 7.03192C11.4656 7.33822 11.3303 7.66454 11.2361 8.00364H10.76C10.636 8.00279 10.5159 8.0472 10.4223 8.12855C10.3286 8.2099 10.2678 8.32261 10.2513 8.44555C10.1824 8.93532 10.1824 9.43234 10.2513 9.92211C10.2682 10.0447 10.3292 10.1569 10.4228 10.2379C10.5164 10.3188 10.6363 10.3629 10.76 10.3619ZM10.8026 8.56473H11.4551C11.5191 8.56474 11.5811 8.54295 11.631 8.50294C11.6809 8.46293 11.7157 8.40709 11.7296 8.34465C11.8255 7.91632 11.9949 7.50785 12.2303 7.13739C12.2645 7.08341 12.2793 7.01939 12.2723 6.95587C12.2652 6.89236 12.2368 6.83312 12.1916 6.78794L11.7304 6.32633C11.9819 5.99818 12.2755 5.70456 12.6036 5.45305L13.0649 5.91465C13.1101 5.95993 13.1694 5.98843 13.233 5.99546C13.2966 6.0025 13.3607 5.98763 13.4147 5.95333C13.7851 5.71792 14.1936 5.54854 14.622 5.4527C14.6841 5.43877 14.7397 5.40416 14.7796 5.35454C14.8195 5.30492 14.8414 5.24322 14.8417 5.17954V4.52528C15.2516 4.47184 15.6668 4.47184 16.0767 4.52528V5.17954C16.0767 5.24351 16.0985 5.30557 16.1385 5.35549C16.1785 5.40541 16.2344 5.44019 16.2968 5.45411C16.7249 5.54939 17.1333 5.71818 17.5037 5.95297C17.5577 5.98728 17.6218 6.00214 17.6854 5.99511C17.749 5.98808 17.8083 5.95958 17.8535 5.9143L18.3151 5.4527C18.6431 5.70432 18.9366 5.99792 19.188 6.32598L18.7268 6.78758C18.6816 6.83277 18.6532 6.892 18.6461 6.95552C18.6391 7.01904 18.6539 7.08306 18.6881 7.13704C18.9236 7.50723 19.0929 7.91548 19.1888 8.3436C19.2027 8.40598 19.2375 8.46173 19.2875 8.50167C19.3374 8.54161 19.3994 8.56336 19.4633 8.56333H20.1158C20.1697 8.97324 20.1697 9.38845 20.1158 9.79837H19.463C19.3991 9.79841 19.3372 9.8202 19.2873 9.86013C19.2375 9.90007 19.2027 9.95577 19.1888 10.0181C19.093 10.4468 18.9236 10.8556 18.6881 11.2264C18.6539 11.2804 18.6391 11.3444 18.6461 11.4079C18.6532 11.4714 18.6816 11.5307 18.7268 11.5759L19.1884 12.0375C18.9367 12.3655 18.6431 12.659 18.3151 12.9107L17.8535 12.4495C17.8083 12.4044 17.749 12.376 17.6855 12.369C17.622 12.362 17.558 12.3769 17.5041 12.4112C17.1335 12.6467 16.7249 12.816 16.2964 12.9118C16.2341 12.9258 16.1784 12.9605 16.1385 13.0104C16.0986 13.0602 16.0768 13.1222 16.0767 13.186V13.8389C15.6668 13.8923 15.2516 13.8923 14.8417 13.8389V13.186C14.8417 13.1221 14.82 13.0601 14.78 13.0102C14.7401 12.9602 14.6843 12.9254 14.622 12.9115C14.1935 12.816 13.785 12.6466 13.4147 12.4108C13.3607 12.3765 13.2966 12.3617 13.233 12.3687C13.1694 12.3757 13.1101 12.4042 13.0649 12.4495L12.6036 12.9111C12.2755 12.6596 11.9819 12.366 11.7304 12.0378L12.1916 11.578C12.2368 11.5328 12.2652 11.4736 12.2723 11.41C12.2793 11.3465 12.2645 11.2825 12.2303 11.2285C11.9948 10.8581 11.8254 10.4496 11.7296 10.0213C11.7157 9.95881 11.6809 9.90298 11.631 9.86297C11.5811 9.82296 11.5191 9.80117 11.4551 9.80118H10.8026C10.7487 9.39138 10.7487 8.97629 10.8026 8.56649V8.56473ZM15.4594 11.9998C16.0164 11.9998 16.5609 11.8347 17.0241 11.5252C17.4872 11.2157 17.8482 10.7759 18.0614 10.2613C18.2745 9.74664 18.3303 9.18036 18.2216 8.63404C18.113 8.08771 17.8447 7.58589 17.4508 7.19201C17.057 6.79813 16.5551 6.5299 16.0088 6.42123C15.4625 6.31256 14.8962 6.36833 14.3816 6.5815C13.867 6.79466 13.4271 7.15564 13.1177 7.61879C12.8082 8.08194 12.643 8.62646 12.643 9.18348C12.6438 9.93017 12.9408 10.646 13.4688 11.174C13.9968 11.702 14.7127 11.999 15.4594 11.9998ZM15.4594 6.92961C15.9051 6.92961 16.3409 7.0618 16.7116 7.30946C17.0822 7.55712 17.3711 7.90912 17.5417 8.32096C17.7123 8.73281 17.7569 9.18598 17.6699 9.62319C17.583 10.0604 17.3683 10.462 17.0531 10.7772C16.7379 11.0924 16.3363 11.3071 15.8991 11.394C15.4619 11.481 15.0087 11.4364 14.5969 11.2658C14.185 11.0952 13.833 10.8063 13.5854 10.4357C13.3377 10.065 13.2055 9.62925 13.2055 9.18348C13.2058 8.58568 13.4433 8.01241 13.8659 7.58957C14.2885 7.16672 14.8616 6.92886 15.4594 6.92821V6.92961ZM14.2897 9.44962C14.2636 9.42348 14.2429 9.39247 14.2288 9.35833C14.2147 9.3242 14.2074 9.28762 14.2074 9.25068C14.2074 9.21374 14.2147 9.17717 14.2289 9.14305C14.243 9.10893 14.2638 9.07793 14.2899 9.05182C14.316 9.02571 14.3471 9.00501 14.3812 8.99089C14.4153 8.97677 14.4519 8.96951 14.4888 8.96952C14.5258 8.96954 14.5623 8.97683 14.5965 8.99098C14.6306 9.00513 14.6616 9.02587 14.6877 9.052L15.1395 9.50376L16.2188 8.2652C16.2693 8.21527 16.337 8.18634 16.408 8.18424C16.4791 8.18214 16.5483 8.20702 16.6017 8.25388C16.6552 8.30074 16.6889 8.3661 16.6961 8.43681C16.7033 8.50753 16.6835 8.57835 16.6406 8.63504L15.3645 10.099C15.3391 10.128 15.3081 10.1516 15.2732 10.1682C15.2384 10.1847 15.2005 10.194 15.162 10.1953H15.1525C15.1155 10.1953 15.0789 10.1881 15.0448 10.1739C15.0106 10.1598 14.9796 10.1391 14.9535 10.113L14.2897 9.44962Z" fill="#0400F5"/>
</g>
<defs>
<clipPath id="clip0_45_5831">
<rect width="18" height="18" fill="white" transform="translate(3 3)"/>
</clipPath>
</defs>
</svg>
