<svg width="25" height="25" viewBox="0 0 25 25" fill="none" xmlns="http://www.w3.org/2000/svg">
<rect width="25" height="25" rx="5" fill="#EFF6FF"/>
<path d="M16.4103 16.098C16.2716 15.9621 16.0491 15.9644 15.9132 16.1031L15.9032 16.1133C15.7673 16.2519 15.7696 16.4745 15.9083 16.6104C15.9767 16.6775 16.0655 16.7109 16.1543 16.7109C16.2454 16.7109 16.3366 16.6756 16.4054 16.6054L16.4154 16.5952C16.5513 16.4565 16.549 16.2339 16.4103 16.098Z" fill="#0400F5"/>
<path d="M20.192 12.4123H19.2577V11.478C19.2577 11.2839 19.1003 11.1265 18.9062 11.1265C18.712 11.1265 18.5546 11.2839 18.5546 11.478V12.4123H17.6204C17.4262 12.4123 17.2688 12.5697 17.2688 12.7638C17.2688 12.958 17.4262 13.1154 17.6204 13.1154H18.5546V14.0496C18.5546 14.2438 18.712 14.4012 18.9062 14.4012C19.1003 14.4012 19.2577 14.2438 19.2577 14.0496V13.1154H20.192C20.3861 13.1154 20.5435 12.958 20.5435 12.7638C20.5435 12.5697 20.3861 12.4123 20.192 12.4123Z" fill="#0400F5"/>
<path d="M20.0557 9.89152C19.7273 7.46468 17.6985 5.64893 15.2904 5.64893C14.0748 5.64893 12.9377 6.10206 12.0508 6.93262C11.1639 6.10206 10.0267 5.64893 8.81118 5.64893C6.15828 5.64893 4 7.85861 4 10.5747C4 11.1113 4.15655 11.7128 4.468 12.3768H4.35156C4.15739 12.3768 4 12.5342 4 12.7283C4 12.9225 4.15739 13.0799 4.35156 13.0799H4.84242C5.49903 14.1915 6.53741 15.4556 7.95329 16.8635C9.87213 18.7715 11.8178 20.2642 11.8373 20.2791C11.9003 20.3273 11.9755 20.3513 12.0508 20.3513C12.1261 20.3513 12.2013 20.3273 12.2643 20.2791C12.2792 20.2677 13.7673 19.1266 15.4164 17.5718C15.5577 17.4386 15.5642 17.2161 15.431 17.0748C15.2978 16.9335 15.0753 16.927 14.934 17.0602C13.6764 18.246 12.5152 19.1861 12.0508 19.5535C11.4989 19.1168 9.96255 17.8704 8.44404 16.3599C7.22833 15.1506 6.29768 14.0485 5.66848 13.0799H8.81589C8.97272 13.0799 9.11057 12.976 9.15381 12.8253L9.76806 10.6842L11.4691 16.1341C11.5149 16.2809 11.6509 16.3809 11.8047 16.3809C11.9585 16.3809 12.0944 16.2809 12.1402 16.1341L13.0822 13.1151H14.6518C14.8459 13.1151 15.0033 12.9577 15.0033 12.7635C15.0033 12.5693 14.8459 12.4119 14.6518 12.4119H12.8237C12.6699 12.4119 12.5339 12.5119 12.4881 12.6588L11.8046 14.8492L10.0894 9.35405C10.0432 9.2058 9.90542 9.10511 9.74975 9.10725C9.59446 9.10905 9.45872 9.21255 9.41587 9.36185L8.55092 12.3768H5.25241C4.889 11.6907 4.70313 11.086 4.70313 10.5747C4.70313 8.24631 6.54599 6.35205 8.81118 6.35205C9.94968 6.35205 11.0084 6.82005 11.7924 7.66978C11.859 7.74192 11.9526 7.78295 12.0508 7.78295C12.149 7.78295 12.2426 7.74192 12.3092 7.66978C13.0931 6.82005 14.1519 6.35205 15.2904 6.35205C17.2489 6.35205 18.9139 7.76442 19.3097 9.6963C19.1776 9.67904 19.043 9.67 18.9062 9.67C17.2004 9.67 15.8125 11.0579 15.8125 12.7638C15.8125 14.4696 17.2004 15.8575 18.9062 15.8575C20.6121 15.8575 22 14.4696 22 12.7638C22 11.4638 21.1941 10.3487 20.0557 9.89152ZM18.9063 15.1544C17.5881 15.1544 16.5156 14.0819 16.5156 12.7638C16.5156 11.4456 17.5881 10.3731 18.9063 10.3731C20.2245 10.3731 21.2969 11.4456 21.2969 12.7638C21.2969 14.0819 20.2245 15.1544 18.9063 15.1544Z" fill="#0400F5"/>
</svg>
