<svg width="25" height="25" viewBox="0 0 25 25" fill="none" xmlns="http://www.w3.org/2000/svg">
<rect width="25" height="25" rx="5" fill="#EFF6FF"/>
<path d="M17.1384 9.08057C13.5172 9.08057 10.6787 9.08057 6.86143 9.08057C6.13693 9.08057 5.54761 9.67007 5.54761 10.3946V19.475C5.54761 20.1995 6.13693 20.7888 6.86143 20.7888H17.1384C17.8629 20.7888 18.4524 20.1995 18.4524 19.475V10.3946C18.4524 9.67007 17.8629 9.08057 17.1384 9.08057ZM11.6922 9.5093H12.3077V11.9045H11.6922V9.5093ZM12.7364 9.5093H13.6406V11.8057C13.6406 11.8601 13.5962 11.9045 13.5416 11.9045H12.7364V9.5093ZM11.2635 9.5093V11.9045H10.4582C10.4038 11.9045 10.3594 11.8601 10.3594 11.8057V9.50926L11.2635 9.5093ZM18.0237 19.475C18.0237 19.963 17.6266 20.3601 17.1384 20.3601H6.8614C6.37339 20.3601 5.9763 19.963 5.9763 19.475V10.3946C5.9763 9.90639 6.37339 9.5093 6.8614 9.5093H9.93068V11.8057C9.93068 12.0966 10.1673 12.3333 10.4582 12.3333H13.5416C13.8325 12.3333 14.0693 12.0966 14.0693 11.8057V9.5093H17.1384C17.6266 9.5093 18.0237 9.90639 18.0237 10.3946V19.475H18.0237Z" fill="#0400F5"/>
<path d="M10.7084 17.0161H7.14619C6.84909 17.0161 6.60742 17.2578 6.60742 17.5547V19.0079C6.60742 19.3048 6.84909 19.5465 7.14619 19.5465H10.7084C11.0053 19.5465 11.247 19.3048 11.247 19.0079V17.5547C11.247 17.2578 11.0053 17.0161 10.7084 17.0161ZM10.8182 19.0079C10.8182 19.0685 10.769 19.1178 10.7084 19.1178H7.14619C7.08558 19.1178 7.03615 19.0685 7.03615 19.0079V17.5547C7.03615 17.4941 7.08555 17.4448 7.14619 17.4448H10.7084C10.769 17.4448 10.8182 17.4941 10.8182 17.5547V19.0079Z" fill="#0400F5"/>
<path d="M10.3242 17.7217H7.53006C7.41165 17.7217 7.31567 17.8177 7.31567 17.9361C7.31567 18.0545 7.41165 18.1504 7.53006 18.1504H10.3242C10.4426 18.1504 10.5386 18.0545 10.5386 17.9361C10.5386 17.8177 10.4426 17.7217 10.3242 17.7217Z" fill="#0400F5"/>
<path d="M9.28921 18.4116H7.53006C7.41165 18.4116 7.31567 18.5076 7.31567 18.626C7.31567 18.7444 7.41165 18.8404 7.53006 18.8404H9.28921C9.40761 18.8404 9.50359 18.7444 9.50359 18.626C9.50355 18.5076 9.40761 18.4116 9.28921 18.4116Z" fill="#0400F5"/>
<path d="M9.25285 8.37982H10.1008C10.4143 8.37982 10.6694 8.12476 10.6694 7.81106V5.74697H10.9725C11.1388 5.74697 11.2875 5.65419 11.3605 5.50481C11.4337 5.35561 11.4158 5.18127 11.314 5.05014L10.0184 3.37842C9.9358 3.2719 9.81138 3.21094 9.67673 3.21094H9.67656C9.54191 3.21094 9.41749 3.27207 9.33526 3.37842L8.0395 5.05014C7.93769 5.18145 7.91994 5.35579 7.9931 5.50499C8.06629 5.65419 8.215 5.747 8.38112 5.747H8.68409V7.81113C8.68413 8.12476 8.93919 8.37982 9.25285 8.37982ZM8.37848 5.31272L9.6794 3.641L10.9748 5.3181C10.9748 5.3181 10.9741 5.31827 10.9724 5.31827H10.4549C10.3365 5.31827 10.2406 5.41425 10.2406 5.53266V7.81113C10.2406 7.88834 10.1778 7.95113 10.1007 7.95113H9.25278C9.17558 7.95113 9.11279 7.88834 9.11279 7.81113V5.53259C9.11279 5.41418 9.01681 5.3182 8.89841 5.3182L8.37848 5.31272Z" fill="#0400F5"/>
<path d="M13.8991 8.37986H14.747C15.0605 8.37986 15.3156 8.1248 15.3156 7.8111V5.747H15.6187C15.7849 5.747 15.9334 5.65423 16.0066 5.50499C16.0798 5.35579 16.062 5.18145 15.9602 5.05014L14.6646 3.37842C14.5821 3.2719 14.4576 3.21094 14.323 3.21094C14.1883 3.21094 14.0639 3.2719 13.9813 3.37842L12.6857 5.05014C12.5839 5.18145 12.5662 5.35579 12.6393 5.50499C12.7125 5.65419 12.8612 5.747 13.0274 5.747H13.3303V7.81113C13.3304 8.1248 13.5854 8.37986 13.8991 8.37986ZM13.0247 5.31275L14.3256 3.64104L15.6209 5.31813C15.6209 5.31813 15.6202 5.31831 15.6187 5.31831H15.1012C14.9828 5.31831 14.8868 5.41429 14.8868 5.53269V7.81117C14.8868 7.88837 14.824 7.95116 14.747 7.95116H13.8991C13.8219 7.95116 13.7591 7.88837 13.7591 7.81117V5.53262C13.7591 5.41421 13.6631 5.31824 13.5447 5.31824L13.0247 5.31275Z" fill="#0400F5"/>
</svg>
