<svg width="25" height="25" viewBox="0 0 25 25" fill="none" xmlns="http://www.w3.org/2000/svg">
<rect width="25" height="25" rx="5" fill="#EFF6FF"/>
<path d="M20.0995 7.92788C19.5341 6.73813 17.7861 7.61169 18.287 8.79308C18.5859 9.46698 18.6241 10.4852 18.6183 11.062C18.4479 11.0184 18.2688 11.0209 18.0997 11.0695C17.9306 11.118 17.7774 11.2108 17.6561 11.3383L16.6577 12.3823C16.4746 12.5738 16.2427 12.7118 15.987 12.7814L15.14 13.0129C14.8068 13.1043 14.5103 13.2969 14.2913 13.564C14.0724 13.8312 13.9417 14.1597 13.9175 14.5043L13.7222 17.2711C13.5815 17.3403 13.4629 17.4474 13.3798 17.5804C13.2968 17.7134 13.2525 17.867 13.252 18.0238V18.943C13.2522 19.1667 13.3412 19.3812 13.4994 19.5394C13.6575 19.6976 13.872 19.7866 14.0957 19.7868H17.0098C17.2335 19.7866 17.448 19.6976 17.6062 19.5394C17.7644 19.3812 17.8533 19.1667 17.8536 18.943V18.0238C17.8532 17.8949 17.8231 17.7678 17.7657 17.6524C17.7082 17.537 17.625 17.4364 17.5225 17.3583C17.5085 17.2431 17.521 17.1263 17.5589 17.0166C17.5969 16.9069 17.6593 16.8074 17.7415 16.7255L19.537 15.1344C21.6091 13.3344 20.7895 9.19908 20.0995 7.92788ZM17.2911 18.943C17.291 19.0176 17.2614 19.0891 17.2086 19.1419C17.1559 19.1946 17.0844 19.2242 17.0098 19.2243H14.0957C14.0211 19.2242 13.9496 19.1946 13.8969 19.1419C13.8442 19.0891 13.8145 19.0176 13.8145 18.943V18.0238C13.8145 17.9492 13.8442 17.8777 13.8969 17.825C13.9496 17.7722 14.0211 17.7426 14.0957 17.7425H17.0098C17.0844 17.7426 17.1559 17.7722 17.2086 17.825C17.2614 17.8777 17.291 17.9492 17.2911 18.0238V18.943ZM19.9223 13.6202C19.7613 14.0405 19.5011 14.4156 19.1637 14.7136L17.3696 16.3036C17.2453 16.4137 17.1453 16.5485 17.076 16.6994C17.0066 16.8503 16.9695 17.014 16.9668 17.18H14.2924L14.4786 14.5436C14.4946 14.3153 14.5812 14.0976 14.7263 13.9207C14.8714 13.7437 15.0679 13.6161 15.2886 13.5556L16.1345 13.3241C16.848 13.1932 17.571 12.1991 18.0626 11.727C18.1032 11.6844 18.1521 11.6505 18.2062 11.6275C18.2603 11.6044 18.3186 11.5927 18.3774 11.5929C18.4628 11.5944 18.546 11.6207 18.6166 11.6688C18.6873 11.7168 18.7423 11.7845 18.775 11.8634C18.8077 11.9424 18.8167 12.0291 18.8007 12.1131C18.7848 12.197 18.7446 12.2745 18.6853 12.3359L17.0098 14.0113C16.9588 14.0644 16.9306 14.1354 16.9314 14.209C16.9321 14.2826 16.9617 14.353 17.0138 14.4051C17.0658 14.4572 17.1362 14.4867 17.2099 14.4875C17.2835 14.4882 17.3545 14.46 17.4076 14.409L19.0833 12.7333C19.2532 12.5635 19.3557 12.3378 19.3719 12.0981C19.388 11.8584 19.3167 11.621 19.171 11.43C19.1917 11.012 19.2297 9.53134 18.802 8.567C18.7726 8.4911 18.7633 8.40891 18.775 8.32836C18.7866 8.24781 18.8189 8.17164 18.8686 8.10719C18.9183 8.04274 18.9838 7.9922 19.0587 7.96045C19.1336 7.9287 19.2155 7.91681 19.2964 7.92594C19.3596 7.93733 19.419 7.96418 19.4693 8.0041C19.5197 8.04402 19.5593 8.09577 19.5848 8.15474C20.0671 9.24899 20.7523 11.4144 19.9223 13.6202Z" fill="#0400F5"/>
<path d="M12.2779 17.2712L12.0827 14.505C12.0585 14.1603 11.9279 13.8315 11.7088 13.5643C11.4898 13.297 11.1931 13.1044 10.8597 13.0131C10.4036 12.8762 9.66556 12.7706 9.34268 12.3825L8.34415 11.3388C8.2526 11.2423 8.14256 11.1654 8.0206 11.1124C7.89863 11.0595 7.76725 11.0316 7.6343 11.0306C7.54911 11.0325 7.46444 11.0443 7.38202 11.066C7.37608 10.4898 7.41386 9.46818 7.71394 8.79159C8.21417 7.6168 6.46536 6.73553 5.9005 7.92809C5.2099 9.19574 4.39075 13.3375 6.46349 15.1346L8.25956 16.7264C8.3229 16.7828 8.3742 16.8513 8.41035 16.928C8.4465 17.0046 8.46677 17.0878 8.46993 17.1725L8.47759 17.3586C8.37508 17.4367 8.29192 17.5373 8.23453 17.6527C8.17715 17.7681 8.14709 17.8951 8.14667 18.024V18.9432C8.14692 19.1669 8.23589 19.3814 8.39407 19.5396C8.55225 19.6978 8.76672 19.7867 8.99042 19.787H11.9046C12.1283 19.7867 12.3427 19.6978 12.5009 19.5396C12.6591 19.3814 12.7481 19.1669 12.7483 18.9432V18.024C12.7478 17.8671 12.7035 17.7136 12.6204 17.5805C12.5373 17.4475 12.4187 17.3404 12.2779 17.2712ZM6.83655 14.7138C4.98497 13.0272 5.80958 9.31109 6.41527 8.15496C6.44146 8.09664 6.48137 8.04551 6.5316 8.00595C6.58182 7.96639 6.64087 7.93956 6.70371 7.92777C6.76655 7.91597 6.83131 7.91956 6.89247 7.93822C6.95362 7.95687 7.00935 7.99005 7.05491 8.03491C7.13647 8.09308 7.19539 8.17769 7.22165 8.27437C7.24791 8.37105 7.23989 8.47384 7.19895 8.56527C6.77061 9.53124 6.80843 11.0123 6.82911 11.4302C6.68445 11.6217 6.61373 11.859 6.62993 12.0984C6.64614 12.3379 6.74818 12.5635 6.91732 12.7338L8.59259 14.4092C8.64568 14.4602 8.71666 14.4883 8.79027 14.4876C8.86389 14.4868 8.93428 14.4572 8.98633 14.4052C9.03839 14.3531 9.06796 14.2827 9.06869 14.2091C9.06943 14.1355 9.04128 14.0645 8.99027 14.0114L7.31501 12.336C7.27422 12.2953 7.24192 12.2469 7.21998 12.1937C7.19804 12.1404 7.18689 12.0833 7.18719 12.0257C7.18748 11.968 7.19921 11.9111 7.2217 11.858C7.24418 11.8049 7.27698 11.7569 7.31818 11.7166C7.35938 11.6763 7.40817 11.6446 7.46171 11.6233C7.51526 11.6021 7.57249 11.5916 7.63011 11.5926C7.68772 11.5936 7.74456 11.6061 7.79733 11.6292C7.8501 11.6523 7.89775 11.6857 7.93752 11.7274C8.43214 12.2017 9.14874 13.1907 9.86493 13.3243L10.7113 13.5558C10.9321 13.6162 11.1287 13.7438 11.2738 13.9208C11.419 14.0979 11.5056 14.3156 11.5215 14.544L11.7076 17.1802H9.03313C9.03063 17.0144 8.99364 16.8509 8.9245 16.7002C8.85537 16.5495 8.75561 16.4149 8.63158 16.3048L6.83655 14.7138ZM12.1858 18.9432C12.1857 19.0178 12.1561 19.0893 12.1033 19.142C12.0506 19.1947 11.9791 19.2244 11.9046 19.2245H8.99042C8.91585 19.2244 8.84436 19.1947 8.79163 19.142C8.7389 19.0893 8.70925 19.0178 8.70917 18.9432V18.024C8.70925 17.9494 8.7389 17.8779 8.79163 17.8252C8.84436 17.7724 8.91585 17.7428 8.99042 17.7427H11.9046C11.9791 17.7428 12.0506 17.7724 12.1033 17.8252C12.1561 17.8779 12.1857 17.9494 12.1858 18.024V18.9432Z" fill="#0400F5"/>
<path d="M16.559 8.72232C16.5579 7.77877 16.1826 6.87417 15.5154 6.20701C14.8481 5.53984 13.9435 5.16459 13 5.16357C8.27848 5.35894 8.28013 12.0866 13 12.2813C13.9436 12.2803 14.8482 11.9049 15.5154 11.2377C16.1826 10.5705 16.5579 9.6659 16.559 8.72232ZM13 11.7188C12.2055 11.7179 11.4439 11.4019 10.8822 10.8402C10.3204 10.2784 10.0045 9.51676 10.0036 8.72232C10.1682 4.74732 15.8325 4.74863 15.9965 8.72234C15.9956 9.5168 15.6796 10.2785 15.1179 10.8402C14.5561 11.402 13.7944 11.718 13 11.7188Z" fill="#0400F5"/>
<path d="M12.9977 7.54831C13.0565 7.5479 13.1149 7.55912 13.1693 7.58133C13.2238 7.60353 13.2734 7.63629 13.3151 7.67771C13.3569 7.71912 13.3901 7.76839 13.4128 7.82267C13.4354 7.87696 13.4472 7.93518 13.4473 7.99401C13.4487 8.06765 13.479 8.1378 13.5316 8.18937C13.5841 8.24094 13.6549 8.26983 13.7285 8.26982C13.8022 8.26982 13.8729 8.24093 13.9255 8.18936C13.9781 8.13778 14.0083 8.06764 14.0098 7.994C14.009 7.77618 13.9376 7.56449 13.8062 7.39073C13.6749 7.21696 13.4907 7.09051 13.2814 7.03036V6.61029C13.2799 6.53664 13.2497 6.4665 13.1971 6.41493C13.1445 6.36336 13.0738 6.33447 13.0001 6.33447C12.9265 6.33447 12.8557 6.36337 12.8032 6.41494C12.7506 6.46652 12.7203 6.53666 12.7189 6.6103V7.03003C12.4854 7.09715 12.284 7.24646 12.152 7.45042C12.02 7.65438 11.9662 7.89922 12.0006 8.13972C12.035 8.38023 12.1552 8.60018 12.3391 8.75897C12.523 8.91776 12.7581 9.00467 13.0011 9.00365C13.0895 9.00384 13.1758 9.03023 13.2492 9.07948C13.3226 9.12873 13.3798 9.19863 13.4135 9.28035C13.4472 9.36207 13.4559 9.45195 13.4386 9.53863C13.4212 9.6253 13.3785 9.70488 13.316 9.76732C13.2534 9.82976 13.1737 9.87225 13.087 9.88942C13.0003 9.90659 12.9104 9.89768 12.8288 9.86381C12.7471 9.82993 12.6773 9.77262 12.6283 9.6991C12.5792 9.62559 12.553 9.53918 12.553 9.45078C12.5528 9.37619 12.5231 9.30471 12.4702 9.25207C12.4174 9.19943 12.3458 9.16994 12.2712 9.17009C12.1966 9.17024 12.1251 9.20002 12.0725 9.25287C12.0198 9.30572 11.9903 9.37731 11.9905 9.45191C11.9913 9.66972 12.0627 9.8814 12.194 10.0552C12.3254 10.2289 12.5095 10.3554 12.7189 10.4156V10.8348C12.7189 10.9094 12.7485 10.9809 12.8012 11.0337C12.854 11.0864 12.9255 11.1161 13.0001 11.1161C13.0747 11.1161 13.1463 11.0864 13.199 11.0337C13.2517 10.9809 13.2814 10.9094 13.2814 10.8348V10.4159C13.5149 10.3486 13.7162 10.1992 13.8482 9.99519C13.9802 9.79116 14.034 9.54627 13.9996 9.3057C13.9653 9.06513 13.845 8.84511 13.6612 8.68622C13.4773 8.52733 13.2422 8.44029 12.9992 8.44115C12.882 8.4394 12.7703 8.3917 12.688 8.30832C12.6058 8.22494 12.5595 8.11257 12.5594 7.99544C12.5592 7.87831 12.605 7.76579 12.687 7.68215C12.769 7.59851 12.8806 7.55044 12.9977 7.54831Z" fill="#0400F5"/>
</svg>
