<svg width="25" height="25" viewBox="0 0 25 25" fill="none" xmlns="http://www.w3.org/2000/svg">
<rect width="25" height="25" rx="5" fill="#EFF6FF"/>
<path d="M12.9998 10.8838C12.3844 10.8838 11.8838 11.3844 11.8838 11.9998C11.8838 12.6152 12.3844 13.1158 12.9998 13.1158C13.6152 13.1158 14.1158 12.6152 14.1158 11.9998C14.1158 11.3844 13.6152 10.8838 12.9998 10.8838ZM12.9998 12.5884C12.6752 12.5884 12.4111 12.3244 12.4111 11.9998C12.4111 11.6752 12.6752 11.4111 12.9998 11.4111C13.3244 11.4111 13.5884 11.6752 13.5884 11.9998C13.5884 12.3244 13.3244 12.5884 12.9998 12.5884Z" fill="#0400F5"/>
<path d="M19.0878 14.8795V13.4206C19.0878 12.4919 18.3323 11.7363 17.4036 11.7363H16.3177V11.7159C16.3177 11.4138 16.072 11.1681 15.77 11.1681H15.3967C15.3642 11.0747 15.3261 10.9831 15.2826 10.8937L15.5469 10.6295C15.6503 10.526 15.7073 10.3885 15.7073 10.2422C15.7073 10.0958 15.6503 9.95827 15.5469 9.8548L15.1451 9.453C14.9315 9.23943 14.584 9.2395 14.3704 9.453L14.1062 9.71723C14.0168 9.67375 13.9252 9.63567 13.8318 9.60315L13.8321 7.74321C13.8321 7.59759 13.714 7.47954 13.5684 7.47954C13.4227 7.47954 13.3047 7.59759 13.3047 7.74321V8.68315C13.2978 8.6829 13.291 8.68209 13.284 8.68209H12.7158C12.7088 8.68209 12.702 8.68287 12.6951 8.68315V5.16281C12.6951 5.05615 12.6309 4.96003 12.5323 4.91921C12.4338 4.87836 12.3204 4.90097 12.245 4.97638L11.8385 5.38282C11.8375 5.38384 11.8351 5.38627 11.8303 5.38627C11.8254 5.38627 11.823 5.38388 11.8219 5.38279L11.432 4.99294C11.4274 4.98833 11.4274 4.98049 11.432 4.97592L12.7965 3.61147C12.8507 3.55723 12.923 3.52734 12.9999 3.52734C13.0768 3.52734 13.1491 3.55723 13.2033 3.61147L14.5678 4.97589C14.5724 4.98049 14.5724 4.98833 14.5678 4.9929L14.1778 5.38282C14.1768 5.38384 14.1744 5.38627 14.1695 5.38627C14.1647 5.38627 14.1623 5.38387 14.1613 5.38282L13.7548 4.97641C13.6794 4.90097 13.566 4.8784 13.4675 4.91925C13.3689 4.96007 13.3047 5.05622 13.3047 5.16285V6.51285C13.3047 6.65846 13.4227 6.77652 13.5684 6.77652C13.714 6.77652 13.8321 6.65846 13.8321 6.51285V5.79492C13.9275 5.87181 14.0453 5.91357 14.1695 5.91357C14.3136 5.91357 14.4489 5.8575 14.5507 5.75569L14.9407 5.36577C15.1509 5.1555 15.1509 4.81332 14.9407 4.60302L13.5763 3.23861C13.4224 3.08473 13.2177 3 12.9999 3C12.7821 3 12.5774 3.08473 12.4236 3.23861L11.0591 4.60305C10.8489 4.81332 10.8489 5.1555 11.0591 5.36584L11.449 5.75569C11.5508 5.85754 11.6862 5.91361 11.8303 5.91361C11.9545 5.91361 12.0724 5.87184 12.1678 5.79496L12.168 9.60322C12.0746 9.63574 11.983 9.67382 11.8936 9.71731L11.6294 9.45303C11.4158 9.23946 11.0683 9.23953 10.8547 9.45303L10.4529 9.8548C10.3495 9.95827 10.2925 10.0958 10.2925 10.2422C10.2925 10.3885 10.3495 10.526 10.4529 10.6295L10.7172 10.8937C10.6737 10.9831 10.6356 11.0747 10.6031 11.1681H10.2298C9.92777 11.1681 9.68207 11.4138 9.68207 11.7159V11.7363H8.59623C7.66754 11.7363 6.912 12.4919 6.912 13.4206V14.8795C5.95104 15.0088 5.20752 15.8338 5.20752 16.8298C5.20752 17.9151 6.09036 18.7982 7.17557 18.7982C8.26095 18.7982 9.14397 17.9151 9.14397 16.8298C9.14397 16.5487 9.08589 16.2771 8.97135 16.0224C8.91165 15.8895 8.75559 15.8304 8.62274 15.89C8.48995 15.9498 8.43068 16.1059 8.49041 16.2387C8.57415 16.4249 8.61662 16.6238 8.61662 16.8298C8.61662 17.6244 7.97017 18.2708 7.17557 18.2708C6.38114 18.2708 5.73486 17.6244 5.73486 16.8298C5.73486 16.0352 6.38118 15.3887 7.17557 15.3887C7.38176 15.3887 7.58053 15.4312 7.76633 15.5151C7.89908 15.5751 8.05525 15.516 8.11515 15.3833C8.17506 15.2506 8.11603 15.0944 7.98332 15.0345C7.80933 14.9559 7.62711 14.9045 7.43934 14.8795V13.4206C7.43934 12.7826 7.95832 12.2637 8.59623 12.2637H9.68207V12.2841C9.68207 12.5862 9.92777 12.8319 10.2298 12.8319H10.6031C10.6356 12.9253 10.6737 13.0169 10.7172 13.1063L10.4529 13.3705C10.3495 13.474 10.2925 13.6115 10.2925 13.7578C10.2925 13.9042 10.3495 14.0417 10.4529 14.1452L10.8547 14.547C11.0683 14.7606 11.4158 14.7605 11.6294 14.547L11.8936 14.2828C11.983 14.3263 12.0746 14.3643 12.168 14.3968V14.7701C12.168 15.0722 12.4137 15.3179 12.7158 15.3179H12.7362V17.0816C11.7752 17.2109 11.0316 18.0359 11.0316 19.0317C11.0316 20.117 11.9146 21 12.9999 21C14.0852 21 14.9682 20.117 14.9682 19.0317C14.9682 18.0358 14.2246 17.2108 13.2636 17.0815V15.3178H13.284C13.5861 15.3178 13.8318 15.0721 13.8318 14.77V14.3968C13.9252 14.3643 14.0168 14.3262 14.1062 14.2827L14.3704 14.547C14.584 14.7605 14.9315 14.7605 15.1451 14.547L15.5469 14.1452C15.6503 14.0417 15.7073 13.9042 15.7073 13.7578C15.7073 13.6115 15.6503 13.474 15.5469 13.3705L15.2826 13.1063C15.3261 13.0169 15.3642 12.9253 15.3967 12.8319H15.77C16.072 12.8319 16.3177 12.5862 16.3177 12.2841V12.2637H17.4036C18.0415 12.2637 18.5605 12.7826 18.5605 13.4206V14.8792C18.2684 14.9184 17.9892 15.0223 17.7414 15.1859C17.6198 15.2661 17.5864 15.4296 17.6665 15.5512C17.7468 15.6727 17.9103 15.7062 18.0319 15.6259C18.267 15.4707 18.541 15.3887 18.8242 15.3887C19.6187 15.3887 20.2649 16.0351 20.2649 16.8297C20.2649 17.6243 19.6186 18.2708 18.8242 18.2708C18.0296 18.2708 17.3832 17.6243 17.3832 16.8297C17.3832 16.703 17.3998 16.577 17.4325 16.4552C17.4703 16.3146 17.3869 16.1699 17.2463 16.1321C17.1056 16.0943 16.961 16.1777 16.9232 16.3183C16.8785 16.4848 16.8558 16.6569 16.8558 16.8297C16.8558 17.9151 17.7389 18.7981 18.8242 18.7981C19.9094 18.7981 20.7923 17.9151 20.7923 16.8297C20.7923 15.8338 20.0488 15.0088 19.0878 14.8795ZM14.4409 19.0317C14.4409 19.8262 13.7945 20.4727 12.9999 20.4727C12.2053 20.4727 11.5589 19.8262 11.5589 19.0317C11.5589 18.2371 12.2054 17.5907 12.9999 17.5907C13.7944 17.5907 14.4409 18.2371 14.4409 19.0317ZM15.7904 12.2841C15.7904 12.2954 15.7812 12.3046 15.77 12.3046H15.2011C15.0808 12.3046 14.9758 12.386 14.9458 12.5025C14.8993 12.6831 14.8269 12.8572 14.7307 13.0201C14.6695 13.1237 14.6861 13.2556 14.7712 13.3407L15.174 13.7434C15.1754 13.7449 15.1799 13.7494 15.1799 13.7578C15.1799 13.7663 15.1754 13.7708 15.1739 13.7723L14.7722 14.1741C14.7642 14.182 14.7512 14.1821 14.7433 14.1741L14.3406 13.7713C14.2554 13.6863 14.1236 13.6695 14.02 13.7308C13.857 13.827 13.6829 13.8994 13.5024 13.9459C13.3859 13.9759 13.3044 14.0809 13.3044 14.2012V14.77C13.3044 14.7813 13.2952 14.7905 13.284 14.7905H12.7158C12.7045 14.7905 12.6953 14.7813 12.6953 14.77V14.2012C12.6953 14.0809 12.6139 13.9759 12.4974 13.9459C12.3168 13.8994 12.1427 13.827 11.9798 13.7308C11.938 13.7061 11.8917 13.6941 11.8458 13.6941C11.7776 13.6941 11.71 13.7205 11.6592 13.7713L11.2565 14.1741C11.2485 14.182 11.2355 14.1821 11.2276 14.1741L10.8258 13.7723C10.8243 13.7708 10.8198 13.7663 10.8198 13.7578C10.8198 13.7493 10.8243 13.7448 10.8258 13.7434L11.2285 13.3406C11.3136 13.2556 11.3303 13.1237 11.2691 13.0201C11.1728 12.8572 11.1004 12.6831 11.054 12.5025C11.0239 12.386 10.9189 12.3045 10.7986 12.3045H10.2298C10.2185 12.3045 10.2093 12.2953 10.2093 12.2841V11.7159C10.2093 11.7046 10.2185 11.6954 10.2298 11.6954H10.7986C10.9189 11.6954 11.0239 11.614 11.054 11.4975C11.1004 11.3169 11.1728 11.1428 11.2691 10.9799C11.3303 10.8763 11.3136 10.7444 11.2285 10.6593L10.8258 10.2566C10.8243 10.2551 10.8198 10.2506 10.8198 10.2422C10.8198 10.2337 10.8243 10.2292 10.8258 10.2277L11.2276 9.82594C11.2355 9.81799 11.2486 9.81792 11.2565 9.82594L11.6592 10.2287C11.7443 10.3137 11.8761 10.3305 11.9798 10.2692C12.1427 10.173 12.3168 10.1006 12.4974 10.0541C12.6139 10.0241 12.6953 9.91907 12.6953 9.79876V9.22997C12.6953 9.21868 12.7045 9.20951 12.7158 9.20951H13.284C13.2952 9.20951 13.3044 9.21868 13.3044 9.22997V9.79876C13.3044 9.91907 13.3858 10.0241 13.5024 10.0541C13.6829 10.1006 13.857 10.173 14.02 10.2692C14.1235 10.3304 14.2555 10.3137 14.3406 10.2287L14.7432 9.82594C14.7512 9.81799 14.7642 9.81792 14.7721 9.82594L15.174 10.2277C15.1754 10.2292 15.1799 10.2337 15.1799 10.2422C15.1799 10.2507 15.1754 10.2552 15.174 10.2566L14.7712 10.6594C14.6861 10.7444 14.6694 10.8763 14.7307 10.9799C14.8269 11.1428 14.8993 11.3169 14.9458 11.4975C14.9758 11.614 15.0808 11.6955 15.2011 11.6955H15.77C15.7812 11.6955 15.7904 11.7047 15.7904 11.7159V12.2841Z" fill="#0400F5"/>
</svg>
