<svg width="25" height="25" viewBox="0 0 25 25" fill="none" xmlns="http://www.w3.org/2000/svg">
<rect width="25" height="25" rx="5" fill="#EFF6FF"/>
<g clip-path="url(#clip0_48_6240)">
<path fill-rule="evenodd" clip-rule="evenodd" d="M6.64107 18.6104L6.39892 18.7502C5.39709 19.3286 4.1048 18.9811 3.52721 17.9807C2.94962 16.9803 3.29487 15.6874 4.29669 15.109C4.56849 14.9521 5.65566 14.3244 5.92749 14.1674C6.92561 13.2717 7.65225 12.0219 8.29643 10.9034C8.29883 10.8986 8.30138 10.8939 8.30406 10.8893C8.36311 10.7866 8.42183 10.6851 8.47996 10.5851C8.55023 10.4637 8.61969 10.3445 8.68862 10.2281C8.6888 10.2278 8.68901 10.2275 8.68919 10.2272L8.68933 10.2269C8.84611 9.96302 9.1076 9.81517 9.41293 9.81732C9.71822 9.81948 9.97873 9.97078 10.1311 10.2346L11.1473 11.9949C11.7561 11.7698 12.4565 12.0089 12.7921 12.59C13.1276 13.1712 12.9845 13.8973 12.4851 14.312L13.5014 16.0722C13.6582 16.3438 13.6544 16.6553 13.4919 16.9227C13.3296 17.1897 13.0578 17.3365 12.7443 17.3242H12.7442L12.7437 17.3242C12.6142 17.3192 12.4841 17.314 12.3536 17.3093C11.029 17.264 9.65678 17.279 8.32908 17.7044L9.81818 20.2835C9.89614 20.4185 9.84987 20.5912 9.7148 20.6692L9.41159 20.8443C8.80029 21.1972 8.01278 20.9862 7.65983 20.3749L6.64107 18.6104ZM5.99046 14.7831L4.57905 15.598C3.8463 16.021 3.59385 16.9667 4.01625 17.6983C4.43868 18.43 5.38386 18.6842 6.11656 18.2611L7.52798 17.4462L5.99046 14.7831ZM8.54759 11.5926C7.96403 12.5883 7.30206 13.6404 6.45129 14.4519L8.04069 17.2048C9.18299 16.8193 10.358 16.7259 11.5127 16.7284L8.54759 11.5926ZM13.0123 16.3546L9.64199 10.517C9.59261 10.4314 9.50794 10.3827 9.40898 10.382C9.31015 10.3813 9.22591 10.4297 9.17508 10.5149L9.17487 10.5153C9.07721 10.6816 8.97669 10.8537 8.8748 11.03L12.1705 16.7382C12.2657 16.7411 12.3608 16.7445 12.4557 16.748C12.5595 16.7517 12.663 16.7557 12.7662 16.7599H12.7664C12.8683 16.7639 12.9566 16.7162 13.0093 16.6294C13.0618 16.543 13.063 16.4423 13.0123 16.3546ZM12.1955 13.8104C12.4279 13.5622 12.4818 13.1821 12.303 12.8724C12.1242 12.5627 11.768 12.4193 11.4369 12.4965L12.1955 13.8104ZM7.13014 18.328L8.1489 20.0926C8.34641 20.4346 8.78713 20.5527 9.12923 20.3552L9.18793 20.3213L7.81033 17.9353L7.13014 18.328ZM20.753 8.72352C20.753 9.1959 20.3678 9.58022 19.8954 9.58022H17.4171L16.3752 10.6648C16.2954 10.748 16.173 10.7742 16.0662 10.7312C15.9592 10.6881 15.8892 10.5845 15.8892 10.4692V9.58022H15.6851C15.2127 9.58022 14.8275 9.1959 14.8275 8.72352V5.84211C14.8275 5.36984 15.2128 4.9845 15.6851 4.9845H19.8954C20.3676 4.9845 20.753 5.36984 20.753 5.84211V8.72352ZM20.1883 8.72352V5.84211C20.1883 5.68082 20.0566 5.5492 19.8954 5.5492H15.6851C15.5238 5.5492 15.3922 5.68082 15.3922 5.84211V8.72352C15.3922 8.88467 15.5239 9.01551 15.6851 9.01551H16.1716C16.3275 9.01551 16.4539 9.14193 16.4539 9.29786V9.76773L17.0932 9.10226C17.1464 9.04685 17.22 9.01551 17.2968 9.01551H19.8954C20.0565 9.01551 20.1883 8.88467 20.1883 8.72352ZM16.2307 6.66227C16.0749 6.66227 15.9484 6.53575 15.9484 6.37992C15.9484 6.2241 16.0749 6.09757 16.2307 6.09757H19.2992C19.4551 6.09757 19.5816 6.2241 19.5816 6.37992C19.5816 6.53575 19.4551 6.66227 19.2992 6.66227H16.2307ZM16.2307 7.57516C16.0749 7.57516 15.9484 7.44866 15.9484 7.2928C15.9484 7.13698 16.0749 7.01045 16.2307 7.01045H19.2992C19.4551 7.01045 19.5816 7.13698 19.5816 7.2928C19.5816 7.44866 19.4551 7.57516 19.2992 7.57516H16.2307ZM16.2307 8.48719C16.0749 8.48719 15.9484 8.36066 15.9484 8.20484C15.9484 8.04902 16.0749 7.92249 16.2307 7.92249H19.2992C19.4551 7.92249 19.5816 8.04902 19.5816 8.20484C19.5816 8.36066 19.4551 8.48719 19.2992 8.48719H16.2307ZM18.0901 11.1298C19.5598 11.1298 20.753 12.323 20.753 13.7927C20.753 15.2624 19.5598 16.4556 18.0901 16.4556C16.6204 16.4556 15.4272 15.2624 15.4272 13.7927C15.4272 12.323 16.6204 11.1298 18.0901 11.1298ZM18.0901 11.6945C16.9321 11.6945 15.9919 12.6347 15.9919 13.7927C15.9919 14.9507 16.9321 15.8909 18.0901 15.8909C19.2481 15.8909 20.1883 14.9507 20.1883 13.7927C20.1883 12.6347 19.2481 11.6945 18.0901 11.6945ZM19.3161 14.0372L17.5985 15.0289C17.5111 15.0794 17.4035 15.0794 17.3161 15.0289C17.2288 14.9785 17.175 14.8853 17.175 14.7844V12.801C17.175 12.7001 17.2288 12.6069 17.3161 12.5565C17.4035 12.5061 17.5111 12.5061 17.5985 12.5565L19.3161 13.5482C19.4035 13.5986 19.4573 13.6918 19.4573 13.7927C19.4573 13.8936 19.4035 13.9868 19.3161 14.0372ZM18.6103 13.7927L17.7397 13.2901V14.2954L18.6103 13.7927ZM10.8271 9.87729C10.2668 9.54778 9.42528 8.96119 8.83569 8.27448C8.41026 7.77891 8.11926 7.22867 8.1093 6.68483C8.09462 5.87073 8.55366 5.28471 9.17956 5.0715C9.72267 4.88649 10.4078 4.98189 11.0232 5.49549C11.6385 4.98249 12.3237 4.88705 12.867 5.07189C13.4933 5.28492 13.9526 5.87066 13.9379 6.68479C13.928 7.22864 13.637 7.77891 13.2115 8.27448C12.622 8.96119 11.7805 9.54778 11.2203 9.87718C11.0961 9.95123 10.9514 9.95126 10.8271 9.87729ZM11.0236 9.33697C11.5406 9.02395 12.2669 8.50787 12.7831 7.9066C13.1156 7.51925 13.3656 7.09964 13.3733 6.67456C13.383 6.14028 13.0962 5.74632 12.6852 5.60649C12.2512 5.45889 11.7014 5.5924 11.2244 6.07731C11.1712 6.13127 11.0987 6.16166 11.023 6.16163C10.9473 6.16163 10.8748 6.1312 10.8217 6.0772C10.3448 5.59191 9.79531 5.45832 9.36165 5.60603C8.95082 5.74597 8.66431 6.14024 8.67394 6.67456C8.6817 7.09964 8.93162 7.51925 9.26416 7.9066C9.78034 8.50787 10.5067 9.02395 11.0236 9.33697ZM12.4978 10.9489C12.4575 11.0995 12.3025 11.1889 12.152 11.1486C12.0015 11.1082 11.912 10.9533 11.9523 10.8028L12.2218 9.79696C12.2622 9.64643 12.4171 9.55696 12.5677 9.5973C12.7182 9.63764 12.8076 9.79258 12.7673 9.94311L12.4978 10.9489ZM13.9171 14.2207C13.7666 14.1802 13.6773 14.0251 13.7178 13.8746C13.7583 13.7242 13.9133 13.6348 14.0638 13.6753L15.0703 13.9461C15.2208 13.9866 15.3101 14.1416 15.2696 14.2921C15.2292 14.4426 15.0741 14.5319 14.9236 14.4914L13.9171 14.2207ZM13.8846 12.292C13.7496 12.3699 13.5768 12.3236 13.4989 12.1886C13.4209 12.0537 13.4672 11.8808 13.6022 11.8029L14.5057 11.2813C14.6406 11.2034 14.8135 11.2497 14.8914 11.3846C14.9693 11.5196 14.923 11.6924 14.788 11.7704L13.8846 12.292Z" fill="#0400F5"/>
</g>
<defs>
<clipPath id="clip0_48_6240">
<rect width="18" height="18" fill="white" transform="translate(3 4)"/>
</clipPath>
</defs>
</svg>
