<svg width="18" height="18" viewBox="0 0 18 18" fill="none" xmlns="http://www.w3.org/2000/svg">
<path d="M15.8349 5.13041H14.6676V4.83314C14.6676 4.01223 14.1794 3.30314 13.4812 2.97587C13.8494 2.70859 14.0921 2.27223 14.0921 1.78405C14.0921 0.971321 13.4294 0.308594 12.6167 0.308594C11.804 0.308594 11.1412 0.971321 11.1412 1.78405C11.1412 2.27496 11.3812 2.70859 11.7521 2.97587C11.3512 3.16405 11.0212 3.47496 10.8112 3.86223C10.6012 3.47496 10.2712 3.16405 9.87033 2.97587C10.2385 2.70859 10.4812 2.27223 10.4812 1.78405C10.4812 0.971321 9.81851 0.308594 9.00578 0.308594C8.19305 0.308594 7.53033 0.971321 7.53033 1.78405C7.53033 2.27496 7.77033 2.70859 8.14124 2.97587C7.74033 3.16405 7.41033 3.47496 7.20033 3.86223C6.99033 3.47496 6.66033 3.16405 6.25942 2.97587C6.6276 2.70859 6.87033 2.27223 6.87033 1.78405C6.87033 0.971321 6.2076 0.308594 5.39487 0.308594C4.58215 0.308594 3.91942 0.971321 3.91942 1.78405C3.91942 2.27496 4.15942 2.70859 4.53033 2.97587C3.82942 3.30314 3.34396 4.01223 3.34396 4.83314V5.13041H2.16578C2.03487 5.13041 1.92578 5.23678 1.92578 5.37041V6.58678C1.92578 6.71768 2.03214 6.82678 2.16578 6.82678H3.02214L7.53578 11.624C7.56851 11.7168 7.65578 11.7822 7.76215 11.7822C7.89305 11.7822 8.00215 11.6759 8.00215 11.5422V11.5122C8.00215 11.4522 7.98033 11.3922 7.93669 11.3486L3.67669 6.82405H14.324L10.0667 11.3486C10.0258 11.3922 10.0012 11.4522 10.0012 11.5122V11.5422C10.0012 11.6731 10.1076 11.7822 10.2412 11.7822C10.3449 11.7822 10.4349 11.7168 10.4676 11.624L14.9812 6.82678H15.8349C15.9658 6.82678 16.0749 6.72041 16.0749 6.58678V5.37041C16.0721 5.2395 15.9658 5.13041 15.8349 5.13041ZM11.6158 1.78405C11.6158 1.23314 12.0631 0.785867 12.614 0.785867C13.1649 0.785867 13.6121 1.23314 13.6121 1.78405C13.6121 2.33496 13.1649 2.78223 12.614 2.78223C12.0631 2.78223 11.6158 2.33496 11.6158 1.78405ZM12.614 3.2595C13.484 3.2595 14.1903 3.96587 14.1903 4.83587V5.13314H11.054V4.83587C11.054 4.78678 11.0512 4.74041 11.0458 4.69132C11.1194 3.8895 11.7931 3.2595 12.614 3.2595ZM8.00215 1.78405C8.00215 1.23314 8.44942 0.785867 9.00033 0.785867C9.55124 0.785867 9.99851 1.23314 9.99851 1.78405C9.99851 2.33496 9.55124 2.78223 9.00033 2.78223C8.44942 2.78223 8.00215 2.33496 8.00215 1.78405ZM9.00033 3.2595C9.82124 3.2595 10.4949 3.8895 10.5685 4.69132C10.5658 4.73769 10.5603 4.78678 10.5603 4.83587V5.13314H7.44033V4.83587C7.44033 4.78678 7.4376 4.74041 7.43215 4.69132C7.50578 3.8895 8.17942 3.2595 9.00033 3.2595ZM4.38851 1.78405C4.38851 1.23314 4.83578 0.785867 5.38669 0.785867C5.9376 0.785867 6.38487 1.23314 6.38487 1.78405C6.38487 2.33496 5.9376 2.78223 5.38669 2.78223C4.83578 2.78223 4.38851 2.33496 4.38851 1.78405ZM3.81305 4.83314C3.81305 3.96587 4.51942 3.25678 5.38942 3.25678C6.21033 3.25678 6.88396 3.88678 6.9576 4.68859C6.95487 4.73496 6.94942 4.78405 6.94942 4.83314V5.13041H3.81305V4.83314ZM15.5949 6.34678H2.40578V5.60769H15.5976V6.34678H15.5949Z" fill="#0400F5"/>
<path d="M9.00003 12.1699C7.47821 12.1699 6.2373 13.4081 6.2373 14.9326C6.2373 16.4545 7.47549 17.6954 9.00003 17.6954C10.5246 17.6954 11.7628 16.4572 11.7628 14.9326C11.7628 13.4108 10.5246 12.1699 9.00003 12.1699ZM9.00003 17.2181C7.74003 17.2181 6.71458 16.1926 6.71458 14.9326C6.71458 13.6726 7.74003 12.6472 9.00003 12.6472C10.26 12.6472 11.2855 13.6726 11.2855 14.9326C11.2855 16.1926 10.26 17.2181 9.00003 17.2181Z" fill="#0400F5"/>
<path d="M9.00049 13.9337C9.21049 13.9337 9.37958 14.1055 9.37958 14.3128C9.37958 14.4437 9.48594 14.5528 9.61958 14.5528C9.75322 14.5528 9.85958 14.4464 9.85958 14.3128C9.85958 13.9228 9.59776 13.5983 9.24049 13.4946V13.3201C9.24049 13.1892 9.13413 13.0801 9.00049 13.0801C8.86685 13.0801 8.76049 13.1864 8.76049 13.3201V13.4946C8.40322 13.5983 8.1414 13.9255 8.1414 14.3128C8.1414 14.7846 8.52595 15.1692 8.99776 15.1692C9.20776 15.1692 9.37685 15.341 9.37685 15.5483C9.37685 15.7555 9.20504 15.9274 8.99776 15.9274C8.79049 15.9274 8.61867 15.7555 8.61867 15.5483C8.61867 15.4174 8.51231 15.3083 8.37867 15.3083C8.24504 15.3083 8.13867 15.4146 8.13867 15.5483C8.13867 15.9383 8.40049 16.2628 8.75776 16.3664V16.541C8.75776 16.6719 8.86413 16.781 8.99776 16.781C9.1314 16.781 9.23776 16.6746 9.23776 16.541V16.3664C9.59504 16.2628 9.85685 15.9355 9.85685 15.5483C9.85685 15.0764 9.47231 14.6919 9.00049 14.6919C8.79049 14.6919 8.6214 14.5201 8.6214 14.3128C8.6214 14.1055 8.79049 13.9337 9.00049 13.9337Z" fill="#0400F5"/>
</svg>
