<svg width="15" height="15" viewBox="0 0 15 15" fill="none" xmlns="http://www.w3.org/2000/svg">
<g clip-path="url(#clip0_3952_18969)">
<path d="M7.50002 14.6875C6.44868 14.6874 5.41017 14.4566 4.45773 14.0114C3.50528 13.5663 2.66208 12.9176 1.9876 12.1112C1.31311 11.3047 0.823752 10.3601 0.554033 9.34395C0.284314 8.3278 0.2408 7.26485 0.426559 6.23005C0.612319 5.19526 1.02283 4.21381 1.62914 3.35492C2.23545 2.49603 3.02281 1.78061 3.93568 1.2591C4.84856 0.737595 5.86473 0.422703 6.91253 0.33663C7.96034 0.250556 9.01427 0.395397 10 0.760938C10.0193 0.76812 10.037 0.77903 10.0521 0.793047C10.0671 0.807063 10.0793 0.82391 10.0879 0.842627C10.0964 0.861344 10.1012 0.881563 10.102 0.902131C10.1027 0.922699 10.0994 0.943213 10.0922 0.962501C10.085 0.981789 10.0741 0.999473 10.0601 1.01454C10.0461 1.02962 10.0292 1.04178 10.0105 1.05034C9.9918 1.0589 9.97158 1.06369 9.95101 1.06444C9.93044 1.06518 9.90993 1.06187 9.89064 1.05469C8.37525 0.493114 6.71045 0.483338 5.18857 1.02708C3.66668 1.57081 2.38499 2.63331 1.56853 4.02801C0.752076 5.42271 0.453044 7.06045 0.723941 8.65369C0.994838 10.2469 1.81835 11.6938 3.04988 12.7403C4.28141 13.7868 5.84223 14.3659 7.4583 14.3761C9.07438 14.3863 10.6424 13.8269 11.887 12.796C13.1316 11.7652 13.9733 10.3288 14.2643 8.73909C14.5553 7.1494 14.2769 5.50801 13.4781 4.10313C13.4574 4.06707 13.4519 4.02427 13.4627 3.98412C13.4736 3.94398 13.4999 3.90978 13.536 3.88906C13.572 3.86834 13.6148 3.86279 13.655 3.87364C13.6951 3.88448 13.7293 3.91082 13.75 3.94688C14.3718 5.04031 14.6958 6.27779 14.6896 7.53566C14.6834 8.79353 14.3471 10.0277 13.7145 11.1149C13.0818 12.2022 12.1749 13.1043 11.0844 13.7312C9.99386 14.3581 8.7579 14.6879 7.50002 14.6875Z" fill="#0400F5"/>
<path d="M12.2637 12.8278C12.2242 12.8277 12.1862 12.8126 12.1574 12.7856C10.8881 11.6164 9.22541 10.9674 7.49962 10.9674C5.77383 10.9674 4.11116 11.6164 2.84181 12.7856C2.82673 12.7996 2.80904 12.8104 2.78977 12.8176C2.7705 12.8247 2.75001 12.8279 2.72948 12.8271C2.70895 12.8263 2.68878 12.8215 2.67011 12.8129C2.65145 12.8043 2.63467 12.7921 2.62071 12.777C2.60676 12.762 2.59591 12.7443 2.58879 12.725C2.58168 12.7057 2.57842 12.6852 2.57922 12.6647C2.58002 12.6442 2.58485 12.624 2.59345 12.6053C2.60204 12.5867 2.61423 12.5699 2.62931 12.5559C3.95645 11.3331 5.69502 10.6543 7.49962 10.6543C9.30422 10.6543 11.0428 11.3331 12.3699 12.5559C12.3933 12.5772 12.4097 12.6051 12.417 12.6359C12.4242 12.6667 12.4219 12.699 12.4104 12.7285C12.3989 12.7579 12.3787 12.7832 12.3525 12.8009C12.3263 12.8187 12.2953 12.8281 12.2637 12.8278Z" fill="#0400F5"/>
<path d="M7.49962 4.34474C5.69471 4.34645 3.95555 3.66741 2.62931 2.44317C2.61423 2.42922 2.60204 2.41243 2.59345 2.39377C2.58485 2.37511 2.58002 2.35494 2.57922 2.33441C2.57842 2.31388 2.58168 2.29339 2.58879 2.27412C2.59591 2.25484 2.60676 2.23716 2.62071 2.22208C2.63467 2.207 2.65145 2.19481 2.67011 2.18622C2.68878 2.17762 2.70895 2.17279 2.72948 2.17199C2.75001 2.1712 2.7705 2.17445 2.78977 2.18157C2.80904 2.18869 2.82673 2.19953 2.84181 2.21349C4.11001 3.3846 5.77339 4.03411 7.49962 4.03224C7.89081 4.03194 8.28127 3.99848 8.66681 3.93224C8.68733 3.92875 8.70833 3.92934 8.72862 3.93396C8.74892 3.93859 8.7681 3.94718 8.78507 3.95922C8.80205 3.97126 8.81649 3.98653 8.82756 4.00415C8.83864 4.02177 8.84613 4.0414 8.84962 4.06192C8.85311 4.08244 8.85252 4.10345 8.84789 4.12374C8.84326 4.14403 8.83468 4.16321 8.82264 4.18019C8.8106 4.19716 8.79533 4.2116 8.7777 4.22268C8.76008 4.23375 8.74045 4.24125 8.71993 4.24474C8.31663 4.31175 7.90845 4.3452 7.49962 4.34474Z" fill="#0400F5"/>
<path d="M7.5002 14.6875C5.40488 14.6875 3.7002 11.4625 3.7002 7.5C3.7002 3.5375 5.40488 0.3125 7.5002 0.3125C8.17832 0.3125 8.84082 0.646875 9.41738 1.28125C9.43259 1.29616 9.44458 1.31403 9.45263 1.33375C9.46068 1.35347 9.46461 1.37462 9.46418 1.39592C9.46375 1.41721 9.45898 1.43819 9.45015 1.45757C9.44132 1.47695 9.42862 1.49432 9.41283 1.50862C9.39705 1.52291 9.3785 1.53383 9.35834 1.5407C9.33818 1.54756 9.31683 1.55024 9.2956 1.54855C9.27437 1.54687 9.25371 1.54086 9.23488 1.5309C9.21606 1.52094 9.19947 1.50723 9.18613 1.49063C8.67051 0.925 8.0877 0.625 7.5002 0.625C5.57676 0.625 4.0127 3.70937 4.0127 7.5C4.0127 11.2906 5.57676 14.375 7.5002 14.375C9.42363 14.375 10.9877 11.2906 10.9877 7.5C10.9877 7.30312 10.9877 7.10156 10.9752 6.90156C10.9752 6.86012 10.9917 6.82038 11.021 6.79108C11.0503 6.76177 11.09 6.74531 11.1314 6.74531C11.1716 6.74526 11.2102 6.76065 11.2393 6.78828C11.2683 6.81591 11.2857 6.85368 11.2877 6.89375C11.2971 7.09844 11.3018 7.30469 11.3018 7.50625C11.3002 11.4625 9.59551 14.6875 7.5002 14.6875Z" fill="#0400F5"/>
<path d="M7.5 14.6875C7.45856 14.6875 7.41882 14.671 7.38951 14.6417C7.36021 14.6124 7.34375 14.5727 7.34375 14.5312V0.46875C7.34375 0.42731 7.36021 0.387567 7.38951 0.358265C7.41882 0.328962 7.45856 0.3125 7.5 0.3125C7.54144 0.3125 7.58118 0.328962 7.61049 0.358265C7.63979 0.387567 7.65625 0.42731 7.65625 0.46875V14.5312C7.65625 14.5727 7.63979 14.6124 7.61049 14.6417C7.58118 14.671 7.54144 14.6875 7.5 14.6875Z" fill="#0400F5"/>
<path d="M14.5312 7.65625H0.46875C0.42731 7.65625 0.387567 7.63979 0.358265 7.61049C0.328962 7.58118 0.3125 7.54144 0.3125 7.5C0.3125 7.45856 0.328962 7.41882 0.358265 7.38951C0.387567 7.36021 0.42731 7.34375 0.46875 7.34375H14.5312C14.5727 7.34375 14.6124 7.36021 14.6417 7.38951C14.671 7.41882 14.6875 7.45856 14.6875 7.5C14.6875 7.54144 14.671 7.58118 14.6417 7.61049C14.6124 7.63979 14.5727 7.65625 14.5312 7.65625Z" fill="#0400F5"/>
<path d="M11.1436 4.56913C10.8768 4.56789 10.6164 4.48767 10.3952 4.33858C10.1741 4.18949 10.002 3.97822 9.90078 3.73143C9.79956 3.48465 9.77372 3.21341 9.82651 2.95194C9.87931 2.69048 10.0084 2.45052 10.1974 2.26235C10.3865 2.07417 10.627 1.94621 10.8887 1.89463C11.1504 1.84304 11.4215 1.87014 11.6679 1.9725C11.9142 2.07486 12.1247 2.24789 12.2727 2.46976C12.4208 2.69163 12.4998 2.95239 12.4998 3.21913C12.4996 3.39688 12.4643 3.57285 12.396 3.73695C12.3277 3.90106 12.2277 4.05008 12.1017 4.17548C11.9758 4.30088 11.8263 4.40019 11.6619 4.46774C11.4974 4.53529 11.3213 4.56974 11.1436 4.56913ZM11.1436 2.18163C10.9386 2.18286 10.7387 2.24476 10.5689 2.35951C10.3991 2.47426 10.2671 2.63672 10.1895 2.8264C10.1119 3.01609 10.0923 3.2245 10.133 3.42534C10.1737 3.62618 10.273 3.81046 10.4184 3.95493C10.5637 4.0994 10.7486 4.1976 10.9497 4.23713C11.1508 4.27665 11.3591 4.25575 11.5483 4.17704C11.7375 4.09833 11.8992 3.96535 12.0129 3.79488C12.1266 3.6244 12.1873 3.42406 12.1873 3.21913C12.1852 2.94409 12.0742 2.6811 11.8786 2.48779C11.6829 2.29448 11.4186 2.18663 11.1436 2.18788V2.18163Z" fill="#0400F5"/>
<path d="M11.1435 7.05101C11.1229 7.05093 11.1024 7.04674 11.0834 7.03869C11.0643 7.03065 11.0471 7.0189 11.0326 7.00414L9.18259 5.1557L9.17009 5.14164C8.79084 4.75229 8.53525 4.25946 8.43548 3.72517C8.33571 3.19089 8.39623 2.63903 8.60942 2.13906C8.8226 1.63909 9.17893 1.21336 9.63354 0.91546C10.0882 0.61756 10.6207 0.460804 11.1642 0.464923C11.7077 0.469042 12.2379 0.633853 12.6879 0.938609C13.138 1.24337 13.4878 1.67445 13.6934 2.17759C13.899 2.68073 13.9511 3.23344 13.8433 3.76616C13.7354 4.29887 13.4724 4.78778 13.0873 5.17133L11.2498 7.00414C11.2217 7.03283 11.1836 7.04962 11.1435 7.05101ZM9.42477 4.94789L11.1435 6.66664L12.8623 4.94789C13.2043 4.60748 13.4379 4.17336 13.5334 3.70032C13.629 3.22729 13.5822 2.73655 13.3991 2.29007C13.216 1.84358 12.9047 1.46135 12.5045 1.19164C12.1043 0.921932 11.6332 0.776829 11.1506 0.77465C10.668 0.772471 10.1956 0.913315 9.79302 1.1794C9.39042 1.44549 9.07568 1.82489 8.88853 2.2697C8.70138 2.71452 8.6502 3.20481 8.74147 3.67869C8.83274 4.15257 9.06236 4.58878 9.40134 4.93226L9.42477 4.94789Z" fill="#0400F5"/>
</g>
<defs>
<clipPath id="clip0_3952_18969">
<rect width="15" height="15" fill="white"/>
</clipPath>
</defs>
</svg>
