<svg width="99" height="15" viewBox="0 0 99 15" fill="none" xmlns="http://www.w3.org/2000/svg">
<g clip-path="url(#clip0_3190_25096)">
<path d="M6.05842 5.275C6.05842 5.275 5.23974 5.19214 5.23974 5.93429V9.23071H10.6461V10.22C10.6461 10.22 10.6623 10.7143 10.1546 10.7143H5.23974V15H11.1376C11.1376 15 14.7086 14.4393 14.7416 10.7143V5.275H6.05842ZM14.5773 0H3.92886C0.0783948 0.922857 -0.00305176 4.13714 -0.00305176 4.13714V15H4.09316V5.11C4.09316 4.26929 4.91184 4.12143 4.91184 4.12143H14.578V0H14.5773ZM28.6353 11.8914C28.3545 12.0821 28.1466 12.2221 27.9999 12.3114C27.4747 12.6421 26.9741 12.8971 26.51 13.1007C25.8381 13.3807 25.2391 13.5207 24.702 13.5207C22.8575 13.5207 21.3304 12.9479 20.0961 11.7893C18.8617 10.6307 18.2523 9.18 18.2523 7.42357C18.2523 5.73071 18.802 4.26643 19.9135 3.01857C21.025 1.77143 22.3688 1.16 23.9571 1.16C24.6171 1.16 25.3248 1.27429 26.0578 1.51714C27.0106 1.82214 27.7801 2.28071 28.391 2.87857L27.328 4.075C26.8765 3.63 26.2902 3.29857 25.6056 3.095C25.0931 2.94214 24.5314 2.86643 23.9079 2.86643C22.7964 2.86643 21.8556 3.32357 21.1106 4.22786C20.3657 5.14429 19.9872 6.22643 19.9872 7.49929C19.9872 8.76 20.4141 9.79071 21.2693 10.6186C22.1245 11.4457 23.2114 11.8657 24.5307 11.8657C25.0805 11.8657 25.6429 11.6871 26.2165 11.3443C26.6932 10.975 26.9376 10.7964 26.9495 10.7836V8.17429H23.3827L23.8953 6.545H28.6353V11.8914ZM39.4095 8.70857C39.4095 9.96857 38.9699 11.0636 38.0902 11.98C37.2104 12.8964 36.1235 13.3679 34.8288 13.3679C33.6317 13.3679 32.5813 12.9093 31.6769 12.0057C30.7726 11.1021 30.3331 10.0071 30.3331 8.72143C30.3331 7.44857 30.7614 6.35357 31.6159 5.41143C32.4704 4.46929 33.5214 4.01143 34.7551 4.01143C36.1235 4.01143 37.235 4.45714 38.1021 5.36071C38.9699 6.23929 39.4095 7.35929 39.4095 8.70857ZM37.7356 8.73429C37.7356 7.88143 37.4548 7.15571 36.8931 6.57C36.3314 5.97143 35.6348 5.67857 34.8042 5.67857C34.0228 5.67857 33.3628 5.98429 32.813 6.59571C32.2632 7.20643 31.9943 7.90643 31.9943 8.69571C31.9943 9.52357 32.2752 10.2236 32.8249 10.8093C33.3747 11.395 34.0593 11.7 34.8892 11.7C35.6594 11.7 36.3187 11.4071 36.8811 10.8214C37.4548 10.2357 37.7363 9.53571 37.7363 8.73429H37.7356ZM50.0369 8.70857C50.0369 9.96857 49.5974 11.0636 48.7176 11.98C47.8378 12.8964 46.7509 13.3679 45.4562 13.3679C44.2591 13.3679 43.2087 12.9093 42.3044 12.0057C41.4007 11.1021 40.9605 10.0071 40.9605 8.72143C40.9605 7.44857 41.3888 6.35357 42.2433 5.41143C43.0985 4.46929 44.1488 4.01143 45.3825 4.01143C46.7509 4.01143 47.8624 4.45714 48.7295 5.36071C49.5973 6.23929 50.0369 7.35929 50.0369 8.70857ZM48.363 8.73429C48.363 7.88143 48.0822 7.15571 47.5205 6.57C46.9588 5.97143 46.2622 5.67857 45.4316 5.67857C44.6502 5.67857 43.9902 5.98429 43.4404 6.59571C42.8906 7.20643 42.6217 7.90643 42.6217 8.69571C42.6217 9.52357 42.9026 10.2236 43.453 10.8093C44.0021 11.395 44.6867 11.7 45.5173 11.7C46.2868 11.7 46.9461 11.4071 47.5085 10.8214C48.0822 10.2357 48.3637 9.53571 48.3637 8.73429H48.363ZM59.8709 13.1129L58.3318 13.355V11.84L58.0018 12.2214C57.7111 12.4985 57.3818 12.7303 57.0245 12.9093C56.5 13.1554 55.9288 13.2814 55.3513 13.2786C54.1542 13.2786 53.1276 12.8329 52.297 11.9286C51.4664 11.0243 51.0515 9.95572 51.0515 8.70857C51.0515 7.42286 51.4664 6.31571 52.2851 5.39857C53.1038 4.48143 54.105 4.02357 55.3021 4.02357C55.9867 4.02357 56.5849 4.13786 57.0855 4.36714C57.4401 4.53286 57.7455 4.74929 58.0018 5.01714C58.0875 5.13143 58.1731 5.25857 58.2588 5.37286V1.40143L59.8948 1.15929L59.8709 13.1129ZM58.4294 8.82286C58.4294 7.93214 58.1359 7.18071 57.5377 6.57C56.9395 5.94571 56.2669 5.64071 55.498 5.64071C54.6428 5.64071 53.959 5.93357 53.4338 6.51929C52.9444 7.07857 52.6881 7.76643 52.6881 8.56857C52.6881 9.47214 52.9444 10.2229 53.4576 10.8086C53.9702 11.3943 54.6183 11.6871 55.4124 11.6871C56.1938 11.6871 56.8784 11.42 57.4893 10.8729C58.1121 10.3121 58.4301 9.625 58.4301 8.82286H58.4294ZM68.507 3.05714H63.9264V6.22643H67.4805V7.85571H63.9264V13.1007L62.143 13.3679V1.41429H68.1525L68.507 3.05714ZM72.1841 2.12714L71.0846 3.54L70.0342 2.12714L71.1456 0.727143L72.1841 2.12714ZM71.8541 13.1129L70.2174 13.3421V4.495L71.8541 4.24071V13.1136V13.1129ZM79.2447 4.15143L78.4752 5.95857C78.3741 5.94289 78.272 5.93454 78.1697 5.93357C78.011 5.93357 77.8524 5.94643 77.693 5.97143C77.5336 5.99643 77.363 6.06071 77.1804 6.15C76.8385 6.30286 76.545 6.63357 76.2887 7.13C76.0051 7.69342 75.8583 8.31773 75.8604 8.95072V13.1007L74.2245 13.3679V4.495L75.739 4.215V6.06071C75.9342 5.74214 76.142 5.42429 76.3372 5.09357C76.618 4.76214 76.948 4.52071 77.3145 4.38C77.5097 4.30429 77.8643 4.24 78.4014 4.18929C78.9147 4.15143 79.2082 4.12571 79.2447 4.15143ZM91.435 13.1129L89.7984 13.355V7.28286C89.7984 6.72214 89.6762 6.315 89.4319 6.06071C89.1875 5.80571 88.821 5.67857 88.3443 5.67857C87.7706 5.67857 87.3304 5.92071 87.0376 6.40429C86.8417 6.735 86.7322 7.09143 86.7322 7.44786V13.1L85.0955 13.4057V7.32071C85.0955 6.78643 84.9734 6.37857 84.7409 6.09929C84.4966 5.81857 84.1792 5.67857 83.7636 5.67857H83.6049C83.0306 5.67857 82.6149 5.92071 82.3586 6.41714C82.1634 6.78643 82.0658 7.25714 82.0658 7.83V13.1L80.3681 13.4057V4.495L81.8945 4.22786V5.36071C82.0658 5.09286 82.2365 4.87643 82.3958 4.72429C82.8354 4.30429 83.3486 4.1 83.9223 4.1C84.5696 4.1 85.0457 4.20214 85.3757 4.41857C85.6565 4.59714 85.9254 4.95286 86.1944 5.46214C86.7561 4.55857 87.5502 4.1 88.6012 4.1C89.6025 4.1 90.3481 4.41857 90.8361 5.06786C91.2398 5.60214 91.435 6.39143 91.435 7.42286V13.1129ZM98.9127 10.4271C98.9127 11.2414 98.6318 11.9164 98.0701 12.4386C97.5084 12.9729 96.7993 13.2279 95.9441 13.2279C95.2967 13.2279 94.7224 13.075 94.1972 12.7693C93.672 12.4643 93.2816 12.12 93.0247 11.7129L94.1733 10.6693C94.2583 10.7964 94.332 10.8979 94.405 10.9743C94.8333 11.42 95.3459 11.6493 95.9441 11.6493C96.3597 11.6493 96.6898 11.535 96.9215 11.3186C97.1658 11.1021 97.276 10.7964 97.276 10.4014C97.276 9.95643 96.9952 9.65071 96.4335 9.485C95.3213 9.14143 94.7224 8.95072 94.6374 8.91214C94.1242 8.645 93.7577 8.365 93.5253 8.04643C93.269 7.67714 93.1349 7.19357 93.1349 6.57C93.1349 5.80571 93.4157 5.17 93.9655 4.66071C94.5153 4.15143 95.1746 3.90929 95.9315 3.90929C96.5065 3.90929 97.0436 4.03643 97.5323 4.30429C98.021 4.57143 98.3749 4.85143 98.5827 5.18286L97.6053 6.26429C97.4585 6.11481 97.2993 5.97858 97.1293 5.85714C96.7382 5.57714 96.3598 5.43714 96.0059 5.43714C95.6632 5.43714 95.3824 5.51357 95.1626 5.66571C94.9056 5.85714 94.7715 6.13714 94.7715 6.50643C94.7715 6.86286 94.8937 7.13 95.1507 7.29571C95.3705 7.43571 95.8346 7.58857 96.5676 7.75357C97.2999 7.93214 97.8623 8.23786 98.2653 8.67071C98.7175 9.12857 98.9127 9.70143 98.9127 10.4271Z" fill="#0086F8"/>
</g>
<defs>
<clipPath id="clip0_3190_25096">
<rect width="99" height="15" fill="white"/>
</clipPath>
</defs>
</svg>
