<svg width="93" height="35" viewBox="0 0 93 35" fill="none" xmlns="http://www.w3.org/2000/svg">
<path d="M15.9869 0.981802C12.1949 0.51249 4.53177 3.32837 1.17424 4.79497C-1.9068 21.6902 9.76558 31.5849 15.9869 34.4203C30.2071 29.0233 31.7871 12.8124 30.7996 5.38163C25.467 2.1551 20.727 1.56844 15.9869 0.981802Z" fill="#61BE7D"/>
<path d="M30.8003 5.38029C25.4678 2.15377 20.7277 1.56711 15.9877 0.980469V34.419C30.2078 29.0219 31.7879 12.8111 30.8003 5.38029Z" fill="#56AA6F"/>
<path d="M18.9448 32.9515L8.27966 22.3919L13.9085 11.5391H23.0923L30.2024 16.5255C28.3064 26.8504 21.9073 31.7782 18.9448 32.9515Z" fill="#4C9964"/>
<path fill-rule="evenodd" clip-rule="evenodd" d="M15.9867 9.89657C16.9666 9.89657 17.7801 10.609 17.9374 11.5441H14.0361C14.1934 10.609 15.0069 9.89657 15.9867 9.89657ZM10.7963 11.5441H12.1494C12.3171 9.57189 13.9711 8.02344 15.9867 8.02344C18.0024 8.02344 19.6564 9.57189 19.824 11.5441H21.1746C22.7263 11.5441 23.9843 12.8021 23.9843 14.3539V20.4673C23.9843 22.019 22.7263 23.277 21.1746 23.277H10.7963C9.24452 23.277 7.98657 22.019 7.98657 20.4673V14.3539C7.98657 12.8021 9.24452 11.5441 10.7963 11.5441ZM16.2807 18.5829C16.9352 18.5829 17.4657 18.0576 17.4657 17.4097C17.4657 16.7617 16.9352 16.2364 16.2807 16.2364C15.6263 16.2364 15.0957 16.7617 15.0957 17.4097C15.0957 18.0576 15.6263 18.5829 16.2807 18.5829Z" fill="white"/>
<path d="M37.5939 4.75448H38.6553V9H37.5939V8.55125C37.3858 8.74896 37.1764 8.89204 36.9656 8.98049C36.7575 9.06634 36.5312 9.10926 36.2867 9.10926C35.7378 9.10926 35.263 8.89724 34.8624 8.47321C34.4618 8.04658 34.2615 7.51719 34.2615 6.88504C34.2615 6.22949 34.4553 5.69229 34.8429 5.27346C35.2305 4.85463 35.7014 4.64522 36.2555 4.64522C36.5104 4.64522 36.7497 4.69335 36.9735 4.7896C37.1972 4.88585 37.404 5.03023 37.5939 5.22274V4.75448ZM36.474 5.62856C36.1436 5.62856 35.8691 5.74562 35.6506 5.97975C35.4321 6.21128 35.3229 6.50914 35.3229 6.87334C35.3229 7.24014 35.4334 7.5419 35.6545 7.77863C35.8783 8.01536 36.1527 8.13373 36.4779 8.13373C36.8135 8.13373 37.0918 8.01796 37.3129 7.78644C37.5341 7.55231 37.6446 7.24664 37.6446 6.86944C37.6446 6.50003 37.5341 6.20087 37.3129 5.97195C37.0918 5.74302 36.8122 5.62856 36.474 5.62856ZM39.7323 4.75448H40.7936V5.18762C41.0356 4.98471 41.2541 4.84423 41.4492 4.76619C41.6469 4.68554 41.8485 4.64522 42.054 4.64522C42.4755 4.64522 42.8332 4.7922 43.1271 5.08616C43.3743 5.3359 43.4978 5.7053 43.4978 6.19437V9H42.4442V7.13868C42.4442 6.63141 42.4208 6.29452 42.374 6.12803C42.3298 5.96154 42.2504 5.83537 42.136 5.74952C42.0241 5.66108 41.8849 5.61685 41.7184 5.61685C41.5025 5.61685 41.3165 5.68969 41.1604 5.83537C41.007 5.97845 40.9003 6.17746 40.8405 6.4324C40.8092 6.56507 40.7936 6.85253 40.7936 7.29477V9H39.7323V4.75448ZM47.6692 3.11558H48.7306V9H47.6692V8.55125C47.4611 8.74896 47.2517 8.89204 47.041 8.98049C46.8328 9.06634 46.6065 9.10926 46.362 9.10926C45.8131 9.10926 45.3383 8.89724 44.9377 8.47321C44.5371 8.04658 44.3368 7.51719 44.3368 6.88504C44.3368 6.22949 44.5306 5.69229 44.9182 5.27346C45.3058 4.85463 45.7767 4.64522 46.3308 4.64522C46.5857 4.64522 46.825 4.69335 47.0488 4.7896C47.2725 4.88585 47.4793 5.03023 47.6692 5.22274V3.11558ZM46.5493 5.62856C46.2189 5.62856 45.9445 5.74562 45.7259 5.97975C45.5074 6.21128 45.3982 6.50914 45.3982 6.87334C45.3982 7.24014 45.5087 7.5419 45.7298 7.77863C45.9536 8.01536 46.228 8.13373 46.5532 8.13373C46.8888 8.13373 47.1671 8.01796 47.3882 7.78644C47.6094 7.55231 47.7199 7.24664 47.7199 6.86944C47.7199 6.50003 47.6094 6.20087 47.3882 5.97195C47.1671 5.74302 46.8875 5.62856 46.5493 5.62856ZM49.5578 4.75448H50.4709V5.28907C50.5698 5.07836 50.7012 4.91837 50.865 4.80911C51.0289 4.69985 51.2084 4.64522 51.4035 4.64522C51.5414 4.64522 51.6858 4.68164 51.8367 4.75448L51.505 5.67148C51.3801 5.60905 51.2774 5.57783 51.1967 5.57783C51.0328 5.57783 50.8937 5.67929 50.7792 5.8822C50.6673 6.08511 50.6114 6.48312 50.6114 7.07625L50.6153 7.28306V9H49.5578V4.75448ZM54.3614 4.64522C54.762 4.64522 55.1379 4.74537 55.4891 4.94568C55.8429 5.14599 56.1186 5.41784 56.3163 5.76123C56.514 6.10462 56.6129 6.47532 56.6129 6.87334C56.6129 7.27396 56.5127 7.64856 56.3124 7.99715C56.1147 8.34574 55.8442 8.61889 55.5008 8.8166C55.1574 9.01171 54.7789 9.10926 54.3653 9.10926C53.7565 9.10926 53.2362 8.89334 52.8044 8.46151C52.3752 8.02707 52.1606 7.50028 52.1606 6.88114C52.1606 6.21778 52.4038 5.66498 52.8903 5.22274C53.3169 4.83773 53.8073 4.64522 54.3614 4.64522ZM54.377 5.64807C54.0466 5.64807 53.7708 5.76383 53.5497 5.99536C53.3312 6.22428 53.2219 6.51824 53.2219 6.87724C53.2219 7.24664 53.3299 7.54581 53.5458 7.77473C53.7643 8.00366 54.0401 8.11812 54.3731 8.11812C54.706 8.11812 54.9831 8.00235 55.2042 7.77083C55.4253 7.5393 55.5359 7.24144 55.5359 6.87724C55.5359 6.51304 55.4266 6.21778 55.2081 5.99146C54.9922 5.76253 54.7151 5.64807 54.377 5.64807ZM57.9045 3.00632C58.0918 3.00632 58.2518 3.07396 58.3845 3.20924C58.5197 3.34451 58.5874 3.5084 58.5874 3.7009C58.5874 3.89081 58.521 4.0534 58.3884 4.18867C58.2557 4.32134 58.097 4.38768 57.9123 4.38768C57.7224 4.38768 57.5598 4.32004 57.4245 4.18477C57.2919 4.04689 57.2255 3.8804 57.2255 3.6853C57.2255 3.49799 57.2919 3.33801 57.4245 3.20533C57.5572 3.07266 57.7172 3.00632 57.9045 3.00632ZM57.3699 4.75448H58.4391V9H57.3699V4.75448ZM62.5441 3.11558H63.6055V9H62.5441V8.55125C62.336 8.74896 62.1266 8.89204 61.9159 8.98049C61.7078 9.06634 61.4814 9.10926 61.2369 9.10926C60.688 9.10926 60.2133 8.89724 59.8126 8.47321C59.412 8.04658 59.2117 7.51719 59.2117 6.88504C59.2117 6.22949 59.4055 5.69229 59.7931 5.27346C60.1807 4.85463 60.6516 4.64522 61.2057 4.64522C61.4606 4.64522 61.7 4.69335 61.9237 4.7896C62.1474 4.88585 62.3542 5.03023 62.5441 5.22274V3.11558ZM61.4242 5.62856C61.0938 5.62856 60.8194 5.74562 60.6009 5.97975C60.3823 6.21128 60.2731 6.50914 60.2731 6.87334C60.2731 7.24014 60.3836 7.5419 60.6048 7.77863C60.8285 8.01536 61.1029 8.13373 61.4281 8.13373C61.7637 8.13373 62.0421 8.01796 62.2632 7.78644C62.4843 7.55231 62.5949 7.24664 62.5949 6.86944C62.5949 6.50003 62.4843 6.20087 62.2632 5.97195C62.0421 5.74302 61.7624 5.62856 61.4242 5.62856Z" fill="black"/>
<path d="M39.4264 15.7363H36.0042C36.0536 16.0381 36.185 16.2787 36.3983 16.4582C36.6142 16.6351 36.8887 16.7235 37.2217 16.7235C37.6197 16.7235 37.9618 16.5844 38.2479 16.306L39.1454 16.7274C38.9217 17.0448 38.6538 17.2802 38.3416 17.4337C38.0294 17.5846 37.6587 17.66 37.2295 17.66C36.5635 17.66 36.0211 17.4506 35.6023 17.0318C35.1835 16.6104 34.974 16.0836 34.974 15.4514C34.974 14.8037 35.1822 14.2665 35.5984 13.8399C36.0172 13.4106 36.5414 13.196 37.1709 13.196C37.8395 13.196 38.3832 13.4106 38.802 13.8399C39.2209 14.2665 39.4303 14.831 39.4303 15.5334L39.4264 15.7363ZM38.3572 14.8973C38.287 14.6606 38.1478 14.4681 37.9397 14.3198C37.7342 14.1715 37.4948 14.0974 37.2217 14.0974C36.9251 14.0974 36.665 14.1806 36.4413 14.3471C36.3008 14.4512 36.1707 14.6346 36.051 14.8973H38.3572ZM40.2927 13.3053H41.354V13.7384C41.596 13.5355 41.8145 13.395 42.0096 13.317C42.2073 13.2363 42.4089 13.196 42.6144 13.196C43.0359 13.196 43.3935 13.343 43.6875 13.6369C43.9346 13.8867 44.0582 14.2561 44.0582 14.7451V17.5508H43.0046V15.6895C43.0046 15.1822 42.9812 14.8453 42.9344 14.6788C42.8902 14.5123 42.8108 14.3862 42.6964 14.3003C42.5845 14.2119 42.4453 14.1676 42.2788 14.1676C42.0629 14.1676 41.8769 14.2405 41.7208 14.3862C41.5674 14.5292 41.4607 14.7282 41.4009 14.9832C41.3696 15.1159 41.354 15.4033 41.354 15.8455V17.5508H40.2927V13.3053ZM45.221 11.7405H46.2824V13.3053H46.9146V14.2223H46.2824V17.5508H45.221V14.2223H44.6747V13.3053H45.221V11.7405ZM51.7415 15.7363H48.3193C48.3688 16.0381 48.5001 16.2787 48.7135 16.4582C48.9294 16.6351 49.2038 16.7235 49.5368 16.7235C49.9348 16.7235 50.2769 16.5844 50.5631 16.306L51.4606 16.7274C51.2368 17.0448 50.9689 17.2802 50.6567 17.4337C50.3445 17.5846 49.9738 17.66 49.5446 17.66C48.8786 17.66 48.3362 17.4506 47.9174 17.0318C47.4986 16.6104 47.2892 16.0836 47.2892 15.4514C47.2892 14.8037 47.4973 14.2665 47.9135 13.8399C48.3323 13.4106 48.8565 13.196 49.4861 13.196C50.1546 13.196 50.6983 13.4106 51.1172 13.8399C51.536 14.2665 51.7454 14.831 51.7454 15.5334L51.7415 15.7363ZM50.6723 14.8973C50.6021 14.6606 50.4629 14.4681 50.2548 14.3198C50.0493 14.1715 49.81 14.0974 49.5368 14.0974C49.2402 14.0974 48.9801 14.1806 48.7564 14.3471C48.6159 14.4512 48.4858 14.6346 48.3662 14.8973H50.6723ZM52.358 13.3053H53.2711V13.8399C53.37 13.6291 53.5014 13.4692 53.6653 13.3599C53.8292 13.2506 54.0086 13.196 54.2038 13.196C54.3416 13.196 54.486 13.2324 54.6369 13.3053L54.3052 14.2223C54.1803 14.1598 54.0776 14.1286 53.9969 14.1286C53.8331 14.1286 53.6939 14.2301 53.5794 14.433C53.4676 14.6359 53.4116 15.0339 53.4116 15.627L53.4155 15.8338V17.5508H52.358V13.3053ZM56.2251 13.3053V13.7735C56.4176 13.581 56.6257 13.4366 56.8494 13.3404C57.0731 13.2441 57.3125 13.196 57.5674 13.196C58.1215 13.196 58.5924 13.4054 58.98 13.8242C59.3676 14.2431 59.5614 14.7803 59.5614 15.4358C59.5614 16.068 59.3611 16.5974 58.9605 17.024C58.5598 17.448 58.0851 17.66 57.5362 17.66C57.2916 17.66 57.064 17.6171 56.8533 17.5313C56.6426 17.4428 56.4332 17.2997 56.2251 17.102V19.1038H55.1676V13.3053H56.2251ZM57.345 14.1793C57.0094 14.1793 56.731 14.2938 56.5099 14.5227C56.2888 14.7517 56.1782 15.0508 56.1782 15.4202C56.1782 15.7974 56.2888 16.1031 56.5099 16.3372C56.731 16.5687 57.0094 16.6845 57.345 16.6845C57.6702 16.6845 57.9433 16.5661 58.1644 16.3294C58.3881 16.0927 58.5 15.7909 58.5 15.4241C58.5 15.0599 58.3907 14.7621 58.1722 14.5305C57.9537 14.2964 57.678 14.1793 57.345 14.1793ZM60.1935 13.3053H61.1066V13.8399C61.2055 13.6291 61.3369 13.4692 61.5007 13.3599C61.6646 13.2506 61.8441 13.196 62.0392 13.196C62.1771 13.196 62.3215 13.2324 62.4724 13.3053L62.1407 14.2223C62.0158 14.1598 61.9131 14.1286 61.8324 14.1286C61.6685 14.1286 61.5294 14.2301 61.4149 14.433C61.303 14.6359 61.2471 15.0339 61.2471 15.627L61.251 15.8338V17.5508H60.1935V13.3053ZM63.4206 11.5571C63.6079 11.5571 63.7679 11.6247 63.9006 11.76C64.0358 11.8953 64.1035 12.0592 64.1035 12.2517C64.1035 12.4416 64.0371 12.6042 63.9045 12.7395C63.7718 12.8721 63.6131 12.9385 63.4284 12.9385C63.2385 12.9385 63.0759 12.8708 62.9406 12.7355C62.808 12.5977 62.7416 12.4312 62.7416 12.2361C62.7416 12.0488 62.808 11.8888 62.9406 11.7561C63.0733 11.6234 63.2333 11.5571 63.4206 11.5571ZM62.886 13.3053H63.9552V17.5508H62.886V13.3053ZM67.5217 13.8984L66.8623 14.5578C66.5943 14.2925 66.3511 14.1598 66.1326 14.1598C66.0129 14.1598 65.9193 14.1858 65.8516 14.2379C65.784 14.2873 65.7502 14.3497 65.7502 14.4252C65.7502 14.4824 65.771 14.5357 65.8126 14.5852C65.8568 14.632 65.9635 14.697 66.1326 14.7803L66.5228 14.9754C66.9338 15.1783 67.2161 15.3851 67.3695 15.5958C67.523 15.8065 67.5998 16.0537 67.5998 16.3372C67.5998 16.7144 67.4606 17.0292 67.1822 17.2815C66.9065 17.5339 66.5358 17.66 66.0701 17.66C65.451 17.66 64.9567 17.4181 64.5873 16.9342L65.2429 16.2202C65.3678 16.3658 65.5134 16.4842 65.6799 16.5752C65.849 16.6637 65.9986 16.7079 66.1287 16.7079C66.2691 16.7079 66.3823 16.6741 66.4682 16.6065C66.554 16.5388 66.5969 16.4608 66.5969 16.3723C66.5969 16.2084 66.4421 16.0485 66.1326 15.8924L65.7736 15.7129C65.0868 15.3669 64.7434 14.9338 64.7434 14.4135C64.7434 14.0779 64.8722 13.7917 65.1297 13.555C65.3899 13.3157 65.7215 13.196 66.1248 13.196C66.4005 13.196 66.6594 13.2571 66.9013 13.3794C67.1458 13.4991 67.3526 13.6721 67.5217 13.8984ZM72.696 15.7363H69.2738C69.3232 16.0381 69.4546 16.2787 69.6679 16.4582C69.8838 16.6351 70.1583 16.7235 70.4913 16.7235C70.8893 16.7235 71.2314 16.5844 71.5175 16.306L72.415 16.7274C72.1913 17.0448 71.9233 17.2802 71.6112 17.4337C71.299 17.5846 70.9283 17.66 70.4991 17.66C69.8331 17.66 69.2907 17.4506 68.8719 17.0318C68.453 16.6104 68.2436 16.0836 68.2436 15.4514C68.2436 14.8037 68.4517 14.2665 68.868 13.8399C69.2868 13.4106 69.811 13.196 70.4405 13.196C71.1091 13.196 71.6528 13.4106 72.0716 13.8399C72.4905 14.2665 72.6999 14.831 72.6999 15.5334L72.696 15.7363ZM71.6268 14.8973C71.5565 14.6606 71.4174 14.4681 71.2093 14.3198C71.0037 14.1715 70.7644 14.0974 70.4913 14.0974C70.1947 14.0974 69.9346 14.1806 69.7108 14.3471C69.5704 14.4512 69.4403 14.6346 69.3206 14.8973H71.6268Z" fill="black"/>
<path d="M33.8409 21.8599H34.754V22.3945C34.8528 22.1838 34.9842 22.0238 35.1481 21.9146C35.312 21.8053 35.4915 21.7507 35.6866 21.7507C35.8245 21.7507 35.9689 21.7871 36.1197 21.8599L35.7881 22.7769C35.6632 22.7145 35.5604 22.6833 35.4798 22.6833C35.3159 22.6833 35.1767 22.7848 35.0623 22.9877C34.9504 23.1906 34.8945 23.5886 34.8945 24.1817L34.8984 24.3885V26.1055H33.8409V21.8599ZM40.9037 24.291H37.4816C37.531 24.5927 37.6624 24.8334 37.8757 25.0129C38.0916 25.1898 38.3661 25.2782 38.699 25.2782C39.0971 25.2782 39.4391 25.139 39.7253 24.8607L40.6228 25.2821C40.3991 25.5995 40.1311 25.8349 39.819 25.9884C39.5068 26.1393 39.1361 26.2147 38.7068 26.2147C38.0409 26.2147 37.4985 26.0053 37.0797 25.5865C36.6608 25.1651 36.4514 24.6383 36.4514 24.0061C36.4514 23.3584 36.6595 22.8212 37.0758 22.3945C37.4946 21.9653 38.0188 21.7507 38.6483 21.7507C39.3169 21.7507 39.8606 21.9653 40.2794 22.3945C40.6982 22.8212 40.9077 23.3857 40.9077 24.0881L40.9037 24.291ZM39.8346 23.452C39.7643 23.2153 39.6251 23.0228 39.417 22.8745C39.2115 22.7262 38.9722 22.6521 38.699 22.6521C38.4025 22.6521 38.1423 22.7353 37.9186 22.9018C37.7781 23.0059 37.6481 23.1893 37.5284 23.452H39.8346ZM45.9258 22.7184L45.04 23.2062C44.8735 23.0319 44.7083 22.9109 44.5444 22.8433C44.3832 22.7756 44.1932 22.7418 43.9747 22.7418C43.5767 22.7418 43.2541 22.8615 43.007 23.1008C42.7625 23.3376 42.6402 23.6419 42.6402 24.0139C42.6402 24.3755 42.7586 24.6708 42.9953 24.8997C43.232 25.1286 43.5429 25.2431 43.9279 25.2431C44.404 25.2431 44.7747 25.0805 45.04 24.7553L45.879 25.3289C45.4237 25.9195 44.7812 26.2147 43.9513 26.2147C43.2047 26.2147 42.6194 25.9936 42.1954 25.5514C41.7739 25.1091 41.5632 24.5914 41.5632 23.9983C41.5632 23.5873 41.666 23.2088 41.8715 22.8628C42.077 22.5168 42.3631 22.245 42.7299 22.0473C43.0993 21.8495 43.5117 21.7507 43.9669 21.7507C44.3884 21.7507 44.7669 21.8352 45.1024 22.0043C45.438 22.1708 45.7125 22.4088 45.9258 22.7184ZM48.8836 21.7507C49.2842 21.7507 49.6601 21.8508 50.0113 22.0512C50.3651 22.2515 50.6409 22.5233 50.8386 22.8667C51.0363 23.2101 51.1351 23.5808 51.1351 23.9788C51.1351 24.3794 51.035 24.754 50.8347 25.1026C50.637 25.4512 50.3664 25.7244 50.023 25.9221C49.6796 26.1172 49.3011 26.2147 48.8875 26.2147C48.2788 26.2147 47.7585 25.9988 47.3267 25.567C46.8974 25.1325 46.6828 24.6057 46.6828 23.9866C46.6828 23.3232 46.926 22.7704 47.4125 22.3282C47.8391 21.9432 48.3295 21.7507 48.8836 21.7507ZM48.8992 22.7535C48.5688 22.7535 48.2931 22.8693 48.072 23.1008C47.8534 23.3298 47.7442 23.6237 47.7442 23.9827C47.7442 24.3521 47.8521 24.6513 48.0681 24.8802C48.2866 25.1091 48.5623 25.2236 48.8953 25.2236C49.2283 25.2236 49.5053 25.1078 49.7265 24.8763C49.9476 24.6448 50.0582 24.3469 50.0582 23.9827C50.0582 23.6185 49.9489 23.3232 49.7304 23.0969C49.5145 22.868 49.2374 22.7535 48.8992 22.7535ZM52.0014 21.8599H53.0706V22.3477C53.2527 22.1474 53.4543 21.9978 53.6754 21.899C53.8991 21.8001 54.1424 21.7507 54.4051 21.7507C54.6705 21.7507 54.9098 21.8157 55.1231 21.9458C55.3364 22.0759 55.5081 22.2658 55.6382 22.5155C55.8073 22.2658 56.0141 22.0759 56.2586 21.9458C56.5058 21.8157 56.775 21.7507 57.0664 21.7507C57.3681 21.7507 57.6335 21.8209 57.8624 21.9614C58.0913 22.1019 58.2552 22.2853 58.3541 22.5116C58.4555 22.7379 58.5063 23.106 58.5063 23.6159V26.1055H57.4332V23.9515C57.4332 23.4702 57.3733 23.1451 57.2537 22.976C57.134 22.8043 56.9545 22.7184 56.7152 22.7184C56.5331 22.7184 56.3692 22.7704 56.2235 22.8745C56.0804 22.9786 55.9738 23.1229 55.9035 23.3076C55.8333 23.4897 55.7982 23.7837 55.7982 24.1895V26.1055H54.7251V24.049C54.7251 23.6692 54.6965 23.3948 54.6393 23.2257C54.5846 23.054 54.5014 22.9265 54.3895 22.8433C54.2777 22.76 54.1424 22.7184 53.9837 22.7184C53.8068 22.7184 53.6455 22.7717 53.4998 22.8784C53.3568 22.9825 53.2488 23.1294 53.176 23.3193C53.1057 23.5092 53.0706 23.8084 53.0706 24.2168V26.1055H52.0014V21.8599ZM59.5169 21.8599H60.5861V22.3477C60.7682 22.1474 60.9698 21.9978 61.1909 21.899C61.4147 21.8001 61.6579 21.7507 61.9206 21.7507C62.186 21.7507 62.4253 21.8157 62.6386 21.9458C62.8519 22.0759 63.0236 22.2658 63.1537 22.5155C63.3228 22.2658 63.5296 22.0759 63.7741 21.9458C64.0213 21.8157 64.2905 21.7507 64.5819 21.7507C64.8837 21.7507 65.149 21.8209 65.3779 21.9614C65.6068 22.1019 65.7707 22.2853 65.8696 22.5116C65.971 22.7379 66.0218 23.106 66.0218 23.6159V26.1055H64.9487V23.9515C64.9487 23.4702 64.8889 23.1451 64.7692 22.976C64.6495 22.8043 64.47 22.7184 64.2307 22.7184C64.0486 22.7184 63.8847 22.7704 63.739 22.8745C63.5959 22.9786 63.4893 23.1229 63.4191 23.3076C63.3488 23.4897 63.3137 23.7837 63.3137 24.1895V26.1055H62.2406V24.049C62.2406 23.6692 62.212 23.3948 62.1548 23.2257C62.1001 23.054 62.0169 22.9265 61.905 22.8433C61.7932 22.76 61.6579 22.7184 61.4992 22.7184C61.3223 22.7184 61.161 22.7717 61.0153 22.8784C60.8723 22.9825 60.7643 23.1294 60.6915 23.3193C60.6212 23.5092 60.5861 23.8084 60.5861 24.2168V26.1055H59.5169V21.8599ZM71.2936 24.291H67.8714C67.9208 24.5927 68.0522 24.8334 68.2655 25.0129C68.4814 25.1898 68.7559 25.2782 69.0888 25.2782C69.4869 25.2782 69.829 25.139 70.1151 24.8607L71.0126 25.2821C70.7889 25.5995 70.5209 25.8349 70.2088 25.9884C69.8966 26.1393 69.5259 26.2147 69.0967 26.2147C68.4307 26.2147 67.8883 26.0053 67.4695 25.5865C67.0506 25.1651 66.8412 24.6383 66.8412 24.0061C66.8412 23.3584 67.0493 22.8212 67.4656 22.3945C67.8844 21.9653 68.4086 21.7507 69.0381 21.7507C69.7067 21.7507 70.2504 21.9653 70.6692 22.3945C71.088 22.8212 71.2975 23.3857 71.2975 24.0881L71.2936 24.291ZM70.2244 23.452C70.1541 23.2153 70.015 23.0228 69.8068 22.8745C69.6013 22.7262 69.362 22.6521 69.0888 22.6521C68.7923 22.6521 68.5321 22.7353 68.3084 22.9018C68.1679 23.0059 68.0379 23.1893 67.9182 23.452H70.2244ZM72.1598 21.8599H73.2212V22.2931C73.4631 22.0902 73.6817 21.9497 73.8768 21.8717C74.0745 21.791 74.2761 21.7507 74.4816 21.7507C74.903 21.7507 75.2607 21.8977 75.5547 22.1916C75.8018 22.4414 75.9254 22.8108 75.9254 23.2998V26.1055H74.8718V24.2442C74.8718 23.7369 74.8484 23.4 74.8016 23.2335C74.7573 23.067 74.678 22.9408 74.5635 22.855C74.4517 22.7665 74.3125 22.7223 74.146 22.7223C73.9301 22.7223 73.7441 22.7952 73.588 22.9408C73.4345 23.0839 73.3279 23.2829 73.268 23.5379C73.2368 23.6705 73.2212 23.958 73.2212 24.4002V26.1055H72.1598V21.8599ZM80.0968 20.2211H81.1581V26.1055H80.0968V25.6567C79.8887 25.8544 79.6792 25.9975 79.4685 26.086C79.2604 26.1718 79.0341 26.2147 78.7896 26.2147C78.2407 26.2147 77.7659 26.0027 77.3653 25.5787C76.9647 25.152 76.7643 24.6227 76.7643 23.9905C76.7643 23.335 76.9581 22.7978 77.3458 22.3789C77.7334 21.9601 78.2042 21.7507 78.7583 21.7507C79.0133 21.7507 79.2526 21.7988 79.4763 21.8951C79.7 21.9913 79.9069 22.1357 80.0968 22.3282V20.2211ZM78.9769 22.734C78.6465 22.734 78.372 22.8511 78.1535 23.0852C77.935 23.3167 77.8257 23.6146 77.8257 23.9788C77.8257 24.3456 77.9363 24.6474 78.1574 24.8841C78.3811 25.1208 78.6556 25.2392 78.9808 25.2392C79.3163 25.2392 79.5947 25.1234 79.8158 24.8919C80.0369 24.6578 80.1475 24.3521 80.1475 23.9749C80.1475 23.6055 80.0369 23.3063 79.8158 23.0774C79.5947 22.8485 79.315 22.734 78.9769 22.734ZM86.4885 24.291H83.0663C83.1157 24.5927 83.2471 24.8334 83.4604 25.0129C83.6763 25.1898 83.9508 25.2782 84.2838 25.2782C84.6818 25.2782 85.0239 25.139 85.31 24.8607L86.2075 25.2821C85.9838 25.5995 85.7158 25.8349 85.4037 25.9884C85.0915 26.1393 84.7208 26.2147 84.2916 26.2147C83.6256 26.2147 83.0832 26.0053 82.6644 25.5865C82.2455 25.1651 82.0361 24.6383 82.0361 24.0061C82.0361 23.3584 82.2442 22.8212 82.6605 22.3945C83.0793 21.9653 83.6035 21.7507 84.233 21.7507C84.9016 21.7507 85.4453 21.9653 85.8641 22.3945C86.2829 22.8212 86.4924 23.3857 86.4924 24.0881L86.4885 24.291ZM85.4193 23.452C85.349 23.2153 85.2099 23.0228 85.0017 22.8745C84.7962 22.7262 84.5569 22.6521 84.2838 22.6521C83.9872 22.6521 83.727 22.7353 83.5033 22.9018C83.3629 23.0059 83.2328 23.1893 83.1131 23.452H85.4193ZM90.492 20.2211H91.5534V26.1055H90.492V25.6567C90.2839 25.8544 90.0745 25.9975 89.8638 26.086C89.6557 26.1718 89.4294 26.2147 89.1848 26.2147C88.6359 26.2147 88.1612 26.0027 87.7606 25.5787C87.3599 25.152 87.1596 24.6227 87.1596 23.9905C87.1596 23.335 87.3534 22.7978 87.741 22.3789C88.1287 21.9601 88.5995 21.7507 89.1536 21.7507C89.4086 21.7507 89.6479 21.7988 89.8716 21.8951C90.0953 21.9913 90.3021 22.1357 90.492 22.3282V20.2211ZM89.3721 22.734C89.0418 22.734 88.7673 22.8511 88.5488 23.0852C88.3303 23.3167 88.221 23.6146 88.221 23.9788C88.221 24.3456 88.3316 24.6474 88.5527 24.8841C88.7764 25.1208 89.0509 25.2392 89.376 25.2392C89.7116 25.2392 89.99 25.1234 90.2111 24.8919C90.4322 24.6578 90.5428 24.3521 90.5428 23.9749C90.5428 23.6055 90.4322 23.3063 90.2111 23.0774C89.99 22.8485 89.7103 22.734 89.3721 22.734Z" fill="black"/>
</svg>
