<svg width="66" height="45" viewBox="0 0 66 45" fill="none" xmlns="http://www.w3.org/2000/svg">
<path d="M18.4911 35.8853L17.55 37.7785C17.5022 37.8748 17.4314 37.9582 17.3439 38.0213C17.2564 38.0845 17.1547 38.1255 17.0476 38.141L14.9441 38.4447C14.8455 38.4588 14.7529 38.5001 14.6767 38.5639C14.6005 38.6276 14.5438 38.7113 14.513 38.8054C14.4823 38.8994 14.4786 39.0002 14.5025 39.0962C14.5265 39.1923 14.577 39.2797 14.6484 39.3487L16.1711 40.8225C16.2484 40.8974 16.3063 40.9898 16.3397 41.0918C16.3731 41.1938 16.3811 41.3024 16.3629 41.4081L16.0034 43.4892C15.9868 43.5866 15.9978 43.6868 16.0354 43.7783C16.073 43.8698 16.1357 43.949 16.2162 44.007C16.2968 44.065 16.3921 44.0995 16.4914 44.1066C16.5907 44.1136 16.6899 44.093 16.778 44.0469L18.6597 43.0645C18.7554 43.0145 18.862 42.9884 18.9701 42.9884C19.0783 42.9884 19.1848 43.0145 19.2806 43.0645L21.1622 44.0469C21.2503 44.093 21.3496 44.1136 21.4489 44.1066C21.5481 44.0995 21.6434 44.065 21.724 44.007C21.8046 43.949 21.8672 43.8698 21.9048 43.7783C21.9424 43.6868 21.9535 43.5866 21.9368 43.4892L21.5773 41.4081C21.5592 41.3024 21.5671 41.1938 21.6005 41.0918C21.6339 40.9898 21.6918 40.8974 21.7691 40.8225L23.2919 39.3487C23.3633 39.2797 23.4138 39.1923 23.4377 39.0962C23.4616 39.0002 23.458 38.8994 23.4272 38.8054C23.3964 38.7113 23.3397 38.6276 23.2636 38.5639C23.1874 38.5001 23.0947 38.4588 22.9961 38.4447L20.8918 38.141C20.7847 38.1255 20.683 38.0845 20.5955 38.0213C20.508 37.9582 20.4372 37.8748 20.3894 37.7785L19.4483 35.8853C19.4042 35.7966 19.336 35.7219 19.2515 35.6697C19.1669 35.6175 19.0693 35.5898 18.9697 35.5898C18.8701 35.5898 18.7725 35.6175 18.6879 35.6697C18.6034 35.7219 18.5352 35.7966 18.4911 35.8853Z" fill="#FFAF00"/>
<path d="M32.6224 35.8845L31.6813 37.7776C31.6334 37.874 31.5626 37.9573 31.4751 38.0205C31.3876 38.0836 31.2859 38.1247 31.1788 38.1401L29.0745 38.4438C28.9759 38.458 28.8832 38.4993 28.8071 38.563C28.7309 38.6268 28.6742 38.7104 28.6434 38.8045C28.6126 38.8986 28.609 38.9994 28.6329 39.0954C28.6568 39.1914 28.7074 39.2789 28.7787 39.3479L30.3015 40.8216C30.3788 40.8965 30.4367 40.989 30.4701 41.091C30.5035 41.193 30.5114 41.3015 30.4933 41.4072L30.1338 43.4884C30.1171 43.5858 30.1282 43.6859 30.1658 43.7774C30.2034 43.8689 30.266 43.9481 30.3466 44.0061C30.4272 44.0642 30.5225 44.0986 30.6218 44.1057C30.721 44.1128 30.8203 44.0921 30.9084 44.0461L32.79 43.0637C32.8858 43.0137 32.9923 42.9876 33.1005 42.9876C33.2087 42.9876 33.3152 43.0137 33.411 43.0637L35.2926 44.0461C35.3807 44.0921 35.48 44.1128 35.5792 44.1057C35.6785 44.0986 35.7738 44.0642 35.8544 44.0061C35.935 43.9481 35.9976 43.8689 36.0352 43.7774C36.0728 43.6859 36.0839 43.5858 36.0672 43.4884L35.7077 41.4072C35.6895 41.3015 35.6975 41.193 35.7309 41.091C35.7643 40.989 35.8222 40.8965 35.8995 40.8216L37.4222 39.3479C37.4936 39.2789 37.5442 39.1914 37.5681 39.0954C37.592 38.9994 37.5884 38.8986 37.5576 38.8045C37.5268 38.7104 37.4701 38.6268 37.3939 38.563C37.3178 38.4993 37.2251 38.458 37.1265 38.4438L35.0222 38.1401C34.9151 38.1247 34.8134 38.0836 34.7259 38.0205C34.6384 37.9573 34.5676 37.874 34.5197 37.7776L33.5786 35.8845C33.5345 35.796 33.4663 35.7215 33.3819 35.6695C33.2974 35.6174 33.1999 35.5898 33.1005 35.5898C33.0011 35.5898 32.9036 35.6174 32.8191 35.6695C32.7347 35.7215 32.6665 35.796 32.6224 35.8845Z" fill="#FFAF00"/>
<path d="M46.7571 35.8853L45.816 37.7785C45.7681 37.8748 45.6974 37.9582 45.6098 38.0213C45.5223 38.0845 45.4206 38.1255 45.3136 38.141L43.2095 38.4447C43.1109 38.4588 43.0182 38.5001 42.9421 38.5639C42.8659 38.6276 42.8092 38.7113 42.7784 38.8054C42.7476 38.8994 42.744 39.0002 42.7679 39.0962C42.7918 39.1923 42.8424 39.2797 42.9138 39.3487L44.4365 40.8225C44.5138 40.8974 44.5717 40.9898 44.6051 41.0918C44.6385 41.1938 44.6465 41.3024 44.6283 41.4081L44.2688 43.4892C44.2521 43.5866 44.2632 43.6868 44.3008 43.7783C44.3384 43.8698 44.401 43.949 44.4816 44.007C44.5622 44.065 44.6575 44.0995 44.7568 44.1066C44.856 44.1136 44.9553 44.093 45.0434 44.0469L46.925 43.0645C47.0208 43.0145 47.1273 42.9884 47.2355 42.9884C47.3437 42.9884 47.4502 43.0145 47.546 43.0645L49.4276 44.0469C49.5157 44.093 49.615 44.1136 49.7142 44.1066C49.8135 44.0995 49.9088 44.065 49.9894 44.007C50.07 43.949 50.1326 43.8698 50.1702 43.7783C50.2078 43.6868 50.2189 43.5866 50.2022 43.4892L49.8427 41.4081C49.8245 41.3024 49.8325 41.1938 49.8659 41.0918C49.8993 40.9898 49.9572 40.8974 50.0345 40.8225L51.5573 39.3487C51.6286 39.2797 51.6792 39.1923 51.7031 39.0962C51.727 39.0002 51.7234 38.8994 51.6926 38.8054C51.6618 38.7113 51.6051 38.6276 51.5289 38.5639C51.4528 38.5001 51.3601 38.4588 51.2615 38.4447L49.1572 38.141C49.0501 38.1255 48.9484 38.0845 48.8609 38.0213C48.7734 37.9582 48.7026 37.8748 48.6547 37.7785L47.7142 35.8853C47.6702 35.7966 47.602 35.7219 47.5174 35.6697C47.4328 35.6175 47.3352 35.5898 47.2356 35.5898C47.1361 35.5898 47.0385 35.6175 46.9539 35.6697C46.8693 35.7219 46.8011 35.7966 46.7571 35.8853Z" fill="#FFAF00"/>
<path d="M61.8419 35.8873L62.783 37.7805C62.8309 37.8768 62.9016 37.9601 62.9892 38.0233C63.0767 38.0865 63.1784 38.1275 63.2854 38.143L65.3895 38.4467C65.4881 38.4608 65.5807 38.5021 65.6569 38.5659C65.7331 38.6296 65.7898 38.7133 65.8206 38.8074C65.8514 38.9014 65.855 39.0022 65.8311 39.0982C65.8072 39.1943 65.7566 39.2817 65.6852 39.3507L64.1625 40.8245C64.0852 40.8994 64.0273 40.9918 63.9939 41.0938C63.9605 41.1958 63.9525 41.3043 63.9707 41.4101L64.3302 43.4912C64.3469 43.5886 64.3358 43.6887 64.2982 43.7802C64.2606 43.8717 64.198 43.951 64.1174 44.009C64.0368 44.067 63.9415 44.1015 63.8422 44.1085C63.743 44.1156 63.6437 44.0949 63.5556 44.0489L61.674 43.0665C61.5782 43.0165 61.4717 42.9904 61.3635 42.9904C61.2553 42.9904 61.1488 43.0165 61.053 43.0665L59.1714 44.0489C59.0833 44.0949 58.984 44.1156 58.8847 44.1085C58.7855 44.1015 58.6902 44.067 58.6096 44.009C58.529 43.951 58.4664 43.8717 58.4288 43.7802C58.3912 43.6887 58.3801 43.5886 58.3968 43.4912L58.7563 41.4101C58.7745 41.3043 58.7665 41.1958 58.7331 41.0938C58.6997 40.9918 58.6418 40.8994 58.5645 40.8245L57.0417 39.3507C56.9703 39.2817 56.9198 39.1943 56.8959 39.0982C56.872 39.0022 56.8756 38.9014 56.9064 38.8074C56.9372 38.7133 56.9939 38.6296 57.0701 38.5659C57.1462 38.5021 57.2389 38.4608 57.3375 38.4467L59.4418 38.143C59.5489 38.1275 59.6506 38.0865 59.7381 38.0233C59.8256 37.9601 59.8964 37.8768 59.9443 37.7805L60.8828 35.8873C60.9267 35.7981 60.9949 35.7229 61.0797 35.6703C61.1644 35.6177 61.2624 35.5898 61.3624 35.5898C61.4623 35.5898 61.5603 35.6177 61.6451 35.6703C61.7299 35.7229 61.7981 35.7981 61.8419 35.8873Z" fill="#FFAF00"/>
<path d="M63.5556 44.0511L62.2741 43.3818V36.7578L62.7827 37.7812C62.8306 37.8776 62.9014 37.9609 62.9889 38.0241C63.0764 38.0872 63.1781 38.1283 63.2852 38.1437L65.3895 38.4474C65.4881 38.4616 65.5807 38.5029 65.6569 38.5666C65.7331 38.6304 65.7898 38.714 65.8206 38.8081C65.8514 38.9022 65.855 39.003 65.8311 39.099C65.8072 39.195 65.7566 39.2825 65.6852 39.3515L64.1625 40.8252C64.0852 40.9001 64.0273 40.9926 63.9939 41.0946C63.9605 41.1966 63.9525 41.3051 63.9707 41.4108L64.3302 43.492C64.3472 43.5895 64.3363 43.6898 64.2989 43.7815C64.2614 43.8732 64.1988 43.9527 64.1182 44.0109C64.0375 44.0691 63.9421 44.1037 63.8427 44.1108C63.7432 44.1179 63.6438 44.0972 63.5556 44.0511Z" fill="#FDE3AC"/>
<path d="M4.36162 35.8856L3.42052 37.779C3.37265 37.8754 3.3019 37.9587 3.21437 38.0219C3.12684 38.085 3.02516 38.1261 2.91809 38.1416L0.813734 38.4452C0.715134 38.4594 0.622497 38.5007 0.546313 38.5644C0.470129 38.6282 0.413441 38.7118 0.382665 38.8059C0.351889 38.9 0.348256 39.0008 0.372175 39.0968C0.396094 39.1928 0.446617 39.2803 0.518013 39.3493L2.04074 40.8231C2.11806 40.898 2.17591 40.9904 2.20933 41.0924C2.24274 41.1944 2.25071 41.3029 2.23255 41.4087L1.87307 43.4898C1.85638 43.5872 1.86747 43.6873 1.90507 43.7788C1.94267 43.8703 2.00529 43.9495 2.08587 44.0076C2.16644 44.0656 2.26175 44.1001 2.36102 44.1071C2.46029 44.1142 2.55956 44.0935 2.64764 44.0475L4.52929 43.0651C4.62504 43.0151 4.73159 42.989 4.83976 42.989C4.94793 42.989 5.05448 43.0151 5.15023 43.0651L7.03188 44.0475C7.11995 44.0935 7.21923 44.1142 7.3185 44.1071C7.41777 44.1001 7.51308 44.0656 7.59365 44.0076C7.67422 43.9495 7.73685 43.8703 7.77445 43.7788C7.81205 43.6873 7.82313 43.5872 7.80644 43.4898L7.44696 41.4087C7.42879 41.3029 7.43674 41.1944 7.47016 41.0924C7.50357 40.9904 7.56143 40.8979 7.63878 40.8231L9.1615 39.3493C9.2329 39.2803 9.28342 39.1928 9.30734 39.0968C9.33126 39.0008 9.32762 38.9 9.29684 38.8059C9.26607 38.7118 9.20938 38.6282 9.1332 38.5644C9.05701 38.5007 8.96438 38.4594 8.86578 38.4452L6.76255 38.1413C6.65548 38.1258 6.5538 38.0847 6.46627 38.0216C6.37874 37.9584 6.30799 37.8751 6.26012 37.7788L5.31901 35.8856C5.27499 35.7968 5.20682 35.7221 5.12221 35.6698C5.03761 35.6175 4.93996 35.5898 4.84032 35.5898C4.74067 35.5898 4.64302 35.6175 4.55842 35.6698C4.47382 35.7221 4.40564 35.7968 4.36162 35.8856Z" fill="#E2E2E2"/>
<path d="M5.29286 35.8845L6.23397 37.7776C6.28184 37.874 6.35259 37.9573 6.44012 38.0205C6.52765 38.0836 6.62933 38.1247 6.7364 38.1401L8.84075 38.4438C8.93935 38.458 9.03199 38.4993 9.10817 38.563C9.18435 38.6268 9.24104 38.7104 9.27182 38.8045C9.30259 38.8986 9.30623 38.9994 9.28231 39.0954C9.25839 39.1914 9.20787 39.2789 9.13648 39.3479L7.61375 40.8216C7.53643 40.8965 7.47858 40.989 7.44516 41.091C7.41175 41.193 7.40378 41.3015 7.42193 41.4072L7.78141 43.4884C7.7981 43.5858 7.78702 43.6859 7.74942 43.7774C7.71182 43.8689 7.6492 43.9481 7.56862 44.0061C7.48805 44.0642 7.39274 44.0986 7.29347 44.1057C7.1942 44.1128 7.09492 44.0921 7.00684 44.0461L5.1252 43.0637C5.02945 43.0137 4.9229 42.9876 4.81473 42.9876C4.70656 42.9876 4.60001 43.0137 4.50426 43.0637L2.62261 44.0461C2.53454 44.0921 2.43526 44.1128 2.33598 44.1057C2.23671 44.0986 2.14141 44.0642 2.06084 44.0061C1.98027 43.9481 1.91765 43.8689 1.88004 43.7774C1.84244 43.6859 1.83136 43.5858 1.84805 43.4884L2.20753 41.4072C2.22571 41.3015 2.21775 41.193 2.18434 41.091C2.15092 40.989 2.09305 40.8965 2.01571 40.8216L0.49298 39.3479C0.421584 39.2789 0.371069 39.1914 0.34715 39.0954C0.323231 38.9994 0.326864 38.8986 0.357641 38.8045C0.388417 38.7104 0.445105 38.6268 0.521288 38.563C0.597472 38.4993 0.69011 38.458 0.78871 38.4438L2.89307 38.1401C3.00014 38.1247 3.10182 38.0836 3.18935 38.0205C3.27687 37.9573 3.34762 37.874 3.39549 37.7776L4.33659 35.8845C4.38073 35.796 4.44889 35.7215 4.53338 35.6695C4.61786 35.6174 4.71531 35.5898 4.81473 35.5898C4.91416 35.5898 5.01161 35.6174 5.09609 35.6695C5.18057 35.7215 5.24872 35.796 5.29286 35.8845Z" fill="#FFAF00"/>
<path d="M56.7055 16.5047H55.9095V17.8867H54.9823V16.5047H52.2969V15.7699L54.9736 11.615H55.9095V15.7174H56.7055V16.5047ZM54.9823 14.0204C54.9823 13.8805 54.9823 13.7464 54.9823 13.6181C54.9881 13.4898 54.994 13.3673 54.9998 13.2507C55.0056 13.1282 55.0086 13.0174 55.0086 12.9183C55.0144 12.8133 55.0202 12.72 55.026 12.6384H54.9911C54.9444 12.755 54.889 12.8746 54.8249 12.997C54.7665 13.1195 54.7082 13.2274 54.6499 13.3207L53.1804 15.7174H54.9823V14.0204ZM57.3883 17.3706C57.3883 17.1432 57.4437 16.9828 57.5545 16.8895C57.6712 16.7962 57.814 16.7496 57.9832 16.7496C58.1464 16.7496 58.2864 16.7962 58.403 16.8895C58.5255 16.9828 58.5867 17.1432 58.5867 17.3706C58.5867 17.5981 58.5255 17.7613 58.403 17.8605C58.2864 17.9596 58.1464 18.0092 57.9832 18.0092C57.814 18.0092 57.6712 17.9596 57.5545 17.8605C57.4437 17.7613 57.3883 17.5981 57.3883 17.3706ZM61.4802 11.5537C61.8301 11.5537 62.1392 11.612 62.4074 11.7287C62.6815 11.8395 62.8943 12.0057 63.046 12.2273C63.2034 12.4489 63.2821 12.7259 63.2821 13.0582C63.2821 13.309 63.2326 13.5277 63.1334 13.7143C63.0401 13.9009 62.9089 14.0671 62.7398 14.2129C62.5765 14.3528 62.3957 14.4753 62.1975 14.5803C62.4249 14.7027 62.6348 14.8427 62.8273 15.0001C63.0197 15.1518 63.1743 15.3296 63.2909 15.5337C63.4133 15.7378 63.4746 15.9827 63.4746 16.2685C63.4746 16.6184 63.3929 16.9216 63.2297 17.1782C63.0722 17.4289 62.8448 17.6243 62.5474 17.7643C62.25 17.9042 61.8972 17.9742 61.489 17.9742C61.0516 17.9742 60.6813 17.9071 60.3781 17.773C60.0806 17.6389 59.8561 17.4494 59.7045 17.2044C59.5529 16.9537 59.4771 16.6504 59.4771 16.2947C59.4771 16.009 59.5296 15.7611 59.6345 15.5512C59.7453 15.3413 59.8882 15.1605 60.0632 15.0089C60.2439 14.8573 60.4422 14.729 60.658 14.624C60.4714 14.5074 60.3022 14.3762 60.1506 14.2304C59.999 14.0788 59.8795 13.9067 59.792 13.7143C59.7103 13.5219 59.6695 13.3003 59.6695 13.0495C59.6695 12.7229 59.7483 12.4518 59.9057 12.236C60.0632 12.0144 60.2789 11.8453 60.553 11.7287C60.8271 11.612 61.1361 11.5537 61.4802 11.5537ZM60.3868 16.2772C60.3868 16.563 60.4772 16.7991 60.658 16.9858C60.8387 17.1665 61.1099 17.2569 61.4715 17.2569C61.7164 17.2569 61.9176 17.2161 62.075 17.1345C62.2325 17.047 62.352 16.9304 62.4337 16.7846C62.5211 16.6329 62.5649 16.4609 62.5649 16.2685C62.5649 16.076 62.5182 15.9069 62.4249 15.7611C62.3316 15.6154 62.2033 15.4871 62.04 15.3763C61.8826 15.2596 61.7018 15.1547 61.4977 15.0614L61.384 15.0089C61.1741 15.108 60.9933 15.2188 60.8417 15.3413C60.6959 15.4637 60.5822 15.6008 60.5005 15.7524C60.4247 15.904 60.3868 16.079 60.3868 16.2772ZM61.4627 12.2797C61.2061 12.2797 60.9933 12.3497 60.8242 12.4897C60.6609 12.6296 60.5792 12.8337 60.5792 13.102C60.5792 13.2944 60.6201 13.4577 60.7017 13.5918C60.7892 13.726 60.9 13.8426 61.0341 13.9417C61.1741 14.035 61.3257 14.1254 61.489 14.2129C61.6522 14.1312 61.798 14.0438 61.9263 13.9505C62.0604 13.8513 62.1654 13.7347 62.2412 13.6006C62.3229 13.4606 62.3637 13.2944 62.3637 13.102C62.3637 12.8337 62.2791 12.6296 62.11 12.4897C61.9467 12.3497 61.731 12.2797 61.4627 12.2797Z" fill="black"/>
<path d="M13.2133 16.3047H15.4308V29.8384H13.2133V16.3047Z" fill="#16313B"/>
<path d="M23.1469 25.5482C23.1469 27.645 21.4114 27.8356 20.833 27.8356C19.4831 27.8356 19.2903 26.5966 19.2903 25.9294V20.6875H17.0728V25.8341C17.0728 27.0731 17.4584 28.2168 18.2297 28.884C18.9046 29.5511 19.7724 29.8371 20.833 29.8371C21.6043 29.8371 22.5684 29.6465 23.1469 29.0746V29.8371H25.3645V20.6875H23.1469V25.5482Z" fill="#16313B"/>
<path d="M29.6999 17.3516H27.4823V20.6873H25.8433V22.7841H27.4823V29.8369H29.6999V22.7841H31.3389V20.6873H29.6999V17.3516Z" fill="#16313B"/>
<path d="M38.2799 27.0723C37.7978 27.4536 37.1229 27.7395 36.448 27.7395C34.9053 27.7395 33.8448 26.5958 33.8448 25.0709C33.8448 23.5459 34.9053 22.4976 36.448 22.4976C37.1229 22.4976 37.7978 22.6882 38.2799 23.1647L38.5691 23.4506L40.1118 22.021L39.7261 21.7351C38.8584 20.9726 37.7014 20.4961 36.448 20.4961C33.7484 20.4961 31.7236 22.4976 31.7236 25.1662C31.7236 27.8348 33.7484 29.8363 36.448 29.8363C37.7014 29.8363 38.8584 29.3597 39.7261 28.5973L40.1118 28.3114L38.5691 26.7864L38.2799 27.0723Z" fill="#16313B"/>
<path d="M47.9171 21.4513C47.2421 20.7842 46.5672 20.4982 45.5067 20.4982C44.7353 20.4982 43.964 20.6889 43.3855 21.2607V16.3047H41.168V29.8384H43.3855V24.7871C43.3855 22.6903 44.8318 22.4997 45.4102 22.4997C46.7601 22.4997 46.6637 23.7387 46.6637 24.4059V29.7431H48.8812V24.5012C48.8812 23.2622 48.592 22.1185 47.9171 21.4513Z" fill="#16313B"/>
<path d="M36.3541 26.6956C37.206 26.6956 37.8967 26.0126 37.8967 25.1701C37.8967 24.3275 37.206 23.6445 36.3541 23.6445C35.5021 23.6445 34.8114 24.3275 34.8114 25.1701C34.8114 26.0126 35.5021 26.6956 36.3541 26.6956Z" fill="#EF4335"/>
<path d="M10.1277 26.5011C9.35635 27.2635 8.19936 27.7401 6.94596 27.7401C4.53557 27.7401 2.8001 25.8339 2.8001 23.2606C2.8001 20.6873 4.53557 18.7811 7.04238 18.7811C8.19936 18.7811 9.35635 19.2577 10.2241 20.1154L10.5133 20.4014L11.9596 18.9717L11.6703 18.6858C10.4169 17.4468 8.77785 16.7797 7.04238 16.7797C3.37859 16.6844 0.678955 19.5436 0.678955 23.2606C0.678955 26.9776 3.37859 29.8369 6.94596 29.8369C8.68144 29.8369 10.4169 29.1697 11.5739 27.9307L11.8632 27.6448L10.4169 26.2152L10.1277 26.5011Z" fill="#16313B"/>
<path d="M2.4878 2.86184C2.90039 2.86184 3.24101 2.91701 3.50968 3.02735C3.77834 3.1377 3.97744 3.30321 4.10697 3.5239C4.2413 3.73979 4.30847 4.01325 4.30847 4.34428C4.30847 4.60814 4.26289 4.83123 4.17174 5.01353C4.08538 5.19104 3.97024 5.33737 3.82631 5.45251C3.68718 5.56285 3.53606 5.65161 3.37295 5.71877L4.73305 8H3.82631L2.6821 5.92027H1.8977V8H1.09891V2.86184H2.4878ZM2.45182 3.5239H1.8977V5.2726H2.46621C2.70129 5.2726 2.89319 5.23902 3.04192 5.17185C3.19544 5.10469 3.30818 5.00394 3.38014 4.86961C3.4569 4.73528 3.49528 4.56976 3.49528 4.37306C3.49528 4.16677 3.4569 4.00365 3.38014 3.88371C3.30818 3.75898 3.19304 3.66782 3.03472 3.61025C2.8812 3.55268 2.6869 3.5239 2.45182 3.5239ZM6.80277 4.04923C7.25854 4.04923 7.60156 4.15717 7.83184 4.37306C8.06692 4.58415 8.18446 4.91758 8.18446 5.37335V8H7.63035L7.47922 7.46028H7.45044C7.3401 7.59941 7.22975 7.71455 7.11941 7.8057C7.01386 7.89685 6.88913 7.96402 6.7452 8.0072C6.60607 8.05037 6.43336 8.07196 6.22707 8.07196C6.01118 8.07196 5.81688 8.03118 5.64417 7.94963C5.47146 7.86327 5.33473 7.73374 5.23398 7.56103C5.13323 7.38352 5.08286 7.16283 5.08286 6.89897C5.08286 6.50557 5.22198 6.20572 5.50024 5.99943C5.7833 5.79313 6.21267 5.68039 6.78838 5.6612L7.40726 5.63961V5.42372C7.40726 5.13587 7.34729 4.93437 7.22735 4.81923C7.11221 4.70409 6.9491 4.64652 6.73801 4.64652C6.5605 4.64652 6.38539 4.67531 6.21267 4.73288C6.03996 4.79045 5.87205 4.86001 5.70893 4.94157L5.47146 4.38745C5.64896 4.2915 5.85046 4.21234 6.07595 4.14998C6.30623 4.08281 6.5485 4.04923 6.80277 4.04923ZM6.9395 6.15055C6.5461 6.16974 6.27264 6.2441 6.11912 6.37364C5.9656 6.49837 5.88884 6.67588 5.88884 6.90616C5.88884 7.10766 5.94161 7.25398 6.04716 7.34514C6.1575 7.43629 6.29903 7.48187 6.47174 7.48187C6.73561 7.48187 6.95629 7.39791 7.1338 7.23C7.31611 7.06208 7.40726 6.81021 7.40726 6.47438V6.13616L6.9395 6.15055ZM10.6306 7.45308C10.7314 7.45308 10.8297 7.44349 10.9257 7.4243C11.0216 7.40511 11.1056 7.38352 11.1776 7.35953V7.93523C11.096 7.97361 10.9881 8.0048 10.8537 8.02879C10.7242 8.05757 10.5875 8.07196 10.4435 8.07196C10.242 8.07196 10.0573 8.03598 9.88942 7.96402C9.72151 7.89206 9.58718 7.76732 9.48643 7.58981C9.38568 7.4123 9.33531 7.16523 9.33531 6.84859V4.70409H8.83876V4.35867L9.37129 4.07082L9.63755 3.25044H10.1197V4.12119H11.1488V4.70409H10.1197V6.8342C10.1197 7.04529 10.1677 7.20121 10.2636 7.30196C10.3596 7.40271 10.4819 7.45308 10.6306 7.45308ZM13.3666 4.04923C13.688 4.04923 13.9663 4.12119 14.2014 4.26512C14.4364 4.40425 14.6163 4.60574 14.7411 4.86961C14.8706 5.13347 14.9354 5.44531 14.9354 5.80513V6.22251H12.4958C12.5054 6.62071 12.6014 6.92535 12.7837 7.13644C12.966 7.34753 13.2227 7.45308 13.5537 7.45308C13.7888 7.45308 13.9975 7.43149 14.1798 7.38831C14.3669 7.34034 14.5564 7.27077 14.7483 7.17962V7.8129C14.566 7.89925 14.3789 7.96402 14.187 8.0072C13.9999 8.05037 13.772 8.07196 13.5033 8.07196C13.1531 8.07196 12.8413 7.9976 12.5678 7.84888C12.2943 7.70015 12.0808 7.47947 11.9273 7.18682C11.7738 6.88937 11.697 6.52476 11.697 6.09298C11.697 5.6564 11.7666 5.28699 11.9057 4.98475C12.0449 4.6825 12.2392 4.45222 12.4886 4.2939C12.7429 4.13079 13.0356 4.04923 13.3666 4.04923ZM13.3666 4.63933C13.1219 4.63933 12.9252 4.72808 12.7765 4.90559C12.6278 5.0831 12.5414 5.33497 12.5174 5.6612H14.1654C14.1654 5.4597 14.1366 5.2822 14.079 5.12867C14.0215 4.97515 13.9327 4.85521 13.8128 4.76886C13.6976 4.6825 13.5489 4.63933 13.3666 4.63933ZM20.8227 6.057C20.8227 6.37843 20.782 6.66389 20.7004 6.91336C20.6189 7.16283 20.5013 7.37392 20.3478 7.54663C20.1991 7.71934 20.0168 7.85128 19.8009 7.94243C19.585 8.02879 19.3427 8.07196 19.074 8.07196C18.8294 8.07196 18.6015 8.02879 18.3904 7.94243C18.1793 7.85128 17.997 7.71934 17.8435 7.54663C17.69 7.37392 17.57 7.16283 17.4837 6.91336C17.4021 6.66389 17.3613 6.37603 17.3613 6.0498C17.3613 5.62282 17.4309 5.26061 17.57 4.96316C17.7091 4.66571 17.9082 4.44023 18.1673 4.28671C18.4312 4.12839 18.743 4.04923 19.1028 4.04923C19.4387 4.04923 19.7361 4.12839 19.9952 4.28671C20.2542 4.44023 20.4557 4.66571 20.5997 4.96316C20.7484 5.26061 20.8227 5.62522 20.8227 6.057ZM18.1673 6.057C18.1673 6.34485 18.1985 6.59432 18.2609 6.80541C18.328 7.01171 18.4288 7.17003 18.5631 7.28037C18.7022 7.39071 18.8773 7.44588 19.0884 7.44588C19.3043 7.44588 19.4794 7.39071 19.6138 7.28037C19.7529 7.17003 19.8536 7.01171 19.916 6.80541C19.9832 6.59432 20.0168 6.34485 20.0168 6.057C20.0168 5.75955 19.9832 5.51008 19.916 5.30858C19.8488 5.10709 19.7481 4.95356 19.6138 4.84802C19.4794 4.73767 19.3019 4.6825 19.0812 4.6825C18.7598 4.6825 18.5271 4.80244 18.3832 5.04232C18.2393 5.2822 18.1673 5.62042 18.1673 6.057ZM23.609 4.04923C24.0311 4.04923 24.355 4.16197 24.5805 4.38745C24.8107 4.61294 24.9259 4.97515 24.9259 5.4741V8H24.1487V5.58204C24.1487 5.2798 24.0887 5.05431 23.9688 4.90559C23.8536 4.75207 23.6737 4.67531 23.429 4.67531C23.0692 4.67531 22.8222 4.79285 22.6878 5.02793C22.5535 5.26301 22.4863 5.60123 22.4863 6.0426V8H21.7091V4.12119H22.3208L22.4288 4.63933H22.4719C22.5535 4.50499 22.6518 4.39465 22.767 4.3083C22.8821 4.22194 23.0117 4.15717 23.1556 4.114C23.2995 4.07082 23.4506 4.04923 23.609 4.04923Z" fill="black"/>
</svg>
