<svg width="69" height="53" viewBox="0 0 69 53" fill="none" xmlns="http://www.w3.org/2000/svg">
<path d="M15.6823 25.6377H11.4595C11.4898 25.3302 11.4696 25.053 11.3987 24.8061C11.3278 24.5593 11.2063 24.3471 11.0341 24.1695C10.862 23.9876 10.6367 23.849 10.3582 23.7538C10.0797 23.6585 9.74806 23.6108 9.36325 23.6108C8.624 23.6108 7.96324 23.7689 7.38096 24.0851C6.79868 24.3969 6.31513 24.8451 5.93032 25.4298C5.54551 26.0101 5.27209 26.703 5.11006 27.5086C4.96829 28.2881 4.96322 28.9356 5.09487 29.4509C5.23158 29.9663 5.49741 30.3517 5.89234 30.6073C6.29235 30.8628 6.81134 30.9905 7.44931 30.9905C7.87463 30.9905 8.26451 30.9472 8.61894 30.8606C8.97844 30.774 9.29743 30.6506 9.57591 30.4903C9.85946 30.3257 10.1 30.1309 10.2974 29.9057C10.5 29.6761 10.6544 29.4228 10.7607 29.1456H15.0139C14.8519 29.7086 14.5633 30.2846 14.1481 30.8736C13.7329 31.4583 13.1962 31.9974 12.538 32.4911C11.8797 32.9805 11.105 33.3768 10.2139 33.68C9.32274 33.9831 8.32021 34.1347 7.20628 34.1347C5.74804 34.1347 4.4898 33.8618 3.43157 33.3162C2.3784 32.7705 1.61384 31.9736 1.13789 30.9256C0.666998 29.8775 0.573327 28.5999 0.856873 27.0928C1.14042 25.6377 1.69992 24.4185 2.53536 23.4354C3.37081 22.4524 4.38601 21.7118 5.58095 21.2137C6.77589 20.7157 8.04679 20.4667 9.39363 20.4667C10.4114 20.4667 11.3228 20.5814 12.1278 20.811C12.938 21.0405 13.619 21.3761 14.1709 21.8179C14.7278 22.2553 15.138 22.7945 15.4013 23.4354C15.6646 24.0764 15.7582 24.8105 15.6823 25.6377Z" fill="black"/>
<path d="M18.5855 20.6486H23.8412L25.9981 28.1842H26.1804L31.2539 20.6486H36.5096L33.9273 33.9528H29.7956L31.2843 26.2613H31.1627L26.2412 33.8489H23.75L21.7753 26.2093H21.6538L20.1348 33.9528H16.0032L18.5855 20.6486Z" fill="black"/>
<path d="M38.5109 20.6486H43.7666L45.9236 28.1842H46.1059L51.1793 20.6486H56.435L53.8527 33.9528H49.7211L51.2097 26.2613H51.0882L46.1666 33.8489H43.6755L41.7008 26.2093H41.5793L40.0603 33.9528H35.9286L38.5109 20.6486Z" fill="black"/>
<path d="M62.6591 20.6486L60.0768 33.9528H55.854L58.4363 20.6486H62.6591Z" fill="black"/>
<path d="M64.0061 16.1178C64.0061 17.8334 62.4984 19.2241 60.6386 19.2241C58.7788 19.2241 57.2711 17.8334 57.2711 16.1178C57.2711 14.4022 58.7788 13.0114 60.6386 13.0114C62.4984 13.0114 64.0061 14.4022 64.0061 16.1178Z" fill="#00B5F0"/>
<path d="M12.82 18.3997C23.5961 9.28768 48.3809 -4.58742 61.3121 12.8082C57.4956 2.45348 42.4541 -10.9249 12.82 18.3997Z" fill="url(#paint0_linear_3190_25035)"/>
<path d="M53.2301 37.8623C42.6149 46.1869 21.5172 55.4581 8.77903 39.5658C12.5386 49.0257 24.0384 64.6526 53.2301 37.8623Z" fill="url(#paint1_linear_3190_25035)"/>
<path d="M46.9039 35.3772L46.1246 40.2757H45.1481L45.9274 35.3772H46.9039Z" fill="black"/>
<path d="M48.5022 40.3474C48.1416 40.3474 47.8428 40.2709 47.6059 40.1178C47.3691 39.9631 47.2025 39.7447 47.1062 39.4624C47.0115 39.1786 46.9954 38.843 47.0581 38.4555C47.1192 38.0776 47.2422 37.7459 47.4271 37.4605C47.6136 37.1751 47.8474 36.9526 48.1286 36.7932C48.4097 36.6337 48.723 36.554 49.0684 36.554C49.3007 36.554 49.5108 36.5931 49.6987 36.6712C49.8882 36.7477 50.0456 36.8641 50.1709 37.0204C50.2963 37.1751 50.3818 37.3688 50.4277 37.6016C50.4751 37.8344 50.4743 38.1071 50.4254 38.4196L50.3818 38.6995H47.4111L47.5051 38.068H49.5589C49.5818 37.9213 49.5727 37.7914 49.5314 37.6782C49.4902 37.5649 49.4214 37.4764 49.3251 37.4127C49.2288 37.3473 49.1104 37.3146 48.9698 37.3146C48.8262 37.3146 48.6917 37.3513 48.5664 37.4246C48.4411 37.498 48.3356 37.5944 48.2501 37.714C48.166 37.832 48.1118 37.9604 48.0873 38.0991L47.9796 38.7258C47.949 38.9187 47.9551 39.079 47.9979 39.2065C48.0422 39.3341 48.1186 39.4298 48.2271 39.4935C48.3356 39.5557 48.4732 39.5868 48.6397 39.5868C48.7482 39.5868 48.8499 39.5709 48.9446 39.539C49.0409 39.5071 49.1265 39.4601 49.2013 39.3979C49.2762 39.3341 49.3373 39.2552 49.3847 39.1611L50.2764 39.2233C50.1939 39.4497 50.0686 39.6474 49.9005 39.8164C49.7324 39.9839 49.5299 40.1146 49.293 40.2087C49.0577 40.3012 48.7941 40.3474 48.5022 40.3474Z" fill="black"/>
<path d="M54.5457 36.6018L52.7279 40.2757H51.6277L50.9836 36.6018H51.9784L52.2901 39.2304H52.3268L53.4752 36.6018H54.5457Z" fill="black"/>
<path d="M55.9405 40.3474C55.5799 40.3474 55.2811 40.2709 55.0442 40.1178C54.8074 39.9631 54.6408 39.7447 54.5445 39.4624C54.4498 39.1786 54.4337 38.843 54.4964 38.4555C54.5575 38.0776 54.6805 37.7459 54.8654 37.4605C55.0519 37.1751 55.2857 36.9526 55.5669 36.7932C55.8481 36.6337 56.1613 36.554 56.5067 36.554C56.739 36.554 56.9491 36.5931 57.1371 36.6712C57.3265 36.7477 57.484 36.8641 57.6093 37.0204C57.7346 37.1751 57.8201 37.3688 57.866 37.6016C57.9134 37.8344 57.9126 38.1071 57.8637 38.4196L57.8201 38.6995H54.8494L54.9434 38.068H56.9972C57.0202 37.9213 57.011 37.7914 56.9697 37.6782C56.9285 37.5649 56.8597 37.4764 56.7634 37.4127C56.6671 37.3473 56.5487 37.3146 56.4081 37.3146C56.2645 37.3146 56.13 37.3513 56.0047 37.4246C55.8794 37.498 55.7739 37.5944 55.6884 37.714C55.6043 37.832 55.5501 37.9604 55.5256 38.0991L55.4179 38.7258C55.3873 38.9187 55.3934 39.079 55.4362 39.2065C55.4805 39.3341 55.5569 39.4298 55.6654 39.4935C55.7739 39.5557 55.9115 39.5868 56.078 39.5868C56.1865 39.5868 56.2882 39.5709 56.3829 39.539C56.4792 39.5071 56.5648 39.4601 56.6396 39.3979C56.7145 39.3341 56.7757 39.2552 56.823 39.1611L57.7147 39.2233C57.6322 39.4497 57.5069 39.6474 57.3388 39.8164C57.1707 39.9839 56.9682 40.1146 56.7313 40.2087C56.496 40.3012 56.2324 40.3474 55.9405 40.3474Z" fill="black"/>
<path d="M59.9651 35.3772L59.1857 40.2757H58.2093L58.9886 35.3772H59.9651Z" fill="black"/>
<path d="M64.6396 39.1049C63.9943 39.1049 63.4211 38.9905 62.9198 38.7618C62.4213 38.5303 62.0293 38.2119 61.744 37.8068C61.4588 37.4017 61.3148 36.9359 61.3121 36.4095H63.5517C63.5544 36.5721 63.6024 36.7182 63.6957 36.8477C63.7917 36.9745 63.9223 37.0737 64.0876 37.1454C64.253 37.217 64.4423 37.2529 64.6556 37.2529C64.8609 37.2529 65.0422 37.2157 65.1995 37.1412C65.3568 37.0641 65.4794 36.958 65.5674 36.8229C65.6554 36.6879 65.6981 36.5336 65.6954 36.3599C65.6981 36.1891 65.6474 36.0375 65.5434 35.9052C65.4421 35.7729 65.2994 35.6696 65.1155 35.5951C64.9315 35.5207 64.7195 35.4835 64.4796 35.4835H63.6477V33.8961H64.4796C64.7009 33.8961 64.8955 33.8589 65.0635 33.7845C65.2341 33.7101 65.3661 33.6067 65.4594 33.4744C65.5554 33.3421 65.6021 33.1906 65.5994 33.0197C65.6021 32.8543 65.5634 32.7083 65.4834 32.5815C65.4034 32.4547 65.2915 32.3555 65.1475 32.2839C65.0062 32.2122 64.8422 32.1764 64.6556 32.1764C64.4529 32.1764 64.2716 32.2136 64.1116 32.288C63.9543 32.3624 63.8304 32.4658 63.7397 32.598C63.6491 32.7303 63.6024 32.8819 63.5997 33.0528H61.4721C61.4747 32.5347 61.6121 32.0772 61.884 31.6803C62.1586 31.2834 62.5346 30.972 63.0118 30.746C63.4891 30.52 64.037 30.407 64.6556 30.407C65.2608 30.407 65.7954 30.5132 66.2593 30.7254C66.7259 30.9376 67.0898 31.2297 67.3511 31.6018C67.6151 31.9711 67.7457 32.3941 67.743 32.8709C67.7484 33.3449 67.5911 33.7335 67.2711 34.0367C66.9538 34.3398 66.5512 34.5189 66.0633 34.5741V34.6402C66.7245 34.7146 67.2218 34.9241 67.5551 35.2686C67.8884 35.6103 68.0523 36.0402 68.047 36.5584C68.0497 37.0544 67.9057 37.494 67.6151 37.8771C67.3271 38.2602 66.9258 38.5606 66.4113 38.7783C65.8994 38.996 65.3088 39.1049 64.6396 39.1049Z" fill="#00AEEF"/>
<defs>
<linearGradient id="paint0_linear_3190_25035" x1="3.50328" y1="58.8283" x2="84.0772" y2="56.9022" gradientUnits="userSpaceOnUse">
<stop offset="0.469461" stop-color="#00B7F1"/>
<stop offset="0.603003" stop-color="#97E2F9"/>
<stop offset="1" stop-color="white"/>
</linearGradient>
<linearGradient id="paint1_linear_3190_25035" x1="-1.31343" y1="71.3037" x2="85.275" y2="69.2658" gradientUnits="userSpaceOnUse">
<stop offset="0.469461" stop-color="#00B7F1"/>
<stop offset="1" stop-color="#F9FAFB"/>
</linearGradient>
</defs>
</svg>
