<svg width="35" height="59" viewBox="0 0 35 59" fill="none" xmlns="http://www.w3.org/2000/svg">
<path d="M32.6333 50.1602V51.2035H32.4166V50.1602H32.6333ZM32.9581 50.1602V50.3286H32.097V50.1602H32.9581ZM33.1813 50.1602H33.3655L33.6364 50.9262L33.9076 50.1602H34.0916L33.7105 51.2035H33.5626L33.1813 50.1602ZM33.082 50.1602H33.2653L33.2987 50.9069V51.2035H33.082V50.1602ZM34.0076 50.1602H34.1917V51.2035H33.9742V50.9069L34.0076 50.1602Z" fill="white"/>
<path d="M34.3504 0H0.0133057V33.7624H34.3504V0Z" fill="#DD0401"/>
<path d="M6.97816 6.49444C6.85899 6.27858 6.6951 6.11422 6.48652 6.00138C6.27796 5.88855 6.03461 5.83213 5.75652 5.83213C5.44862 5.83213 5.17548 5.9008 4.93711 6.03817C4.69874 6.17555 4.51251 6.37178 4.37841 6.62691C4.24433 6.88198 4.1773 7.17636 4.1773 7.50999C4.1773 7.85342 4.24433 8.15271 4.37841 8.40778C4.51747 8.66292 4.70866 8.85912 4.95201 8.99654C5.19534 9.13389 5.47841 9.20256 5.80121 9.20256C6.19849 9.20256 6.52378 9.09955 6.77704 8.89346C7.03031 8.68254 7.19668 8.39065 7.27613 8.01778H5.48834V7.23032H8.30415V8.12818C8.23461 8.48626 8.08561 8.81747 7.85715 9.12159C7.62873 9.42578 7.33324 9.67111 6.97071 9.85751C6.61317 10.0391 6.21091 10.1298 5.76397 10.1298C5.26239 10.1298 4.80799 10.0195 4.40077 9.79865C3.99851 9.57301 3.68068 9.26142 3.44728 8.86403C3.21884 8.46664 3.10461 8.01529 3.10461 7.50999C3.10461 7.00468 3.21884 6.5533 3.44728 6.15593C3.68068 5.75363 3.99851 5.4421 4.40077 5.22131C4.80799 4.99565 5.25989 4.88281 5.75652 4.88281C6.34251 4.88281 6.85154 5.02508 7.28358 5.30963C7.71563 5.58928 8.01363 5.98421 8.17752 6.49444H6.97816ZM10.1186 6.64163C10.2527 6.42576 10.4265 6.25649 10.64 6.13384C10.8585 6.01119 11.1068 5.94987 11.3849 5.94987V7.03162H11.1093C10.7815 7.03162 10.5332 7.10769 10.3644 7.25975C10.2005 7.41188 10.1186 7.67676 10.1186 8.05453V10.0856H9.07571V6.00874H10.1186V6.64163ZM15.9237 7.95892C15.9237 8.10607 15.9138 8.23851 15.8938 8.35631H12.877C12.9018 8.65062 13.006 8.88124 13.1899 9.04801C13.3736 9.21486 13.5995 9.29825 13.8677 9.29825C14.2551 9.29825 14.5307 9.13389 14.6945 8.80517H15.8193C15.7002 9.19765 15.4717 9.52147 15.134 9.77661C14.7963 10.0268 14.3817 10.1519 13.89 10.1519C13.4927 10.1519 13.1352 10.066 12.8174 9.89433C12.5045 9.71767 12.2587 9.46993 12.0799 9.15102C11.9061 8.83219 11.8192 8.46422 11.8192 8.04721C11.8192 7.6253 11.9061 7.25484 12.0799 6.93601C12.2537 6.61709 12.4971 6.37178 12.81 6.20008C13.1228 6.02836 13.4828 5.9425 13.89 5.9425C14.2824 5.9425 14.6325 6.02591 14.9404 6.19272C15.2533 6.35952 15.4941 6.59746 15.6629 6.90658C15.8367 7.2107 15.9237 7.56153 15.9237 7.95892ZM14.8435 7.66454C14.8386 7.39958 14.7418 7.18866 14.553 7.03162C14.3643 6.86975 14.1334 6.78878 13.8603 6.78878C13.602 6.78878 13.3835 6.86726 13.2047 7.0243C13.0309 7.17636 12.9241 7.38977 12.8844 7.66454H14.8435ZM16.4167 8.0325C16.4167 7.62039 16.4986 7.25484 16.6626 6.93601C16.8313 6.61709 17.0573 6.37178 17.3404 6.20008C17.6285 6.02836 17.9487 5.9425 18.3013 5.9425C18.6092 5.9425 18.8774 6.00383 19.1059 6.12648C19.3392 6.24913 19.5254 6.40368 19.6646 6.59012V6.00874H20.7149V10.0856H19.6646V9.48955C19.5304 9.68092 19.3442 9.84038 19.1059 9.96791C18.8725 10.0905 18.6018 10.1519 18.2939 10.1519C17.9463 10.1519 17.6285 10.0636 17.3404 9.88694C17.0573 9.71035 16.8313 9.46261 16.6626 9.1437C16.4986 8.81988 16.4167 8.44951 16.4167 8.0325ZM19.6646 8.04721C19.6646 7.79697 19.6149 7.58356 19.5156 7.40698C19.4163 7.22541 19.2821 7.08807 19.1132 6.99487C18.9444 6.89677 18.7632 6.84764 18.5695 6.84764C18.3758 6.84764 18.1971 6.89428 18.0331 6.98748C17.8693 7.08075 17.7352 7.21809 17.6309 7.39958C17.5316 7.57624 17.4819 7.78716 17.4819 8.0325C17.4819 8.27775 17.5316 8.49365 17.6309 8.68005C17.7352 8.86162 17.8693 9.00145 18.0331 9.09955C18.202 9.19765 18.3807 9.24671 18.5695 9.24671C18.7632 9.24671 18.9444 9.20015 19.1132 9.10687C19.2821 9.00877 19.4163 8.87143 19.5156 8.69477C19.6149 8.51328 19.6646 8.29737 19.6646 8.04721ZM22.9476 6.85504V8.82728C22.9476 8.96462 22.9799 9.06522 23.0444 9.12898C23.114 9.18784 23.2283 9.21728 23.3871 9.21728H23.8714V10.0856H23.2158C22.3369 10.0856 21.8973 9.66372 21.8973 8.81988V6.85504H21.4057V6.00874H21.8973V5.00055H22.9476V6.00874H23.8714V6.85504H22.9476Z" fill="white"/>
<path d="M7.14391 13.7932C7.14391 14.068 7.07686 14.3255 6.94278 14.5659C6.81366 14.8063 6.60757 15.0001 6.3245 15.1472C6.0464 15.2945 5.6938 15.368 5.26672 15.368H4.39517V17.3402H3.35229V12.2036H5.26672C5.66897 12.2036 6.01163 12.2723 6.2947 12.4097C6.57776 12.5471 6.78882 12.7359 6.92788 12.9763C7.07189 13.2167 7.14391 13.489 7.14391 13.7932ZM5.22203 14.5364C5.51006 14.5364 5.72361 14.4727 5.86265 14.3451C6.0017 14.2127 6.07123 14.0286 6.07123 13.7932C6.07123 13.2928 5.78816 13.0426 5.22203 13.0426H4.39517V14.5364H5.22203ZM8.9272 11.8945V17.3402H7.88435V11.8945H8.9272ZM9.68945 15.2871C9.68945 14.875 9.77135 14.5095 9.93524 14.1906C10.1041 13.8717 10.33 13.6263 10.6131 13.4547C10.9011 13.283 11.2214 13.1971 11.5741 13.1971C11.8819 13.1971 12.1502 13.2585 12.3785 13.3811C12.612 13.5037 12.7982 13.6583 12.9372 13.8447V13.2634H13.9875V17.3402H12.9372V16.7441C12.8032 16.9355 12.6169 17.0949 12.3785 17.2225C12.1451 17.3451 11.8745 17.4065 11.5666 17.4065C11.219 17.4065 10.9011 17.3182 10.6131 17.1416C10.33 16.965 10.1041 16.7173 9.93524 16.3983C9.77135 16.0745 9.68945 15.7041 9.68945 15.2871ZM12.9372 15.3018C12.9372 15.0516 12.8876 14.8381 12.7883 14.6616C12.6889 14.4801 12.5549 14.3426 12.386 14.2494C12.2172 14.1513 12.0359 14.1023 11.8422 14.1023C11.6486 14.1023 11.4697 14.1489 11.3059 14.2421C11.142 14.3353 11.0079 14.4727 10.9037 14.6542C10.8043 14.8308 10.7547 15.0418 10.7547 15.2871C10.7547 15.5324 10.8043 15.7482 10.9037 15.9347C11.0079 16.1162 11.142 16.2561 11.3059 16.3542C11.4747 16.4523 11.6535 16.5013 11.8422 16.5013C12.0359 16.5013 12.2172 16.4547 12.386 16.3614C12.5549 16.2634 12.6889 16.126 12.7883 15.9494C12.8876 15.7679 12.9372 15.552 12.9372 15.3018ZM14.738 15.3018C14.738 14.8799 14.8249 14.5119 14.9986 14.1979C15.1725 13.8791 15.4134 13.6337 15.7213 13.4621C16.0291 13.2854 16.3817 13.1971 16.7791 13.1971C17.2905 13.1971 17.7127 13.3246 18.0454 13.5798C18.383 13.83 18.609 14.1832 18.7233 14.6395H17.5984C17.5389 14.4629 17.4371 14.3255 17.293 14.2273C17.154 14.1243 16.9801 14.0729 16.7715 14.0729C16.4736 14.0729 16.2377 14.1808 16.0639 14.3966C15.8901 14.6076 15.8032 14.9093 15.8032 15.3018C15.8032 15.6894 15.8901 15.9911 16.0639 16.207C16.2377 16.4179 16.4736 16.5235 16.7715 16.5235C17.1937 16.5235 17.4693 16.337 17.5984 15.9641H18.7233C18.609 16.4056 18.383 16.7565 18.0454 17.0164C17.7077 17.2765 17.2856 17.4065 16.7791 17.4065C16.3817 17.4065 16.0291 17.3206 15.7213 17.1489C15.4134 16.9723 15.1725 16.727 14.9986 16.4131C14.8249 16.0941 14.738 15.7237 14.738 15.3018ZM23.3236 15.2135C23.3236 15.3606 23.3136 15.4932 23.2937 15.6109H20.2768C20.3017 15.9053 20.406 16.1358 20.5898 16.3027C20.7735 16.4695 20.9995 16.5528 21.2676 16.5528C21.655 16.5528 21.9306 16.3885 22.0944 16.0597H23.2192C23.1001 16.4523 22.8716 16.7761 22.534 17.0312C22.1964 17.2813 21.7816 17.4065 21.29 17.4065C20.8926 17.4065 20.5352 17.3206 20.2172 17.1489C19.9043 16.9723 19.6586 16.7245 19.4798 16.4056C19.3059 16.0868 19.2191 15.7188 19.2191 15.3018C19.2191 14.8799 19.3059 14.5095 19.4798 14.1906C19.6536 13.8717 19.897 13.6263 20.2098 13.4547C20.5226 13.283 20.8828 13.1971 21.29 13.1971C21.6823 13.1971 22.0324 13.2805 22.3403 13.4473C22.6531 13.6141 22.894 13.8521 23.0628 14.1612C23.2366 14.4653 23.3236 14.8161 23.3236 15.2135ZM22.2435 14.9191C22.2385 14.6542 22.1417 14.4432 21.9529 14.2863C21.7642 14.1243 21.5333 14.0434 21.2602 14.0434C21.0019 14.0434 20.7835 14.1219 20.6045 14.2789C20.4307 14.431 20.3241 14.6444 20.2843 14.9191H22.2435Z" fill="white"/>
<path d="M6.89525 19.457V20.2885H5.50971V24.5935H4.46684V20.2885H3.0813V19.457H6.89525ZM9.48863 24.6599C9.0914 24.6599 8.73378 24.5739 8.41601 24.4022C8.09817 24.2257 7.84734 23.9779 7.66361 23.6591C7.48484 23.3402 7.39545 22.9722 7.39545 22.5552C7.39545 22.1381 7.48732 21.7702 7.67109 21.4512C7.85978 21.1325 8.11549 20.8871 8.4383 20.7155C8.76111 20.5389 9.12117 20.4505 9.51848 20.4505C9.91578 20.4505 10.2758 20.5389 10.5986 20.7155C10.9214 20.8871 11.1747 21.1325 11.3584 21.4512C11.5471 21.7702 11.6414 22.1381 11.6414 22.5552C11.6414 22.9722 11.5446 23.3402 11.3509 23.6591C11.1622 23.9779 10.904 24.2257 10.5762 24.4022C10.2535 24.5739 9.8909 24.6599 9.48863 24.6599ZM9.48863 23.7621C9.6774 23.7621 9.85365 23.7179 10.0175 23.6296C10.1864 23.5364 10.3205 23.399 10.4198 23.2174C10.5191 23.036 10.5688 22.8151 10.5688 22.5552C10.5688 22.1677 10.4645 21.8707 10.2559 21.6646C10.0523 21.4537 9.80151 21.3483 9.50359 21.3483C9.20559 21.3483 8.95484 21.4537 8.75119 21.6646C8.55257 21.8707 8.45326 22.1677 8.45326 22.5552C8.45326 22.9427 8.55005 23.2421 8.74378 23.453C8.9424 23.6591 9.19071 23.7621 9.48863 23.7621Z" fill="white"/>
<path d="M10.3039 26.7153L8.85134 31.8519H7.62226L6.64642 28.1944L5.62588 31.8519L4.40422 31.8593L3.00378 26.7153H4.12116L5.03741 30.7038L6.09519 26.7153H7.25724L8.25541 30.6818L9.17911 26.7153H10.3039ZM12.8174 31.9182C12.4201 31.9182 12.0625 31.8322 11.7447 31.6606C11.4269 31.484 11.1761 31.2362 10.9924 30.9172C10.8136 30.5985 10.7242 30.2305 10.7242 29.8135C10.7242 29.3964 10.816 29.0285 10.9998 28.7095C11.1885 28.3906 11.4443 28.1455 11.7671 27.9738C12.0899 27.797 12.4499 27.7088 12.8472 27.7088C13.2445 27.7088 13.6045 27.797 13.9273 27.9738C14.2501 28.1455 14.5033 28.3906 14.6871 28.7095C14.8758 29.0285 14.9702 29.3964 14.9702 29.8135C14.9702 30.2305 14.8733 30.5985 14.6797 30.9172C14.491 31.2362 14.2327 31.484 13.905 31.6606C13.5822 31.8322 13.2197 31.9182 12.8174 31.9182ZM12.8174 31.0204C13.0061 31.0204 13.1824 30.9762 13.3463 30.8879C13.5151 30.7947 13.6492 30.6573 13.7486 30.4757C13.8479 30.2943 13.8975 30.0734 13.8975 29.8135C13.8975 29.4259 13.7932 29.1291 13.5847 28.923C13.381 28.712 13.1303 28.6066 12.8323 28.6066C12.5344 28.6066 12.2835 28.712 12.08 28.923C11.8813 29.1291 11.7819 29.4259 11.7819 29.8135C11.7819 30.201 11.8788 30.5004 12.0725 30.7113C12.2711 30.9172 12.5194 31.0204 12.8174 31.0204ZM16.778 28.4078C16.9121 28.192 17.086 28.0227 17.2995 27.9001C17.518 27.7773 17.7663 27.7161 18.0444 27.7161V28.798H17.7687C17.441 28.798 17.1927 28.874 17.024 29.0261C16.8599 29.1782 16.778 29.443 16.778 29.8208V31.8519H15.7352V27.7749H16.778V28.4078ZM21.1902 31.8519L19.7898 30.1153V31.8519H18.7469V26.4062H19.7898V29.5044L21.1752 27.7749H22.5309L20.7133 29.8208L22.5459 31.8519H21.1902Z" fill="white"/>
<path d="M34.3504 33.7617H0.0133057V47.1461H34.3504V33.7617Z" fill="#001666"/>
<path d="M17.1722 47.1484H34.3444L25.7575 52.7588L17.1722 58.3691L8.58673 52.7588L-0.000244141 47.1484H17.1722Z" fill="#001666"/>
<path d="M6.93182 39.5645H7.95063C7.93018 39.8943 7.8382 40.1871 7.67462 40.443C7.51335 40.6989 7.28732 40.8986 6.99656 41.0422C6.70805 41.1858 6.3605 41.2576 5.95388 41.2576C5.63585 41.2576 5.35076 41.2038 5.09862 41.0961C4.84646 40.986 4.63066 40.8291 4.45119 40.6248C4.27401 40.4207 4.13885 40.1737 4.04572 39.8843C3.95259 39.5948 3.90601 39.2705 3.90601 38.9113V38.5715C3.90601 38.2123 3.95372 37.888 4.04913 37.5986C4.14681 37.3069 4.28537 37.0588 4.46483 36.8546C4.64656 36.6505 4.8635 36.4934 5.11566 36.3834C5.3678 36.2733 5.64949 36.2184 5.9607 36.2184C6.37412 36.2184 6.72283 36.2925 7.00678 36.4405C7.293 36.5887 7.51448 36.7928 7.67126 37.0533C7.83026 37.3135 7.92567 37.6098 7.95743 37.9418H6.93522C6.92386 37.7445 6.88411 37.5772 6.81596 37.4403C6.74781 37.3012 6.64445 37.1969 6.5059 37.1274C6.3696 37.0555 6.18787 37.0195 5.9607 37.0195C5.79033 37.0195 5.64153 37.051 5.51433 37.1139C5.38711 37.1766 5.28035 37.272 5.19402 37.3999C5.1077 37.5279 5.04296 37.6894 4.9998 37.8848C4.95891 38.0777 4.93846 38.3044 4.93846 38.5646V38.9113C4.93846 39.1649 4.95778 39.3882 4.9964 39.5814C5.035 39.7721 5.09408 39.9337 5.17358 40.066C5.25536 40.1962 5.35986 40.2949 5.48706 40.3623C5.61654 40.4273 5.77215 40.4599 5.95388 40.4599C6.16742 40.4599 6.34346 40.4262 6.48203 40.3589C6.62061 40.2915 6.72624 40.1917 6.79892 40.0593C6.8739 39.9269 6.91818 39.7619 6.93182 39.5645ZM10.2575 41.2576C9.97129 41.2576 9.71459 41.2127 9.48742 41.1231C9.26026 41.0309 9.06714 40.9042 8.90814 40.7427C8.75136 40.581 8.63098 40.3937 8.54694 40.1805C8.4629 39.965 8.42084 39.7362 8.42084 39.4938V39.359C8.42084 39.0831 8.46061 38.8306 8.54014 38.6016C8.61961 38.3728 8.73319 38.1742 8.88089 38.0059C9.03081 37.8376 9.21255 37.7085 9.42605 37.6189C9.63963 37.5268 9.88038 37.4807 10.1485 37.4807C10.4097 37.4807 10.6414 37.5233 10.8435 37.6087C11.0457 37.6939 11.215 37.8152 11.3513 37.9722C11.4898 38.1293 11.5943 38.3179 11.6647 38.5378C11.7352 38.7553 11.7704 38.9978 11.7704 39.2649V39.6687H8.83998V39.0224H10.8061V38.9484C10.8061 38.8137 10.7811 38.6938 10.7311 38.5882C10.6834 38.4805 10.6107 38.3952 10.513 38.3324C10.4154 38.2696 10.2904 38.2381 10.1382 38.2381C10.0087 38.2381 9.8974 38.2662 9.80428 38.3222C9.71115 38.3784 9.63505 38.457 9.57597 38.558C9.51918 38.6589 9.47605 38.7779 9.44651 38.9147C9.41926 39.0495 9.4056 39.1976 9.4056 39.359V39.4938C9.4056 39.6395 9.42605 39.7743 9.46697 39.8977C9.5101 40.0211 9.57032 40.1278 9.64757 40.2174C9.72703 40.3073 9.82245 40.3768 9.93374 40.4262C10.0473 40.4756 10.1757 40.5003 10.3188 40.5003C10.496 40.5003 10.6607 40.4667 10.8129 40.3992C10.9674 40.3297 11.1002 40.2254 11.2115 40.0863L11.6886 40.5979C11.6114 40.7078 11.5057 40.8134 11.3717 40.9143C11.2399 41.0152 11.0809 41.0982 10.8947 41.1634C10.7084 41.2262 10.496 41.2576 10.2575 41.2576ZM13.3105 38.3425V41.1903H12.3292V37.5481H13.2527L13.3105 38.3425ZM14.4214 37.5244L14.4044 38.4233C14.3566 38.4167 14.2987 38.4109 14.2305 38.4064C14.1647 38.3997 14.1044 38.3964 14.0499 38.3964C13.9114 38.3964 13.791 38.4144 13.6887 38.4502C13.5888 38.4839 13.5048 38.5344 13.4366 38.6016C13.3707 38.6691 13.3207 38.751 13.2867 38.8475C13.2549 38.9439 13.2367 39.0539 13.2322 39.1773L13.0345 39.1168C13.0345 38.8812 13.0584 38.6646 13.1061 38.4671C13.1538 38.2673 13.2231 38.0934 13.3139 37.9452C13.4071 37.7972 13.5207 37.6828 13.6547 37.602C13.7887 37.5211 13.942 37.4807 14.1147 37.4807C14.1692 37.4807 14.2249 37.4852 14.2817 37.4942C14.3385 37.501 14.385 37.511 14.4214 37.5244ZM16.8611 37.5481V38.2349H14.7144V37.5481H16.8611ZM15.246 36.6494H16.2273V40.0929C16.2273 40.1985 16.241 40.2792 16.2682 40.3353C16.2978 40.3915 16.3409 40.4307 16.3977 40.453C16.4546 40.4733 16.5261 40.4834 16.6124 40.4834C16.6736 40.4834 16.7281 40.4811 16.7759 40.4767C16.8258 40.4699 16.868 40.4633 16.9019 40.4564L16.9054 41.1701C16.8214 41.197 16.7304 41.2184 16.6328 41.2342C16.5352 41.2499 16.4273 41.2576 16.3091 41.2576C16.0933 41.2576 15.9047 41.2229 15.7434 41.1534C15.5844 41.0816 15.4618 40.9671 15.3754 40.81C15.2891 40.6528 15.246 40.4464 15.246 40.1906V36.6494ZM18.4558 37.5481V41.1903H17.471V37.5481H18.4558ZM17.4096 36.5987C17.4096 36.4574 17.4597 36.3408 17.5596 36.2487C17.6596 36.1567 17.7936 36.1107 17.9617 36.1107C18.1275 36.1107 18.2603 36.1567 18.3603 36.2487C18.4625 36.3408 18.5138 36.4574 18.5138 36.5987C18.5138 36.7402 18.4625 36.8569 18.3603 36.9489C18.2603 37.041 18.1275 37.0868 17.9617 37.0868C17.7936 37.0868 17.6596 37.041 17.5596 36.9489C17.4597 36.8569 17.4096 36.7402 17.4096 36.5987ZM20.4934 41.1903H19.5087V37.3831C19.5087 37.0734 19.5723 36.812 19.6995 36.5987C19.829 36.3855 20.013 36.2241 20.2515 36.1141C20.4922 36.0042 20.7831 35.9492 21.1239 35.9492C21.3168 35.9492 21.5043 35.9682 21.686 36.0063C21.8677 36.0423 22.0551 36.0894 22.2483 36.1477L22.1052 36.9253C21.9803 36.8872 21.8462 36.8512 21.7031 36.8177C21.5599 36.7839 21.3873 36.7671 21.1852 36.7671C20.9581 36.7671 20.7854 36.8198 20.6672 36.9253C20.5513 37.0286 20.4934 37.1812 20.4934 37.3831V41.1903ZM21.2261 37.5481V38.2349H18.9601V37.5481H21.2261ZM22.7049 37.5481V41.1903H21.7201V37.5481H22.7049ZM25.2229 41.2576C24.9366 41.2576 24.6799 41.2127 24.4528 41.1231C24.2256 41.0309 24.0326 40.9042 23.8736 40.7427C23.7168 40.581 23.5965 40.3937 23.5124 40.1805C23.4284 39.965 23.3864 39.7362 23.3864 39.4938V39.359C23.3864 39.0831 23.4261 38.8306 23.5056 38.6016C23.5852 38.3728 23.6988 38.1742 23.8463 38.0059C23.9963 37.8376 24.1781 37.7085 24.3916 37.6189C24.6051 37.5268 24.8459 37.4807 25.114 37.4807C25.3751 37.4807 25.6068 37.5233 25.809 37.6087C26.0112 37.6939 26.1805 37.8152 26.3167 37.9722C26.4553 38.1293 26.5598 38.3179 26.6302 38.5378C26.7006 38.7553 26.7359 38.9978 26.7359 39.2649V39.6687H23.8055V39.0224H25.7716V38.9484C25.7716 38.8137 25.7465 38.6938 25.6966 38.5882C25.6488 38.4805 25.5761 38.3952 25.4784 38.3324C25.3808 38.2696 25.2559 38.2381 25.1037 38.2381C24.9743 38.2381 24.863 38.2662 24.7697 38.3222C24.6767 38.3784 24.6005 38.457 24.5414 38.558C24.4846 38.6589 24.4415 38.7779 24.4119 38.9147C24.3847 39.0495 24.371 39.1976 24.371 39.359V39.4938C24.371 39.6395 24.3916 39.7743 24.4325 39.8977C24.4756 40.0211 24.5358 40.1278 24.613 40.2174C24.6926 40.3073 24.7879 40.3768 24.8992 40.4262C25.0128 40.4756 25.1412 40.5003 25.2843 40.5003C25.4614 40.5003 25.6262 40.4667 25.7784 40.3992C25.9328 40.3297 26.0657 40.2254 26.177 40.0863L26.654 40.5979C26.5769 40.7078 26.4711 40.8134 26.3373 40.9143C26.2054 41.0152 26.0464 41.0982 25.8601 41.1634C25.6738 41.2262 25.4614 41.2576 25.2229 41.2576ZM29.472 40.396V36.0197H30.4601V41.1903H29.5708L29.472 40.396ZM27.1413 39.413V39.3424C27.1413 39.0641 27.1732 38.8115 27.2367 38.5849C27.3003 38.356 27.3935 38.1596 27.5162 37.9959C27.6388 37.8319 27.7898 37.7051 27.9694 37.6155C28.1488 37.5256 28.3533 37.4807 28.5827 37.4807C28.7984 37.4807 28.987 37.5256 29.1483 37.6155C29.3118 37.7051 29.4505 37.833 29.5641 37.9991C29.6798 38.163 29.773 38.3571 29.8435 38.5815C29.9139 38.8037 29.9649 39.0472 29.9968 39.312V39.4669C29.9649 39.7204 29.9139 39.956 29.8435 40.1737C29.773 40.3915 29.6798 40.5822 29.5641 40.7461C29.4505 40.9076 29.3118 41.0332 29.1483 41.1231C28.9847 41.2127 28.794 41.2576 28.5758 41.2576C28.3464 41.2576 28.142 41.2116 27.9625 41.1197C27.7853 41.0277 27.6354 40.8986 27.5128 40.7326C27.3922 40.5664 27.3003 40.3712 27.2367 40.1467C27.1732 39.9224 27.1413 39.6778 27.1413 39.413ZM28.1227 39.3424V39.413C28.1227 39.5633 28.134 39.7036 28.1568 39.8338C28.1817 39.9639 28.2215 40.0795 28.276 40.1805C28.3328 40.2792 28.4055 40.3566 28.4941 40.4127C28.5849 40.4667 28.6952 40.4936 28.8247 40.4936C28.9928 40.4936 29.1313 40.4564 29.2402 40.3826C29.3494 40.3062 29.4323 40.2017 29.4891 40.0694C29.5482 39.9369 29.5821 39.7844 29.5914 39.6115V39.1706C29.5844 39.0292 29.5641 38.9024 29.53 38.7902C29.4981 38.6757 29.4505 38.5781 29.3869 38.4974C29.3254 38.4167 29.2483 38.3537 29.1551 38.3088C29.0643 38.2641 28.9563 38.2415 28.8314 38.2415C28.7042 38.2415 28.5952 38.2707 28.5043 38.329C28.4135 38.3852 28.3397 38.4625 28.2829 38.5612C28.2284 38.66 28.1873 38.7768 28.1601 38.9113C28.1352 39.0438 28.1227 39.1875 28.1227 39.3424Z" fill="white"/>
<path d="M13.7037 48.5156V50.8687H13.2147V48.5156H13.7037ZM16.1013 48.5156V50.8687H15.6107L14.654 49.2913V50.8687H14.1633V48.5156H14.654L15.6123 50.0945V48.5156H16.1013ZM17.2592 50.8687H16.7408L16.7441 50.4904H17.2592C17.3879 50.4904 17.4964 50.4619 17.5847 50.4048C17.673 50.3466 17.7395 50.262 17.7842 50.151C17.83 50.04 17.853 49.9059 17.853 49.7486V49.6339C17.853 49.5133 17.8398 49.4072 17.8137 49.3156C17.7886 49.2239 17.7511 49.1469 17.7008 49.0844C17.6506 49.0219 17.589 48.9751 17.516 48.9438C17.4429 48.9115 17.3591 48.8953 17.2642 48.8953H16.731V48.5156H17.2642C17.4232 48.5156 17.5689 48.5426 17.7008 48.5964C17.8337 48.6492 17.9488 48.7252 18.0458 48.8243C18.1429 48.9234 18.2177 49.042 18.27 49.1798C18.3234 49.3167 18.3501 49.4691 18.3501 49.6371V49.7486C18.3501 49.9156 18.3234 50.0681 18.27 50.2059C18.2177 50.344 18.1429 50.4623 18.0458 50.5614C17.95 50.6596 17.8349 50.7355 17.7008 50.7893C17.5679 50.8422 17.4206 50.8687 17.2592 50.8687ZM17.0188 48.5156V50.8687H16.5282V48.5156H17.0188ZM19.2284 48.5156V50.8687H18.7393V48.5156H19.2284ZM20.6856 48.918L20.0379 50.8687H19.5162L20.401 48.5156H20.733L20.6856 48.918ZM21.2236 50.8687L20.5743 48.918L20.5219 48.5156H20.8572L21.7469 50.8687H21.2236ZM21.1942 49.9926V50.3725H19.9364V49.9926H21.1942Z" fill="white"/>
<path d="M23.8307 29.5078H24.2614C24.3498 29.5078 24.4255 29.521 24.489 29.5471C24.553 29.5732 24.6022 29.6118 24.6364 29.6631C24.6709 29.7144 24.6882 29.7775 24.6882 29.8523C24.6882 29.9135 24.6775 29.9661 24.6564 30.01C24.6358 30.0534 24.6065 30.0897 24.5684 30.1191C24.5309 30.1478 24.4866 30.1709 24.4359 30.1882L24.3606 30.2273H23.9862L23.9845 30.0438H24.263C24.3047 30.0438 24.3394 30.0364 24.3668 30.0217C24.3944 30.0071 24.4151 29.9867 24.4287 29.9605C24.4431 29.9344 24.4502 29.9041 24.4502 29.8695C24.4502 29.833 24.4432 29.8014 24.4295 29.7745C24.4157 29.748 24.3949 29.7275 24.3668 29.7134C24.3388 29.6993 24.3037 29.6922 24.2614 29.6922H24.0687V30.6503H23.8307V29.5078ZM24.4764 30.6503L24.213 30.141L24.4644 30.1395L24.7309 30.6393V30.6503H24.4764Z" fill="white"/>
<path d="M9.92094 45.5902V45.9005H8.53154V45.6357L9.18853 44.9392C9.25456 44.8665 9.3067 44.8026 9.34479 44.7474C9.38295 44.6913 9.41036 44.6412 9.42707 44.5971C9.44478 44.552 9.45364 44.5093 9.45364 44.4688C9.45364 44.4081 9.44341 44.3561 9.42295 44.313C9.40249 44.2688 9.37227 44.2348 9.33227 44.2108C9.29319 44.187 9.24487 44.175 9.18716 44.175C9.12579 44.175 9.07282 44.1897 9.02816 44.2191C8.98442 44.2486 8.95099 44.2895 8.92771 44.342C8.90542 44.3943 8.89427 44.4537 8.89427 44.5198H8.49109C8.49109 44.4003 8.51994 44.2909 8.57757 44.1916C8.6352 44.0914 8.71665 44.0118 8.82168 43.9529C8.92679 43.8932 9.05137 43.8633 9.19556 43.8633C9.33784 43.8633 9.45783 43.8863 9.55546 43.9323C9.65401 43.9773 9.72843 44.0426 9.77866 44.1281C9.8298 44.2127 9.85537 44.3139 9.85537 44.4315C9.85537 44.4978 9.84468 44.5626 9.82323 44.626C9.80186 44.6886 9.77118 44.7511 9.73118 44.8136C9.69217 44.8753 9.64469 44.9378 9.5889 45.0012C9.5331 45.0647 9.47127 45.1305 9.40341 45.1985L9.05045 45.5902H9.92094ZM11.5962 44.7199V45.0674C11.5962 45.2182 11.5799 45.3484 11.5473 45.4578C11.5148 45.5663 11.4679 45.6555 11.4065 45.7254C11.3461 45.7943 11.274 45.8454 11.1903 45.8785C11.1066 45.9116 11.0136 45.9282 10.9113 45.9282C10.8294 45.9282 10.7532 45.918 10.6825 45.8977C10.6118 45.8766 10.5482 45.844 10.4914 45.7999C10.4356 45.7557 10.3873 45.7001 10.3463 45.633C10.3063 45.5649 10.2757 45.484 10.2543 45.3902C10.2328 45.2964 10.2221 45.1888 10.2221 45.0674V44.7199C10.2221 44.5691 10.2385 44.4398 10.271 44.3323C10.3045 44.2238 10.3515 44.135 10.4119 44.0661C10.4733 43.9971 10.5458 43.9465 10.6295 43.9143C10.7132 43.8812 10.8062 43.8646 10.9085 43.8646C10.9904 43.8646 11.0661 43.8753 11.1358 43.8964C11.2065 43.9166 11.2703 43.9483 11.327 43.9916C11.3837 44.0348 11.4321 44.0904 11.4721 44.1585C11.512 44.2256 11.5427 44.306 11.5641 44.3998C11.5855 44.4928 11.5962 44.5994 11.5962 44.7199ZM11.1931 45.1198V44.666C11.1931 44.5934 11.1889 44.53 11.1805 44.4757C11.1731 44.4214 11.1614 44.3755 11.1456 44.3378C11.1298 44.2992 11.1103 44.2679 11.0871 44.244C11.0638 44.2201 11.0373 44.2026 11.0075 44.1916C10.9778 44.1805 10.9448 44.175 10.9085 44.175C10.863 44.175 10.8225 44.1838 10.7872 44.2013C10.7527 44.2187 10.7234 44.2468 10.6992 44.2853C10.6751 44.3231 10.6565 44.3737 10.6434 44.4371C10.6314 44.4996 10.6253 44.5759 10.6253 44.666V45.1198C10.6253 45.1925 10.629 45.2564 10.6365 45.3116C10.6449 45.3668 10.6569 45.4141 10.6727 45.4536C10.6894 45.4923 10.709 45.524 10.7314 45.5488C10.7546 45.5727 10.781 45.5902 10.8108 45.6012C10.8415 45.6123 10.875 45.6178 10.9113 45.6178C10.9559 45.6178 10.9955 45.6091 11.0298 45.5915C11.0652 45.5732 11.0949 45.5447 11.1191 45.506C11.1442 45.4666 11.1629 45.415 11.1749 45.3516C11.187 45.2881 11.1931 45.2109 11.1931 45.1198ZM13.3161 45.5902V45.9005H11.9267V45.6357L12.5838 44.9392C12.6498 44.8665 12.7019 44.8026 12.74 44.7474C12.7781 44.6913 12.8055 44.6412 12.8223 44.5971C12.84 44.552 12.8488 44.5093 12.8488 44.4688C12.8488 44.4081 12.8386 44.3561 12.8181 44.313C12.7977 44.2688 12.7674 44.2348 12.7274 44.2108C12.6884 44.187 12.64 44.175 12.5824 44.175C12.521 44.175 12.468 44.1897 12.4233 44.2191C12.3797 44.2486 12.3462 44.2895 12.3229 44.342C12.3006 44.3943 12.2894 44.4537 12.2894 44.5198H11.8863C11.8863 44.4003 11.9151 44.2909 11.9727 44.1916C12.0305 44.0914 12.1118 44.0118 12.2169 43.9529C12.322 43.8932 12.4466 43.8633 12.5907 43.8633C12.733 43.8633 12.853 43.8863 12.9506 43.9323C13.0492 43.9773 13.1236 44.0426 13.1738 44.1281C13.225 44.2127 13.2505 44.3139 13.2505 44.4315C13.2505 44.4978 13.2399 44.5626 13.2185 44.626C13.1971 44.6886 13.1664 44.7511 13.1264 44.8136C13.0873 44.8753 13.0399 44.9378 12.9841 45.0012C12.9283 45.0647 12.8664 45.1305 12.7986 45.1985L12.4457 45.5902H13.3161ZM15.0137 45.5902V45.9005H13.6243V45.6357L14.2813 44.9392C14.3474 44.8665 14.3995 44.8026 14.4376 44.7474C14.4757 44.6913 14.5031 44.6412 14.5199 44.5971C14.5376 44.552 14.5464 44.5093 14.5464 44.4688C14.5464 44.4081 14.5362 44.3561 14.5157 44.313C14.4953 44.2688 14.4651 44.2348 14.4251 44.2108C14.386 44.187 14.3377 44.175 14.28 44.175C14.2186 44.175 14.1656 44.1897 14.121 44.2191C14.0772 44.2486 14.0438 44.2895 14.0205 44.342C13.9982 44.3943 13.987 44.4537 13.987 44.5198H13.5839C13.5839 44.4003 13.6127 44.2909 13.6704 44.1916C13.728 44.0914 13.8094 44.0118 13.9145 43.9529C14.0196 43.8932 14.1442 43.8633 14.2884 43.8633C14.4306 43.8633 14.5506 43.8863 14.6483 43.9323C14.7468 43.9773 14.8212 44.0426 14.8715 44.1281C14.9226 44.2127 14.9482 44.3139 14.9482 44.4315C14.9482 44.4978 14.9375 44.5626 14.916 44.626C14.8947 44.6886 14.864 44.7511 14.824 44.8136C14.785 44.8753 14.7375 44.9378 14.6817 45.0012C14.6259 45.0647 14.5641 45.1305 14.4962 45.1985L14.1432 45.5902H15.0137ZM16.8996 44.8826V45.1943H16.1114V44.8826H16.8996ZM19.4327 45.5902V45.9005H18.0434V45.6357L18.7003 44.9392C18.7664 44.8665 18.8184 44.8026 18.8566 44.7474C18.8947 44.6913 18.9222 44.6412 18.9389 44.5971C18.9565 44.552 18.9654 44.5093 18.9654 44.4688C18.9654 44.4081 18.9551 44.3561 18.9347 44.313C18.9142 44.2688 18.884 44.2348 18.844 44.2108C18.805 44.187 18.7566 44.175 18.699 44.175C18.6376 44.175 18.5845 44.1897 18.5399 44.2191C18.4962 44.2486 18.4627 44.2895 18.4395 44.342C18.4171 44.3943 18.406 44.4537 18.406 44.5198H18.0029C18.0029 44.4003 18.0317 44.2909 18.0894 44.1916C18.147 44.0914 18.2284 44.0118 18.3335 43.9529C18.4385 43.8932 18.5632 43.8633 18.7073 43.8633C18.8496 43.8633 18.9696 43.8863 19.0672 43.9323C19.1658 43.9773 19.2402 44.0426 19.2904 44.1281C19.3415 44.2127 19.3671 44.3139 19.3671 44.4315C19.3671 44.4978 19.3564 44.5626 19.335 44.626C19.3137 44.6886 19.283 44.7511 19.243 44.8136C19.2039 44.8753 19.1565 44.9378 19.1007 45.0012C19.0449 45.0647 18.9831 45.1305 18.9151 45.1985L18.5623 45.5902H19.4327ZM21.1079 44.7199V45.0674C21.1079 45.2182 21.0917 45.3484 21.0592 45.4578C21.0266 45.5663 20.9796 45.6555 20.9182 45.7254C20.8578 45.7943 20.7857 45.8454 20.7021 45.8785C20.6183 45.9116 20.5254 45.9282 20.4231 45.9282C20.3412 45.9282 20.2649 45.918 20.1943 45.8977C20.1236 45.8766 20.0599 45.844 20.0032 45.7999C19.9474 45.7557 19.899 45.7001 19.8581 45.633C19.8181 45.5649 19.7874 45.484 19.766 45.3902C19.7446 45.2964 19.734 45.1888 19.734 45.0674V44.7199C19.734 44.5691 19.7502 44.4398 19.7827 44.3323C19.8162 44.2238 19.8632 44.135 19.9236 44.0661C19.985 43.9971 20.0576 43.9465 20.1413 43.9143C20.225 43.8812 20.318 43.8646 20.4203 43.8646C20.5021 43.8646 20.5779 43.8753 20.6476 43.8964C20.7183 43.9166 20.782 43.9483 20.8387 43.9916C20.8955 44.0348 20.9438 44.0904 20.9838 44.1585C21.0238 44.2256 21.0545 44.306 21.0759 44.3998C21.0972 44.4928 21.1079 44.5994 21.1079 44.7199ZM20.7048 45.1198V44.666C20.7048 44.5934 20.7006 44.53 20.6923 44.4757C20.6848 44.4214 20.6732 44.3755 20.6574 44.3378C20.6416 44.2992 20.6221 44.2679 20.5988 44.244C20.5756 44.2201 20.549 44.2026 20.5193 44.1916C20.4896 44.1805 20.4565 44.175 20.4203 44.175C20.3747 44.175 20.3342 44.1838 20.2989 44.2013C20.2645 44.2187 20.2352 44.2468 20.211 44.2853C20.1868 44.3231 20.1682 44.3737 20.1552 44.4371C20.1431 44.4996 20.1371 44.5759 20.1371 44.666V45.1198C20.1371 45.1925 20.1408 45.2564 20.1482 45.3116C20.1566 45.3668 20.1687 45.4141 20.1845 45.4536C20.2013 45.4923 20.2208 45.524 20.2431 45.5488C20.2664 45.5727 20.2929 45.5902 20.3226 45.6012C20.3533 45.6123 20.3867 45.6178 20.4231 45.6178C20.4677 45.6178 20.5072 45.6091 20.5416 45.5915C20.577 45.5732 20.6067 45.5447 20.6309 45.506C20.656 45.4666 20.6746 45.415 20.6867 45.3516C20.6988 45.2881 20.7048 45.2109 20.7048 45.1198ZM22.8279 45.5902V45.9005H21.4385V45.6357L22.0955 44.9392C22.1615 44.8665 22.2137 44.8026 22.2518 44.7474C22.2899 44.6913 22.3173 44.6412 22.334 44.5971C22.3518 44.552 22.3605 44.5093 22.3605 44.4688C22.3605 44.4081 22.3503 44.3561 22.3299 44.313C22.3094 44.2688 22.2792 44.2348 22.2392 44.2108C22.2002 44.187 22.1518 44.175 22.0941 44.175C22.0328 44.175 21.9797 44.1897 21.9351 44.2191C21.8914 44.2486 21.8579 44.2895 21.8347 44.342C21.8124 44.3943 21.8012 44.4537 21.8012 44.5198H21.3981C21.3981 44.4003 21.4269 44.2909 21.4846 44.1916C21.5422 44.0914 21.6236 44.0118 21.7287 43.9529C21.8338 43.8932 21.9583 43.8633 22.1025 43.8633C22.2448 43.8633 22.3647 43.8863 22.4624 43.9323C22.561 43.9773 22.6354 44.0426 22.6856 44.1281C22.7368 44.2127 22.7623 44.3139 22.7623 44.4315C22.7623 44.4978 22.7517 44.5626 22.7302 44.626C22.7088 44.6886 22.6782 44.7511 22.6382 44.8136C22.5991 44.8753 22.5517 44.9378 22.4959 45.0012C22.4401 45.0647 22.3782 45.1305 22.3104 45.1985L21.9574 45.5902H22.8279ZM23.5477 44.724H23.7624C23.8312 44.724 23.888 44.7125 23.9326 44.6895C23.9772 44.6656 24.0103 44.6325 24.0317 44.5902C24.054 44.5469 24.0652 44.4968 24.0652 44.4398C24.0652 44.3884 24.055 44.3429 24.0344 44.3033C24.015 44.2629 23.9847 44.2316 23.9438 44.2095C23.9029 44.1865 23.8512 44.175 23.7889 44.175C23.7396 44.175 23.6941 44.1847 23.6522 44.204C23.6104 44.2233 23.5769 44.2504 23.5518 44.2853C23.5267 44.3203 23.5141 44.3626 23.5141 44.4123H23.111C23.111 44.3019 23.1407 44.2058 23.2003 44.124C23.2607 44.0422 23.3416 43.9782 23.443 43.9323C23.5444 43.8863 23.656 43.8633 23.7778 43.8633C23.9154 43.8633 24.0359 43.8854 24.1391 43.9295C24.2423 43.9727 24.3227 44.0366 24.3804 44.1213C24.4381 44.2058 24.4669 44.3106 24.4669 44.4357C24.4669 44.4992 24.452 44.5608 24.4223 44.6205C24.3925 44.6794 24.3497 44.7327 24.2939 44.7805C24.2391 44.8274 24.1721 44.8652 24.093 44.8936C24.014 44.9212 23.9252 44.935 23.8266 44.935H23.5477V44.724ZM23.5477 45.0261V44.8205H23.8266C23.9372 44.8205 24.0344 44.8329 24.1182 44.8578C24.2018 44.8826 24.272 44.9184 24.3288 44.9654C24.3855 45.0114 24.4283 45.0661 24.4571 45.1295C24.4859 45.192 24.5004 45.2615 24.5004 45.3378C24.5004 45.4316 24.4823 45.5152 24.446 45.5888C24.4097 45.6614 24.3585 45.7231 24.2925 45.7737C24.2274 45.8242 24.1511 45.8629 24.0637 45.8895C23.9763 45.9153 23.881 45.9282 23.7778 45.9282C23.6922 45.9282 23.608 45.9166 23.5253 45.8937C23.4435 45.8697 23.369 45.8343 23.3021 45.7874C23.2361 45.7396 23.1831 45.6798 23.1431 45.6081C23.104 45.5355 23.0845 45.4495 23.0845 45.3502H23.4877C23.4877 45.4017 23.5006 45.4477 23.5267 45.4881C23.5528 45.5286 23.5886 45.5603 23.6341 45.5833C23.6806 45.6063 23.7322 45.6178 23.7889 45.6178C23.8531 45.6178 23.908 45.6063 23.9536 45.5833C24.0001 45.5594 24.0354 45.5263 24.0595 45.484C24.0846 45.4407 24.0972 45.3906 24.0972 45.3336C24.0972 45.26 24.0837 45.2012 24.0568 45.1571C24.0298 45.112 23.9912 45.0789 23.941 45.0578C23.8908 45.0366 23.8312 45.0261 23.7624 45.0261H23.5477Z" fill="white"/>
</svg>
