<svg width="38" height="38" viewBox="0 0 38 38" fill="none" xmlns="http://www.w3.org/2000/svg">
<rect width="38" height="38" fill="white"/>
<g clip-path="url(#clip0_45_6050)">
<path d="M34.4286 30.3999C35.8487 30.3999 37 29.2656 37 27.8665V6.33319C37 4.93407 35.8487 3.79986 34.4286 3.79986H27.622C27.4819 3.64532 27.3366 3.49142 27.1829 3.33942C26.8519 3.01123 26.499 2.70507 26.1267 2.42299C25.9425 2.28459 25.6968 2.25458 25.4839 2.34446L23.6794 3.10446C23.0352 2.75126 22.3518 2.47244 21.6428 2.27352L20.9151 0.480556C20.8285 0.267552 20.6318 0.117337 20.4008 0.0878896C19.469 -0.0286455 18.5259 -0.0286455 17.5941 0.0878896C17.3631 0.117337 17.1664 0.267552 17.0798 0.480556L16.3572 2.27352C15.6483 2.47309 14.9652 2.75255 14.3213 3.10636L12.5168 2.34319C12.3038 2.25332 12.0582 2.28332 11.8739 2.42172C11.5021 2.70343 11.1497 3.00916 10.819 3.33689C10.6647 3.48889 10.5194 3.64342 10.3786 3.79859H3.57143C2.15127 3.79859 1 4.9328 1 6.33192V27.8665C1 29.2656 2.15127 30.3999 3.57143 30.3999H11.2857V31.9325L7.10714 34.2835C7.07726 34.3035 7.04909 34.326 7.02293 34.3506C7.00051 34.3662 6.97904 34.3831 6.95864 34.4013C6.91002 34.4516 6.87027 34.5096 6.841 34.5729C6.841 34.5786 6.83393 34.5824 6.83136 34.5881C6.80209 34.6598 6.7864 34.7363 6.78507 34.8136C6.78507 34.8205 6.78121 34.8262 6.78121 34.8332V36.7332C6.78121 37.4328 7.35685 37.9999 8.06693 37.9999H29.9286C30.6387 37.9999 31.2143 37.4328 31.2143 36.7332V34.8332C31.2143 34.8262 31.2104 34.8205 31.2104 34.8136C31.2091 34.7363 31.1934 34.6598 31.1641 34.5881C31.1641 34.5824 31.1564 34.578 31.1539 34.5723C31.1248 34.5092 31.0853 34.4514 31.0369 34.4013C31.0165 34.3831 30.995 34.3662 30.9726 34.3506C30.9464 34.326 30.9182 34.3035 30.8884 34.2835L26.7143 31.9325V30.3999H34.4286ZM12.3638 3.65799L14.1143 4.39582C14.3048 4.47646 14.5231 4.4616 14.7006 4.35592C15.4116 3.93281 16.183 3.61727 16.9891 3.41986C17.1901 3.37074 17.3547 3.2293 17.4314 3.03986L18.1386 1.30452C18.7135 1.25576 19.2916 1.25576 19.8666 1.30452L20.5737 3.03986C20.6504 3.2293 20.8151 3.37074 21.016 3.41986C21.8233 3.61757 22.5959 3.93376 23.3078 4.35782C23.4852 4.4635 23.7035 4.47836 23.8941 4.39772L25.6414 3.65989C25.8556 3.83638 26.068 4.02891 26.2784 4.23749C26.4886 4.44396 26.6847 4.65359 26.8621 4.86322L26.1094 6.58652C26.0277 6.77404 26.0428 6.98882 26.1499 7.16349C26.5794 7.86416 26.8997 8.6244 27.1 9.41879C27.1499 9.61675 27.2934 9.77894 27.4857 9.85452L29.2471 10.5512C29.2716 10.8242 29.2844 11.1092 29.2844 11.4024C29.2844 11.6956 29.2716 11.9806 29.2471 12.2536L27.4857 12.9503C27.2934 13.0258 27.1499 13.188 27.1 13.386C26.8993 14.1814 26.5784 14.9425 26.1479 15.6438C26.0409 15.8185 26.0258 16.0333 26.1074 16.2208L26.8557 17.9428C26.6776 18.1525 26.4822 18.3627 26.2701 18.5705C26.0579 18.7782 25.8477 18.9701 25.6343 19.1468L23.8857 18.4039C23.6953 18.3226 23.4767 18.3375 23.2994 18.4438C22.5884 18.8669 21.817 19.1824 21.0109 19.3799C20.8099 19.429 20.6453 19.5704 20.5686 19.7599L19.8614 21.4952C19.2865 21.544 18.7084 21.544 18.1334 21.4952L17.4263 19.7599C17.3496 19.5704 17.1849 19.429 16.984 19.3799C16.1767 19.1821 15.4041 18.866 14.6922 18.4419C14.5148 18.3362 14.2965 18.3214 14.1059 18.402L12.3586 19.1398C12.1444 18.9633 11.932 18.771 11.7216 18.5629C11.5111 18.3547 11.3161 18.1457 11.1366 17.9359L11.8855 16.2145C11.9673 16.0268 11.9523 15.8117 11.845 15.6369C11.4172 14.9357 11.0987 14.1752 10.9 13.3809C10.8501 13.183 10.7066 13.0208 10.5143 12.9452L8.75286 12.2485C8.72714 11.9781 8.71429 11.6931 8.71429 11.3999C8.71429 11.1066 8.72714 10.8216 8.75157 10.5487L10.513 9.85199C10.7053 9.77641 10.8489 9.61422 10.8987 9.41626C11.0994 8.62088 11.4203 7.85976 11.8508 7.15842C11.9581 6.98359 11.9731 6.76852 11.8913 6.58082L11.1424 4.86259V4.85879C11.3206 4.64768 11.515 4.43952 11.7254 4.23432C11.9376 4.02659 12.1504 3.83469 12.3638 3.65799ZM3.57143 5.06652H9.83221L10.5818 6.79046C10.2227 7.4248 9.939 8.09784 9.73643 8.79622L7.9165 9.51316C7.70029 9.59845 7.54782 9.79228 7.51793 10.0198C7.39879 10.9378 7.39879 11.867 7.51793 12.785C7.54782 13.0125 7.70029 13.2063 7.9165 13.2916L9.73643 14.0086C9.939 14.7069 10.2227 15.38 10.5818 16.0143L9.81036 17.7921C9.71913 18.0019 9.74959 18.2439 9.89007 18.4254C10.4651 19.1575 11.1322 19.8146 11.8752 20.3812C12.0595 20.5196 12.3051 20.5496 12.5181 20.4597L14.3226 19.6997C14.9665 20.0535 15.6496 20.333 16.3585 20.5325L17.0862 22.3255C17.1728 22.5385 17.3695 22.6887 17.6005 22.7182C18.5323 22.8355 19.4754 22.8355 20.4072 22.7182C20.6382 22.6887 20.8349 22.5385 20.9215 22.3255L21.6492 20.5325C22.356 20.3315 23.037 20.051 23.6787 19.6965L25.4832 20.4565C25.6962 20.5464 25.9418 20.5164 26.1261 20.378C26.8691 19.8115 27.5362 19.1543 28.1112 18.4223C28.2515 18.2406 28.2817 17.9986 28.1903 17.7889L27.4189 16.0105C27.778 15.3762 28.0616 14.7031 28.2642 14.0048L30.0841 13.2878C30.3004 13.2025 30.4528 13.0087 30.4827 12.7812C30.6019 11.8632 30.6019 10.934 30.4827 10.016C30.4528 9.78848 30.3004 9.59465 30.0841 9.50936L28.2636 8.79622C28.062 8.09797 27.7794 7.42494 27.4214 6.79046L28.1671 5.06652H34.4286C35.1387 5.06652 35.7143 5.63363 35.7143 6.33319V24.0665H2.28571V6.33319C2.28571 5.63363 2.86135 5.06652 3.57143 5.06652ZM2.28571 27.8665V25.3332H35.7143V27.8665C35.7143 28.5661 35.1387 29.1332 34.4286 29.1332H3.57143C2.86135 29.1332 2.28571 28.5661 2.28571 27.8665ZM8.07143 36.7332V35.4665H29.9286V36.7332H8.07143ZM9.84957 34.1999L12.0996 32.9332H25.9004L28.1504 34.1999H9.84957ZM25.4286 31.6665H12.5714V30.3999H25.4286V31.6665Z" fill="#0400F5"/>
<path d="M17.7143 27.8663H20.2857C20.6407 27.8663 20.9286 27.5827 20.9286 27.2329C20.9286 26.8832 20.6407 26.5996 20.2857 26.5996H17.7143C17.3592 26.5996 17.0714 26.8832 17.0714 27.2329C17.0714 27.5827 17.3592 27.8663 17.7143 27.8663Z" fill="#0400F5"/>
<path d="M11.4741 11.8474L14.6884 15.0141C14.9406 15.2541 15.3416 15.2507 15.5896 15.0064C15.8375 14.7621 15.841 14.367 15.5974 14.1185L12.8376 11.3996L15.5974 8.68074C15.841 8.43223 15.8375 8.03722 15.5896 7.79292C15.3416 7.54862 14.9406 7.54519 14.6884 7.78521L11.4741 10.9519C11.2231 11.1992 11.2231 11.6001 11.4741 11.8474Z" fill="#0400F5"/>
<path d="M22.4027 15.0141C22.6537 15.2613 23.0607 15.2613 23.3117 15.0141L26.526 11.8474C26.7769 11.6001 26.7769 11.1992 26.526 10.9519L23.3117 7.78521C23.0595 7.54519 22.6585 7.54862 22.4105 7.79292C22.1626 8.03722 22.1591 8.43223 22.4027 8.68074L25.1625 11.3996L22.4027 14.1185C22.1517 14.3659 22.1517 14.7668 22.4027 15.0141Z" fill="#0400F5"/>
<path d="M17.4758 15.1549C17.5516 15.1849 17.6326 15.2001 17.7143 15.1998C17.9774 15.1999 18.2139 15.0421 18.3115 14.8015L20.883 8.46814C20.9682 8.25793 20.9331 8.01891 20.7909 7.84111C20.6487 7.66331 20.4211 7.57374 20.1937 7.60615C19.9663 7.63855 19.7737 7.788 19.6885 7.9982L17.1171 14.3315C17.0538 14.4876 17.056 14.662 17.1233 14.8164C17.1906 14.9709 17.3174 15.0926 17.4758 15.1549Z" fill="#0400F5"/>
</g>
<defs>
<clipPath id="clip0_45_6050">
<rect width="36" height="38" fill="white" transform="translate(1)"/>
</clipPath>
</defs>
</svg>
