<svg width="38" height="38" viewBox="0 0 38 38" fill="none" xmlns="http://www.w3.org/2000/svg">
<g clip-path="url(#clip0_45_6066)">
<rect width="38" height="38" fill="white"/>
<path d="M0.742188 0.0498047H5.15625C5.53841 0.0500024 5.84766 0.359981 5.84766 0.742188V2.25879H16.1006V0.742188C16.1006 0.35992 16.4107 0.0499036 16.793 0.0498047H21.207C21.5893 0.0499036 21.8994 0.35992 21.8994 0.742188V2.25879H32.1523V0.742188C32.1523 0.359981 32.4616 0.0500024 32.8438 0.0498047H37.2578C37.6401 0.0498047 37.9502 0.359859 37.9502 0.742188V5.16016C37.9501 5.54239 37.6401 5.85254 37.2578 5.85254H32.8438C32.4616 5.85234 32.1523 5.54206 32.1523 5.16016V3.64355H25.9277L25.9072 3.73926C28.0746 4.72197 30.0288 6.16508 31.6211 7.99023C34.1179 10.8524 35.5617 14.4744 35.7285 18.2598L35.7305 18.3076H37.2578C37.6401 18.3076 37.9502 18.6177 37.9502 19V23.418C37.9501 23.8002 37.6401 24.1104 37.2578 24.1104H32.8438C32.4617 24.1102 32.1525 23.8001 32.1523 23.418V19C32.1523 18.6178 32.4616 18.3078 32.8438 18.3076H34.3447L34.3428 18.2549C33.9993 11.2381 28.8376 5.26329 21.959 3.91992L21.8994 3.9082V5.16016C21.8994 5.54242 21.5893 5.85244 21.207 5.85254H16.793C16.4107 5.85244 16.1006 5.54242 16.1006 5.16016V3.9082L16.041 3.91992C9.16245 5.26329 4.00065 11.2381 3.65723 18.2549L3.65527 18.3076H5.15625C5.53841 18.3078 5.84766 18.6178 5.84766 19V23.418C5.84754 23.8001 5.53834 24.1102 5.15625 24.1104H0.742188C0.35993 24.1104 0.0499201 23.8002 0.0498047 23.418V19C0.0498047 18.6177 0.359859 18.3076 0.742188 18.3076H2.26953L2.27148 18.2598C2.43832 14.4744 3.88213 10.8524 6.37891 7.99023C7.97121 6.16508 9.92538 4.72197 12.0928 3.73926L12.0723 3.64355H5.84766V5.16016C5.84754 5.54226 5.53834 5.85234 5.15625 5.85254H0.742188C0.35993 5.85254 0.0499201 5.54239 0.0498047 5.16016V0.742188C0.0498047 0.359859 0.359859 0.0498047 0.742188 0.0498047ZM1.43457 22.7256H4.46387V19.6924H1.43457V22.7256ZM33.5361 22.7256H36.5654V19.6924H33.5361V22.7256ZM1.43457 4.46777H4.46387V1.43457H1.43457V4.46777ZM17.4854 4.46777H20.5146V1.43457H17.4854V4.46777ZM33.5361 4.46777H36.5654V1.43457H33.5361V4.46777Z" fill="#0400F5" stroke="white" stroke-width="0.1"/>
<path d="M14.2161 28.3018C13.7792 28.3019 13.4241 28.6569 13.4241 29.0938C13.4241 29.5306 13.7792 29.8856 14.2161 29.8857H23.7834C24.2204 29.8857 24.5754 29.5307 24.5754 29.0938C24.5754 28.6568 24.2204 28.3018 23.7834 28.3018H14.2161ZM19.0002 18.2178C18.3998 18.2178 17.9104 18.7059 17.9104 19.3066C17.9105 19.907 18.3998 20.3955 19.0002 20.3955C19.6005 20.3953 20.089 19.9069 20.0891 19.3066C20.0891 18.7059 19.6006 18.2179 19.0002 18.2178ZM13.261 31.0488L13.2336 31.0352C12.5258 30.6754 12.0393 29.9404 12.0393 29.0938C12.0393 27.8939 13.016 26.9171 14.2161 26.917H14.97L14.9563 26.8564C14.4949 24.7356 13.3796 22.7872 11.7737 21.3164C11.5385 21.1007 11.4812 20.752 11.635 20.4727L12.76 18.4297C12.9444 18.0947 13.3657 17.9728 13.7004 18.1572C14.0352 18.3416 14.1573 18.7629 13.9729 19.0977L13.1223 20.6416L13.1038 20.6748L13.1301 20.7012C14.7957 22.3861 15.9319 24.5477 16.3733 26.877L16.3801 26.917H21.6194L21.6272 26.877C22.0683 24.5477 23.2036 22.386 24.8694 20.7012L24.8958 20.6748L24.8782 20.6416L19.7864 11.3965L19.6917 11.4209V16.9316L19.7278 16.9424C20.7376 17.254 21.4739 18.1961 21.4739 19.3066C21.4738 20.6701 20.3637 21.7801 19.0002 21.7803C17.6366 21.7803 16.5267 20.6702 16.5266 19.3066C16.5266 18.196 17.2627 17.2539 18.2727 16.9424L18.3079 16.9316V11.4209L18.2141 11.3965L16.5237 14.4658C16.3392 14.8007 15.9176 14.9226 15.5833 14.7383C15.2484 14.5542 15.1265 14.1328 15.3108 13.7979L18.3938 8.20117C18.5155 7.9803 18.748 7.84277 19.0002 7.84277C19.2523 7.84288 19.484 7.98048 19.6057 8.20117L26.3645 20.4717C26.5186 20.7515 26.4613 21.1006 26.2258 21.3164C24.6199 22.7875 23.5046 24.7353 23.0432 26.8564L23.0305 26.917H23.7834C24.9836 26.917 25.9602 27.8936 25.9602 29.0938C25.9602 29.94 25.4746 30.6754 24.7668 31.0352L24.7395 31.0488V37.2578C24.7395 37.64 24.4293 37.95 24.0471 37.9502C23.6648 37.9502 23.3547 37.6401 23.3547 37.2578V31.2705H14.6448V37.2578C14.6448 37.64 14.3356 37.95 13.9534 37.9502C13.571 37.9502 13.261 37.6401 13.261 37.2578V31.0488Z" fill="#0400F5" stroke="white" stroke-width="0.1"/>
<path d="M14.5935 15.793C14.7756 15.793 14.9541 15.8675 15.0828 15.9961C15.2115 16.1257 15.2859 16.3034 15.2859 16.4854C15.2859 16.668 15.2116 16.846 15.0828 16.9756C14.9542 17.104 14.7756 17.1777 14.5935 17.1777C14.4107 17.1777 14.2318 17.1041 14.1033 16.9756C13.9746 16.8461 13.9011 16.668 13.9011 16.4854C13.9011 16.3034 13.9747 16.1256 14.1033 15.9961C14.2319 15.8675 14.4108 15.793 14.5935 15.793Z" fill="#0400F5" stroke="white" stroke-width="0.1"/>
</g>
<defs>
<clipPath id="clip0_45_6066">
<rect width="38" height="38" fill="white"/>
</clipPath>
</defs>
</svg>
