<svg width="38" height="38" viewBox="0 0 38 38" fill="none" xmlns="http://www.w3.org/2000/svg">
<g clip-path="url(#clip0_45_6060)">
<rect width="38" height="38" fill="white"/>
<path d="M7.14905 25.7074C7.14905 25.4205 7.38165 25.1879 7.66858 25.1879H20.2289C20.5158 25.1879 20.7484 25.4205 20.7484 25.7074C20.7484 25.9944 20.5158 26.227 20.2289 26.227H7.66858C7.38165 26.227 7.14905 25.9944 7.14905 25.7074ZM7.66858 22.3753H16.8442C17.1312 22.3753 17.3638 22.1427 17.3638 21.8558C17.3638 21.5689 17.1312 21.3363 16.8442 21.3363H7.66858C7.38165 21.3363 7.14905 21.5689 7.14905 21.8558C7.14905 22.1427 7.38165 22.3753 7.66858 22.3753ZM28.9338 29.964V36.1286C28.9338 36.7922 28.3939 37.3321 27.7303 37.3321H19.4498C18.7862 37.3321 18.2463 36.7922 18.2463 36.1286V32.3642C16.8678 32.6845 15.4255 32.847 13.9487 32.847C13.3366 32.847 12.7213 32.8183 12.1169 32.7618L5.70007 37.2387C5.61079 37.301 5.50681 37.3322 5.40283 37.3322C5.30122 37.3322 5.19969 37.3025 5.11167 37.2429C4.93362 37.1224 4.84812 36.9046 4.89673 36.6952L6.18495 31.1457C2.7216 29.4467 0.667969 26.7176 0.667969 23.7816C0.667969 21.7681 1.60609 19.8648 3.38089 18.2776C5.07886 16.7592 7.38944 15.6634 10.0629 15.1089C10.3438 15.0507 10.6188 15.2311 10.6771 15.512C10.7354 15.793 10.5549 16.068 10.274 16.1263C7.81509 16.6363 5.61302 17.6754 4.07357 19.0521C2.52537 20.4367 1.70703 22.0721 1.70703 23.7816C1.70703 26.4062 3.68607 28.8737 7.00098 30.382C7.22616 30.4845 7.3478 30.7315 7.29184 30.9724L6.21471 35.6126L11.6797 31.7997C11.7821 31.7283 11.9065 31.6963 12.0307 31.709C12.6615 31.7745 13.3068 31.8078 13.9487 31.8078C15.4307 31.8078 16.8742 31.6352 18.2463 31.2954V29.9639C18.2463 29.3002 18.7862 28.7604 19.4498 28.7604H23.5337C25.2483 27.344 26.1905 25.5819 26.1905 23.7815C26.1905 21.8579 25.1246 19.9931 23.1892 18.5306C22.9603 18.3576 22.915 18.0319 23.0879 17.8029C23.2609 17.574 23.5866 17.5287 23.8156 17.7017C26.0171 19.3652 27.2295 21.5244 27.2295 23.7815C27.2295 25.5623 26.4677 27.2928 25.06 28.7604H27.7302C28.3939 28.7604 28.9338 29.3003 28.9338 29.964ZM27.8947 29.964C27.8947 29.8748 27.8194 29.7995 27.7303 29.7995H19.4498C19.3607 29.7995 19.2854 29.8748 19.2854 29.964V36.1286C19.2854 36.2177 19.3607 36.293 19.4498 36.293H27.7303C27.8194 36.293 27.8947 36.2177 27.8947 36.1286V29.964ZM25.5919 33.0462C25.5919 33.2318 25.4929 33.4033 25.3321 33.4961L22.3675 35.2077C22.2871 35.2541 22.1974 35.2773 22.1078 35.2773C22.0181 35.2773 21.9284 35.2541 21.848 35.2077C21.6872 35.1149 21.5882 34.9434 21.5882 34.7578V31.3346C21.5882 31.1489 21.6872 30.9774 21.848 30.8847C22.0088 30.7918 22.2068 30.7918 22.3675 30.8847L25.3321 32.5963C25.4929 32.6891 25.5919 32.8606 25.5919 33.0462ZM24.0333 33.0462L22.6273 32.2345V33.8579L24.0333 33.0462ZM33.9413 6.09804C34.0295 6.09804 34.1188 6.07562 34.2007 6.02835L36.2072 4.86994C36.4557 4.72647 36.5408 4.40874 36.3973 4.16026C36.2539 3.91178 35.9363 3.82665 35.6876 3.97011L33.6811 5.12852C33.4327 5.27198 33.3475 5.58971 33.491 5.8382C33.5872 6.00482 33.7618 6.09804 33.9413 6.09804ZM30.597 3.75406C30.6788 3.80134 30.7681 3.82375 30.8563 3.82375C31.0358 3.82375 31.2105 3.73061 31.3067 3.56391L32.5287 1.44734C32.6721 1.19886 32.587 0.881127 32.3385 0.737662C32.09 0.594197 31.7723 0.679326 31.6288 0.927811L30.4068 3.04438C30.2634 3.29287 30.3485 3.6106 30.597 3.75406ZM33.8489 9.38652C33.8489 9.67345 34.0815 9.90605 34.3685 9.90605H36.8125C37.0994 9.90605 37.332 9.67345 37.332 9.38652C37.332 9.09959 37.0994 8.86699 36.8125 8.86699H34.3685C34.0815 8.86699 33.8489 9.09959 33.8489 9.38652ZM11.8383 15.0882C12.1145 14.057 12.7726 13.1971 13.6914 12.6667L16.4089 11.0978C16.5281 11.0288 16.67 11.0101 16.8031 11.0458C16.8557 11.0599 16.905 11.0823 16.9499 11.1111C19.7426 9.02107 21.9446 6.60139 23.2061 4.23307L23.1583 4.15031C22.5696 3.1307 22.9202 1.82222 23.9399 1.23344C24.9596 0.644814 26.268 0.995424 26.8567 2.01497L28.9767 5.68687C30.1028 5.10432 31.5039 5.50637 32.1443 6.61564C32.7846 7.72484 32.4323 9.13908 31.3648 9.82323L33.4848 13.4951C33.7692 13.9876 33.8442 14.5628 33.6963 15.1149C33.5483 15.6671 33.1957 16.1277 32.7032 16.4121C32.3759 16.6011 32.0119 16.6977 31.6424 16.6977C31.4561 16.6977 31.2685 16.6731 31.0835 16.6235C30.5314 16.4756 30.0707 16.1229 29.7864 15.6305L29.7386 15.5478C27.0804 15.4568 23.9157 16.1412 20.7373 17.4911L24.4885 22.5404C24.8628 23.0443 24.7972 23.7401 24.3357 24.1589L23.5104 24.9077C23.2869 25.1105 22.9954 25.2219 22.6964 25.2219C22.6579 25.2219 22.6194 25.2201 22.5809 25.2163C22.2464 25.1841 21.9395 25.0116 21.739 24.743L17.8146 19.4918L17.6776 19.5708C17.067 19.9234 16.3878 20.1035 15.6982 20.1035C15.3503 20.1035 14.9998 20.0576 14.654 19.965C13.6229 19.6888 12.763 19.0306 12.2325 18.1118C11.702 17.193 11.562 16.1192 11.8383 15.0882ZM23.6543 23.16L19.9942 18.2332L18.7207 18.9685L22.5713 24.1211C22.6049 24.1661 22.6493 24.1791 22.6807 24.1821C22.7089 24.1848 22.7631 24.1827 22.8122 24.1382L23.6373 23.3894C23.7022 23.3305 23.7094 23.234 23.6543 23.16ZM29.4976 6.58922L30.8439 8.92095C31.4154 8.52484 31.5983 7.74799 31.2445 7.13517C30.8907 6.52242 30.1264 6.29234 29.4976 6.58922ZM24.0582 3.63078L30.6862 15.1109C30.8317 15.363 31.0683 15.5437 31.3524 15.6198C31.6364 15.6958 31.9316 15.6577 32.1837 15.5122C32.4357 15.3667 32.6165 15.1301 32.6926 14.8461C32.7687 14.562 32.7305 14.2668 32.585 14.0147L25.9569 2.53457C25.7541 2.1833 25.3848 1.98669 25.0057 1.98669C24.8199 1.98669 24.6316 2.03389 24.4595 2.13335C24.2074 2.27881 24.0267 2.51542 23.9506 2.79946C23.8745 3.08349 23.9127 3.37874 24.0582 3.63078ZM17.5196 11.9825L20.1841 16.5976C23.3002 15.2551 26.4262 14.5252 29.1347 14.5018L23.81 5.27888C22.4355 7.61284 20.2403 9.95511 17.5196 11.9825ZM13.1323 17.5922C13.5239 18.2707 14.1598 18.7569 14.9228 18.9613C15.6857 19.1657 16.4795 19.0626 17.158 18.6709L19.4255 17.3618L16.4784 12.2573L14.2109 13.5664C13.5325 13.9581 13.0463 14.594 12.8418 15.357C12.6374 16.1199 12.7406 16.9139 13.1323 17.5922ZM3.51819 6.6739C3.51819 4.93392 4.93377 3.51827 6.67382 3.51827C8.41388 3.51827 9.82946 4.93384 9.82946 6.6739C9.82946 8.41389 8.41388 9.82946 6.67382 9.82946C4.93377 9.82946 3.51819 8.41389 3.51819 6.6739ZM4.55725 6.6739C4.55725 7.84099 5.50673 8.7904 6.67382 8.7904C7.84091 8.7904 8.79039 7.84099 8.79039 6.6739C8.79039 5.50681 7.84091 4.55733 6.67382 4.55733C5.50673 4.55733 4.55725 5.50681 4.55725 6.6739ZM0.667969 7.22253V6.12528C0.667969 5.64003 1.06266 5.24534 1.54783 5.24534C1.97756 5.24534 2.14707 4.91685 2.18871 4.81613C2.23042 4.71542 2.34294 4.36325 2.03901 4.0594C1.87284 3.8933 1.78125 3.67235 1.78125 3.43722C1.78125 3.20217 1.87276 2.98115 2.03901 2.81497L2.81482 2.03909C3.15786 1.69597 3.71613 1.69597 4.05925 2.03909C4.36317 2.34301 4.71534 2.2305 4.81598 2.18879C4.9167 2.14708 5.24519 1.97763 5.24519 1.54791C5.24519 1.06267 5.63988 0.667971 6.12505 0.667971H7.2223C7.70747 0.667971 8.10216 1.06267 8.10216 1.54791C8.10216 1.97763 8.43066 2.14708 8.53137 2.18879C8.63201 2.2305 8.98433 2.34287 9.28811 2.03909C9.63122 1.69597 10.1894 1.69597 10.5325 2.03909L11.3084 2.81497C11.4746 2.98115 11.5661 3.2021 11.5661 3.43715C11.5661 3.6722 11.4746 3.89322 11.3083 4.0594C11.0045 4.36325 11.117 4.71542 11.1587 4.81613C11.2004 4.91677 11.3699 5.24534 11.7996 5.24534C12.2848 5.24534 12.6795 5.64003 12.6795 6.12528V7.22253C12.6795 7.70769 12.2848 8.10239 11.7996 8.10239C11.3699 8.10239 11.2004 8.43088 11.1587 8.5316C11.117 8.63224 11.0045 8.98448 11.3084 9.28833C11.6515 9.63144 11.6515 10.1897 11.3084 10.5328L10.5325 11.3086C10.3664 11.4748 10.1454 11.5664 9.91036 11.5664C9.67531 11.5664 9.45428 11.4749 9.28811 11.3086C8.98425 11.0049 8.63216 11.1172 8.53137 11.159C8.43073 11.2007 8.10216 11.3702 8.10216 11.8C8.10216 12.2851 7.70747 12.6798 7.2223 12.6798H6.1252C5.64003 12.6798 5.24534 12.2851 5.24534 11.8C5.24534 11.3693 4.91707 11.1998 4.8165 11.1582C4.71579 11.1165 4.36391 11.0041 4.05939 11.3087C3.89329 11.4749 3.67227 11.5665 3.43722 11.5665C3.20217 11.5665 2.98107 11.475 2.81497 11.3087L2.03916 10.5329C1.87298 10.3668 1.7814 10.1458 1.7814 9.91066C1.7814 9.6756 1.87291 9.45458 2.03916 9.2884C2.34301 8.98455 2.2305 8.63239 2.18879 8.53174C2.14707 8.43103 1.97763 8.10254 1.54791 8.10254C1.06266 8.10239 0.667969 7.70769 0.667969 7.22253ZM1.70703 7.07023C2.35207 7.12641 2.89579 7.52319 3.14873 8.13401C3.40174 8.74483 3.29784 9.4099 2.88139 9.90576L3.44197 10.4663C3.9382 10.0494 4.60342 9.94531 5.21402 10.1982C5.82469 10.4511 6.22131 10.9951 6.27742 11.6408H7.07008C7.12626 10.9958 7.52304 10.4521 8.13386 10.1991C8.7446 9.94621 9.40968 10.05 9.90561 10.4663L10.4662 9.90576C10.0497 9.4099 9.94591 8.74483 10.1988 8.13401C10.4519 7.52326 10.9955 7.12641 11.6405 7.07023V6.27757C10.9955 6.22139 10.4518 5.82462 10.1988 5.2138C9.94591 4.60297 10.0497 3.93797 10.4661 3.44204L9.90553 2.88147C9.40953 3.29784 8.74453 3.40167 8.13378 3.14873C7.52304 2.89572 7.12626 2.35207 7.07008 1.70703H6.27742C6.22124 2.35207 5.82446 2.89579 5.21372 3.14873C4.6029 3.40174 3.93782 3.29784 3.44197 2.8814L2.88139 3.44197C3.29776 3.93797 3.40167 4.60297 3.14866 5.21372C2.89579 5.82462 2.35207 6.22139 1.70703 6.27757V7.07023ZM37.2912 20.8831C37.1078 22.4215 36.3681 23.885 35.9434 24.6204C35.5187 25.3559 34.6213 26.7283 33.3807 27.6563C32.5764 28.258 31.7664 28.5606 30.9817 28.5606C30.4336 28.5606 29.8978 28.4131 29.3845 28.1167L29.198 28.009C28.8905 27.8315 28.6706 27.5445 28.5784 27.2007C28.4863 26.8569 28.5333 26.4983 28.7108 26.191L29.4568 24.8989C29.8236 24.2634 30.6392 24.0449 31.2747 24.4117L31.7123 24.6644C31.8364 24.7361 31.9832 24.7118 32.0777 24.6041C32.4857 24.1389 32.8615 23.6105 33.1946 23.0334C33.5278 22.4564 33.7976 21.8666 33.9964 21.2808C34.0424 21.1451 33.99 21.0058 33.866 20.9342L33.4284 20.6817C33.121 20.5042 32.9011 20.2171 32.8089 19.8733C32.7168 19.5296 32.7638 19.1709 32.9412 18.8636L33.6872 17.5715C34.054 16.9361 34.8696 16.7176 35.5052 17.0843L35.6919 17.1921C36.9402 17.9128 37.4932 19.189 37.2912 20.8831ZM35.1723 18.0919L34.9858 17.9842C34.8464 17.9037 34.6675 17.9517 34.5871 18.091L33.8412 19.383C33.8025 19.4501 33.7923 19.5286 33.8127 19.6043C33.8329 19.68 33.881 19.743 33.948 19.7817L34.3856 20.0342C34.9425 20.3558 35.1871 21.0057 34.9804 21.6147C34.7598 22.2648 34.4617 22.9169 34.0945 23.5529C33.7274 24.1887 33.3117 24.7729 32.8589 25.2892C32.4349 25.7728 31.7498 25.8858 31.1929 25.5643L30.7553 25.3117C30.7095 25.2853 30.6594 25.2727 30.6099 25.2727C30.509 25.2727 30.4106 25.325 30.3566 25.4185L29.6106 26.7106C29.5719 26.7776 29.5618 26.8561 29.5821 26.9318C29.6024 27.0075 29.6505 27.0705 29.7175 27.1092L29.9041 27.217C30.7888 27.7278 31.7224 27.5993 32.7583 26.8243C33.891 25.9769 34.7338 24.6375 35.0436 24.1009C35.3534 23.5644 36.0921 22.1647 36.2595 20.7601C36.4126 19.4754 36.057 18.6027 35.1723 18.0919Z" fill="#0400F5"/>
</g>
<defs>
<clipPath id="clip0_45_6060">
<rect width="38" height="38" fill="white"/>
</clipPath>
</defs>
</svg>
