<svg width="20" height="20" viewBox="0 0 20 20" fill="none" xmlns="http://www.w3.org/2000/svg">
<path d="M15.6265 4H5.37283C4.06436 4 3 5.09359 3 6.43784V13.5622C3 14.9065 4.06443 16 5.37283 16H15.6265C16.9349 16 17.9993 14.9064 17.9993 13.5622L18 6.43784C18 5.09352 16.9349 4 15.6265 4ZM17.0929 14.3635L12.3563 9.41595L17.2885 6.76889V13.5622C17.2885 13.8516 17.2174 14.1245 17.0929 14.3635ZM5.3728 4.73096H15.6264C16.387 4.73096 17.0288 5.25947 17.2252 5.97806L10.4992 9.58776L3.77469 5.97806C3.97106 5.25949 4.6122 4.73096 5.3728 4.73096ZM3.90708 14.3635C3.78256 14.1245 3.71141 13.8518 3.71141 13.5616V6.76904L8.6436 9.41666L3.90708 14.3635ZM5.3728 15.2692C4.99641 15.2692 4.65062 15.1383 4.3717 14.9212L9.30243 9.77064L10.4992 10.4132L11.6967 9.77064L16.6281 14.922C16.3492 15.1391 16.0027 15.2699 15.6263 15.2699L5.3728 15.2692Z" fill="white" fill-opacity="0.8"/>
<path d="M10.4519 10.5013L10.4992 10.5267L10.5465 10.5013L11.677 9.89469L16.4766 14.9083C16.2313 15.0732 15.9397 15.1699 15.6263 15.1699L5.3728 15.1692C5.05948 15.1692 4.76841 15.0725 4.52321 14.9076L9.32209 9.89471L10.4519 10.5013ZM15.6265 3.9H5.37283C4.0066 3.9 2.9 5.04093 2.9 6.43784V13.5622C2.9 14.9591 4.00668 16.1 5.37283 16.1H15.6265C16.9927 16.1 18.0993 14.9591 18.0993 13.5622L18.1 6.43785C18.1 5.04081 16.9926 3.9 15.6265 3.9ZM17.1885 13.5622C17.1885 13.7845 17.144 13.9963 17.0641 14.1889L12.5196 9.44184L17.1885 6.93605V13.5622ZM5.3728 4.83096H15.6264C16.3121 4.83096 16.8977 5.2897 17.106 5.92854L10.4992 9.47426L3.89388 5.92854C4.10214 5.28968 4.68719 4.83096 5.3728 4.83096ZM8.48037 9.44253L3.93581 14.1889C3.85591 13.9963 3.81141 13.7845 3.81141 13.5616V6.93621L8.48037 9.44253Z" stroke="white" stroke-opacity="0.8" stroke-width="0.2"/>
</svg>
