<svg width="36" height="35" viewBox="0 0 36 35" fill="none" xmlns="http://www.w3.org/2000/svg">
<rect x="1.41141" y="1.09891" width="33.1772" height="33.1772" rx="16.5886" fill="white"/>
<rect x="1.41141" y="1.09891" width="33.1772" height="33.1772" rx="16.5886" stroke="#E4E4E4" stroke-width="1.17718"/>
<path d="M22.0722 25.2895V23.5237C22.0722 22.5871 21.6769 21.6888 20.9732 21.0265C20.2695 20.3643 19.3151 19.9922 18.32 19.9922H10.8155C9.82033 19.9922 8.86593 20.3643 8.16224 21.0265C7.45856 21.6888 7.06323 22.5871 7.06323 23.5237V25.2895" stroke="#352F2E" stroke-width="1.32432" stroke-linecap="round" stroke-linejoin="round"/>
<path d="M14.5677 15.5787C15.6214 15.5787 16.6319 15.2066 17.377 14.5443C18.1221 13.882 18.5407 12.9838 18.5407 12.0472C18.5407 11.1105 18.1221 10.2123 17.377 9.54999C16.6319 8.8877 15.6214 8.51562 14.5677 8.51562C13.514 8.51562 12.5035 8.8877 11.7584 9.54999C11.0133 10.2123 10.5947 11.1105 10.5947 12.0472C10.5947 12.9838 11.0133 13.882 11.7584 14.5443C12.5035 15.2066 13.514 15.5787 14.5677 15.5787Z" stroke="#352F2E" stroke-width="1.32432" stroke-linecap="round" stroke-linejoin="round"/>
<path d="M28.2523 25.2904V23.413C28.2516 22.581 27.954 21.7728 27.4061 21.1153C26.8582 20.4578 26.0911 19.9882 25.2252 19.7802M21.1892 8.51562C22.0574 8.72242 22.8269 9.19216 23.3764 9.85076C23.9259 10.5094 24.2241 11.3194 24.2241 12.1531C24.2241 12.9869 23.9259 13.7969 23.3764 14.4555C22.8269 15.1141 22.0574 15.5838 21.1892 15.7906" stroke="#352F2E" stroke-width="1.32432" stroke-linecap="round" stroke-linejoin="round"/>
</svg>
