<svg width="36" height="35" viewBox="0 0 36 35" fill="none" xmlns="http://www.w3.org/2000/svg">
<rect x="1.41141" y="1.37626" width="33.1772" height="32.8549" rx="16.4275" fill="white"/>
<rect x="1.41141" y="1.37626" width="33.1772" height="32.8549" rx="16.4275" stroke="#E4E4E4" stroke-width="1.17718"/>
<path d="M17.6576 20.0406C18.5368 20.0406 19.4074 19.868 20.2197 19.5325C21.032 19.1971 21.7701 18.7054 22.3918 18.0857C23.0135 17.4659 23.5067 16.7301 23.8432 15.9203C24.1796 15.1105 24.3528 14.2425 24.3528 13.366C24.3528 12.4895 24.1796 11.6215 23.8432 10.8117C23.5067 10.0019 23.0135 9.26614 22.3918 8.64635C21.7701 8.02656 21.032 7.53491 20.2197 7.19948C19.4074 6.86405 18.5368 6.69141 17.6576 6.69141C15.8819 6.69141 14.179 7.39462 12.9234 8.64635C11.6678 9.89808 10.9624 11.5958 10.9624 13.366C10.9624 15.1362 11.6678 16.8339 12.9234 18.0857C14.179 19.3374 15.8819 20.0406 17.6576 20.0406Z" stroke="#352F2E" stroke-width="1.32432" stroke-linecap="round" stroke-linejoin="round"/>
<path d="M14.0328 18.9822L12.8755 27.6687L17.6578 24.8082L22.4401 27.6687L21.2827 18.9727" stroke="#352F2E" stroke-width="1.32432" stroke-linecap="round" stroke-linejoin="round"/>
</svg>
