<svg width="36" height="36" viewBox="0 0 36 36" fill="none" xmlns="http://www.w3.org/2000/svg">
<rect x="1.41141" y="1.41141" width="33.1772" height="33.1772" rx="16.5886" fill="white"/>
<rect x="1.41141" y="1.41141" width="33.1772" height="33.1772" rx="16.5886" stroke="#E4E4E4" stroke-width="1.17718"/>
<path d="M17.8047 23.1682C14.4447 23.1682 11.7205 20.3786 11.7205 16.938V10.8008H23.798V17.031C23.8888 20.3786 21.1646 23.1682 17.8047 23.1682Z" stroke="#352F2E" stroke-width="1.32432" stroke-linecap="round" stroke-linejoin="round"/>
<path d="M11.7205 17.0306V12.6602H7.81567V14.055C7.81567 16.3797 9.63185 18.2394 11.9021 18.2394C11.8113 17.7745 11.7205 17.4026 11.7205 17.0306Z" stroke="#352F2E" stroke-width="1.32432" stroke-linecap="round" stroke-linejoin="round"/>
<path d="M23.8889 12.6602V16.9376C23.8889 17.3096 23.8889 17.7745 23.7981 18.1465C26.0683 18.1465 27.8845 16.2867 27.8845 13.962V12.6602H23.8889Z" stroke="#352F2E" stroke-width="1.32432" stroke-linecap="round" stroke-linejoin="round"/>
<path d="M15.262 26.6094H20.3473" stroke="#352F2E" stroke-width="1.32432" stroke-linecap="round" stroke-linejoin="round"/>
<path d="M17.8047 26.6085V23.168" stroke="#352F2E" stroke-width="1.32432" stroke-linecap="round" stroke-linejoin="round"/>
</svg>
