<svg width="44" height="44" viewBox="0 0 44 44" fill="none" xmlns="http://www.w3.org/2000/svg">
<path d="M0 18.4945C0 14.7677 3.56653 11.7466 7.96606 11.7466H36.034C40.4335 11.7466 44 14.7677 44 18.4945V28.2419C44 31.9687 40.4335 34.9898 36.034 34.9898H7.96606C3.56652 34.9898 0 31.9687 0 28.2419V18.4945Z" fill="#E5E7EB"/>
<path d="M17.3167 6C13.4584 6 10.3108 9.14763 10.3108 13.0059C10.3108 16.8642 13.4584 20.0118 17.3167 20.0118C21.175 20.0118 24.3226 16.8642 24.3226 13.0059C24.3212 9.14763 21.1892 6 17.3167 6Z" fill="#4B5563"/>
<path d="M30.5265 29.0293C29.6938 29.0293 29.0129 29.7102 29.0129 30.5428C29.0129 30.9811 29.2101 31.4053 29.5576 31.7074C30.0867 32.1457 30.9492 32.1613 31.5095 31.7074C31.8428 31.4194 32.0386 30.9967 32.0386 30.557C32.0386 29.7243 31.3577 29.0435 30.525 29.0435L30.5265 29.0293Z" fill="#4B5563"/>
<path d="M37.1822 27.9397C37.0758 27.9099 37.0758 27.7581 37.0758 27.6829C37.4687 26.9864 37.3482 26.124 36.7737 25.5041L35.5935 24.3396C35.0488 23.7339 34.202 23.5381 33.3083 24.0062C33.2785 24.0062 33.1566 24.0062 33.1112 23.8544C32.8686 23.0672 32.1736 22.5537 31.3707 22.5537H29.6458C28.8444 22.5537 28.1479 23.0828 27.9053 23.8544C27.8599 23.9906 27.7393 24.0062 27.6783 24.0062C27.6486 23.9906 27.5422 23.931 27.5124 23.9154C27.467 23.8857 27.4216 23.8701 27.3762 23.8544C26.711 23.6275 25.9691 23.7793 25.4854 24.2786L24.2598 25.4885C23.9123 25.8361 23.7307 26.29 23.7307 26.7751C23.7307 27.0773 23.8215 27.395 23.9733 27.7283C23.9733 27.7283 23.9733 27.8943 23.8371 27.9255C23.0498 28.1681 22.5364 28.8631 22.5364 29.6802V31.3894C22.5364 32.2065 23.0655 32.903 23.9591 33.2349V33.4008C23.5662 34.1115 23.6712 34.9739 24.2471 35.5498L25.4726 36.7754C26.0925 37.3953 27.1224 37.3357 27.7124 37.0634C27.8642 37.0634 27.894 37.1697 27.9096 37.2293C28.1522 37.9854 28.8472 38.5003 29.6501 38.5003H31.375C32.1764 38.5003 32.8729 37.9854 33.1155 37.2137C33.1155 37.1839 33.1609 37.0619 33.4034 37.0931C34.1297 37.4719 34.9921 37.3499 35.5524 36.791L36.778 35.5654C37.1255 35.2179 37.3071 34.7782 37.3071 34.2788C37.3071 33.9313 37.2007 33.598 37.0801 33.432C37.0347 33.3568 37.0645 33.2802 37.0801 33.2505L37.2007 33.1441C37.988 32.9171 38.5014 32.2065 38.5014 31.3894V29.6802C38.5014 28.8631 37.9724 28.1666 37.1695 27.9255L37.1822 27.9397ZM32.9764 33.432C32.2799 34.0221 31.4033 34.3243 30.5253 34.3243C29.6472 34.3243 28.7848 34.0065 28.0898 33.4462C27.2273 32.7043 26.7436 31.6462 26.7436 30.5411C26.7436 28.4531 28.4387 26.758 30.5267 26.758C32.6147 26.758 34.3098 28.4531 34.3098 30.5411C34.3098 31.6462 33.8262 32.6902 32.9779 33.4306L32.9764 33.432Z" fill="#4B5563"/>
<path d="M21.0246 31.4048V29.6955C21.0246 28.6671 21.4785 27.7437 22.2345 27.1238C22.2345 27.0174 22.2189 26.9124 22.2189 26.7905C22.2189 25.8982 22.5664 25.0656 23.1878 24.4301L24.4289 23.2045C25.0034 22.6144 25.7609 22.3123 26.5623 22.2513C25.5481 21.1165 24.2928 20.1633 22.8246 19.498C21.3423 20.7534 19.4203 21.5109 17.3323 21.5109C15.2442 21.5109 13.3676 20.769 11.8853 19.5293C8.37452 21.1478 6 24.2798 6 27.8515C6 28.4714 6.22696 29.3948 7.28658 30.2417C9.19302 31.7396 13.369 32.4502 17.4543 32.4502C18.7252 32.4502 19.9664 32.375 21.1607 32.2389C21.0856 31.9665 21.0402 31.6786 21.0402 31.3764L21.0246 31.4048Z" fill="#4B5563"/>
</svg>
