<svg width="44" height="44" viewBox="0 0 44 44" fill="none" xmlns="http://www.w3.org/2000/svg">
<g clip-path="url(#clip0_703_1964)">
<path d="M-4.24385e-05 18.4945C-4.24385e-05 14.7677 3.56649 11.7466 7.96601 11.7466H36.0339C40.4334 11.7466 44 14.7677 44 18.4945V28.2419C44 31.9687 40.4334 34.9898 36.0339 34.9898H7.96601C3.56648 34.9898 -4.24385e-05 31.9687 -4.24385e-05 28.2419V18.4945Z" fill="#E5E7EB"/>
<path fill-rule="evenodd" clip-rule="evenodd" d="M14.3782 7H21.7087C23.1289 7 24.2911 8.15894 24.2911 9.57508V10.8986H21.9985V9.57508C21.9985 9.41624 21.868 9.28611 21.7087 9.28611H14.3782C14.2189 9.28611 14.0884 9.41624 14.0884 9.57508V10.8986H11.7957V9.57508C11.7957 8.15894 12.9576 7 14.3782 7ZM32.0865 21.081C34.3108 21.081 36.114 22.8792 36.114 25.0971C36.114 27.3151 34.3108 29.1132 32.0865 29.1132C29.8621 29.1132 28.0589 27.3151 28.0589 25.0971C28.0589 22.8792 29.8621 21.081 32.0865 21.081ZM35.7628 28.8706C34.8125 29.7915 33.5159 30.3583 32.0865 30.3583C30.6567 30.3583 29.3601 29.7911 28.4101 28.8706L27.3534 29.3781C26.2994 29.8845 25.6023 30.7556 25.3421 31.8931L24.1733 37H40L38.8308 31.8931C38.5706 30.7556 37.8735 29.8841 36.8195 29.3781L35.7628 28.8706ZM4.88167 12.144H31.2048C31.6896 12.144 32.0865 12.5398 32.0865 13.0232V14.0692L20.4554 18.5473V17.8339H15.6314V18.5473L4 14.0692V13.0232C4 12.5394 4.39689 12.144 4.88167 12.144ZM32.0865 15.3996L20.4554 19.8781V20.9107L18.0434 22.449L15.6314 20.9107V19.8781L4 15.3996V28.572C4 29.0554 4.3965 29.4512 4.88167 29.4512H25.2173C25.6487 28.9613 26.1846 28.5571 26.8114 28.2563L27.6048 27.8755C27.1008 27.0694 26.8099 26.1175 26.8099 25.0975C26.8099 22.1918 29.172 19.8364 32.0865 19.836V15.3996Z" fill="#0400F5"/>
</g>
<defs>
<clipPath id="clip0_703_1964">
<rect width="44" height="44" fill="white"/>
</clipPath>
</defs>
</svg>
