<svg width="44" height="44" viewBox="0 0 44 44" fill="none" xmlns="http://www.w3.org/2000/svg">
<g clip-path="url(#clip0_703_2004)">
<path d="M-6.10352e-05 18.4945C-6.10352e-05 14.7677 3.56647 11.7466 7.96599 11.7466H36.0339C40.4334 11.7466 43.9999 14.7677 43.9999 18.4945V28.2419C43.9999 31.9687 40.4334 34.9898 36.0339 34.9898H7.96599C3.56646 34.9898 -6.10352e-05 31.9687 -6.10352e-05 28.2419V18.4945Z" fill="#E5E7EB"/>
<path fill-rule="evenodd" clip-rule="evenodd" d="M23.2839 30.9583C23.2839 31.7728 23.4321 32.5811 23.7209 33.3433C23.6275 33.4517 23.5665 33.5825 23.5429 33.7232L23.2242 35.3933C23.1507 35.7657 22.8221 36.0335 22.4424 36.031H19.5394C19.1597 36.0347 18.8311 35.7669 18.7589 35.3933L18.4402 33.7232C18.3954 33.4156 18.1726 33.1652 17.8726 33.0855C16.9925 32.8389 16.146 32.4877 15.3493 32.0394C15.0854 31.8849 14.7567 31.8999 14.5078 32.078L13.1123 33.0345C12.7986 33.2549 12.3703 33.2151 12.1014 32.9411L10.04 30.8786C9.76733 30.6084 9.72749 30.1799 9.94783 29.8648L10.9039 28.4712C11.0844 28.2333 11.1118 27.912 10.9736 27.6455C10.5255 26.8484 10.1744 26.0015 9.92793 25.121C9.85075 24.8258 9.60676 24.6041 9.30676 24.5531L7.6374 24.2343C7.26518 24.1608 6.99755 23.8332 7.00004 23.4534V20.5515C6.9963 20.1717 7.26395 19.8429 7.6374 19.7706L9.30427 19.4518C9.60926 19.4057 9.85948 19.1828 9.94164 18.8839C10.1844 18.0096 10.5305 17.1677 10.9736 16.3756C11.128 16.1116 11.113 15.7815 10.935 15.5337L9.97899 14.1376C9.75865 13.8225 9.79848 13.3953 10.0724 13.1263L12.1338 11.0638C12.4027 10.7898 12.8297 10.75 13.1434 10.9704L14.5389 11.9269H14.5402C14.7879 12.105 15.1178 12.12 15.3804 11.9655C16.1734 11.5222 17.0149 11.1734 17.8888 10.9293C18.1838 10.8509 18.4054 10.608 18.4564 10.3079L18.7751 8.63773C18.8473 8.26409 19.176 7.99509 19.5556 8.00007H22.4462C22.8259 7.99633 23.1533 8.2641 23.2267 8.63773L23.5454 10.3079C23.5964 10.608 23.818 10.8509 24.113 10.9293C24.9906 11.1784 25.8359 11.5321 26.6301 11.9817C26.894 12.1362 27.2239 12.1212 27.4716 11.9431L28.8646 10.9866C29.1796 10.7674 29.6078 10.806 29.8779 11.08L31.9394 13.1425C32.2133 13.4115 32.2531 13.8387 32.0315 14.1525L31.0755 15.5487V15.5499C30.8987 15.7977 30.8825 16.1265 31.0344 16.3906C31.485 17.1876 31.8373 18.0358 32.0826 18.9163C32.1622 19.2165 32.4137 19.4394 32.7199 19.4842L34.3893 19.803H34.3905C34.764 19.8753 35.0316 20.2041 35.0279 20.5839V23.4596C35.0304 23.8395 34.7628 24.167 34.3905 24.2405L32.7212 24.5593H32.7199C32.5755 24.5805 32.4386 24.6403 32.3253 24.7349C31.5672 24.4485 30.7618 24.3015 29.9514 24.3015C29.2767 24.3003 28.6057 24.4024 27.9621 24.6041C28.7551 22.472 28.526 20.0943 27.3409 18.1529C26.1571 16.2113 24.1477 14.9209 21.8899 14.6509C19.633 14.3819 17.3761 15.164 15.7677 16.7718C14.1606 18.381 13.3788 20.6377 13.6489 22.8969C13.9178 25.1561 15.2075 27.1664 17.1481 28.3505C19.0888 29.5362 21.4653 29.7653 23.5963 28.972C23.3921 29.6146 23.2864 30.2845 23.2839 30.9583ZM36 30.9583C35.995 32.8414 35.1149 34.6163 33.6186 35.7583C32.121 36.9004 30.179 37.2815 28.3616 36.7895C26.5453 36.2976 25.0603 34.9887 24.3446 33.2464C23.6288 31.504 23.7632 29.5288 24.7093 27.8996C25.6541 26.2718 27.3036 25.1758 29.1696 24.9342C31.0369 24.6938 32.9103 25.3352 34.2373 26.6703C35.3713 27.8087 36.005 29.3518 36 30.9583ZM35.4 30.9583C35.4 29.2596 34.6082 27.6568 33.2601 26.6241C31.9119 25.5904 30.1591 25.243 28.5197 25.6851C26.879 26.126 25.5382 27.3054 24.8896 28.8759C24.241 30.4464 24.3605 32.23 25.2107 33.7008C26.0622 35.1704 27.5485 36.1618 29.2328 36.381C30.9171 36.6001 32.6077 36.0235 33.8065 34.8192C34.8298 33.7955 35.4024 32.4054 35.4 30.9583ZM32.07 27.8148C31.9804 27.7414 31.8559 27.7277 31.7514 27.78C31.648 27.8298 31.5846 27.9356 31.5858 28.0502V30.3207C31.587 30.4925 31.4949 30.6507 31.3468 30.7354L30.1766 31.4117H30.1779C30.0297 31.4976 29.8467 31.4976 29.6998 31.4117L28.5334 30.7354C28.384 30.6507 28.2919 30.4925 28.2944 30.3207V28.0502C28.2944 27.9356 28.2284 27.8298 28.1251 27.78C28.0218 27.7277 27.896 27.7414 27.8064 27.8148C26.9188 28.5061 26.4221 29.5859 26.4732 30.7092C26.5242 31.8338 27.118 32.8626 28.0641 33.4704C28.3765 33.6646 28.5645 34.0084 28.5583 34.3758V35.6225C29.4583 35.8902 30.4156 35.8902 31.3144 35.6225V34.3758C31.3107 34.0096 31.4986 33.6659 31.8086 33.4704C32.7572 32.8638 33.351 31.8339 33.402 30.7092C33.4543 29.5846 32.9564 28.506 32.0675 27.8148H32.07ZM25.7923 25.7487C25.1201 24.507 23.9923 23.5754 22.6478 23.1469C21.3034 22.7198 19.8444 22.8306 18.5795 23.4558C17.3135 24.081 16.34 25.1733 15.862 26.5009C16.8355 27.6143 18.1426 28.3815 19.5877 28.6866C21.0343 28.993 22.5405 28.8211 23.8801 28.1972C24.2125 27.4723 24.6706 26.8122 25.2345 26.2493C25.41 26.0712 25.5956 25.9031 25.7923 25.7487ZM18.4378 19.8541C18.4378 20.8854 19.0577 21.8157 20.0113 22.2105C20.9636 22.6053 22.0603 22.3873 22.7898 21.6575C23.518 20.9277 23.7371 19.8304 23.3425 18.8777C22.9479 17.9249 22.018 17.3035 20.9873 17.3035C19.5781 17.3035 18.4378 18.4455 18.4378 19.8541Z" fill="#4B5563"/>
</g>
<defs>
<clipPath id="clip0_703_2004">
<rect width="44" height="44" fill="white"/>
</clipPath>
</defs>
</svg>
