<svg width="44" height="44" viewBox="0 0 44 44" fill="none" xmlns="http://www.w3.org/2000/svg">
<g clip-path="url(#clip0_703_1980)">
<path d="M-3.05176e-05 18.4945C-3.05176e-05 14.7677 3.5665 11.7466 7.96602 11.7466H36.0339C40.4334 11.7466 44 14.7677 44 18.4945V28.2419C44 31.9687 40.4334 34.9898 36.0339 34.9898H7.96602C3.56649 34.9898 -3.05176e-05 31.9687 -3.05176e-05 28.2419V18.4945Z" fill="#E5E7EB"/>
<path d="M26.7065 19.3886C26.7065 21.9664 24.5974 26.1377 22.0196 26.1377C19.4418 26.1377 17.3327 21.9664 17.3327 19.3886C17.3327 16.8108 19.4418 14.7017 22.0196 14.7017C24.5974 14.7017 26.7065 16.8108 26.7065 19.3886Z" fill="#0400F5"/>
<path d="M22.0206 11.1865C16.0214 11.1865 11.1939 16.014 11.1939 22.0133C11.1939 27.9656 16.0214 32.84 22.0206 32.84C28.0198 32.84 32.8474 27.9656 32.8474 22.0133C32.8474 16.014 28.0198 11.1865 22.0206 11.1865ZM25.6295 24.966C24.6453 26.2315 23.4267 27.122 22.0206 27.122C20.6145 27.122 19.3491 26.2315 18.3648 24.966C16.6776 25.4816 14.8028 26.5127 14.1466 28.0594C12.8343 26.3721 12.0844 24.3098 12.0844 22.0133C12.0844 16.5296 16.5369 12.1239 21.9737 12.1239C27.4574 12.1239 31.8631 16.5765 31.8631 22.0133C31.8631 24.263 31.1132 26.3721 29.8009 28.0594C29.2384 26.5127 27.3637 25.4816 25.6295 24.966Z" fill="#0400F5"/>
<path d="M10.3043 14.2334L10.4918 15.3113C10.5386 15.5926 10.773 15.7332 11.0542 15.6863C11.2885 15.6394 11.476 15.4051 11.4291 15.1239L11.0542 12.9679C11.0073 12.7335 10.7261 12.4992 10.4449 12.5929L8.28891 12.9679C8.05457 13.0148 7.86709 13.2491 7.91396 13.5303C7.96083 13.8115 8.19518 13.9521 8.47639 13.9053L9.50751 13.7178C5.94546 19.0609 6.17981 26.0912 10.2105 31.2468C10.3512 31.4343 10.6792 31.4811 10.8667 31.3405C11.0542 31.1999 11.1011 30.8719 10.9604 30.6844C7.16406 25.8569 6.97658 19.2483 10.3043 14.2334Z" fill="#0400F5"/>
<path d="M30.6925 33.0746C25.9118 36.8241 19.3033 37.0584 14.2883 33.7307L15.3663 33.5432C15.6007 33.4964 15.7881 33.262 15.7413 33.0277C15.6944 32.7933 15.4601 32.6059 15.2257 32.6527L13.0229 32.9808C12.7885 33.0277 12.601 33.262 12.6479 33.5432L12.976 35.6992C13.0229 35.9804 13.2572 36.121 13.4916 36.0742C13.7259 36.0273 13.9134 35.793 13.8665 35.5586L13.679 34.4806C19.069 38.0895 26.0993 37.8552 31.208 33.8245C31.3955 33.6839 31.4424 33.3558 31.3018 33.1683C31.1612 32.9808 30.88 32.934 30.6925 33.0746Z" fill="#0400F5"/>
<path d="M13.3514 10.9526C18.1789 7.1562 24.7405 6.96872 29.7555 10.2964L28.6775 10.4839C28.4432 10.5308 28.2557 10.7651 28.3026 10.9995C28.3494 11.2338 28.5838 11.4213 28.8181 11.3744L31.021 11.0463C31.2553 10.9995 31.4897 10.7651 31.3959 10.4839L31.0678 8.32792C31.021 8.09358 30.7866 7.9061 30.5523 7.95297C30.3179 7.99984 30.1305 8.23418 30.1773 8.46853L30.3648 9.54651C24.9749 5.9376 17.8976 6.17195 12.7889 10.2027C12.6015 10.3433 12.5546 10.6714 12.6952 10.8588C12.8827 11.0463 13.1639 11.0932 13.3514 10.9526Z" fill="#0400F5"/>
<path d="M35.5657 30.1689L34.4877 30.3564C38.0498 25.0133 37.8623 17.9361 33.8316 12.8273C33.691 12.6399 33.3629 12.593 33.1754 12.7336C32.9879 12.8742 32.9411 13.2023 33.0817 13.3898C36.8781 18.2173 37.0655 24.7789 33.7378 29.7939L33.5504 28.7159C33.5035 28.4816 33.2691 28.2941 33.0348 28.341C32.8005 28.3879 32.613 28.6222 32.6598 28.8565L32.9879 31.0594C33.0348 31.2469 33.2223 31.4812 33.5035 31.4343L35.7063 31.1063C35.9407 31.0594 36.1282 30.825 36.0813 30.5907C36.0813 30.2626 35.8469 30.122 35.5657 30.1689Z" fill="#0400F5"/>
</g>
<defs>
<clipPath id="clip0_703_1980">
<rect width="44" height="44" fill="white"/>
</clipPath>
</defs>
</svg>
