<svg width="44" height="44" viewBox="0 0 44 44" fill="none" xmlns="http://www.w3.org/2000/svg">
<g clip-path="url(#clip0_703_2020)">
<path d="M-6.10352e-05 18.4945C-6.10352e-05 14.7677 3.56647 11.7466 7.96599 11.7466H36.0339C40.4334 11.7466 43.9999 14.7677 43.9999 18.4945V28.2419C43.9999 31.9687 40.4334 34.9898 36.0339 34.9898H7.96599C3.56646 34.9898 -6.10352e-05 31.9687 -6.10352e-05 28.2419V18.4945Z" fill="#E5E7EB"/>
<path d="M17.3165 6C13.4582 6 10.3106 9.14763 10.3106 13.0059C10.3106 16.8642 13.4582 20.0118 17.3165 20.0118C21.1748 20.0118 24.3224 16.8642 24.3224 13.0059C24.321 9.14763 21.189 6 17.3165 6Z" fill="#0400F5"/>
<path d="M30.5262 29.0293C29.6936 29.0293 29.0127 29.7102 29.0127 30.5428C29.0127 30.9811 29.2099 31.4053 29.5574 31.7074C30.0865 32.1457 30.9489 32.1613 31.5092 31.7074C31.8426 31.4194 32.0383 30.9967 32.0383 30.557C32.0383 29.7243 31.3574 29.0435 30.5248 29.0435L30.5262 29.0293Z" fill="#0400F5"/>
<path d="M37.182 27.9397C37.0756 27.9099 37.0756 27.7581 37.0756 27.6829C37.4685 26.9864 37.3479 26.124 36.7734 25.5041L35.5933 24.3396C35.0486 23.7339 34.2018 23.5381 33.3081 24.0062C33.2783 24.0062 33.1563 24.0062 33.1109 23.8544C32.8684 23.0672 32.1733 22.5537 31.3704 22.5537H29.6455C28.8441 22.5537 28.1476 23.0828 27.9051 23.8544C27.8597 23.9906 27.7391 24.0062 27.6781 24.0062C27.6483 23.9906 27.5419 23.931 27.5121 23.9154C27.4667 23.8857 27.4214 23.8701 27.376 23.8544C26.7107 23.6275 25.9688 23.7793 25.4851 24.2786L24.2596 25.4885C23.912 25.8361 23.7305 26.29 23.7305 26.7751C23.7305 27.0773 23.8213 27.395 23.973 27.7283C23.973 27.7283 23.973 27.8943 23.8369 27.9255C23.0496 28.1681 22.5361 28.8631 22.5361 29.6802V31.3894C22.5361 32.2065 23.0652 32.903 23.9589 33.2349V33.4008C23.566 34.1115 23.6709 34.9739 24.2468 35.5498L25.4724 36.7754C26.0923 37.3953 27.1221 37.3357 27.7122 37.0634C27.864 37.0634 27.8938 37.1697 27.9094 37.2293C28.1519 37.9854 28.847 38.5003 29.6499 38.5003H31.3747C32.1762 38.5003 32.8727 37.9854 33.1152 37.2137C33.1152 37.1839 33.1606 37.0619 33.4032 37.0931C34.1294 37.4719 34.9919 37.3499 35.5522 36.791L36.7778 35.5654C37.1253 35.2179 37.3068 34.7782 37.3068 34.2788C37.3068 33.9313 37.2005 33.598 37.0799 33.432C37.0345 33.3568 37.0643 33.2802 37.0799 33.2505L37.2005 33.1441C37.9877 32.9171 38.5012 32.2065 38.5012 31.3894V29.6802C38.5012 28.8631 37.9721 28.1666 37.1692 27.9255L37.182 27.9397ZM32.9762 33.432C32.2797 34.0221 31.4031 34.3243 30.525 34.3243C29.647 34.3243 28.7846 34.0065 28.0895 33.4462C27.2271 32.7043 26.7434 31.6462 26.7434 30.5411C26.7434 28.4531 28.4385 26.758 30.5265 26.758C32.6145 26.758 34.3096 28.4531 34.3096 30.5411C34.3096 31.6462 33.8259 32.6902 32.9776 33.4306L32.9762 33.432Z" fill="#0400F5"/>
<path d="M21.0244 31.4048V29.6955C21.0244 28.6671 21.4784 27.7437 22.2344 27.1238C22.2344 27.0174 22.2188 26.9124 22.2188 26.7905C22.2188 25.8982 22.5663 25.0656 23.1876 24.4301L24.4288 23.2045C25.0033 22.6144 25.7608 22.3123 26.5622 22.2513C25.548 21.1165 24.2926 20.1633 22.8245 19.498C21.3422 20.7534 19.4201 21.5109 17.3321 21.5109C15.2441 21.5109 13.3675 20.769 11.8852 19.5293C8.3744 21.1478 5.99988 24.2798 5.99988 27.8515C5.99988 28.4714 6.22684 29.3948 7.28645 30.2417C9.1929 31.7396 13.3689 32.4502 17.4541 32.4502C18.7251 32.4502 19.9663 32.375 21.1606 32.2389C21.0854 31.9665 21.0401 31.6786 21.0401 31.3764L21.0244 31.4048Z" fill="#0400F5"/>
</g>
<defs>
<clipPath id="clip0_703_2020">
<rect width="44" height="44" fill="white"/>
</clipPath>
</defs>
</svg>
