<svg width="25" height="25" viewBox="0 0 25 25" fill="none" xmlns="http://www.w3.org/2000/svg">
<rect width="25" height="25" rx="5" fill="#EFF6FF"/>
<g clip-path="url(#clip0_50_6291)">
<path fill-rule="evenodd" clip-rule="evenodd" d="M5.58284 16.3628H3.68543C3.60531 16.3628 3.52893 16.3288 3.47539 16.2692C3.42185 16.2096 3.39612 16.13 3.4047 16.0503C3.66577 13.6193 5.41904 11.6347 7.73006 11.0323C6.7702 10.5072 6.11694 9.487 6.11694 8.3194C6.11694 6.61819 7.50372 5.22989 9.20497 5.22989C10.9078 5.22989 12.2944 6.61822 12.2944 8.3194C12.2944 9.48704 11.6411 10.5073 10.6808 11.0324C12.7917 11.5826 14.4367 13.2852 14.9044 15.4278H15.4165L15.9616 13.7501C16.0224 13.5632 16.1966 13.4367 16.3931 13.4367C16.5896 13.4367 16.7638 13.5632 16.8245 13.7501L17.3696 15.4278H19.1336C19.3301 15.4278 19.5043 15.5543 19.565 15.7412C19.6257 15.9281 19.5592 16.1329 19.4002 16.2484L17.9731 17.2853L18.5182 18.9629C18.5789 19.1498 18.5124 19.3546 18.3535 19.4701C18.1945 19.5856 17.9792 19.5856 17.8202 19.4701L16.3931 18.4332L14.966 19.4701C14.807 19.5856 14.5917 19.5856 14.4327 19.4701C14.2737 19.3546 14.2072 19.1498 14.2679 18.9629L14.813 17.2853L13.5434 16.3628H12.8271C12.8856 16.4154 12.9208 16.4912 12.9208 16.573V17.502C12.9208 17.6188 12.8489 17.7236 12.7399 17.7656L12.3059 17.9326C12.2392 18.1634 12.1467 18.3858 12.0307 18.5962L12.2193 19.0221C12.2666 19.1288 12.2433 19.2536 12.1608 19.3361L11.504 19.9929C11.4215 20.0754 11.2967 20.0987 11.19 20.0514L10.7646 19.8629C10.5544 19.9793 10.3315 20.0716 10.1005 20.1381L9.93344 20.572C9.89147 20.681 9.78676 20.753 9.66993 20.753H8.74092C8.6241 20.753 8.51934 20.681 8.47741 20.572L8.3104 20.1381C8.07894 20.0715 7.85634 19.9788 7.64581 19.8627L7.21989 20.0514C7.11319 20.0987 6.98839 20.0754 6.90587 19.9929L6.24912 19.3361C6.1665 19.2535 6.14327 19.1285 6.19074 19.0218C6.19074 19.0218 6.37985 18.5964 6.37989 18.5965C6.26352 18.3864 6.1713 18.1636 6.10434 17.9327L5.66998 17.7656C5.56099 17.7236 5.48906 17.6188 5.48906 17.502V16.573C5.48906 16.4912 5.52429 16.4154 5.58284 16.3628ZM9.20497 11.4089C6.59532 11.4089 4.42872 13.3069 4.00921 15.7981H6.22526C6.27083 15.6887 6.32243 15.5818 6.37996 15.4778L6.19074 15.0524C6.14327 14.9456 6.1665 14.8206 6.24912 14.738L6.90587 14.0812C6.9885 13.9986 7.11347 13.9754 7.22024 14.0229L7.64571 14.212C7.85624 14.0956 8.07873 14.0034 8.30959 13.937L8.47749 13.5018C8.51952 13.393 8.6242 13.3211 8.74092 13.3211H9.66993C9.78679 13.3211 9.89158 13.3931 9.93351 13.5022L10.1006 13.937C10.3313 14.0035 10.5538 14.0957 10.7642 14.212L11.1897 14.0229C11.2964 13.9754 11.4214 13.9986 11.504 14.0812L12.1608 14.738C12.2433 14.8205 12.2666 14.9453 12.2193 15.052C12.2193 15.052 12.0308 15.4776 12.0308 15.4776C12.0883 15.5816 12.1399 15.6886 12.1855 15.7981H13.2066C13.2102 15.7791 13.215 15.7601 13.2211 15.7412C13.2819 15.5543 13.456 15.4278 13.6526 15.4278H14.3249C13.7641 13.1212 11.6849 11.4089 9.20497 11.4089ZM13.9944 15.9925L15.2102 16.8758C15.3692 16.9913 15.4358 17.1961 15.375 17.383L14.9106 18.8123L16.1264 17.929C16.2854 17.8134 16.5007 17.8134 16.6597 17.9289L17.8755 18.8123L17.4111 17.383C17.3504 17.1961 17.4169 16.9913 17.5759 16.8758L18.7917 15.9925H17.2889C17.0924 15.9925 16.9182 15.866 16.8575 15.679L16.3931 14.2498L15.9287 15.679C15.8679 15.866 15.6938 15.9925 15.4972 15.9925H13.9944ZM9.20497 10.8442C10.5965 10.8442 11.7297 9.70964 11.7297 8.3194C11.7297 6.92916 10.5965 5.7946 9.20497 5.7946C7.81477 5.7946 6.68165 6.9292 6.68165 8.3194C6.68165 9.70956 7.81477 10.8442 9.20497 10.8442ZM9.62529 14.2745L9.47596 13.8858H8.93462L8.78447 14.2749C8.75098 14.3617 8.67686 14.4264 8.58633 14.448C8.31249 14.5131 8.05131 14.6212 7.81124 14.7692C7.73193 14.8181 7.63357 14.8246 7.5484 14.7868L7.16804 14.6177L6.78556 15.0002L6.95469 15.3805C6.99256 15.4657 6.98596 15.564 6.93707 15.6434C6.78902 15.8836 6.68077 16.145 6.6148 16.42C6.5931 16.5103 6.52837 16.5842 6.44165 16.6176L6.05377 16.7669V17.3081L6.44165 17.4574C6.5283 17.4908 6.59303 17.5646 6.61473 17.6549C6.6807 17.9289 6.78884 18.1911 6.93683 18.4304C6.98592 18.5098 6.99263 18.6083 6.95469 18.6936L6.78556 19.074L7.16825 19.4567L7.54879 19.2881C7.63364 19.2505 7.73151 19.257 7.81064 19.3055C8.05085 19.4527 8.31217 19.5619 8.58707 19.627C8.67778 19.6485 8.752 19.7134 8.7855 19.8004L8.93479 20.1882H9.47606L9.62536 19.8004C9.65881 19.7134 9.73297 19.6486 9.82357 19.6271C10.0973 19.562 10.3592 19.454 10.5983 19.3061C10.6775 19.2571 10.7759 19.2503 10.8611 19.2881L11.2417 19.4567L11.6246 19.0738L11.456 18.6932C11.4184 18.6084 11.4249 18.5105 11.4734 18.4314C11.6206 18.1911 11.7298 17.9298 11.795 17.6557C11.8165 17.565 11.8813 17.4909 11.9683 17.4574L12.3561 17.3081V16.7669L11.9683 16.6176C11.8813 16.5841 11.8164 16.5099 11.7949 16.4192C11.7298 16.1445 11.6217 15.8834 11.4738 15.6434C11.425 15.5642 11.4183 15.466 11.456 15.3809L11.6246 15.0003L11.2419 14.6177L10.8615 14.7868C10.7763 14.8246 10.678 14.8181 10.5987 14.7692C10.3586 14.6212 10.0974 14.5131 9.82357 14.448C9.7329 14.4264 9.65871 14.3615 9.62529 14.2745ZM9.20497 15.1343C10.2563 15.1343 11.1087 15.9857 11.1087 17.037C11.1087 18.0883 10.2562 18.9407 9.20497 18.9407C8.15366 18.9407 7.30219 18.0884 7.30219 17.037C7.30219 15.9857 8.15359 15.1343 9.20497 15.1343ZM9.20497 15.699C8.46563 15.699 7.8669 16.2977 7.8669 17.037C7.8669 17.7764 8.46559 18.376 9.20497 18.376C9.94438 18.376 10.544 17.7765 10.544 17.037C10.544 16.2977 9.94434 15.699 9.20497 15.699ZM19.8642 5.7556C19.465 5.28531 18.5884 4.25267 18.2811 3.89062L16.6981 5.7556H17.2675C17.4235 5.7556 17.5498 5.88202 17.5498 6.03795V11.0196C17.5498 11.1754 17.4233 11.3019 17.2675 11.3019C17.1117 11.3019 16.9851 11.1754 16.9851 11.0196V6.32031H16.3852C16.2159 6.32031 16.0737 6.22872 16.0035 6.07579C15.9337 5.92452 15.9562 5.75479 16.0659 5.62766L17.9606 3.39562C18.0417 3.29909 18.1518 3.24707 18.2811 3.24707C18.407 3.24707 18.517 3.29729 18.6 3.39365C18.6004 3.39418 18.6009 3.39467 18.6013 3.39516L20.497 5.62844C20.6048 5.75514 20.6276 5.92473 20.5578 6.07579C20.4875 6.22925 20.3443 6.32031 20.1771 6.32031H19.5763V9.45573C19.5763 9.61155 19.4497 9.73808 19.2939 9.73808C19.138 9.73808 19.0115 9.61155 19.0115 9.45573V6.03795C19.0115 5.88202 19.1379 5.7556 19.2939 5.7556H19.8642ZM19.0115 10.2376C19.0115 10.0818 19.138 9.95528 19.2939 9.95528C19.4497 9.95528 19.5763 10.0818 19.5763 10.2376V11.0196C19.5763 11.1754 19.4497 11.3019 19.2939 11.3019C19.138 11.3019 19.0115 11.1754 19.0115 11.0196V10.2376ZM19.0115 11.8015C19.0115 11.6457 19.138 11.5191 19.2939 11.5191C19.4497 11.5191 19.5763 11.6457 19.5763 11.8015V12.5642C19.5763 12.72 19.4497 12.8465 19.2939 12.8465C19.138 12.8465 19.0115 12.72 19.0115 12.5642V11.8015ZM17.5498 12.5642C17.5498 12.72 17.4233 12.8465 17.2675 12.8465C17.1117 12.8465 16.9851 12.72 16.9851 12.5642V11.8015C16.9851 11.6457 17.1117 11.5191 17.2675 11.5191C17.4233 11.5191 17.5498 11.6457 17.5498 11.8015V12.5642ZM15.7739 8.81528C15.4248 8.404 14.7724 7.63547 14.5006 7.31521L13.2272 8.81528H13.6301C13.786 8.81528 13.9124 8.94171 13.9124 9.09764V11.6537C13.9124 11.8095 13.7859 11.9361 13.6301 11.9361C13.4743 11.9361 13.3477 11.8095 13.3477 11.6537V9.37999H12.8724C12.7109 9.37999 12.5753 9.29263 12.5084 9.1468C12.4418 9.00252 12.4633 8.84062 12.5679 8.71939C12.5679 8.71939 14.1949 6.80274 14.1948 6.80274C14.2723 6.71069 14.3772 6.66104 14.5006 6.66104C14.6205 6.66104 14.7255 6.70889 14.8046 6.80076C14.805 6.80129 14.8055 6.80179 14.8059 6.80228L16.4338 8.72009C16.5367 8.84098 16.5585 9.00273 16.492 9.1468C16.4248 9.29316 16.2882 9.37999 16.1288 9.37999H15.6526V13.3318C15.6526 13.4877 15.5261 13.6142 15.3703 13.6142C15.2145 13.6142 15.0879 13.4877 15.0879 13.3318V9.09764C15.0879 8.94171 15.2144 8.81528 15.3703 8.81528H15.7739Z" fill="#0400F5"/>
</g>
<defs>
<clipPath id="clip0_50_6291">
<rect width="18" height="18" fill="white" transform="translate(3 3)"/>
</clipPath>
</defs>
</svg>
