<svg width="11" height="11" viewBox="0 0 11 11" fill="none" xmlns="http://www.w3.org/2000/svg">
<path d="M10.325 0.311071C9.91028 -0.10369 9.23779 -0.10369 8.82303 0.311071L5.31805 3.81605L1.81308 0.311071C1.39832 -0.10369 0.725833 -0.10369 0.311071 0.311071C-0.10369 0.725833 -0.10369 1.39832 0.311071 1.8132L3.81605 5.31818L0.311071 8.82316C-0.10369 9.23792 -0.10369 9.9104 0.311071 10.3253C0.725833 10.7401 1.39832 10.7401 1.8132 10.3253L5.31818 6.82031L8.82316 10.3253C9.23792 10.7401 9.9104 10.7401 10.3252 10.3253C10.7399 9.91053 10.7399 9.23805 10.3252 8.82316L6.82019 5.31818L10.3252 1.8132C10.7399 1.39844 10.7399 0.72596 10.3252 0.311071H10.325Z" fill="black"/>
</svg>
