<svg width="45" height="44" viewBox="0 0 45 44" fill="none" xmlns="http://www.w3.org/2000/svg">
<g clip-path="url(#clip0_703_1851)">
<path d="M0.833344 18.4945C0.833344 14.7677 4.39987 11.7466 8.7994 11.7466H36.8673C41.2668 11.7466 44.8333 14.7677 44.8333 18.4945V28.2419C44.8333 31.9687 41.2668 34.9898 36.8673 34.9898H8.7994C4.39986 34.9898 0.833344 31.9687 0.833344 28.2419V18.4945Z" fill="#F3F4F6"/>
<g clip-path="url(#clip1_703_1851)">
<path d="M42.2 8.31988C42.2 5.27988 39.72 2.87988 36.76 2.87988C33.72 2.87988 31.32 5.35988 31.32 8.31988C31.32 11.3599 36.76 18.2399 36.76 18.2399C36.76 18.2399 42.2 11.3599 42.2 8.31988ZM33.96 8.39988C33.96 6.87988 35.16 5.67988 36.68 5.67988C38.2 5.67988 39.4 6.87988 39.4 8.39988C39.4 9.91988 38.2 11.1199 36.68 11.1199C35.24 11.1199 33.96 9.91988 33.96 8.39988Z" fill="#0400F5"/>
<path d="M19.16 5.35986C13.88 6.15986 9.31998 9.19986 6.59998 13.5199H14.2C15.32 9.59986 17.08 6.71986 19.16 5.35986Z" fill="#0400F5"/>
<path d="M36.76 20.2398C36.76 20.2398 30.04 11.5998 30.04 8.31979C30.04 7.91979 30.04 7.51979 30.12 7.11979C28.36 6.23979 26.44 5.59979 24.44 5.27979C26.52 6.63979 28.36 9.59978 29.4 13.5198H30.36C30.68 13.5198 31 13.8398 31 14.1598C31 14.4798 30.68 14.7998 30.36 14.7998H29.72C30.28 17.1198 30.6 19.7598 30.6 22.6398H39.96C39.88 20.7998 39.56 19.0398 39 17.3598C38.44 18.0798 36.76 20.2398 36.76 20.2398Z" fill="#0400F5"/>
<path d="M30.52 26.6398C30.52 26.9598 30.2 27.1998 29.88 27.1998H29.8C29.48 27.1998 29.24 26.8798 29.24 26.5598C29.32 25.6798 29.32 24.7998 29.4 23.9198H20.36C20.04 23.9198 19.72 23.5998 19.72 23.2798C19.72 22.9598 20.04 22.6398 20.36 22.6398H29.4C29.32 19.8398 29 17.1998 28.44 14.7998H15.24C14.84 16.3998 14.52 18.1598 14.36 19.9998C14.36 20.3198 14.04 20.5598 13.72 20.5598C13.4 20.5598 13.16 20.2398 13.16 19.9198C13.32 18.0798 13.56 16.3998 13.96 14.7998H5.87999C4.59999 17.1198 3.87999 19.7598 3.79999 22.6398H8.75999C9.07999 22.6398 9.39999 22.9598 9.39999 23.2798C9.39999 23.5998 9.07999 23.9198 8.75999 23.9198H3.79999C3.87999 26.7198 4.59999 29.3598 5.87999 31.7598H10.12C10.44 31.7598 10.76 32.0798 10.76 32.3998C10.76 32.7198 10.52 33.0398 10.12 33.0398H6.59999C9.31999 37.3598 13.88 40.4798 19.16 41.2798C17.8 40.3998 16.52 38.7998 15.56 36.6398C15.4 36.3198 15.56 35.9198 15.88 35.8398C16.2 35.6798 16.6 35.8398 16.68 36.1598C18.12 39.1998 19.96 40.8798 21.8 40.8798C23.72 40.8798 25.56 39.1998 26.92 36.1598C27.08 35.8398 27.48 35.7598 27.72 35.8398C28.04 35.9998 28.2 36.3198 28.04 36.6398C27 38.8798 25.72 40.3998 24.36 41.2798C29.72 40.5598 34.36 37.4398 37.08 33.0398H34.52C34.2 33.0398 33.88 32.7198 33.88 32.3998C33.88 32.0798 34.2 31.7598 34.52 31.7598H37.8C39.08 29.4398 39.8 26.7998 39.88 23.9198H30.6C30.6 24.7998 30.6 25.7598 30.52 26.6398ZM14.52 34.5598C14.52 34.5598 10.12 29.0398 10.12 26.5598C10.12 24.1598 12.12 22.1598 14.52 22.1598C16.92 22.1598 18.92 24.1598 18.92 26.5598C18.92 29.0398 14.52 34.5598 14.52 34.5598ZM25.48 32.8798H19C18.68 32.8798 18.36 32.5598 18.36 32.2398C18.36 31.9198 18.6 31.5998 19 31.5998H25.48C25.8 31.5998 26.12 31.9198 26.12 32.2398C26.04 32.6398 25.8 32.8798 25.48 32.8798ZM32.44 31.2798C32.44 32.6398 30.04 35.6798 30.04 35.6798C30.04 35.6798 27.56 32.6398 27.56 31.2798C27.56 29.9198 28.68 28.7998 30.04 28.7998C31.4 28.8798 32.44 29.9198 32.44 31.2798Z" fill="#0400F5"/>
<path d="M15.56 13.5199H28.12C26.76 8.87993 24.44 5.67993 21.88 5.67993C19.24 5.75993 16.92 8.87993 15.56 13.5199Z" fill="#0400F5"/>
<path d="M14.52 28.8799C15.7571 28.8799 16.76 27.877 16.76 26.6399C16.76 25.4028 15.7571 24.3999 14.52 24.3999C13.2829 24.3999 12.28 25.4028 12.28 26.6399C12.28 27.877 13.2829 28.8799 14.52 28.8799Z" fill="#0400F5"/>
<path d="M23 22.8801C23.486 22.8801 23.88 22.4861 23.88 22.0001C23.88 21.5141 23.486 21.1201 23 21.1201C22.514 21.1201 22.12 21.5141 22.12 22.0001C22.12 22.4861 22.514 22.8801 23 22.8801Z" fill="#0400F5"/>
</g>
</g>
<defs>
<clipPath id="clip0_703_1851">
<rect width="44" height="44" fill="white" transform="translate(0.833374)"/>
</clipPath>
<clipPath id="clip1_703_1851">
<rect width="40" height="40" fill="white" transform="translate(3 2)"/>
</clipPath>
</defs>
</svg>
