<svg width="45" height="44" viewBox="0 0 45 44" fill="none" xmlns="http://www.w3.org/2000/svg">
<g clip-path="url(#clip0_703_1905)">
<path d="M0.833191 18.4945C0.833191 14.7677 4.39972 11.7466 8.79925 11.7466H36.8672C41.2667 11.7466 44.8332 14.7677 44.8332 18.4945V28.2419C44.8332 31.9687 41.2667 34.9898 36.8672 34.9898H8.79925C4.39971 34.9898 0.833191 31.9687 0.833191 28.2419V18.4945Z" fill="#F3F4F6"/>
<path d="M42.3295 21.7129C42.193 21.5081 41.9746 21.3852 41.7425 21.3852H34.9167C34.6573 21.3852 34.4253 21.5354 34.3024 21.7675L31.7632 26.8459H30.2752C30.3008 26.7691 30.323 26.6906 30.3571 26.6138L32.555 22.2182C32.3093 22.0817 32.0363 21.9452 31.7632 21.836C32.4321 21.2217 32.869 20.3343 32.869 19.3377C32.869 17.4538 31.34 15.9248 29.4561 15.9248C27.5722 15.9248 26.0432 17.4538 26.0432 19.3377C26.0432 20.3342 26.48 21.2216 27.1489 21.836C24.9101 22.7506 23.3129 24.9622 23.3129 27.5286C23.3129 27.9108 23.6132 28.2111 23.9954 28.2111H39.0122C39.2716 28.2111 39.5036 28.061 39.6265 27.8289L42.3568 22.3683C42.4524 22.1635 42.4524 21.904 42.3295 21.7129ZM29.456 17.2898C30.5891 17.2898 31.5037 18.2044 31.5037 19.3375C31.5037 20.4706 30.5891 21.3852 29.456 21.3852C28.3229 21.3852 27.4083 20.4706 27.4083 19.3375C27.4083 18.2044 28.3229 17.2898 29.456 17.2898Z" fill="#0400F5"/>
<path d="M14.9986 28.2102H21.2648C21.647 28.2102 21.9474 27.9098 21.9474 27.5276C21.9474 24.9611 20.3502 22.7493 18.1113 21.835C18.7802 21.2207 19.2171 20.3333 19.2171 19.3367C19.2171 17.4528 17.6881 15.9238 15.8042 15.9238C13.9202 15.9238 12.3913 17.4528 12.3913 19.3367C12.3913 20.3333 12.8281 21.2206 13.497 21.835C13.224 21.9442 12.951 22.0807 12.7052 22.2172L14.9305 26.6539C14.9578 26.7153 14.9544 26.7819 14.9748 26.845H13.497L10.9579 21.7666C10.835 21.5345 10.6029 21.3844 10.3436 21.3844H3.51776C3.28568 21.3844 3.06728 21.5072 2.93072 21.712C2.80786 21.9031 2.80786 22.1625 2.90342 22.3673L5.63373 27.8279C5.7566 28.06 5.98868 28.2102 6.24803 28.2102H14.9986ZM13.7563 19.3369C13.7563 18.2038 14.671 17.2891 15.804 17.2891C16.9371 17.2891 17.8518 18.2038 17.8518 19.3369C17.8518 20.4699 16.9371 21.3846 15.804 21.3846C14.671 21.3846 13.7563 20.4699 13.7563 19.3369Z" fill="#0400F5"/>
<path d="M37.1605 29.6678C36.8397 29.4784 36.4182 29.5893 36.2288 29.917C33.4268 34.7599 28.217 37.7668 22.6284 37.7668C17.688 37.7668 13.1011 35.4392 10.1388 31.5316L10.3726 31.5691C10.7565 31.6289 11.0944 31.3729 11.1541 31.0009C11.2139 30.6289 10.9596 30.2791 10.5876 30.2193L8.68148 29.9173C8.49889 29.89 8.31972 29.9326 8.17294 30.0401C8.02619 30.1459 7.92892 30.3063 7.89991 30.4855L7.59787 32.3933C7.53814 32.7653 7.7924 33.1151 8.16442 33.1749C8.20026 33.18 8.23609 33.1834 8.27193 33.1834C8.60127 33.1834 8.89308 32.9428 8.94599 32.6066L8.99718 32.2807C12.2155 36.5741 17.2274 39.1323 22.6282 39.1323C28.7013 39.1323 34.3634 35.8627 37.4095 30.6001C37.5989 30.2742 37.4863 29.8561 37.1604 29.6684L37.1605 29.6678Z" fill="#0400F5"/>
<path d="M6.3618 20.0113C6.39934 20.0182 6.43859 20.0199 6.47443 20.0199C6.80206 20.0199 7.09047 19.7844 7.14678 19.4499C8.41811 11.8697 14.9297 6.36841 22.6292 6.36841C29.5572 6.36841 35.6185 10.8972 37.6272 17.4605L37.3951 17.3325C37.0692 17.1499 36.6511 17.2677 36.4668 17.597C36.2842 17.9264 36.4019 18.3427 36.733 18.5253L38.4207 19.4621C38.5214 19.5202 38.6374 19.5475 38.7517 19.5475C38.8149 19.5475 38.878 19.5389 38.9394 19.5202C39.1135 19.4707 39.2602 19.3529 39.349 19.1942L40.2841 17.5048C40.4667 17.1755 40.3472 16.7591 40.0179 16.5765C39.692 16.3939 39.2739 16.5117 39.0896 16.8427L38.9445 17.1038C36.7739 9.94515 30.1752 5 22.6273 5C14.259 5 7.1807 10.9809 5.7985 19.2217C5.73707 19.5937 5.98791 19.9452 6.35994 20.0084L6.3618 20.0113Z" fill="#0400F5"/>
</g>
<defs>
<clipPath id="clip0_703_1905">
<rect width="44" height="44" fill="white" transform="translate(0.833252)"/>
</clipPath>
</defs>
</svg>
