<svg width="45" height="44" viewBox="0 0 45 44" fill="none" xmlns="http://www.w3.org/2000/svg">
<g clip-path="url(#clip0_703_1754)">
<path d="M0.833191 18.4945C0.833191 14.7677 4.39972 11.7466 8.79925 11.7466H36.8672C41.2667 11.7466 44.8332 14.7677 44.8332 18.4945V28.2419C44.8332 31.9687 41.2667 34.9898 36.8672 34.9898H8.79925C4.39971 34.9898 0.833191 31.9687 0.833191 28.2419V18.4945Z" fill="#F3F4F6"/>
<path d="M17.1404 32.1099C17.6812 32.5975 18.1374 33.1642 18.5063 33.7969H38.2341V18.5625H17.1404V32.1099ZM27.6873 21.5929L33.2033 27.1089L31.5462 28.7661L28.8591 26.079V31.4531H26.5154V26.079L23.8283 28.7661L22.1712 27.1089L27.6873 21.5929Z" fill="#0400F5"/>
<path d="M19.4841 6.76562V16.2188H35.8904V6.76562H28.8591V11.4531H26.5154V6.76562H19.4841Z" fill="#0400F5"/>
<path d="M5.42163 4.34375H11.281V32.7907C9.26257 33.3135 7.76538 35.1308 7.76538 37.3125C7.76538 39.9013 9.86407 42 12.4529 42C14.6346 42 16.4519 40.5028 16.9747 38.4844H40.5779V36.1406H16.9747C16.5496 34.4991 15.2663 33.2158 13.6248 32.7907V2H5.42163L5.42163 4.34375ZM12.4529 36.1406C13.1002 36.1406 13.6248 36.6652 13.6248 37.3125C13.6248 37.9598 13.1002 38.4844 12.4529 38.4844C11.8056 38.4844 11.281 37.9598 11.281 37.3125C11.281 36.6652 11.8056 36.1406 12.4529 36.1406Z" fill="#0400F5"/>
</g>
<defs>
<clipPath id="clip0_703_1754">
<rect width="44" height="44" fill="white" transform="translate(0.833252)"/>
</clipPath>
</defs>
</svg>
