<svg width="45" height="44" viewBox="0 0 45 44" fill="none" xmlns="http://www.w3.org/2000/svg">
<g clip-path="url(#clip0_703_1804)">
<path d="M0.833331 18.4945C0.833331 14.7677 4.39986 11.7466 8.79939 11.7466H36.8673C41.2668 11.7466 44.8333 14.7677 44.8333 18.4945V28.2419C44.8333 31.9687 41.2668 34.9898 36.8673 34.9898H8.79939C4.39985 34.9898 0.833331 31.9687 0.833331 28.2419V18.4945Z" fill="#F3F4F6"/>
<g clip-path="url(#clip1_703_1804)">
<path fill-rule="evenodd" clip-rule="evenodd" d="M39.8842 12.5559H38.7613H37.9927L28.1973 26.2201C27.743 26.8539 27.019 27.2393 26.2396 27.2625C25.4618 27.2856 24.7112 26.9405 24.2218 26.3356L20.1216 21.2674L14.1051 28.9775L14.8333 31.9667C15.1687 33.3397 16.3047 34.3396 17.6765 34.5247C16.4576 35.2091 15.632 36.5139 15.632 38.0081C15.632 40.2093 17.4225 42.0005 19.624 42.0005C21.8248 42.0005 23.6164 40.2093 23.6164 38.0081C23.6164 36.5356 22.8148 35.2482 21.6257 34.556H29.7429C28.5538 35.2482 27.7522 36.5356 27.7522 38.0081C27.7522 40.2093 29.5435 42.0005 31.7443 42.0005C33.9462 42.0005 35.7367 40.2093 35.7367 38.0081C35.7367 36.5356 34.9351 35.2482 33.746 34.556H35.3475C36.0382 34.556 36.5977 33.9965 36.5977 33.3058C36.5977 32.6162 36.0383 32.0559 35.3475 32.0559H18.1391C17.7078 32.0559 17.3632 31.7887 17.2626 31.3748L16.8914 29.8503H34.9141C36.3677 29.8503 37.6249 28.9661 38.117 27.5987L42.9255 14.2293C43.0641 13.8467 43.0062 13.4199 42.7725 13.087C42.538 12.7542 42.1569 12.5559 41.7501 12.5559H39.8842ZM33.3787 12.5559L38.6271 5.23413L37.1273 5.58796C36.4554 5.74718 35.782 5.33108 35.6232 4.65913C35.4647 3.98718 35.8805 3.31382 36.5524 3.15499L41.2997 2.03303C41.6646 1.94718 42.049 2.02936 42.3468 2.25749C42.6446 2.48491 42.8248 2.83397 42.8366 3.20803L42.9991 8.08397C43.0216 8.77468 42.4812 9.35186 41.7913 9.37546C41.7773 9.37546 41.7633 9.37616 41.7489 9.37616C41.078 9.37616 40.5223 8.84319 40.5005 8.16757L40.4608 6.96749L27.1813 25.4919C26.9539 25.8089 26.5919 26.002 26.2024 26.013C25.8124 26.0252 25.4391 25.8534 25.1936 25.5494L20.1039 19.2581L8.0732 34.6753C7.82664 34.9908 7.45844 35.1566 7.08656 35.1566C6.81789 35.1566 6.54695 35.07 6.31883 34.8916C5.77406 34.4674 5.6775 33.6816 6.10211 33.138C10.4349 27.5852 14.7675 22.0325 19.1007 16.4801C19.3351 16.1793 19.6937 16.0028 20.0748 15.9987C20.4537 15.9958 20.8179 16.1668 21.0578 16.4628L26.1055 22.7021L32.3664 13.968L32.562 13.6951L32.7577 13.4222L33.3787 12.5559ZM31.8407 12.5559L26.0454 20.6405L22.0296 15.6766C21.5509 15.0849 20.8242 14.7419 20.0633 14.7488C19.3012 14.7558 18.5841 15.1102 18.1152 15.7111C16.2755 18.0685 14.4359 20.4261 12.5962 22.7836L10.0513 12.344C9.95 11.9301 9.60609 11.6621 9.17484 11.6621H4.24992C3.55922 11.6621 3.00008 11.1026 3.00008 10.4123C3.00008 9.72225 3.55922 9.16202 4.24992 9.16202H9.17484C10.7491 9.16202 12.1084 10.2276 12.4802 11.752L12.6756 12.5559H31.8407ZM31.7444 39.5004C30.9217 39.5004 30.2523 38.8307 30.2523 38.008C30.2523 37.1854 30.9217 36.516 31.7444 36.516C32.5677 36.516 33.2367 37.1853 33.2367 38.008C33.2367 38.8307 32.5677 39.5004 31.7444 39.5004ZM19.6241 39.5004C18.8014 39.5004 18.132 38.8307 18.132 38.008C18.132 37.1854 18.8013 36.516 19.6241 36.516C20.4467 36.516 21.1164 37.1853 21.1164 38.008C21.1164 38.8307 20.4467 39.5004 19.6241 39.5004Z" fill="#0400F5"/>
</g>
</g>
<defs>
<clipPath id="clip0_703_1804">
<rect width="44" height="44" fill="white" transform="translate(0.833374)"/>
</clipPath>
<clipPath id="clip1_703_1804">
<rect width="40" height="40" fill="white" transform="translate(3 2)"/>
</clipPath>
</defs>
</svg>
