<svg width="45" height="44" viewBox="0 0 45 44" fill="none" xmlns="http://www.w3.org/2000/svg">
<g clip-path="url(#clip0_703_1652)">
<path d="M0.833331 18.4945C0.833331 14.7677 4.39986 11.7466 8.79939 11.7466H36.8673C41.2668 11.7466 44.8333 14.7677 44.8333 18.4945V28.2419C44.8333 31.9687 41.2668 34.9898 36.8673 34.9898H8.79939C4.39985 34.9898 0.833331 31.9687 0.833331 28.2419V18.4945Z" fill="#F3F4F6"/>
<path d="M21.0017 24.3322L19.1149 26.2266C18.6847 25.2605 17.7187 24.5888 16.5942 24.5888C16.0961 24.5888 15.6281 24.7171 15.2281 24.9511C14.2093 23.7436 13.0093 22.3247 11.6055 20.6567H28.398C27.4847 20.9813 26.798 21.7737 26.6243 22.7473L26.0281 23.336C25.5375 22.5737 24.6847 22.0681 23.7187 22.0681C22.3678 22.0681 21.2357 23.0492 21.0017 24.3322Z" fill="#0400F5"/>
<path d="M37.0545 20.6567L26.9866 31.819C26.7376 32.0907 26.6017 32.453 26.6017 32.8303V39.3435C26.6017 39.6303 26.2998 39.819 26.0357 39.6982L21.8545 37.7888C21.5678 37.6605 21.3866 37.3737 21.3866 37.0643V32.8002C21.3866 32.4454 21.2659 32.0982 21.0319 31.8265L20.9489 31.7284C20.9413 31.7209 20.9413 31.7209 20.9338 31.7134C20.9262 31.7134 20.9187 31.6983 20.9036 31.6756C20.881 31.6454 20.8583 31.6228 20.8432 31.6077V31.6001H20.8357C21.2281 31.2077 21.5074 30.6945 21.6055 30.1284L23.4093 28.3322C23.8998 29.0945 24.7602 29.6001 25.7338 29.6001C27.0848 29.6001 28.2093 28.619 28.4357 27.3285L29.8093 25.9549C31.1074 25.7284 32.0885 24.6039 32.0885 23.2454C32.0885 22.0529 31.3263 21.0417 30.2696 20.6567H37.0545Z" fill="#0400F5"/>
<path d="M10.3343 16.6824V19.1502H38.402V16.6824C38.402 16.0571 37.8952 15.5503 37.27 15.5503H11.4664C10.8411 15.5503 10.3343 16.0571 10.3343 16.6824Z" fill="#0400F5"/>
<path d="M34.5263 13.887V14.038H28.3225C27.9678 11.97 26.164 10.4002 23.9828 10.4002C21.8168 10.4002 20.0131 11.97 19.6583 14.038H13.4546V13.887C13.4546 13.555 13.696 13.2682 14.0206 13.2078L16.1036 12.853C16.2998 12.0455 16.6168 11.2833 17.0319 10.5964L15.8243 8.86816C15.6281 8.60403 15.6583 8.22667 15.8923 7.99266L17.1829 6.70213C17.4168 6.46816 17.7942 6.43044 18.0659 6.62663L19.7866 7.84176C20.4734 7.42662 21.2357 7.10966 22.0432 6.91342L22.4055 4.83044C22.4583 4.49836 22.7451 4.2644 23.0772 4.2644H24.9036C25.2357 4.2644 25.5225 4.49836 25.5753 4.83044L25.9376 6.91342C26.7451 7.10966 27.5074 7.42662 28.1942 7.84176L29.9149 6.62663C30.1866 6.43044 30.564 6.46816 30.7979 6.70213L32.0885 7.99266C32.3225 8.22667 32.3527 8.60403 32.164 8.86816L30.9489 10.5964C31.364 11.2833 31.681 12.0455 31.8772 12.853L33.9602 13.2078C34.2847 13.2682 34.5263 13.555 34.5263 13.887Z" fill="#0400F5"/>
<path d="M30.5791 23.2455C30.5791 23.9323 30.0206 24.4908 29.3338 24.4908C29.2734 24.4908 29.213 24.4832 29.1602 24.4757L26.9564 26.6795C26.964 26.7323 26.9715 26.7927 26.9715 26.8531C26.9715 27.5398 26.413 28.0908 25.7338 28.0908C25.0395 28.0908 24.481 27.5398 24.481 26.8531C24.481 26.7927 24.4885 26.7323 24.496 26.6795L23.8697 26.0531C23.8244 26.0681 23.7715 26.0681 23.7187 26.0681C23.6659 26.0681 23.6055 26.0681 23.5526 26.0531L20.1262 29.4719C20.1338 29.5248 20.1413 29.5776 20.1413 29.638C20.1413 30.3247 19.5829 30.8908 18.896 30.8908C18.2093 30.8908 17.6508 30.3247 17.6508 29.638C17.6508 29.5851 17.6508 29.5323 17.6659 29.4795L16.7527 28.5662C16.6998 28.5814 16.647 28.5814 16.5942 28.5814C16.5413 28.5814 16.4885 28.5814 16.4357 28.5662L14.4206 30.5814C14.4357 30.6342 14.4357 30.6946 14.4357 30.7474C14.4357 31.4267 13.8772 31.9851 13.1828 31.9851C12.5036 31.9851 11.9451 31.4267 11.9451 30.7474C11.9451 30.6946 11.9451 30.6342 11.9602 30.5814L11.7036 30.3247C11.6508 30.3399 11.5979 30.3399 11.5451 30.3399C11.4847 30.3399 11.4244 30.3323 11.3715 30.3247L10.0658 31.6304C10.081 31.6832 10.081 31.7361 10.081 31.7889C10.081 32.4832 9.52247 33.0417 8.84321 33.0417C8.15644 33.0417 7.59796 32.4832 7.59796 31.7889C7.59796 31.1096 8.15644 30.5436 8.84321 30.5436C8.9036 30.5436 8.95644 30.5512 9.00927 30.5587L10.3149 29.2531C10.2998 29.2002 10.2998 29.1474 10.2998 29.0946C10.2998 28.4078 10.8583 27.8417 11.5451 27.8417C12.2244 27.8417 12.7904 28.4078 12.7904 29.0946C12.7904 29.1549 12.7829 29.2078 12.7753 29.2606L13.0244 29.5096C13.0772 29.4946 13.13 29.4946 13.1828 29.4946C13.2432 29.4946 13.2961 29.5021 13.3564 29.5096L15.364 27.5021C15.3564 27.4493 15.3489 27.3964 15.3489 27.3361C15.3489 26.6568 15.9074 26.0984 16.5942 26.0984C17.2734 26.0984 17.8395 26.6568 17.8395 27.3361C17.8395 27.3964 17.8319 27.4568 17.8244 27.5097L18.73 28.4078C18.7829 28.4002 18.8357 28.3927 18.896 28.3927C18.9564 28.3927 19.0093 28.4002 19.0621 28.4078L22.481 24.9889C22.4659 24.9361 22.4659 24.8832 22.4659 24.8304C22.4659 24.1361 23.0244 23.5776 23.7187 23.5776C24.398 23.5776 24.9564 24.1361 24.9564 24.8304C24.9564 24.8832 24.9564 24.9361 24.9413 24.9889L25.5753 25.6229C25.6281 25.6078 25.6809 25.6078 25.7338 25.6078C25.7791 25.6078 25.8319 25.6078 25.8772 25.6229L28.1036 23.404C28.0885 23.3512 28.0885 23.2983 28.0885 23.2455C28.0885 22.5587 28.647 22.0002 29.3338 22.0002C30.0206 22.0002 30.5791 22.5587 30.5791 23.2455Z" fill="#0400F5"/>
</g>
<defs>
<clipPath id="clip0_703_1652">
<rect width="44" height="44" fill="white" transform="translate(0.833374)"/>
</clipPath>
</defs>
</svg>
