<svg width="67" height="37" viewBox="0 0 67 37" fill="none" xmlns="http://www.w3.org/2000/svg">
<path d="M1.03604 3.65635C1.03604 1.91422 2.44831 0.501953 4.19044 0.501953H63.1493C64.8914 0.501953 66.3037 1.91423 66.3037 3.65635V33.3435C66.3037 35.0856 64.8914 36.4979 63.1493 36.4979H4.19044C2.44831 36.4979 1.03604 35.0856 1.03604 33.3435V3.65635Z" fill="white" stroke="white"/>
<path d="M0.536041 11.8008H66.8037V3.65474C66.8037 1.63647 65.1675 0.000346184 63.1493 0.000346184H4.19044C2.17217 0.000346184 0.536041 1.63648 0.536041 3.65474V11.8008Z" fill="#4285F4"/>
<path d="M24.0453 3.1525C24.6202 3.1525 25.0379 3.27244 25.2985 3.51232C25.5632 3.7522 25.6955 4.08307 25.6955 4.50493C25.6955 4.69518 25.6666 4.87716 25.6087 5.05087C25.5508 5.22044 25.4536 5.37347 25.3171 5.50995C25.1806 5.64644 25.0007 5.75397 24.7774 5.83255C24.5582 5.91113 24.2852 5.95043 23.9584 5.95043H23.518V7.58203H22.7239V3.1525H24.0453ZM23.9957 3.81011H23.518V5.29282H23.8778C24.0929 5.29282 24.2748 5.268 24.4237 5.21837C24.5768 5.16461 24.6926 5.08189 24.7711 4.97022C24.8497 4.85855 24.889 4.7138 24.889 4.53595C24.889 4.29194 24.8166 4.10996 24.6719 3.99002C24.5271 3.87008 24.3017 3.81011 23.9957 3.81011ZM27.8305 4.15752C28.2648 4.15752 28.5936 4.25264 28.8169 4.4429C29.0444 4.62901 29.1581 4.92266 29.1581 5.32384V7.58203H28.606L28.4509 7.11674H28.4261C28.3309 7.23668 28.2317 7.33801 28.1283 7.42073C28.029 7.49931 27.9132 7.55515 27.7809 7.58824C27.6527 7.62546 27.4955 7.64407 27.3094 7.64407C27.1109 7.64407 26.931 7.60685 26.7697 7.5324C26.6125 7.45795 26.4884 7.34422 26.3974 7.19119C26.3064 7.03403 26.2609 6.83757 26.2609 6.60183C26.2609 6.25441 26.3871 5.99385 26.6394 5.82014C26.8958 5.6423 27.2825 5.54511 27.7995 5.52856L28.3826 5.50995V5.34245C28.3826 5.12738 28.3309 4.97436 28.2276 4.88337C28.1242 4.79238 27.9794 4.74688 27.7933 4.74688C27.6237 4.74688 27.4603 4.7717 27.3032 4.82133C27.146 4.87096 26.993 4.92886 26.8441 4.99504L26.5959 4.4491C26.7614 4.36225 26.9496 4.29194 27.1605 4.23817C27.3756 4.1844 27.5989 4.15752 27.8305 4.15752ZM27.9732 6.00626C27.6299 6.01867 27.3921 6.07864 27.2598 6.18617C27.1274 6.28957 27.0612 6.43019 27.0612 6.60803C27.0612 6.76519 27.1088 6.87893 27.2039 6.94924C27.299 7.01955 27.4211 7.05471 27.5699 7.05471C27.7974 7.05471 27.9897 6.9906 28.1469 6.86239C28.3041 6.73004 28.3826 6.53565 28.3826 6.27923V5.99385L27.9732 6.00626ZM31.8995 4.15752C31.9492 4.15752 32.0071 4.15959 32.0732 4.16372C32.1394 4.16786 32.1953 4.17613 32.2407 4.18854L32.1725 4.91439C32.1353 4.90611 32.0857 4.89991 32.0236 4.89577C31.9657 4.8875 31.914 4.88337 31.8685 4.88337C31.7444 4.88337 31.6245 4.90405 31.5087 4.94541C31.397 4.98263 31.2957 5.04053 31.2047 5.11911C31.1179 5.19356 31.0475 5.29075 30.9938 5.41069C30.9441 5.53063 30.9193 5.67332 30.9193 5.83876V7.58203H30.1377V4.21956H30.7394L30.8511 4.80272H30.8883C30.9545 4.68278 31.0372 4.57524 31.1365 4.48012C31.2357 4.38086 31.3495 4.30228 31.4777 4.24437C31.61 4.18647 31.7506 4.15752 31.8995 4.15752ZM34.1667 7.01748C34.266 7.01748 34.3611 7.00921 34.4521 6.99267C34.5431 6.97199 34.6279 6.94924 34.7065 6.92443V7.50759C34.6238 7.54481 34.5162 7.57583 34.3839 7.60064C34.2515 7.62959 34.113 7.64407 33.9682 7.64407C33.778 7.64407 33.6043 7.61305 33.4471 7.55101C33.2941 7.48484 33.17 7.37317 33.0749 7.21601C32.9839 7.05884 32.9384 6.83964 32.9384 6.5584V4.80892H32.4855V4.46771L32.9818 4.19474L33.23 3.4813H33.7201V4.21956H34.6755V4.80892H33.7201V6.5522C33.7201 6.70936 33.7614 6.82723 33.8441 6.90581C33.9269 6.98026 34.0344 7.01748 34.1667 7.01748ZM37.1834 4.15752C37.5597 4.15752 37.8534 4.25471 38.0643 4.4491C38.2794 4.64349 38.3869 4.95781 38.3869 5.39208V7.58203H37.6052V5.54718C37.6052 5.29489 37.5556 5.1067 37.4563 4.98263C37.3571 4.85442 37.1999 4.79031 36.9848 4.79031C36.6705 4.79031 36.4554 4.88957 36.3396 5.08809C36.2238 5.28248 36.1659 5.56579 36.1659 5.93802V7.58203H35.3842V4.21956H35.986L36.0977 4.66003H36.1411C36.2156 4.54422 36.3065 4.4491 36.4141 4.37465C36.5216 4.30021 36.6416 4.24644 36.7739 4.21335C36.9063 4.17613 37.0427 4.15752 37.1834 4.15752ZM40.7171 4.15752C41.019 4.15752 41.2775 4.21956 41.4925 4.34363C41.7117 4.46357 41.8813 4.63728 42.0013 4.86476C42.1212 5.08809 42.1812 5.36106 42.1812 5.68366V6.08071H39.9602C39.9685 6.38676 40.0533 6.62457 40.2146 6.79415C40.3759 6.95958 40.5992 7.0423 40.8846 7.0423C41.1038 7.0423 41.2982 7.02162 41.4677 6.98026C41.6414 6.93477 41.8193 6.87066 42.0013 6.78794V7.41453C41.8358 7.49311 41.6642 7.55101 41.4863 7.58824C41.3085 7.62546 41.0955 7.64407 40.8473 7.64407C40.5206 7.64407 40.229 7.58203 39.9726 7.45795C39.7203 7.32974 39.5218 7.13742 39.377 6.881C39.2364 6.62457 39.1661 6.30611 39.1661 5.92561C39.1661 5.54097 39.2302 5.21837 39.3584 4.95781C39.4908 4.69312 39.6728 4.49459 39.9044 4.36225C40.136 4.22576 40.4069 4.15752 40.7171 4.15752ZM40.7171 4.73448C40.5103 4.73448 40.3407 4.80272 40.2084 4.9392C40.0801 5.07155 40.0036 5.27007 39.9788 5.53477H41.4243C41.4243 5.37761 41.3974 5.23905 41.3437 5.11911C41.294 4.99917 41.2175 4.90611 41.1141 4.83994C41.0107 4.76963 40.8784 4.73448 40.7171 4.73448ZM44.7313 4.15752C44.7809 4.15752 44.8388 4.15959 44.905 4.16372C44.9712 4.16786 45.027 4.17613 45.0725 4.18854L45.0042 4.91439C44.967 4.90611 44.9174 4.89991 44.8554 4.89577C44.7975 4.8875 44.7458 4.88337 44.7003 4.88337C44.5762 4.88337 44.4562 4.90405 44.3404 4.94541C44.2288 4.98263 44.1274 5.04053 44.0364 5.11911C43.9496 5.19356 43.8793 5.29075 43.8255 5.41069C43.7759 5.53063 43.7511 5.67332 43.7511 5.83876V7.58203H42.9694V4.21956H43.5712L43.6828 4.80272H43.7201C43.7862 4.68278 43.8689 4.57524 43.9682 4.48012C44.0675 4.38086 44.1812 4.30228 44.3094 4.24437C44.4418 4.18647 44.5824 4.15752 44.7313 4.15752Z" fill="white"/>
<g clip-path="url(#clip0_2154_17298)">
<path d="M40.8472 24.9179C40.451 24.927 40.0571 24.856 39.6895 24.7093C39.322 24.5625 38.9884 24.343 38.7094 24.0643C38.4303 23.7855 38.2115 23.4533 38.0663 23.088C37.9212 22.7226 37.8527 22.3318 37.8652 21.9394C37.8549 21.5495 37.9248 21.1616 38.0705 20.7993C38.2162 20.4369 38.4347 20.1077 38.7127 19.8316C38.9897 19.5508 39.3223 19.3298 39.6896 19.1823C40.0569 19.0349 40.451 18.9642 40.8472 18.9747C41.2439 18.965 41.6378 19.0434 41.9999 19.2043C42.3621 19.3651 42.6832 19.6043 42.9399 19.9041L42.4272 20.4121C42.2391 20.1766 41.9987 19.9873 41.7246 19.859C41.4505 19.7307 41.1503 19.667 40.8472 19.6726C40.5518 19.6655 40.2581 19.7182 39.984 19.8275C39.7099 19.9369 39.4613 20.1005 39.2533 20.3084C39.0409 20.523 38.8749 20.7784 38.7658 21.0589C38.6566 21.3394 38.6065 21.639 38.6185 21.9394C38.6055 22.2409 38.6552 22.5418 38.7644 22.8235C38.8736 23.1053 39.04 23.3618 39.2533 23.5772C39.4608 23.7858 39.7093 23.9499 39.9835 24.0593C40.2577 24.1686 40.5517 24.221 40.8472 24.213C41.1824 24.2114 41.5131 24.1355 41.8148 23.9908C42.1166 23.8461 42.3818 23.6363 42.5911 23.3768L43.1282 23.8951C42.8563 24.2171 42.514 24.4735 42.1272 24.6449C41.7258 24.8274 41.2889 24.9206 40.8472 24.9179ZM44.464 19.1025V24.7935H43.7246V19.1025H44.464ZM45.0988 22.8447C45.0907 22.5719 45.1371 22.3002 45.2353 22.0453C45.3334 21.7903 45.4814 21.557 45.6708 21.3589C45.8582 21.1665 46.084 21.0149 46.3338 20.9138C46.5836 20.8126 46.8519 20.7642 47.1217 20.7714C47.3905 20.7638 47.6578 20.8122 47.9066 20.9134C48.1553 21.0146 48.3798 21.1663 48.5656 21.3589C48.7569 21.5559 48.9063 21.7889 49.0052 22.0441C49.104 22.2992 49.1502 22.5715 49.1411 22.8447C49.1512 23.118 49.1055 23.3905 49.0066 23.6458C48.9077 23.9012 48.7577 24.1341 48.5656 24.3305C48.3803 24.5237 48.1559 24.676 47.9071 24.7772C47.6582 24.8784 47.3906 24.9264 47.1217 24.9179C46.8518 24.9261 46.5832 24.878 46.3333 24.7768C46.0834 24.6756 45.8576 24.5236 45.6708 24.3305C45.4814 24.1323 45.3334 23.899 45.2353 23.6441C45.1371 23.3891 45.0907 23.1174 45.0988 22.8447ZM45.8382 22.8447C45.8212 23.2184 45.9541 23.5836 46.2079 23.8606C46.3253 23.984 46.4669 24.0823 46.624 24.1495C46.7812 24.2167 46.9505 24.2514 47.1217 24.2514C47.2928 24.2514 47.4622 24.2167 47.6193 24.1495C47.7765 24.0823 47.9181 23.984 48.0355 23.8606C48.2893 23.5836 48.4222 23.2184 48.4052 22.8447C48.4214 22.4732 48.2885 22.1104 48.0355 21.8357C47.9192 21.7105 47.7779 21.6105 47.6206 21.5421C47.4634 21.4737 47.2935 21.4384 47.1217 21.4384C46.9499 21.4384 46.78 21.4737 46.6227 21.5421C46.4654 21.6105 46.3242 21.7105 46.2079 21.8357C45.9549 22.1104 45.8219 22.4732 45.8382 22.8447ZM53.2218 24.7935H52.5242V24.251H52.4893C52.3646 24.4538 52.1861 24.6188 51.9732 24.7279C51.7519 24.8521 51.502 24.9176 51.2477 24.9179C51.0438 24.931 50.8393 24.9015 50.6477 24.8312C50.456 24.761 50.2814 24.6516 50.1351 24.5102C49.8588 24.1863 49.72 23.7689 49.748 23.3457V20.9028H50.4839V23.3008C50.4685 23.4306 50.4832 23.5622 50.5268 23.6856C50.5704 23.8089 50.6419 23.9208 50.7357 24.0127C50.8295 24.1047 50.9432 24.1742 51.0681 24.2161C51.1931 24.258 51.3261 24.2711 51.457 24.2545C51.5982 24.2569 51.7381 24.227 51.8658 24.167C51.9934 24.1071 52.1054 24.0188 52.1929 23.9089C52.3918 23.6716 52.4972 23.3708 52.4893 23.0624V20.9028H53.2288L53.2218 24.7935ZM55.719 24.9179C55.468 24.9178 55.2199 24.8641 54.9918 24.7603C54.7637 24.6566 54.5608 24.5052 54.3972 24.3167C54.0307 23.9131 53.8315 23.3874 53.8391 22.8447C53.8271 22.3047 54.0215 21.7802 54.3832 21.3761C54.5456 21.1859 54.7481 21.0331 54.9765 20.9287C55.2048 20.8242 55.4535 20.7705 55.7051 20.7714C55.9802 20.7668 56.2522 20.8297 56.4968 20.9546C56.7209 21.064 56.9112 21.2311 57.0478 21.4383H57.0792L57.0618 20.9028V19.1025H57.7977V24.7935H57.1002V24.251H57.0688C56.9321 24.4582 56.7418 24.6253 56.5177 24.7348C56.271 24.8607 55.9965 24.9237 55.719 24.9179ZM55.8411 24.251C56.0094 24.2564 56.1768 24.2241 56.3308 24.1565C56.4848 24.0889 56.6214 23.9877 56.7305 23.8606C56.9744 23.579 57.0993 23.2152 57.0792 22.8447C57.0961 22.4767 56.9715 22.1162 56.7305 21.8357C56.6218 21.7077 56.4854 21.6055 56.3314 21.5367C56.1775 21.4679 56.0099 21.4343 55.8411 21.4383C55.6725 21.4358 55.5054 21.47 55.3516 21.5387C55.1979 21.6074 55.0614 21.7088 54.9517 21.8357C54.7107 22.1162 54.5861 22.4767 54.6029 22.8447C54.5836 23.213 54.7085 23.5744 54.9517 23.8536C55.0614 23.9806 55.1979 24.082 55.3516 24.1506C55.5054 24.2193 55.6725 24.2536 55.8411 24.251Z" fill="#05164D"/>
<path d="M12.8535 24.9216C11.9856 24.9245 11.1515 24.5884 10.532 23.9863C9.91245 23.3841 9.55734 22.5644 9.54358 21.7047C9.55734 20.845 9.91245 20.0252 10.532 19.4231C11.1515 18.821 11.9856 18.4849 12.8535 18.4877C13.267 18.4809 13.6778 18.5559 14.0617 18.7084C14.4456 18.8609 14.7949 19.0878 15.0891 19.3758L14.4578 19.9943C14.0274 19.5837 13.4509 19.3577 12.8535 19.3654C12.5441 19.3645 12.2376 19.4245 11.9519 19.542C11.6662 19.6595 11.4069 19.8321 11.1891 20.0497C10.9713 20.2674 10.7994 20.5258 10.6834 20.81C10.5673 21.0941 10.5095 21.3982 10.5132 21.7047C10.5095 22.0112 10.5673 22.3153 10.6834 22.5994C10.7994 22.8835 10.9713 23.1419 11.1891 23.3596C11.4069 23.5773 11.6662 23.7499 11.9519 23.8674C12.2376 23.9849 12.5441 24.0449 12.8535 24.044C13.1582 24.0564 13.4622 24.0053 13.7458 23.894C14.0294 23.7827 14.2862 23.6136 14.4997 23.3978C14.7843 23.0937 14.9553 22.7023 14.9845 22.2886H12.8535V21.4144H15.8529C15.8856 21.5957 15.9008 21.7797 15.8983 21.9638C15.9219 22.7221 15.6438 23.4593 15.124 24.0163C14.8314 24.3174 14.4779 24.5538 14.0865 24.7098C13.6952 24.8658 13.275 24.938 12.8535 24.9216Z" fill="#4285F4"/>
<path d="M20.5367 22.8496C20.5481 23.126 20.5031 23.4018 20.4042 23.6605C20.3053 23.9192 20.1547 24.1555 19.9614 24.355C19.768 24.5546 19.5359 24.7134 19.2791 24.8219C19.0222 24.9304 18.7459 24.9863 18.4667 24.9863C18.1875 24.9863 17.9111 24.9304 17.6543 24.8219C17.3974 24.7134 17.1654 24.5546 16.972 24.355C16.7787 24.1555 16.628 23.9192 16.5292 23.6605C16.4303 23.4018 16.3852 23.126 16.3967 22.8496C16.3852 22.5732 16.4303 22.2974 16.5292 22.0386C16.628 21.7799 16.7787 21.5437 16.972 21.3441C17.1654 21.1446 17.3974 20.9858 17.6543 20.8773C17.9111 20.7688 18.1875 20.7129 18.4667 20.7129C18.7459 20.7129 19.0222 20.7688 19.2791 20.8773C19.5359 20.9858 19.768 21.1446 19.9614 21.3441C20.1547 21.5437 20.3053 21.7799 20.4042 22.0386C20.5031 22.2974 20.5481 22.5732 20.5367 22.8496ZM19.6299 22.8496C19.6452 22.6891 19.6266 22.5271 19.5751 22.3742C19.5237 22.2212 19.4405 22.0806 19.331 21.9613C19.2215 21.842 19.0881 21.7467 18.9392 21.6815C18.7904 21.6163 18.6294 21.5826 18.4667 21.5826C18.3039 21.5826 18.143 21.6163 17.9941 21.6815C17.8453 21.7467 17.7118 21.842 17.6023 21.9613C17.4928 22.0806 17.4097 22.2212 17.3582 22.3742C17.3068 22.5271 17.2881 22.6891 17.3035 22.8496C17.2881 23.0101 17.3068 23.172 17.3582 23.325C17.4097 23.478 17.4928 23.6186 17.6023 23.7379C17.7118 23.8571 17.8453 23.9524 17.9941 24.0177C18.143 24.0829 18.3039 24.1166 18.4667 24.1166C18.6294 24.1166 18.7904 24.0829 18.9392 24.0177C19.0881 23.9524 19.2215 23.8571 19.331 23.7379C19.4405 23.6186 19.5237 23.478 19.5751 23.325C19.6266 23.172 19.6452 23.0101 19.6299 22.8496Z" fill="#EA4335"/>
<path d="M25.1793 22.8496C25.1908 23.126 25.1457 23.4018 25.0469 23.6605C24.948 23.9192 24.7974 24.1555 24.604 24.355C24.4107 24.5546 24.1786 24.7134 23.9218 24.8219C23.6649 24.9304 23.3886 24.9863 23.1094 24.9863C22.8301 24.9863 22.5538 24.9304 22.2969 24.8219C22.0401 24.7134 21.808 24.5546 21.6147 24.355C21.4213 24.1555 21.2707 23.9192 21.1718 23.6605C21.073 23.4018 21.0279 23.126 21.0394 22.8496C21.0279 22.5732 21.073 22.2974 21.1718 22.0386C21.2707 21.7799 21.4213 21.5437 21.6147 21.3441C21.808 21.1446 22.0401 20.9858 22.2969 20.8773C22.5538 20.7688 22.8301 20.7129 23.1094 20.7129C23.3886 20.7129 23.6649 20.7688 23.9218 20.8773C24.1786 20.9858 24.4107 21.1446 24.604 21.3441C24.7974 21.5437 24.948 21.7799 25.0469 22.0386C25.1457 22.2974 25.1908 22.5732 25.1793 22.8496ZM24.2725 22.8496C24.285 22.6905 24.2641 22.5306 24.2112 22.3799C24.1583 22.2292 24.0745 22.091 23.9651 21.9739C23.8557 21.8568 23.7231 21.7634 23.5755 21.6995C23.428 21.6356 23.2687 21.6027 23.1076 21.6027C22.9466 21.6027 22.7873 21.6356 22.6397 21.6995C22.4922 21.7634 22.3595 21.8568 22.2501 21.9739C22.1407 22.091 22.057 22.2292 22.0041 22.3799C21.9512 22.5306 21.9303 22.6905 21.9427 22.8496C21.9303 23.0086 21.9512 23.1685 22.0041 23.3192C22.057 23.4699 22.1407 23.6081 22.2501 23.7252C22.3595 23.8423 22.4922 23.9357 22.6397 23.9996C22.7873 24.0635 22.9466 24.0965 23.1076 24.0965C23.2687 24.0965 23.428 24.0635 23.5755 23.9996C23.7231 23.9357 23.8557 23.8423 23.9651 23.7252C24.0745 23.6081 24.1583 23.4699 24.2112 23.3192C24.2641 23.1685 24.285 23.0086 24.2725 22.8496Z" fill="#FBBC04"/>
<path d="M29.703 20.905V24.623C29.703 26.1503 28.7857 26.7791 27.7045 26.7791C27.3066 26.7813 26.9171 26.6662 26.5854 26.4483C26.2538 26.2305 25.995 25.9199 25.8421 25.5559L26.6477 25.2104C26.7289 25.4223 26.8716 25.6055 27.0578 25.7371C27.2441 25.8687 27.4654 25.9428 27.6941 25.9498C28.3916 25.9498 28.8171 25.5248 28.8171 24.7336V24.4364H28.7962C28.6567 24.5924 28.4846 24.7164 28.2919 24.7999C28.0992 24.8835 27.8904 24.9245 27.6801 24.9201C27.1251 24.9201 26.5928 24.7017 26.2004 24.3129C25.8079 23.9241 25.5875 23.3968 25.5875 22.8469C25.5875 22.2971 25.8079 21.7697 26.2004 21.3809C26.5928 20.9921 27.1251 20.7737 27.6801 20.7737C27.8897 20.7698 28.0977 20.8104 28.2902 20.8926C28.4826 20.9749 28.6552 21.0969 28.7962 21.2505H28.8276V20.905H29.703ZM28.8904 22.8607C28.9032 22.7041 28.884 22.5465 28.8341 22.3973C28.7841 22.2481 28.7044 22.1104 28.5996 21.9924C28.4948 21.8744 28.3671 21.7785 28.2241 21.7104C28.0811 21.6423 27.9258 21.6034 27.7673 21.5961C27.6064 21.6018 27.4482 21.6392 27.3019 21.7062C27.1557 21.7731 27.0244 21.8682 26.9157 21.9859C26.8069 22.1036 26.7229 22.2416 26.6685 22.3918C26.6141 22.542 26.5905 22.7014 26.5989 22.8607C26.5914 23.019 26.6159 23.1772 26.6708 23.326C26.7257 23.4748 26.8101 23.6112 26.9189 23.7274C27.0276 23.8435 27.1587 23.937 27.3044 24.0024C27.4501 24.0678 27.6074 24.1037 27.7673 24.1081C27.9252 24.1026 28.0802 24.0654 28.2231 23.9988C28.3661 23.9322 28.4939 23.8376 28.5988 23.7206C28.7038 23.6037 28.7838 23.4669 28.8339 23.3185C28.884 23.1702 28.9032 23.0132 28.8904 22.8573V22.8607Z" fill="#4285F4"/>
<path d="M31.318 18.708V24.7964H30.3972V18.708H31.318Z" fill="#34A853"/>
<path d="M34.9455 23.5315L35.664 24.0152C35.4722 24.2988 35.2126 24.5311 34.9084 24.6915C34.6042 24.8518 34.2647 24.9352 33.9201 24.9344C33.646 24.9382 33.3739 24.887 33.1204 24.7837C32.8668 24.6804 32.6371 24.5272 32.445 24.3334C32.253 24.1395 32.1026 23.9091 32.0031 23.6561C31.9035 23.403 31.8568 23.1326 31.8658 22.8611C31.825 22.3945 31.9589 21.9292 32.2421 21.5541C32.5253 21.179 32.9378 20.9202 33.4012 20.8271C33.8646 20.734 34.3464 20.8131 34.7547 21.0493C35.163 21.2855 35.4692 21.6623 35.6151 22.1079L35.7093 22.3463L32.9191 23.49C33.006 23.6836 33.1495 23.847 33.331 23.9591C33.5126 24.0712 33.7238 24.1268 33.9375 24.1189C34.1422 24.1143 34.3422 24.0579 34.5186 23.9551C34.6951 23.8523 34.842 23.7064 34.9455 23.5315ZM32.7447 22.7851L34.6211 22.018C34.546 21.8804 34.4322 21.7673 34.2936 21.6925C34.1549 21.6177 33.9973 21.5843 33.8399 21.5965C33.6891 21.6031 33.5412 21.6392 33.4045 21.7025C33.2679 21.7659 33.1452 21.8553 33.0434 21.9658C32.9417 22.0762 32.863 22.2054 32.8117 22.346C32.7605 22.4866 32.7377 22.6358 32.7447 22.7851Z" fill="#EA4335"/>
</g>
<defs>
<clipPath id="clip0_2154_17298">
<rect x="9.54431" y="18.4893" width="48.2531" height="8.2922" rx="3.6544" fill="white"/>
</clipPath>
</defs>
</svg>
