<svg width="26" height="26" viewBox="0 0 26 26" fill="none" xmlns="http://www.w3.org/2000/svg">
<path d="M23.1465 3H11.8181C11.4412 3 11.1359 3.30531 11.1359 3.6822V9.84111L2.42763 13.3463C2.16943 13.4505 2 13.7005 2 13.9796V22.4378C2 22.8147 2.30531 23.12 2.6822 23.12H23.1463C23.5232 23.12 23.8285 22.8147 23.8285 22.4378V3.68232C23.8285 3.30543 23.5234 3 23.1465 3ZM3.36449 14.4397L11.136 11.3115V21.7555H3.36449V14.4397ZM22.4644 21.7555H12.5005V4.36445H22.4644V21.7555Z" fill="white"/>
<path d="M15.6551 11.903H19.3099C19.6867 11.903 19.9921 11.5977 19.9921 11.2208V7.54353C19.9921 7.16664 19.6867 6.86133 19.3099 6.86133H15.6551C15.2782 6.86133 14.9729 7.16664 14.9729 7.54353V11.2208C14.9729 11.5977 15.2782 11.903 15.6551 11.903ZM16.3373 8.22573H18.6276V10.5387H16.3373V8.22573Z" fill="white"/>
<path d="M15.6551 19.2585H19.3099C19.6867 19.2585 19.9921 18.9531 19.9921 18.5763V14.899C19.9921 14.5221 19.6867 14.2168 19.3099 14.2168H15.6551C15.2782 14.2168 14.9729 14.5221 14.9729 14.899V18.5763C14.9729 18.9531 15.2782 19.2585 15.6551 19.2585ZM16.3373 15.5812H18.6276V17.8942H16.3373V15.5812Z" fill="white"/>
</svg>
