<svg width="26" height="26" viewBox="0 0 26 26" fill="none" xmlns="http://www.w3.org/2000/svg">
<path d="M17.4983 22.3321H7.8326C5.16748 22.3321 2.99976 20.1635 2.99976 17.4993V12.3755C2.99976 11.6832 3.35591 11.0597 3.9531 10.709C4.54667 10.3592 5.26622 10.3483 5.87155 10.6854L12.6654 14.4599L19.4602 10.6854C20.0656 10.3483 20.7833 10.3592 21.3787 10.709C21.9759 11.0597 22.332 11.6832 22.332 12.3755V17.4984C22.332 20.1635 20.1635 22.3321 17.4983 22.3321ZM4.93271 12.3746V17.4984C4.93271 19.0978 6.23314 20.3982 7.8326 20.3982H17.4992C19.0987 20.3982 20.3991 19.0978 20.3991 17.4984V12.3746L13.135 16.4101C12.8441 16.5723 12.487 16.5723 12.1971 16.4101L4.93271 12.3746Z" fill="white"/>
<path d="M12.6654 16.5325C12.504 16.5325 12.3418 16.4917 12.1959 16.4111L5.42922 12.6521C5.12292 12.4808 4.93262 12.1582 4.93262 11.8066V7.83284C4.93262 5.16773 7.1012 3 9.76546 3H15.5652C18.2304 3 20.3981 5.16859 20.3981 7.83284V11.8066C20.3981 12.1582 20.2078 12.4808 19.9006 12.6512L13.1339 16.4102C12.9889 16.4917 12.8267 16.5325 12.6654 16.5325ZM6.86557 11.2375L12.6654 14.4592L18.4651 11.2375V7.83283C18.4651 6.23337 17.1647 4.93294 15.5652 4.93294H9.76546C8.166 4.93294 6.86557 6.23337 6.86557 7.83283V11.2375Z" fill="white"/>
<path d="M14.5978 8.79821H10.7309C10.1972 8.79821 9.76489 8.36594 9.76489 7.83217C9.76489 7.29841 10.1972 6.86523 10.7318 6.86523H14.5987C15.1333 6.86523 15.5656 7.29841 15.5656 7.83217C15.5647 8.36594 15.1324 8.79821 14.5978 8.79821Z" fill="white"/>
<path d="M12.6648 11.6995H10.7318C10.1972 11.6995 9.76489 11.2663 9.76489 10.7326C9.76489 10.1988 10.1972 9.76562 10.7318 9.76562H12.6648C13.1995 9.76562 13.6317 10.1988 13.6317 10.7326C13.6317 11.2672 13.1995 11.6995 12.6648 11.6995Z" fill="white"/>
</svg>
