<svg width="350" height="83" viewBox="0 0 350 83" fill="none" xmlns="http://www.w3.org/2000/svg">
<path d="M161.937 82.5647C160.841 82.5647 159.776 82.4071 158.74 82.0919C157.719 81.7917 156.886 81.3564 156.241 80.786L157.276 79.1199C157.832 79.6002 158.515 79.9755 159.325 80.2456C160.136 80.5308 160.984 80.6734 161.87 80.6734C163.281 80.6734 164.316 80.3432 164.977 79.6828C165.637 79.0223 165.967 78.0166 165.967 76.6657V74.144L166.192 71.7799L166.08 69.3933V66.1286H168.129V76.4406C168.129 78.542 167.603 80.088 166.553 81.0787C165.502 82.0694 163.963 82.5647 161.937 82.5647ZM161.667 77.5663C160.511 77.5663 159.475 77.3262 158.56 76.8458C157.659 76.3505 156.939 75.6676 156.398 74.797C155.873 73.9264 155.61 72.9207 155.61 71.7799C155.61 70.6242 155.873 69.6185 156.398 68.7629C156.939 67.8923 157.659 67.2169 158.56 66.7365C159.475 66.2562 160.511 66.0161 161.667 66.0161C162.688 66.0161 163.618 66.2262 164.459 66.6465C165.299 67.0517 165.967 67.6822 166.463 68.5378C166.973 69.3933 167.228 70.4741 167.228 71.7799C167.228 73.0708 166.973 74.144 166.463 74.9996C165.967 75.8552 165.299 76.5006 164.459 76.9359C163.618 77.3562 162.688 77.5663 161.667 77.5663ZM161.915 75.6751C162.71 75.6751 163.416 75.5099 164.031 75.1797C164.646 74.8495 165.127 74.3917 165.472 73.8063C165.832 73.2209 166.012 72.5454 166.012 71.7799C166.012 71.0144 165.832 70.339 165.472 69.7536C165.127 69.1682 164.646 68.7179 164.031 68.4027C163.416 68.0724 162.71 67.9073 161.915 67.9073C161.119 67.9073 160.406 68.0724 159.776 68.4027C159.16 68.7179 158.672 69.1682 158.312 69.7536C157.967 70.339 157.794 71.0144 157.794 71.7799C157.794 72.5454 157.967 73.2209 158.312 73.8063C158.672 74.3917 159.16 74.8495 159.776 75.1797C160.406 75.5099 161.119 75.6751 161.915 75.6751Z" fill="#F76600"/>
<path d="M147.76 66.0161C148.736 66.0161 149.592 66.2037 150.327 66.5789C151.078 66.9542 151.663 67.5246 152.083 68.2901C152.504 69.0556 152.714 70.0238 152.714 71.1945V78.0617H150.552V71.4422C150.552 70.2864 150.267 69.4158 149.697 68.8304C149.141 68.2451 148.353 67.9524 147.333 67.9524C146.567 67.9524 145.899 68.1025 145.329 68.4027C144.758 68.7029 144.316 69.1457 144 69.7311C143.7 70.3164 143.55 71.0444 143.55 71.915V78.0617H141.389V66.1286H143.46V69.3483L143.122 68.4927C143.513 67.7122 144.113 67.1043 144.924 66.669C145.734 66.2337 146.68 66.0161 147.76 66.0161Z" fill="#F76600"/>
<path d="M135.1 78.0617V66.1286H137.261V78.0617H135.1ZM136.181 63.8321C135.76 63.8321 135.408 63.697 135.123 63.4268C134.852 63.1566 134.717 62.8264 134.717 62.4362C134.717 62.0309 134.852 61.6932 135.123 61.423C135.408 61.1528 135.76 61.0177 136.181 61.0177C136.601 61.0177 136.946 61.1528 137.216 61.423C137.502 61.6781 137.644 62.0009 137.644 62.3911C137.644 62.7964 137.509 63.1416 137.239 63.4268C136.969 63.697 136.616 63.8321 136.181 63.8321Z" fill="#F76600"/>
<path d="M128.812 78.0617V61.3554H130.973V78.0617H128.812Z" fill="#F76600"/>
<path d="M122.523 78.0617V61.3554H124.685V78.0617H122.523Z" fill="#F76600"/>
<path d="M116.235 78.0617V66.1286H118.396V78.0617H116.235ZM117.316 63.8321C116.895 63.8321 116.543 63.697 116.257 63.4268C115.987 63.1566 115.852 62.8264 115.852 62.4362C115.852 62.0309 115.987 61.6932 116.257 61.423C116.543 61.1528 116.895 61.0177 117.316 61.0177C117.736 61.0177 118.081 61.1528 118.351 61.423C118.636 61.6781 118.779 62.0009 118.779 62.3911C118.779 62.7964 118.644 63.1416 118.374 63.4268C118.104 63.697 117.751 63.8321 117.316 63.8321Z" fill="#F76600"/>
<path d="M99.5098 78.0618V62.3012H106.58C108.396 62.3012 109.792 62.669 110.767 63.4045C111.743 64.1249 112.231 65.1156 112.231 66.3765C112.231 67.232 112.036 67.9525 111.645 68.5379C111.27 69.1233 110.76 69.5736 110.114 69.8888C109.469 70.204 108.771 70.3616 108.021 70.3616L108.426 69.6862C109.326 69.6862 110.122 69.8438 110.812 70.159C111.503 70.4742 112.051 70.9395 112.456 71.5549C112.861 72.1553 113.064 72.9058 113.064 73.8065C113.064 75.1574 112.554 76.2081 111.533 76.9586C110.527 77.6941 109.026 78.0618 107.03 78.0618H99.5098ZM101.761 76.2381H106.94C108.186 76.2381 109.139 76.028 109.799 75.6077C110.46 75.1874 110.79 74.5269 110.79 73.6263C110.79 72.7107 110.46 72.0428 109.799 71.6225C109.139 71.2022 108.186 70.9921 106.94 70.9921H101.559V69.1683H106.377C107.518 69.1683 108.403 68.9582 109.034 68.5379C109.664 68.1176 109.979 67.4872 109.979 66.6466C109.979 65.8061 109.664 65.1756 109.034 64.7554C108.403 64.3351 107.518 64.1249 106.377 64.1249H101.761V76.2381Z" fill="#F76600"/>
<path d="M85.2907 78.1968C84.3 78.1968 83.3544 78.0617 82.4538 77.7915C81.5682 77.5213 80.8702 77.1911 80.3599 76.8008L81.2605 75.0897C81.7708 75.4349 82.4012 75.7276 83.1517 75.9678C83.9022 76.2079 84.6678 76.328 85.4483 76.328C86.454 76.328 87.1744 76.1854 87.6097 75.9002C88.06 75.615 88.2852 75.2172 88.2852 74.7069C88.2852 74.3317 88.1501 74.039 87.8799 73.8288C87.6097 73.6187 87.2495 73.4611 86.7992 73.356C86.3639 73.2509 85.8761 73.1609 85.3357 73.0858C84.7953 72.9958 84.255 72.8907 83.7146 72.7706C83.1743 72.6355 82.6789 72.4554 82.2286 72.2302C81.7783 71.9901 81.4181 71.6674 81.1479 71.2621C80.8777 70.8418 80.7426 70.2864 80.7426 69.596C80.7426 68.8755 80.9453 68.2451 81.3505 67.7047C81.7558 67.1643 82.3262 66.7515 83.0617 66.4664C83.8122 66.1662 84.6978 66.0161 85.7185 66.0161C86.499 66.0161 87.287 66.1136 88.0826 66.3087C88.8931 66.4889 89.5535 66.7515 90.0639 67.0968L89.1408 68.8079C88.6004 68.4477 88.0375 68.2 87.4521 68.0649C86.8667 67.9298 86.2813 67.8623 85.696 67.8623C84.7503 67.8623 84.0448 68.0199 83.5795 68.3351C83.1142 68.6353 82.8816 69.0256 82.8816 69.5059C82.8816 69.9112 83.0166 70.2264 83.2868 70.4515C83.572 70.6617 83.9323 70.8268 84.3676 70.9469C84.8179 71.067 85.3132 71.172 85.8536 71.2621C86.3939 71.3371 86.9343 71.4422 87.4747 71.5773C88.015 71.6974 88.5028 71.87 88.9381 72.0951C89.3884 72.3203 89.7487 72.6355 90.0189 73.0408C90.3041 73.4461 90.4466 73.9864 90.4466 74.6619C90.4466 75.3824 90.2365 76.0053 89.8162 76.5306C89.3959 77.056 88.803 77.4688 88.0375 77.769C87.272 78.0542 86.3564 78.1968 85.2907 78.1968Z" fill="#F76600"/>
<path d="M74.0114 78.1968C73.0207 78.1968 72.0751 78.0617 71.1745 77.7915C70.2889 77.5213 69.5909 77.1911 69.0806 76.8008L69.9812 75.0897C70.4915 75.4349 71.1219 75.7276 71.8724 75.9678C72.623 76.2079 73.3885 76.328 74.169 76.328C75.1747 76.328 75.8952 76.1854 76.3304 75.9002C76.7807 75.615 77.0059 75.2172 77.0059 74.7069C77.0059 74.3317 76.8708 74.039 76.6006 73.8288C76.3304 73.6187 75.9702 73.4611 75.5199 73.356C75.0846 73.2509 74.5968 73.1609 74.0564 73.0858C73.5161 72.9958 72.9757 72.8907 72.4353 72.7706C71.895 72.6355 71.3996 72.4554 70.9493 72.2302C70.499 71.9901 70.1388 71.6674 69.8686 71.2621C69.5984 70.8418 69.4633 70.2864 69.4633 69.596C69.4633 68.8755 69.666 68.2451 70.0712 67.7047C70.4765 67.1643 71.0469 66.7515 71.7824 66.4664C72.5329 66.1662 73.4185 66.0161 74.4392 66.0161C75.2197 66.0161 76.0077 66.1136 76.8033 66.3087C77.6138 66.4889 78.2743 66.7515 78.7846 67.0968L77.8615 68.8079C77.3211 68.4477 76.7582 68.2 76.1728 68.0649C75.5874 67.9298 75.0021 67.8623 74.4167 67.8623C73.471 67.8623 72.7655 68.0199 72.3002 68.3351C71.8349 68.6353 71.6023 69.0256 71.6023 69.5059C71.6023 69.9112 71.7374 70.2264 72.0075 70.4515C72.2927 70.6617 72.653 70.8268 73.0883 70.9469C73.5386 71.067 74.0339 71.172 74.5743 71.2621C75.1146 71.3371 75.655 71.4422 76.1954 71.5773C76.7357 71.6974 77.2235 71.87 77.6588 72.0951C78.1091 72.3203 78.4694 72.6355 78.7396 73.0408C79.0248 73.4461 79.1674 73.9864 79.1674 74.6619C79.1674 75.3824 78.9572 76.0053 78.5369 76.5306C78.1166 77.056 77.5237 77.4688 76.7582 77.769C75.9927 78.0542 75.0771 78.1968 74.0114 78.1968Z" fill="#F76600"/>
<path d="M62.1165 78.1968C60.8407 78.1968 59.7149 77.9341 58.7393 77.4087C57.7786 76.8834 57.0281 76.1629 56.4877 75.2473C55.9624 74.3317 55.6997 73.2809 55.6997 72.0951C55.6997 70.9093 55.9549 69.8586 56.4652 68.943C56.9906 68.0274 57.7036 67.3144 58.6042 66.8041C59.5198 66.2787 60.548 66.0161 61.6887 66.0161C62.8445 66.0161 63.8652 66.2712 64.7508 66.7816C65.6364 67.2919 66.3269 68.0124 66.8222 68.943C67.3325 69.8586 67.5877 70.9319 67.5877 72.1627C67.5877 72.2528 67.5802 72.3578 67.5652 72.4779C67.5652 72.598 67.5577 72.7106 67.5427 72.8156H57.3883V71.2621H66.4169L65.5388 71.8024C65.5538 71.0369 65.3962 70.354 65.066 69.7536C64.7358 69.1532 64.278 68.6879 63.6926 68.3576C63.1222 68.0124 62.4543 67.8398 61.6887 67.8398C60.9382 67.8398 60.2703 68.0124 59.6849 68.3576C59.0995 68.6879 58.6417 69.1607 58.3115 69.7761C57.9812 70.3765 57.8161 71.067 57.8161 71.8475V72.2077C57.8161 73.0033 57.9963 73.7162 58.3565 74.3467C58.7317 74.9621 59.2496 75.4424 59.91 75.7876C60.5705 76.1329 61.3285 76.3055 62.1841 76.3055C62.8895 76.3055 63.5275 76.1854 64.0979 75.9452C64.6833 75.7051 65.1936 75.3448 65.6289 74.8645L66.8222 76.2604C66.2818 76.8909 65.6064 77.3712 64.7958 77.7014C64.0003 78.0316 63.1072 78.1968 62.1165 78.1968Z" fill="#F76600"/>
<path d="M50.5142 78.0617V61.3554H52.6756V78.0617H50.5142Z" fill="#F76600"/>
<path d="M41.5608 66.0161C42.5364 66.0161 43.392 66.2037 44.1275 66.5789C44.878 66.9542 45.4634 67.5246 45.8837 68.2901C46.3039 69.0556 46.5141 70.0238 46.5141 71.1945V78.0617H44.3526V71.4422C44.3526 70.2864 44.0674 69.4158 43.4971 68.8304C42.9417 68.2451 42.1537 67.9524 41.133 67.9524C40.3675 67.9524 39.6995 68.1025 39.1291 68.4027C38.5587 68.7029 38.1159 69.1457 37.8007 69.7311C37.5005 70.3164 37.3504 71.0444 37.3504 71.915V78.0617H35.189V66.1286H37.2604V69.3483L36.9226 68.4927C37.3129 67.7122 37.9133 67.1043 38.7238 66.669C39.5344 66.2337 40.48 66.0161 41.5608 66.0161Z" fill="#F76600"/>
<path d="M28.9008 78.0617V66.1286H31.0623V78.0617H28.9008ZM29.9816 63.8321C29.5613 63.8321 29.2085 63.697 28.9233 63.4268C28.6532 63.1566 28.5181 62.8264 28.5181 62.4362C28.5181 62.0309 28.6532 61.6932 28.9233 61.423C29.2085 61.1528 29.5613 61.0177 29.9816 61.0177C30.4018 61.0177 30.7471 61.1528 31.0172 61.423C31.3024 61.6781 31.445 62.0009 31.445 62.3911C31.445 62.7964 31.3099 63.1416 31.0398 63.4268C30.7696 63.697 30.4168 63.8321 29.9816 63.8321Z" fill="#F76600"/>
<path d="M22.8516 78.0617V75.54L22.739 75.0671V70.7668C22.739 69.8511 22.4688 69.1457 21.9285 68.6503C21.4031 68.14 20.6076 67.8848 19.5419 67.8848C18.8364 67.8848 18.1459 68.0049 17.4705 68.2451C16.795 68.4702 16.2246 68.7779 15.7593 69.1682L14.8587 67.5471C15.4741 67.0518 16.2096 66.6765 17.0652 66.4213C17.9358 66.1511 18.8439 66.0161 19.7895 66.0161C21.4256 66.0161 22.6865 66.4138 23.5721 67.2094C24.4577 68.0049 24.9005 69.2207 24.9005 70.8568V78.0617H22.8516ZM18.934 78.1968C18.0484 78.1968 17.2678 78.0467 16.5924 77.7465C15.9319 77.4462 15.4216 77.0335 15.0614 76.5081C14.7011 75.9678 14.521 75.3598 14.521 74.6844C14.521 74.039 14.6711 73.4536 14.9713 72.9282C15.2865 72.4029 15.7893 71.9826 16.4798 71.6674C17.1853 71.3521 18.1309 71.1945 19.3167 71.1945H23.0993V72.7481H19.4068C18.3261 72.7481 17.5981 72.9282 17.2228 73.2884C16.8476 73.6487 16.6599 74.084 16.6599 74.5943C16.6599 75.1797 16.8926 75.6525 17.3579 76.0128C17.8232 76.358 18.4687 76.5306 19.2942 76.5306C20.1048 76.5306 20.8102 76.3505 21.4106 75.9903C22.026 75.63 22.4688 75.1047 22.739 74.4142L23.1668 75.9002C22.8816 76.6057 22.3788 77.1686 21.6583 77.5888C20.9378 77.9941 20.0297 78.1968 18.934 78.1968Z" fill="#F76600"/>
<path d="M-0.15918 78.0618V62.3012H5.98746C7.36839 62.3012 8.54668 62.5189 9.52234 62.9541C10.498 63.3894 11.2485 64.0199 11.7739 64.8454C12.2992 65.671 12.5619 66.6541 12.5619 67.7949C12.5619 68.9357 12.2992 69.9188 11.7739 70.7444C11.2485 71.5549 10.498 72.1854 9.52234 72.6357C8.54668 73.071 7.36839 73.2886 5.98746 73.2886H1.07915L2.09234 72.2304V78.0618H-0.15918ZM2.09234 72.4555L1.07915 71.3298H5.91991C7.36088 71.3298 8.44912 71.0221 9.18461 70.4067C9.93512 69.7913 10.3104 68.9207 10.3104 67.7949C10.3104 66.6691 9.93512 65.7986 9.18461 65.1831C8.44912 64.5677 7.36088 64.26 5.91991 64.26H1.07915L2.09234 63.1343V72.4555Z" fill="#F76600"/>
<path d="M336.441 27.7886V15.049H337.934L343.648 24.6765H342.848L348.489 15.049H349.982L350 27.7886H348.253L348.235 17.7971H348.653L343.63 26.2416H342.793L337.734 17.7971H338.189V27.7886H336.441Z" fill="#6B7280"/>
<path d="M328.29 27.7886V16.6324H323.922V15.049H334.459V16.6324H330.091V27.7886H328.29Z" fill="#6B7280"/>
<path d="M0 2.761V0H11.3182V11.7834L0 2.761Z" fill="#F76600"/>
<path d="M0 25.5682V51.3559H11.3182V11.7849L0 25.5682Z" fill="#05164D"/>
<path d="M21.4956 17.3856C22.4388 16.8965 23.6798 16.4074 25.2187 15.9183C26.7576 15.3803 28.4454 14.9157 30.2821 14.5244C32.1188 14.1331 33.9555 13.8152 35.7923 13.5706C37.6786 13.3261 39.4161 13.2038 41.0046 13.2038C44.3802 13.2038 47.2594 13.644 49.6421 14.5244C52.0249 15.3559 53.8368 16.7253 55.0778 18.6328C56.3685 20.5404 57.0139 23.1326 57.0139 26.4096V51.3539H45.9191V28.6106C45.9191 27.6813 45.7701 26.8253 45.4723 26.0428C45.2241 25.2602 44.8269 24.5999 44.2809 24.0619C43.7348 23.475 42.9902 23.0348 42.047 22.7413C41.1039 22.3989 39.9621 22.2278 38.6218 22.2278C37.4801 22.2278 36.3383 22.3745 35.1966 22.668C34.0548 22.9125 33.1861 23.1815 32.5904 23.475V51.3539H21.4956V17.3856Z" fill="#05164D"/>
<path d="M77.855 51.3539L62.1436 14.2309H74.2064L85.599 42.8435L82.9184 42.9168L93.0452 14.2309H104.736L89.0243 51.3539H77.855Z" fill="#05164D"/>
<path d="M126.169 52.4544C119.815 52.4544 115.025 50.7914 111.798 47.4655C108.621 44.0907 107.032 39.1507 107.032 32.6457C107.032 25.6515 108.646 20.6382 111.872 17.6057C115.149 14.5244 119.914 12.9837 126.169 12.9837C130.389 12.9837 133.913 13.6929 136.743 15.1113C139.622 16.4808 141.781 18.6084 143.221 21.4941C144.71 24.3798 145.455 28.097 145.455 32.6457C145.455 39.1507 143.792 44.0907 140.466 47.4655C137.14 50.7914 132.374 52.4544 126.169 52.4544ZM126.169 43.7239C128.006 43.7239 129.52 43.3081 130.711 42.4766C131.952 41.5963 132.871 40.349 133.466 38.735C134.112 37.0721 134.434 35.0423 134.434 32.6457C134.434 29.9067 134.112 27.7546 133.466 26.1895C132.871 24.5755 131.952 23.4261 130.711 22.7413C129.47 22.0077 127.956 21.6408 126.169 21.6408C124.283 21.6408 122.744 22.0077 121.552 22.7413C120.361 23.475 119.467 24.6488 118.872 26.2629C118.326 27.828 118.053 29.9556 118.053 32.6457C118.053 36.3629 118.698 39.1507 119.989 41.0093C121.329 42.819 123.389 43.7239 126.169 43.7239Z" fill="#05164D"/>
<path d="M153.336 51.3539V14.7445H164.431L164.505 51.3539H153.336Z" fill="#05164D"/>
<path d="M192.066 52.3076C189.385 52.3076 186.854 51.9163 184.471 51.1338C182.088 50.3512 179.978 49.1774 178.142 47.6122C176.305 46.0471 174.865 44.0662 173.823 41.6696C172.78 39.273 172.259 36.4851 172.259 33.306C172.259 29.9311 172.755 26.9965 173.748 24.5021C174.741 21.9588 176.106 19.8556 177.844 18.1927C179.631 16.5297 181.716 15.2825 184.098 14.451C186.481 13.6195 189.112 13.2038 191.991 13.2038C194.027 13.2038 196.112 13.4239 198.246 13.8641C200.43 14.2554 202.342 14.8178 203.98 15.5515V24.9423C202.242 24.1597 200.53 23.5239 198.842 23.0348C197.204 22.4968 195.516 22.2278 193.779 22.2278C190.651 22.2278 188.119 23.0103 186.183 24.5755C184.297 26.0917 183.354 28.5861 183.354 32.0587C183.354 35.727 184.198 38.4905 185.886 40.349C187.573 42.2076 190.378 43.1369 194.3 43.1369C196.136 43.1369 197.899 42.819 199.587 42.1832C201.324 41.5474 202.813 40.8871 204.054 40.2023V49.5197C202.317 50.4001 200.505 51.0849 198.619 51.574C196.732 52.0631 194.548 52.3076 192.066 52.3076Z" fill="#05164D"/>
<path d="M228.847 52.4544C225.074 52.4544 221.723 51.6963 218.794 50.18C215.915 48.6149 213.656 46.4139 212.018 43.5771C210.43 40.6914 209.635 37.2677 209.635 33.306C209.635 26.8498 211.249 21.8609 214.475 18.3394C217.752 14.7689 222.418 12.9837 228.474 12.9837C232.644 12.9837 235.995 13.8641 238.527 15.6249C241.108 17.3856 242.994 19.9534 244.186 23.3282C245.377 26.7031 245.948 30.8115 245.898 35.6537H217.23L216.039 28.6839H236.739L235.101 32.1321C235.052 28.1704 234.481 25.3825 233.389 23.7684C232.297 22.1544 230.509 21.3474 228.027 21.3474C226.637 21.3474 225.372 21.6897 224.23 22.3745C223.138 23.0592 222.269 24.2086 221.624 25.8227C221.028 27.3878 220.73 29.5643 220.73 32.3522C220.73 35.8738 221.574 38.5883 223.262 40.4958C224.999 42.4033 227.754 43.357 231.527 43.357C232.917 43.357 234.282 43.2103 235.623 42.9168C237.012 42.5745 238.303 42.1832 239.495 41.743C240.686 41.3028 241.704 40.9115 242.547 40.5691V49.9599C240.76 50.6936 238.75 51.2805 236.516 51.7207C234.332 52.2098 231.775 52.4544 228.847 52.4544Z" fill="#05164D"/>
<path d="M253.607 51.3539V18.1193C254.302 17.5324 255.543 16.8721 257.33 16.1384C259.117 15.3559 261.152 14.6711 263.436 14.0842C265.769 13.4484 268.102 13.1304 270.435 13.1304C272.768 13.1304 274.605 13.3016 275.945 13.644C277.286 13.9864 278.303 14.4266 278.998 14.9646V22.9614C278.154 22.7658 277.087 22.619 275.796 22.5212C274.506 22.4234 273.165 22.3745 271.775 22.3745C270.385 22.3256 269.07 22.3256 267.829 22.3745C266.588 22.4234 265.545 22.5212 264.702 22.668V51.3539H253.607Z" fill="#05164D"/>
<path d="M299.977 52.4544C297.693 52.4544 295.534 52.2343 293.498 51.7941C291.513 51.4028 289.751 50.7425 288.212 49.8132C286.722 48.835 285.556 47.5389 284.712 45.9248C283.868 44.2619 283.446 42.2076 283.446 39.7621C283.446 37.4633 283.918 35.458 284.861 33.7462C285.854 32.0343 287.343 30.7137 289.329 29.7844C291.314 28.8551 293.821 28.3905 296.849 28.3905C298.537 28.3905 300.175 28.5617 301.764 28.904C303.352 29.2464 304.767 29.711 306.008 30.298C307.299 30.8849 308.316 31.5207 309.061 32.2055L309.508 37.4878C308.515 36.9009 307.324 36.4362 305.934 36.0938C304.544 35.7515 303.054 35.5803 301.466 35.5803C299.033 35.5803 297.246 35.9471 296.105 36.6808C295.013 37.3655 294.466 38.466 294.466 39.9822C294.466 40.9115 294.74 41.743 295.286 42.4766C295.832 43.2103 296.551 43.7728 297.445 44.1641C298.388 44.5553 299.356 44.751 300.349 44.751C302.881 44.751 304.643 44.5798 305.636 44.2374C306.678 43.8951 307.199 43.2103 307.199 42.1832V28.5372C307.199 26.2873 306.455 24.6733 304.966 23.6951C303.526 22.668 301.466 22.1544 298.785 22.1544C296.601 22.1544 294.392 22.5457 292.158 23.3282C289.974 24.0619 288.187 24.9667 286.797 26.0428V16.3585C288.088 15.5759 290.073 14.8423 292.754 14.1576C295.484 13.4728 298.537 13.1304 301.913 13.1304C303.104 13.1304 304.42 13.2283 305.859 13.4239C307.299 13.6195 308.738 13.9864 310.178 14.5244C311.618 15.0135 312.933 15.7471 314.124 16.7253C315.365 17.7036 316.358 18.9508 317.103 20.467C317.847 21.9832 318.22 23.8663 318.22 26.1161L318.145 43.6505C318.145 45.7536 317.426 47.4655 315.986 48.7861C314.546 50.0578 312.461 50.9871 309.731 51.574C307.051 52.1609 303.799 52.4544 299.977 52.4544Z" fill="#05164D"/>
</svg>
