<svg width="26" height="26" viewBox="0 0 26 26" fill="none" xmlns="http://www.w3.org/2000/svg">
<g clip-path="url(#clip0_1357_5834)">
<path d="M13.6444 12.3574C13.4459 12.1589 13.1244 12.1589 12.9259 12.3574C12.7278 12.5555 12.7278 12.8769 12.9259 13.0755C13.1244 13.2735 13.4459 13.2735 13.6444 13.0755C13.8425 12.8769 13.8425 12.5555 13.6444 12.3574Z" fill="#4B5563"/>
<path d="M20.1066 5.89408C19.1143 4.90187 17.508 4.90182 16.5157 5.89408C15.526 6.88375 15.526 8.49453 16.5158 9.48502C17.5059 10.4744 19.1167 10.4748 20.1066 9.48492C21.0987 8.49276 21.0989 6.8864 20.1066 5.89408ZM19.3884 8.76672C18.7946 9.36056 17.8281 9.36056 17.234 8.76682C16.6401 8.17258 16.6401 7.20601 17.2339 6.61223C17.8292 6.01692 18.793 6.01682 19.3884 6.61223C19.9837 7.20749 19.9838 8.17136 19.3884 8.76672Z" fill="#4B5563"/>
<path d="M25.8522 0.148743C25.7525 0.0490596 25.6164 -0.00497158 25.4749 0.000360445C25.3601 0.00447372 22.6263 0.114364 19.3765 1.26298C16.7725 2.18243 14.602 3.49883 12.9252 5.17562C12.5495 5.55135 12.1839 5.94978 11.834 6.3637C10.1761 5.38778 8.84758 5.69379 8.00771 6.14325C6.07392 7.17817 4.87695 9.9882 4.87695 11.9981C4.87711 12.2035 5.00086 12.3887 5.19058 12.4672C5.25339 12.4933 5.31941 12.5059 5.38482 12.5059C5.517 12.5059 5.64685 12.4543 5.74399 12.3572C6.76383 11.3374 8.02173 11.4011 8.43265 11.4552L8.61048 11.633C8.2605 12.4658 7.97856 13.294 7.77178 14.0994C7.69714 14.3909 7.72232 14.6993 7.83328 14.9815C7.34436 15.2068 6.87265 15.5376 6.46193 15.9483C5.15478 17.2555 4.88934 20.4412 4.87868 20.5762C4.867 20.7244 4.92073 20.8702 5.02579 20.9753C5.12141 21.0708 5.25075 21.124 5.38482 21.124C5.39812 21.124 5.41148 21.1235 5.42483 21.1224C5.55981 21.1118 8.74561 20.8464 10.0528 19.5392C10.4633 19.1287 10.7941 18.657 11.0194 18.1682C11.3181 18.2856 11.6256 18.3001 11.902 18.2293C12.7071 18.0225 13.5351 17.7407 14.3681 17.3907L14.5459 17.5685C14.5999 17.9795 14.6636 19.2374 13.6439 20.2571C13.4987 20.4023 13.4552 20.6208 13.5338 20.8105C13.6124 21.0002 13.7975 21.1239 14.0029 21.1239C16.0129 21.1239 18.8228 19.927 19.8577 17.9932C20.3072 17.1534 20.6132 15.8249 19.6373 14.1669C20.051 13.8173 20.4495 13.4516 20.8254 13.0757C22.5022 11.399 23.8185 9.22841 24.738 6.62456C25.8866 3.37467 25.9965 0.640812 26.0006 0.526047C26.0057 0.385129 25.9519 0.248477 25.8522 0.148743ZM6.01232 10.9059C6.32777 9.37923 7.24401 7.70401 8.48714 7.03868C9.31787 6.59414 10.2259 6.63771 11.1913 7.16619C10.3688 8.24793 9.65378 9.41336 9.05777 10.644C9.0502 10.6394 8.95879 10.5244 8.78898 10.4862C8.71916 10.4704 7.37554 10.1814 6.01232 10.9059ZM9.33462 18.821C8.63638 19.5193 6.99844 19.8875 5.96316 20.0379C6.11358 19.0026 6.48189 17.3647 7.18008 16.6665C7.5711 16.2755 8.02447 15.979 8.48018 15.812L10.1891 17.5209C10.0221 17.9766 9.72569 18.43 9.33462 18.821ZM11.6497 17.2454C11.5028 17.2831 11.3326 17.2278 11.206 17.1015C10.5491 16.4445 10.2921 16.1875 10.2114 16.1069C10.0635 15.959 9.70091 15.5964 8.89994 14.7954C8.77329 14.6685 8.71804 14.4983 8.75557 14.3516C8.91822 13.7182 9.13094 13.0683 9.38962 12.4121L13.589 16.6115C12.9327 16.8702 12.2829 17.0829 11.6497 17.2454ZM18.9624 17.514C18.2971 18.757 16.6219 19.6733 15.0953 19.9887C15.5821 19.0728 15.6894 17.9068 15.5115 17.1998C15.4703 17.0356 15.3631 16.953 15.3571 16.9433C16.5877 16.3473 17.7531 15.6322 18.8349 14.8097C19.3634 15.7753 19.4069 16.6834 18.9624 17.514ZM20.1073 12.3576C19.6497 12.8151 19.157 13.2572 18.6428 13.6714C17.4067 14.6667 16.0462 15.5098 14.5946 16.1809L9.82019 11.4066C10.4913 9.95494 11.3344 8.59441 12.3296 7.35845C12.7442 6.84388 13.1862 6.3511 13.6436 5.89377C15.1479 4.38932 17.0895 3.19201 19.4159 2.33015L23.671 6.5852C22.8092 8.91154 21.6119 10.8531 20.1073 12.3576ZM24.0363 5.51418L20.4869 1.96478C22.4207 1.36414 24.1031 1.13923 24.9428 1.05839C24.8619 1.89826 24.6369 3.58058 24.0363 5.51418Z" fill="#4B5563"/>
<path d="M12.2072 20.9753C12.0088 20.777 11.6873 20.7771 11.489 20.9754L10.053 22.412C9.8547 22.6104 9.85475 22.9319 10.0531 23.1302C10.2515 23.3284 10.573 23.3284 10.7713 23.1301L12.2073 21.6935C12.4056 21.4951 12.4055 21.1736 12.2072 20.9753Z" fill="#4B5563"/>
<path d="M5.0262 13.7938C4.82795 13.5954 4.50646 13.5954 4.30806 13.7937L2.87146 15.2298C2.67311 15.428 2.67306 15.7496 2.87131 15.9479C3.0695 16.1462 3.391 16.1464 3.58945 15.948L5.02605 14.5119C5.2244 14.3137 5.22445 13.9921 5.0262 13.7938Z" fill="#4B5563"/>
<path d="M8.61543 21.6937C8.41723 21.4954 8.09563 21.4954 7.89728 21.6936L4.45736 25.133C4.25901 25.3313 4.25901 25.6529 4.45731 25.8512C4.65551 26.0495 4.97711 26.0496 5.17546 25.8512L8.61538 22.4118C8.81373 22.2135 8.81373 21.892 8.61543 21.6937Z" fill="#4B5563"/>
<path d="M4.55293 21.6937C4.35468 21.4954 4.03308 21.4954 3.83478 21.6936L0.394863 25.133C0.196512 25.3313 0.196512 25.6529 0.394813 25.8512C0.593012 26.0495 0.914609 26.0496 1.11296 25.8512L4.55288 22.4118C4.75123 22.2135 4.75123 21.892 4.55293 21.6937Z" fill="#4B5563"/>
<path d="M4.30627 17.3845C4.10802 17.1863 3.78643 17.1863 3.58813 17.3846L0.148719 20.8245C-0.0495814 21.0228 -0.0495814 21.3443 0.14877 21.5427C0.34707 21.741 0.668616 21.741 0.866917 21.5426L4.30632 18.1027C4.50462 17.9044 4.50462 17.5829 4.30627 17.3845Z" fill="#4B5563"/>
<path d="M15.7979 10.2029C15.5995 10.0046 15.2781 10.0046 15.0797 10.2029L14.3616 10.921C14.1633 11.1193 14.1633 11.4408 14.3616 11.6392C14.56 11.8375 14.8815 11.8375 15.0798 11.6392L15.7979 10.9211C15.9962 10.7228 15.9962 10.4013 15.7979 10.2029Z" fill="#4B5563"/>
</g>
<defs>
<clipPath id="clip0_1357_5834">
<rect width="26" height="26" fill="white"/>
</clipPath>
</defs>
</svg>
