<svg width="26" height="26" viewBox="0 0 26 26" fill="none" xmlns="http://www.w3.org/2000/svg">
<path d="M1.30078 2.6V20.8C1.30147 21.4894 1.57562 22.1503 2.06306 22.6377C2.55051 23.1252 3.21143 23.3993 3.90078 23.4H6.14242C6.04385 23.7491 6.04087 24.1183 6.13379 24.4689C6.22671 24.8196 6.41213 25.1389 6.67065 25.3933C6.87057 25.5891 7.10773 25.7429 7.3681 25.8454C7.62847 25.9479 7.90676 25.9972 8.18651 25.9903C8.46625 25.9834 8.74177 25.9204 8.99676 25.8052C9.25176 25.6899 9.48104 25.5247 9.67105 25.3192L11.4793 23.4H14.9174L17.1014 25.6191C17.3477 25.8582 17.6775 25.9919 18.0207 25.9919C18.364 25.9919 18.6937 25.8582 18.9401 25.6191L19.5528 25.0064C19.76 24.7985 19.8908 24.5266 19.9238 24.2349C19.9569 23.9432 19.8903 23.649 19.7348 23.4H22.1008C22.7901 23.3993 23.4511 23.1252 23.9385 22.6377C24.4259 22.1503 24.7001 21.4894 24.7008 20.8V2.6C24.7001 1.91065 24.4259 1.24973 23.9385 0.762283C23.4511 0.274837 22.7901 0.00068832 22.1008 0L3.90078 0C3.21143 0.00068832 2.55051 0.274837 2.06306 0.762283C1.57562 1.24973 1.30147 1.91065 1.30078 2.6ZM9.03318 24.7316C8.92396 24.8545 8.79072 24.9536 8.6417 25.0229C8.49267 25.0922 8.33102 25.1303 8.16672 25.1347C8.00242 25.1392 7.83895 25.1099 7.6864 25.0487C7.53386 24.9875 7.39547 24.8957 7.27979 24.7789C7.1641 24.6622 7.07357 24.5229 7.01378 24.3698C6.95399 24.2167 6.9262 24.053 6.93214 23.8888C6.93808 23.7245 6.97762 23.5632 7.04832 23.4148C7.11901 23.2664 7.21936 23.1341 7.34318 23.026L11.3844 19.2183L12.5427 20.3779C12.4914 20.5711 12.5084 20.7761 12.5908 20.9582L9.03318 24.7316ZM7.55421 17.3333C7.49739 17.3902 7.45748 17.4617 7.43896 17.5399C7.42044 17.6181 7.42404 17.6999 7.44935 17.7762L7.63655 18.3395L7.06021 18.938L5.21898 17.0959L5.81048 16.5026L6.36818 16.6894C6.44441 16.715 6.52624 16.7188 6.60453 16.7005C6.68282 16.6822 6.75447 16.6425 6.81148 16.5858L7.35532 16.045C7.4364 15.9632 7.48188 15.8526 7.48188 15.7374C7.48188 15.6221 7.4364 15.5116 7.35532 15.4297C7.32405 15.3987 7.29928 15.3618 7.28246 15.3211C7.26564 15.2804 7.2571 15.2368 7.25734 15.1928C7.25758 15.1487 7.2666 15.1052 7.28387 15.0647C7.30114 15.0242 7.32631 14.9876 7.35792 14.9569L9.52458 12.7807C10.1218 12.1782 10.9116 11.8044 11.7562 11.7247C11.3567 12.028 10.971 12.3491 10.6075 12.678C10.485 12.7859 10.386 12.9178 10.3166 13.0656C10.2472 13.2133 10.2089 13.3737 10.204 13.5369C10.199 13.7005 10.2271 13.8634 10.2867 14.0159C10.3463 14.1683 10.4361 14.3071 10.5507 14.4239L10.8107 14.6839C10.8724 14.7473 10.9069 14.8323 10.9069 14.9208C10.9069 15.0092 10.8724 15.0942 10.8107 15.1576L9.18442 16.7886C9.15361 16.8195 9.11699 16.8439 9.07667 16.8605C9.03635 16.8771 8.99314 16.8855 8.94955 16.8853C8.90606 16.8856 8.86295 16.8773 8.82275 16.8607C8.78256 16.8441 8.7461 16.8196 8.71555 16.7886C8.63373 16.7079 8.52344 16.6627 8.40853 16.6627C8.29362 16.6627 8.18333 16.7079 8.10152 16.7886L7.55421 17.3333ZM10.9056 16.286L13.6824 19.0667L13.0705 19.6785L10.2929 16.9L10.9056 16.286ZM14.8307 15.5926C14.6003 15.0395 14.5401 14.4303 14.6576 13.8427C14.7752 13.2552 15.0652 12.716 15.4907 12.2941C15.8345 11.9587 16.2419 11.6955 16.6889 11.52C17.136 11.3445 17.6136 11.2603 18.0937 11.2723C18.1165 11.2717 18.1389 11.2782 18.1578 11.2908C18.1768 11.3035 18.1913 11.3217 18.1995 11.3429C18.2067 11.3601 18.2082 11.3792 18.2038 11.3973C18.1993 11.4154 18.1892 11.4316 18.1748 11.4435L16.7209 12.9021C16.6238 12.9968 16.5467 13.11 16.4941 13.235C16.4416 13.3601 16.4147 13.4944 16.415 13.6301V14.6358C16.4152 14.9069 16.523 15.1668 16.7146 15.3586C16.9063 15.5503 17.1662 15.6582 17.4372 15.6585H18.443C18.7139 15.6572 18.9734 15.5494 19.1654 15.3582L20.6257 13.8974C20.6408 13.8817 20.6603 13.8709 20.6816 13.8664C20.703 13.8619 20.7252 13.864 20.7453 13.8723C20.7601 13.876 20.7732 13.8846 20.7824 13.8967C20.7917 13.9089 20.7965 13.9238 20.796 13.939C20.815 14.4257 20.7345 14.9111 20.5595 15.3656C20.3845 15.8201 20.1186 16.2341 19.7781 16.5824C19.3566 17.0079 18.8177 17.2979 18.2304 17.4153C17.643 17.5327 17.034 17.4722 16.4813 17.2415C16.4 17.2082 16.3106 17.2002 16.2248 17.2185C16.1389 17.2369 16.0605 17.2806 15.9999 17.3442L14.8606 18.5519C14.7044 18.503 14.5375 18.4994 14.3792 18.5415L13.2798 17.4373L14.7276 16.0706C14.7915 16.0103 14.8356 15.9321 14.8541 15.8462C14.8725 15.7603 14.8643 15.6708 14.8307 15.5896V15.5926ZM12.2966 22.5333L13.1633 21.616L14.0646 22.5333H12.2966ZM18.9401 24.3936L18.3273 25.0064C18.2465 25.0873 18.1369 25.133 18.0226 25.1335C17.9082 25.134 17.7983 25.0892 17.7167 25.009L13.3769 20.5985L14.6041 19.3774L14.6063 19.3743L18.9401 23.7805C18.9803 23.8207 19.0123 23.8685 19.0341 23.9211C19.0559 23.9737 19.0671 24.0301 19.0671 24.0871C19.0671 24.144 19.0559 24.2004 19.0341 24.253C19.0123 24.3056 18.9803 24.3534 18.9401 24.3936ZM22.1008 22.5333H18.9288L15.5418 19.0914L16.4336 18.1458C17.1168 18.3702 17.849 18.3999 18.5481 18.2315C19.2472 18.0631 19.8856 17.7033 20.3917 17.1925C20.8167 16.7578 21.1486 16.2409 21.367 15.6735C21.5853 15.1061 21.6857 14.5002 21.6618 13.8927C21.654 13.7101 21.5926 13.5338 21.4853 13.3859C21.3779 13.238 21.2294 13.1251 21.0582 13.0611C20.8814 12.9923 20.6884 12.9766 20.5027 13.0158C20.3171 13.0549 20.1469 13.1473 20.013 13.2817L18.5526 14.7424C18.5233 14.7712 18.4841 14.7877 18.443 14.7888H17.4372C17.396 14.7887 17.3564 14.7722 17.3272 14.743C17.2981 14.7137 17.2817 14.6741 17.2817 14.6328V13.627C17.2816 13.6065 17.2857 13.5862 17.2936 13.5673C17.3016 13.5484 17.3133 13.5313 17.328 13.517L18.7879 12.0527C18.9214 11.9223 19.0135 11.7553 19.0525 11.5728C19.0915 11.3902 19.0757 11.2002 19.0072 11.0266C18.9388 10.8481 18.8192 10.6937 18.6634 10.5828C18.5076 10.472 18.3226 10.4096 18.1314 10.4035C17.5317 10.3886 16.9351 10.4937 16.3765 10.7124C15.8179 10.9312 15.3086 11.2593 14.8784 11.6775C14.3679 12.184 14.0084 12.8225 13.84 13.5217C13.6716 14.2208 13.7011 14.953 13.9251 15.6364L12.6684 16.8233L11.5075 15.6607C11.6905 15.4308 11.7828 15.1418 11.7668 14.8484C11.7508 14.555 11.6277 14.2777 11.4208 14.069L11.1643 13.8112C11.1322 13.7786 11.1072 13.7399 11.0907 13.6972C11.0742 13.6546 11.0667 13.609 11.0685 13.5633C11.0702 13.5171 11.0813 13.4716 11.1012 13.4298C11.1211 13.388 11.1494 13.3507 11.1842 13.3202C11.6478 12.901 12.1341 12.5078 12.6411 12.1424C12.7669 12.0536 12.8611 11.9269 12.91 11.7809C12.9588 11.6349 12.9598 11.477 12.9128 11.3304C12.8674 11.1865 12.7774 11.0607 12.6558 10.9714C12.5342 10.882 12.3873 10.8337 12.2364 10.8333C11.6209 10.8227 11.0095 10.9351 10.4381 11.164C9.86666 11.3929 9.34673 11.7337 8.90881 12.1663L6.74475 14.3403C6.57229 14.5116 6.45583 14.7311 6.41073 14.9699C6.36562 15.2088 6.394 15.4556 6.49212 15.678L6.38985 15.7798L6.05748 15.6685C5.91295 15.6197 5.75763 15.6124 5.60918 15.6475C5.46073 15.6826 5.32509 15.7586 5.21768 15.8669L4.57201 16.5143C4.41888 16.668 4.3329 16.8761 4.3329 17.0931C4.3329 17.31 4.41888 17.5181 4.57201 17.6718L6.46611 19.5667C6.61984 19.7209 6.82838 19.8079 7.0461 19.8088C7.26383 19.8096 7.47301 19.7241 7.62788 19.5711L8.27398 18.9241C8.38061 18.8167 8.45518 18.6817 8.48933 18.5343C8.52347 18.3869 8.51582 18.2328 8.46725 18.0895L8.35588 17.7554L8.46162 17.6492C8.61422 17.7161 8.77905 17.7505 8.94565 17.7502C9.20767 17.7496 9.46211 17.6623 9.66932 17.5019L10.7717 18.606L6.75688 22.3886C6.70748 22.4319 6.67022 22.4857 6.62428 22.5342H3.90078C3.44107 22.5342 3.00019 22.3516 2.67513 22.0265C2.35007 21.7015 2.16745 21.2606 2.16745 20.8009V4.33333H23.8341V20.8C23.8341 21.2597 23.6515 21.7006 23.3264 22.0257C23.0014 22.3507 22.5605 22.5333 22.1008 22.5333ZM3.90078 0.866667H22.1008C22.5605 0.866667 23.0014 1.04929 23.3264 1.37435C23.6515 1.69941 23.8341 2.14029 23.8341 2.6V3.46667H2.16745V2.6C2.16745 2.14029 2.35007 1.69941 2.67513 1.37435C3.00019 1.04929 3.44107 0.866667 3.90078 0.866667Z" fill="#4B5563"/>
<path d="M3.90013 2.60007H4.33346C4.44839 2.60007 4.55861 2.55441 4.63988 2.47314C4.72114 2.39188 4.7668 2.28166 4.7668 2.16673C4.7668 2.0518 4.72114 1.94158 4.63988 1.86032C4.55861 1.77905 4.44839 1.7334 4.33346 1.7334H3.90013C3.7852 1.7334 3.67498 1.77905 3.59372 1.86032C3.51245 1.94158 3.4668 2.0518 3.4668 2.16673C3.4668 2.28166 3.51245 2.39188 3.59372 2.47314C3.67498 2.55441 3.7852 2.60007 3.90013 2.60007Z" fill="#4B5563"/>
<path d="M6.06615 2.60007H6.49948C6.61441 2.60007 6.72463 2.55441 6.80589 2.47314C6.88716 2.39188 6.93281 2.28166 6.93281 2.16673C6.93281 2.0518 6.88716 1.94158 6.80589 1.86032C6.72463 1.77905 6.61441 1.7334 6.49948 1.7334H6.06615C5.95122 1.7334 5.841 1.77905 5.75973 1.86032C5.67847 1.94158 5.63281 2.0518 5.63281 2.16673C5.63281 2.28166 5.67847 2.39188 5.75973 2.47314C5.841 2.55441 5.95122 2.60007 6.06615 2.60007Z" fill="#4B5563"/>
<path d="M8.23411 2.60007H8.66745C8.78238 2.60007 8.8926 2.55441 8.97386 2.47314C9.05513 2.39188 9.10078 2.28166 9.10078 2.16673C9.10078 2.0518 9.05513 1.94158 8.97386 1.86032C8.8926 1.77905 8.78238 1.7334 8.66745 1.7334H8.23411C8.11919 1.7334 8.00897 1.77905 7.9277 1.86032C7.84644 1.94158 7.80078 2.0518 7.80078 2.16673C7.80078 2.28166 7.84644 2.39188 7.9277 2.47314C8.00897 2.55441 8.11919 2.60007 8.23411 2.60007Z" fill="#4B5563"/>
<path d="M12.9997 2.60007H19.9331C20.048 2.60007 20.1582 2.55441 20.2395 2.47314C20.3208 2.39188 20.3664 2.28166 20.3664 2.16673C20.3664 2.0518 20.3208 1.94158 20.2395 1.86032C20.1582 1.77905 20.048 1.7334 19.9331 1.7334H12.9997C12.8848 1.7334 12.7746 1.77905 12.6933 1.86032C12.6121 1.94158 12.5664 2.0518 12.5664 2.16673C12.5664 2.28166 12.6121 2.39188 12.6933 2.47314C12.7746 2.55441 12.8848 2.60007 12.9997 2.60007Z" fill="#4B5563"/>
<path d="M10.7458 6.24023C10.6768 6.14829 10.5741 6.0875 10.4604 6.07125C10.3466 6.055 10.231 6.08461 10.1391 6.15356L8.40576 7.45356C8.35194 7.49393 8.30826 7.54627 8.27817 7.60644C8.24809 7.66661 8.23242 7.73296 8.23242 7.80023C8.23242 7.8675 8.24809 7.93385 8.27817 7.99402C8.30826 8.05419 8.35194 8.10653 8.40576 8.1469L10.1391 9.4469C10.1846 9.48104 10.2364 9.50588 10.2915 9.52001C10.3467 9.53413 10.404 9.53726 10.4604 9.52921C10.5167 9.52116 10.5709 9.50209 10.6199 9.4731C10.6688 9.44411 10.7116 9.40575 10.7458 9.36023C10.7799 9.3147 10.8047 9.2629 10.8189 9.20777C10.833 9.15265 10.8361 9.09528 10.8281 9.03895C10.82 8.98261 10.801 8.92842 10.772 8.87945C10.743 8.83048 10.7046 8.78771 10.6591 8.75356L9.38812 7.80023L10.6591 6.8469C10.7046 6.81275 10.743 6.76998 10.772 6.72101C10.801 6.67204 10.82 6.61785 10.8281 6.56151C10.8361 6.50518 10.833 6.44781 10.8189 6.39268C10.8047 6.33756 10.7799 6.28575 10.7458 6.24023Z" fill="#4B5563"/>
<path d="M15.8593 6.15356C15.8138 6.11942 15.762 6.09457 15.7069 6.08045C15.6518 6.06633 15.5944 6.0632 15.5381 6.07125C15.4243 6.0875 15.3216 6.14829 15.2527 6.24023C15.1837 6.33217 15.1541 6.44774 15.1704 6.56151C15.1866 6.67528 15.2474 6.77794 15.3394 6.84689L16.6103 7.80023L15.3394 8.75356C15.2474 8.82252 15.1866 8.92517 15.1704 9.03894C15.1541 9.15272 15.1837 9.26829 15.2527 9.36023C15.3216 9.45217 15.4243 9.51295 15.5381 9.52921C15.6518 9.54546 15.7674 9.51585 15.8593 9.44689L17.5927 8.14689C17.6465 8.10653 17.6902 8.05419 17.7203 7.99402C17.7504 7.93385 17.766 7.8675 17.766 7.80023C17.766 7.73295 17.7504 7.66661 17.7203 7.60643C17.6902 7.54626 17.6465 7.49393 17.5927 7.45356L15.8593 6.15356Z" fill="#4B5563"/>
<path d="M13.5375 5.64616C13.4261 5.61838 13.3081 5.63601 13.2096 5.69516C13.1111 5.75432 13.0402 5.85017 13.0123 5.96163L12.1457 9.42829C12.1179 9.53977 12.1355 9.65772 12.1947 9.75621C12.2538 9.85469 12.3497 9.92565 12.4611 9.9535C12.4954 9.96202 12.5307 9.96638 12.566 9.9665C12.6626 9.96637 12.7564 9.93398 12.8324 9.87447C12.9085 9.81496 12.9625 9.73174 12.9859 9.63803L13.8526 6.17136C13.8804 6.05994 13.8628 5.94205 13.8037 5.84357C13.7447 5.7451 13.6489 5.6741 13.5375 5.64616Z" fill="#4B5563"/>
</svg>
