<svg width="26" height="26" viewBox="0 0 26 26" fill="none" xmlns="http://www.w3.org/2000/svg">
<g clip-path="url(#clip0_1357_5740)">
<path d="M0.761719 5.58594C1.18239 5.58594 1.52344 5.24489 1.52344 4.82422V1.52344H4.82422C5.24489 1.52344 5.58594 1.18239 5.58594 0.761719C5.58594 0.341047 5.24489 0 4.82422 0H0.761719C0.341047 0 0 0.341047 0 0.761719V4.82422C0 5.24489 0.341047 5.58594 0.761719 5.58594Z" fill="#4B5563"/>
<path d="M25.2383 0H21.1758C20.7551 0 20.4141 0.341047 20.4141 0.761719C20.4141 1.18239 20.7551 1.52344 21.1758 1.52344H24.4766V4.82422C24.4766 5.24489 24.8176 5.58594 25.2383 5.58594C25.659 5.58594 26 5.24489 26 4.82422V0.761719C26 0.341047 25.659 0 25.2383 0Z" fill="#4B5563"/>
<path d="M4.82422 24.4766H1.52344V21.1758C1.52344 20.7551 1.18239 20.4141 0.761719 20.4141C0.341047 20.4141 0 20.7551 0 21.1758V25.2383C0 25.659 0.341047 26 0.761719 26H4.82422C5.24489 26 5.58594 25.659 5.58594 25.2383C5.58594 24.8176 5.24489 24.4766 4.82422 24.4766Z" fill="#4B5563"/>
<path d="M25.2383 20.4141C24.8176 20.4141 24.4766 20.7551 24.4766 21.1758V24.4766H21.1758C20.7551 24.4766 20.4141 24.8176 20.4141 25.2383C20.4141 25.659 20.7551 26 21.1758 26H25.2383C25.659 26 26 25.659 26 25.2383V21.1758C26 20.7551 25.659 20.4141 25.2383 20.4141Z" fill="#4B5563"/>
<path d="M25.2383 12.2383H23.9423C23.7622 9.59522 22.6472 7.13507 20.7561 5.24393C18.8649 3.35278 16.4048 2.23778 13.7617 2.05766V0.761719C13.7617 0.341047 13.4207 0 13 0C12.5793 0 12.2383 0.341047 12.2383 0.761719V2.05766C9.59522 2.23778 7.13507 3.35278 5.24393 5.24393C3.35278 7.13507 2.23778 9.59522 2.05766 12.2383H0.761719C0.341047 12.2383 0 12.5793 0 13C0 13.4207 0.341047 13.7617 0.761719 13.7617H2.05766C2.23778 16.4048 3.35278 18.8649 5.24393 20.7561C7.13507 22.6472 9.59522 23.7622 12.2383 23.9423V25.2383C12.2383 25.659 12.5793 26 13 26C13.4207 26 13.7617 25.659 13.7617 25.2383V23.9423C16.4048 23.7622 18.8649 22.6472 20.7561 20.7561C22.6472 18.8649 23.7622 16.4048 23.9423 13.7617H25.2383C25.659 13.7617 26 13.4207 26 13C26 12.5793 25.659 12.2383 25.2383 12.2383ZM13.7617 22.4145V21.3789C13.7617 20.9582 13.4207 20.6172 13 20.6172C12.5793 20.6172 12.2383 20.9582 12.2383 21.3789V22.4145C7.63633 22.0455 3.95449 18.3637 3.58551 13.7617H4.62109C5.04177 13.7617 5.38281 13.4207 5.38281 13C5.38281 12.5793 5.04177 12.2383 4.62109 12.2383H3.58551C3.95449 7.63633 7.63633 3.95449 12.2383 3.58551V4.62109C12.2383 5.04177 12.5793 5.38281 13 5.38281C13.4207 5.38281 13.7617 5.04177 13.7617 4.62109V3.58551C18.3637 3.95454 22.0455 7.63633 22.4145 12.2383H21.3789C20.9582 12.2383 20.6172 12.5793 20.6172 13C20.6172 13.4207 20.9582 13.7617 21.3789 13.7617H22.4145C22.0455 18.3637 18.3637 22.0455 13.7617 22.4145Z" fill="#4B5563"/>
<path d="M13.0007 6.93164C9.66071 6.93164 6.94336 9.65387 6.94336 13C6.94336 16.3461 9.66071 19.0684 13.0007 19.0684C16.3408 19.0684 19.0581 16.3461 19.0581 13C19.0581 9.65387 16.3408 6.93164 13.0007 6.93164ZM13.0007 17.5449C10.5007 17.5449 8.4668 15.5061 8.4668 13C8.4668 10.4939 10.5007 8.45508 13.0007 8.45508C15.5008 8.45508 17.5347 10.4939 17.5347 13C17.5347 15.5061 15.5008 17.5449 13.0007 17.5449Z" fill="#4B5563"/>
<path d="M14.3359 11.2603L12.4764 13.1236L11.6642 12.3098C11.367 12.012 10.8847 12.0115 10.5869 12.3086C10.2892 12.6058 10.2887 13.0881 10.5858 13.3859L11.9372 14.74C12.0801 14.8832 12.2741 14.9637 12.4764 14.9637C12.6787 14.9637 12.8727 14.8832 13.0156 14.74L15.4142 12.3364C15.7114 12.0386 15.7109 11.5564 15.4131 11.2592C15.1153 10.962 14.633 10.9625 14.3359 11.2603Z" fill="#4B5563"/>
</g>
<defs>
<clipPath id="clip0_1357_5740">
<rect width="26" height="26" fill="white"/>
</clipPath>
</defs>
</svg>
