<svg width="26" height="26" viewBox="0 0 26 26" fill="none" xmlns="http://www.w3.org/2000/svg">
<g clip-path="url(#clip0_1357_5898)">
<path fill-rule="evenodd" clip-rule="evenodd" d="M19.5686 12.1174H19.9835C20.1523 12.1174 20.3037 12.2214 20.3642 12.379L20.6762 13.1911C21.1082 13.3118 21.5237 13.4839 21.9149 13.7044L22.7097 13.3511C22.8639 13.2825 23.0444 13.316 23.1638 13.4353L24.3258 14.5974C24.445 14.7166 24.4785 14.8968 24.4103 15.051L24.0582 15.8459C24.2789 16.2374 24.4512 16.6534 24.5719 17.0867L25.3823 17.3987C25.5398 17.4593 25.6437 17.6106 25.6437 17.7793V19.423C25.6437 19.5917 25.5398 19.743 25.3823 19.8037L24.5716 20.1157C24.4508 20.5477 24.2778 20.9632 24.058 21.3543L24.4103 22.1497C24.4785 22.3038 24.445 22.4841 24.3258 22.6033L23.1638 23.7654C23.0446 23.8845 22.8643 23.9181 22.7102 23.8498L21.9155 23.4978C21.5249 23.7184 21.1084 23.8906 20.6761 24.0113L20.3641 24.8219C20.3035 24.9793 20.1522 25.0832 19.9835 25.0832H18.3397C18.171 25.0832 18.0197 24.9793 17.9591 24.8219L17.6472 24.0114C17.2139 23.8905 16.7981 23.7174 16.4068 23.4975L15.6114 23.8498C15.4573 23.9181 15.277 23.8845 15.1578 23.7654L13.9958 22.6033C13.8765 22.484 13.843 22.3034 13.9115 22.1492L14.2648 21.3547C14.0443 20.9643 13.872 20.548 13.7504 20.1159L12.9392 19.8037C12.7818 19.743 12.6779 19.5917 12.6779 19.423V17.7793C12.6779 17.6106 12.7818 17.4593 12.9392 17.3987L13.7503 17.0866C13.8719 16.6533 14.0442 16.2375 14.2649 15.8462L13.9115 15.0515C13.843 14.8973 13.8765 14.7167 13.9958 14.5974L15.1578 13.4353C15.2772 13.316 15.4577 13.2825 15.6119 13.3511L16.4066 13.7044C16.798 13.4838 17.2136 13.3117 17.6457 13.191L17.9592 12.3784C18.0199 12.2211 18.1711 12.1174 18.3397 12.1174H18.7529V8.75004H18.6127C16.3191 8.75004 14.4597 6.89069 14.4597 4.59703V4.04899C14.4597 3.82376 14.6423 3.64115 14.8676 3.64115H15.4154C16.783 3.64115 17.9962 4.30211 18.7529 5.32207V4.8998C18.7529 2.60604 20.6124 0.746582 22.9062 0.746582H23.454C23.6792 0.746582 23.8618 0.929194 23.8618 1.15443V1.70246C23.8618 3.99612 22.0025 5.85548 19.7088 5.85548H19.5686V8.1625C20.3254 7.14258 21.5386 6.48157 22.9062 6.48157H23.454C23.6792 6.48157 23.8618 6.66418 23.8618 6.88941V7.43745C23.8618 9.73111 22.0025 11.5905 19.7088 11.5905H19.5686V12.1174ZM18.7529 12.9331H18.6195L18.3312 13.6802C18.2828 13.8056 18.1758 13.8991 18.045 13.9302C17.551 14.0476 17.0798 14.2428 16.6467 14.5096C16.5322 14.5802 16.3901 14.5897 16.2671 14.535L15.5365 14.2102L14.7706 14.9761L15.0955 15.7067C15.1502 15.8296 15.1407 15.9717 15.0701 16.0863C14.803 16.5197 14.6078 16.9912 14.4887 17.4871C14.4574 17.6176 14.3639 17.7244 14.2387 17.7726L13.4935 18.0593V19.143L14.2387 19.4298C14.3638 19.478 14.4573 19.5846 14.4887 19.7149C14.6077 20.2092 14.8028 20.6821 15.0697 21.1138C15.1406 21.2285 15.1503 21.3708 15.0955 21.494L14.7706 22.2246L15.5368 22.9908L16.2676 22.667C16.3902 22.6127 16.5316 22.6222 16.6459 22.6922C17.0791 22.9577 17.5506 23.1546 18.0464 23.2721C18.1774 23.3032 18.2847 23.3968 18.333 23.5225L18.6198 24.2676H19.7035L19.9902 23.5225C20.0385 23.3969 20.1457 23.3033 20.2765 23.2722C20.7704 23.1548 21.2429 22.9598 21.6743 22.6931C21.7888 22.6223 21.9308 22.6125 22.054 22.667L22.7848 22.9908L23.5512 22.2243L23.2275 21.4935C23.1732 21.371 23.1826 21.2295 23.2526 21.1152C23.5181 20.6819 23.7151 20.2105 23.8326 19.7161C23.8637 19.5852 23.9574 19.4781 24.0829 19.4298L24.828 19.143V18.0593L24.0829 17.7726C23.9573 17.7242 23.8636 17.617 23.8326 17.486C23.7152 16.9905 23.52 16.5193 23.2532 16.0863C23.1827 15.9719 23.173 15.83 23.2275 15.7072L23.5512 14.9764L22.7851 14.2102L22.0545 14.535C21.9315 14.5897 21.7894 14.5802 21.6748 14.5096C21.2417 14.2428 20.7706 14.0476 20.2765 13.9302C20.1456 13.899 20.0384 13.8053 19.9901 13.6796L19.7033 12.9331H19.5686V15.3506C21.1856 15.5512 22.4373 16.929 22.4373 18.6003C22.4373 20.4097 20.9702 21.8769 19.1608 21.8769C17.3513 21.8769 15.8859 20.4098 15.8859 18.6003C15.8859 16.9289 17.1361 15.5512 18.7529 15.3506V12.9331ZM19.5686 10.6348V10.7748H19.7088C21.552 10.7748 23.0461 9.28065 23.0461 7.43745V7.29726H22.9062C21.0629 7.29726 19.5686 8.79154 19.5686 10.6348ZM18.7529 7.79437C18.7529 5.95107 17.2587 4.45683 15.4154 4.45683H15.2754V4.59703C15.2754 6.44017 16.7696 7.93436 18.6127 7.93436H18.7529V7.79437ZM18.7529 16.1748C17.5884 16.3689 16.7016 17.3805 16.7016 18.6003C16.7016 19.9592 17.8019 21.0612 19.1608 21.0612C20.5197 21.0612 21.6216 19.9593 21.6216 18.6003C21.6216 17.3804 20.7335 16.3689 19.5686 16.1747V18.6003C19.5686 18.8255 19.3859 19.0082 19.1608 19.0082C18.9357 19.0082 18.7529 18.8255 18.7529 18.6003V16.1748ZM19.5686 4.8998V5.03979H19.7088C21.552 5.03979 23.0461 3.54561 23.0461 1.70246V1.56227H22.9062C21.0629 1.56227 19.5686 3.05655 19.5686 4.8998ZM16.7608 10.2373C16.7608 10.7134 16.5717 11.1699 16.2351 11.5066C15.8984 11.8432 15.4419 12.0323 14.9659 12.0323H10.6283V24.8457C10.6283 25.071 10.4457 25.2536 10.2204 25.2536H3.53972C3.31444 25.2536 3.13188 25.071 3.13188 24.8457V17.8603H2.7845C1.44407 17.8603 0.357422 16.7737 0.357422 15.4332V10.4074C0.357422 9.88614 0.564453 9.38628 0.933042 9.01774C1.30158 8.64921 1.80139 8.44217 2.32261 8.44217H14.9659C15.4419 8.44217 15.8984 8.63126 16.2351 8.96788C16.5717 9.30451 16.7608 9.76109 16.7608 10.2371V10.2373ZM15.9451 10.2371C15.9451 9.9774 15.842 9.72831 15.6583 9.54468C15.4746 9.36099 15.2255 9.25786 14.9659 9.25786H2.32261C2.01775 9.25786 1.72538 9.37894 1.50978 9.59453C1.29424 9.81008 1.17311 10.1025 1.17311 10.4074V15.4332C1.17311 16.3232 1.89458 17.0447 2.7845 17.0447H3.13188V11.8221C3.13188 11.597 3.31459 11.4142 3.53972 11.4142C3.7648 11.4142 3.94756 11.597 3.94756 11.8221V24.4379H6.47221V18.5571C6.47221 18.3321 6.65498 18.1493 6.88006 18.1493C7.10519 18.1493 7.2879 18.3321 7.2879 18.5571V24.4379H9.8126V11.6244C9.8126 11.3992 9.99521 11.2166 10.2204 11.2166H14.9659C15.2255 11.2166 15.4746 11.1134 15.6583 10.9298C15.8417 10.7464 15.9448 10.4978 15.9451 10.2385M15.9451 10.2385C15.9451 10.2381 15.9451 10.2377 15.9451 10.2373V10.2371M6.88006 2.37617C8.42221 2.37617 9.67241 3.62636 9.67241 5.16852C9.67241 6.71073 8.42227 7.96087 6.88006 7.96087C5.3379 7.96087 4.08776 6.71073 4.08776 5.16852C4.08776 3.62636 5.3379 2.37617 6.88006 2.37617ZM6.88006 3.19186C5.78841 3.19186 4.90345 4.07683 4.90345 5.16852C4.90345 6.26021 5.78841 7.14518 6.88006 7.14518C7.97175 7.14518 8.85672 6.26021 8.85672 5.16852C8.85672 4.07683 7.97175 3.19186 6.88006 3.19186Z" fill="#0400F5"/>
</g>
<defs>
<clipPath id="clip0_1357_5898">
<rect width="26" height="26" fill="white"/>
</clipPath>
</defs>
</svg>
