<svg width="26" height="26" viewBox="0 0 26 26" fill="none" xmlns="http://www.w3.org/2000/svg">
<g clip-path="url(#clip0_1357_5788)">
<path d="M13.9879 16.7442L12.2199 14.9762C12.0119 14.7682 11.6999 14.7682 11.4919 14.9762C11.2839 15.1842 11.2839 15.4962 11.4919 15.7042L13.6239 17.8362C13.7279 17.9402 13.8839 17.9922 13.9879 17.9922C14.1439 17.9922 14.2479 17.9402 14.3519 17.8362L18.6679 13.5202C18.8759 13.3122 18.8759 13.0002 18.6679 12.7922C18.4599 12.5842 18.1479 12.5842 17.9399 12.7922L13.9879 16.7442Z" fill="#0400F5"/>
<path d="M24.7521 21.268L21.2161 17.732C21.4761 17.108 21.6841 16.432 21.7361 15.756C21.8921 13.988 21.3721 12.22 20.2281 10.868C19.6041 10.088 18.8241 9.51602 17.9401 9.10002V6.39602C17.9401 5.14802 16.9001 4.10802 15.6001 4.10802H14.1961V3.38002C14.1961 2.60002 13.5721 1.97602 12.7401 1.97602H11.1801C10.9201 1.14402 10.1401 0.52002 9.2561 0.52002C8.3201 0.52002 7.5921 1.14402 7.3321 1.92402H5.7721C4.9401 1.97602 4.3161 2.60002 4.3161 3.38002V4.10802H2.9121C1.6121 4.10802 0.572096 5.14802 0.572096 6.39602V23.192C0.520096 24.44 1.6121 25.48 2.9121 25.48H15.6001C16.9001 25.48 17.9401 24.44 17.9401 23.14V21.476L21.2161 24.752C22.1521 25.688 23.7121 25.74 24.7001 24.752C25.6881 23.764 25.7401 22.204 24.7521 21.268ZM19.4481 11.492C20.3841 12.636 20.8521 14.144 20.6961 15.6C20.4881 17.732 19.1361 19.5 17.2641 20.28C17.2641 20.28 17.2641 20.28 17.2121 20.28C16.3801 20.644 15.4961 20.748 14.5081 20.696C11.3881 20.384 9.1521 17.628 9.4641 14.508C9.6201 13.052 10.2961 11.752 11.3361 10.816C11.3361 10.816 11.3361 10.816 11.3881 10.764C12.5321 9.77602 14.0921 9.25602 15.6521 9.41202C16.2241 9.46402 16.7441 9.62002 17.2641 9.82802C18.0961 10.244 18.8241 10.764 19.4481 11.492ZM5.3561 3.38002C5.3561 3.17202 5.5641 3.01602 5.7721 3.01602H7.8001C8.1121 3.01602 8.3201 2.80802 8.3201 2.49602C8.3201 1.97602 8.7361 1.61202 9.2561 1.61202C9.7761 1.61202 10.2441 2.02802 10.2441 2.49602C10.2441 2.80802 10.4521 3.01602 10.7641 3.01602H12.7921C13.0001 3.01602 13.2081 3.17202 13.2081 3.38002V5.87602C13.2081 6.08402 13.0001 6.24002 12.7921 6.24002H5.7721C5.5641 6.24002 5.3561 6.08402 5.3561 5.87602V3.38002ZM15.6001 24.44H2.9121C2.1841 24.44 1.5601 23.868 1.5601 23.192V6.39602C1.5601 5.72002 2.1321 5.14802 2.8601 5.14802H4.2641V5.87602C4.2641 6.65602 4.8881 7.28002 5.7201 7.28002H12.7401C13.5201 7.28002 14.1961 6.65602 14.1961 5.87602V5.14802H15.6001C16.3281 5.14802 16.9001 5.72002 16.9001 6.39602V8.68402C16.5361 8.58002 16.1201 8.47602 15.7041 8.47602C13.8321 8.26802 12.1161 8.89202 10.7641 9.98402H4.5241C4.2121 9.98402 4.0041 10.192 4.0041 10.504C4.0041 10.816 4.2121 11.024 4.5241 11.024H9.7761C9.4121 11.492 9.1521 11.96 8.8921 12.532H4.5761C4.2641 12.532 4.0561 12.74 4.0561 13.052C4.0561 13.364 4.2641 13.572 4.5761 13.572H8.6321C8.5801 13.884 8.4761 14.196 8.4761 14.508V15.08H4.5761C4.2641 15.08 4.0561 15.288 4.0561 15.6C4.0561 15.912 4.2641 16.12 4.5761 16.12H8.4761C8.5281 16.64 8.6841 17.108 8.8401 17.628H4.5761C4.2641 17.628 4.0561 17.836 4.0561 18.148C4.0561 18.46 4.2641 18.668 4.5761 18.668H9.3601C9.6721 19.24 10.0881 19.708 10.5561 20.124H4.5761C4.2641 20.124 4.0561 20.332 4.0561 20.644C4.0561 20.956 4.2641 21.164 4.5761 21.164H12.1161C12.8441 21.528 13.5721 21.736 14.4041 21.84C15.2361 21.944 16.0681 21.84 16.9001 21.632V23.244C16.9521 23.816 16.3281 24.44 15.6001 24.44ZM24.0241 24.024C23.4521 24.596 22.5681 24.596 21.9961 24.024L18.6681 20.748C19.5001 20.228 20.1761 19.552 20.6961 18.72L23.9721 21.996C24.5961 22.568 24.5961 23.452 24.0241 24.024Z" fill="#0400F5"/>
</g>
<defs>
<clipPath id="clip0_1357_5788">
<rect width="26" height="26" fill="white"/>
</clipPath>
</defs>
</svg>
