<svg width="401" height="133" viewBox="0 0 401 133" fill="none" xmlns="http://www.w3.org/2000/svg">
<path d="M74.359 88.9215V56.2556H88.4986C91.423 56.2556 93.9429 56.7378 96.0584 57.7023C98.1739 58.6356 99.8072 59.9889 100.958 61.7622C102.109 63.5354 102.685 65.6509 102.685 68.1087C102.685 70.5353 102.109 72.6352 100.958 74.4085C99.8072 76.1818 98.1739 77.5506 96.0584 78.5151C93.9429 79.4484 91.423 79.915 88.4986 79.915H78.5589L81.9188 76.5084V88.9215H74.359ZM81.9188 77.3484L78.5589 73.7552H88.0786C90.4119 73.7552 92.1541 73.2574 93.3052 72.2619C94.4563 71.2664 95.0318 69.8819 95.0318 68.1087C95.0318 66.3043 94.4563 64.9043 93.3052 63.9088C92.1541 62.9132 90.4119 62.4155 88.0786 62.4155H78.5589L81.9188 58.8222V77.3484Z" fill="#05164D"/>
<path d="M108.024 88.9215V63.8154H115.304V88.9215H108.024ZM111.664 60.3155C110.327 60.3155 109.238 59.9267 108.398 59.1489C107.558 58.3711 107.138 57.4067 107.138 56.2556C107.138 55.1046 107.558 54.1401 108.398 53.3624C109.238 52.5846 110.327 52.1957 111.664 52.1957C113.002 52.1957 114.091 52.5691 114.931 53.3157C115.771 54.0312 116.191 54.9646 116.191 56.1156C116.191 57.3289 115.771 58.34 114.931 59.1489C114.122 59.9267 113.033 60.3155 111.664 60.3155Z" fill="#05164D"/>
<path d="M118.887 88.9215L130.134 74.1752L129.994 78.1884L119.214 63.8154H127.38L134.194 73.1952L131.114 73.2885L138.16 63.8154H145.907L135.08 78.0484V74.1285L146.28 88.9215H138.02L130.88 78.935L133.914 79.355L126.82 88.9215H118.887Z" fill="#05164D"/>
<path d="M161.499 89.2948C158.637 89.2948 156.117 88.7348 153.939 87.6148C151.792 86.4948 150.128 84.9704 148.946 83.0416C147.764 81.0817 147.172 78.8573 147.172 76.3684C147.172 73.8485 147.748 71.6241 148.899 69.6953C150.081 67.7353 151.683 66.2109 153.706 65.1221C155.728 64.0021 158.014 63.4421 160.565 63.4421C163.023 63.4421 165.232 63.971 167.192 65.0287C169.183 66.0554 170.754 67.5487 171.905 69.5086C173.056 71.4375 173.632 73.7552 173.632 76.4618C173.632 76.7418 173.616 77.0684 173.585 77.4418C173.554 77.784 173.523 78.1106 173.492 78.4217H153.099V74.1752H169.665L166.865 75.4351C166.865 74.1285 166.601 72.993 166.072 72.0286C165.543 71.0641 164.812 70.3175 163.879 69.7886C162.945 69.2286 161.856 68.9486 160.612 68.9486C159.368 68.9486 158.263 69.2286 157.299 69.7886C156.366 70.3175 155.634 71.0797 155.106 72.0752C154.577 73.0396 154.312 74.1907 154.312 75.5285V76.6484C154.312 78.0173 154.608 79.2306 155.199 80.2883C155.821 81.315 156.677 82.1083 157.765 82.6683C158.885 83.1972 160.192 83.4616 161.685 83.4616C163.023 83.4616 164.19 83.2594 165.185 82.8549C166.212 82.4505 167.145 81.8439 167.985 81.035L171.858 85.2349C170.707 86.5415 169.261 87.5526 167.519 88.2681C165.776 88.9526 163.77 89.2948 161.499 89.2948Z" fill="#05164D"/>
<path d="M178.478 88.9215V54.2957H185.758V88.9215H178.478Z" fill="#05164D"/>
<path d="M208.661 89.4814C206.141 89.4814 203.792 89.077 201.614 88.2681C199.468 87.4282 197.601 86.246 196.014 84.7216C194.428 83.1972 193.183 81.4083 192.281 79.355C191.41 77.3018 190.974 75.0463 190.974 72.5885C190.974 70.1308 191.41 67.8753 192.281 65.8221C193.183 63.7688 194.428 61.9799 196.014 60.4555C197.632 58.9311 199.514 57.7645 201.661 56.9556C203.807 56.1156 206.156 55.6957 208.707 55.6957C211.538 55.6957 214.089 56.1934 216.36 57.1889C218.663 58.1534 220.592 59.5844 222.147 61.4822L217.294 65.9621C216.174 64.6865 214.929 63.7377 213.561 63.1155C212.192 62.4621 210.698 62.1355 209.081 62.1355C207.556 62.1355 206.156 62.3844 204.881 62.8821C203.605 63.3799 202.501 64.0954 201.568 65.0287C200.634 65.9621 199.903 67.0665 199.374 68.342C198.877 69.6175 198.628 71.033 198.628 72.5885C198.628 74.1441 198.877 75.5596 199.374 76.8351C199.903 78.1106 200.634 79.215 201.568 80.1483C202.501 81.0817 203.605 81.7972 204.881 82.295C206.156 82.7927 207.556 83.0416 209.081 83.0416C210.698 83.0416 212.192 82.7305 213.561 82.1083C214.929 81.455 216.174 80.475 217.294 79.1684L222.147 83.6483C220.592 85.546 218.663 86.9926 216.36 87.9881C214.089 88.9837 211.523 89.4814 208.661 89.4814Z" fill="#05164D"/>
<path d="M226.739 88.9215V63.8154H233.692V70.9086L232.712 68.8553C233.459 67.082 234.656 65.7443 236.305 64.8421C237.954 63.9088 239.961 63.4421 242.325 63.4421V70.1619C242.014 70.1308 241.734 70.1153 241.485 70.1153C241.236 70.0842 240.972 70.0686 240.692 70.0686C238.701 70.0686 237.083 70.6441 235.839 71.7952C234.625 72.9152 234.019 74.6729 234.019 77.0684V88.9215H226.739Z" fill="#05164D"/>
<path d="M260.413 88.9215V84.0216L259.946 82.9483V74.1752C259.946 72.6197 259.464 71.4064 258.499 70.5353C257.566 69.6642 256.119 69.2286 254.159 69.2286C252.822 69.2286 251.5 69.4464 250.193 69.8819C248.917 70.2864 247.829 70.8464 246.926 71.5619L244.313 66.4754C245.682 65.511 247.331 64.7643 249.26 64.2354C251.188 63.7066 253.148 63.4421 255.139 63.4421C258.966 63.4421 261.937 64.3443 264.053 66.1487C266.168 67.9531 267.226 70.7686 267.226 74.5952V88.9215H260.413ZM252.76 89.2948C250.8 89.2948 249.12 88.9681 247.72 88.3148C246.32 87.6304 245.246 86.7126 244.5 85.5615C243.753 84.4105 243.38 83.1194 243.38 81.6883C243.38 80.195 243.738 78.8884 244.453 77.7684C245.2 76.6484 246.366 75.7773 247.953 75.1551C249.54 74.5018 251.608 74.1752 254.159 74.1752H260.833V78.4217H254.953C253.242 78.4217 252.06 78.7017 251.406 79.2617C250.784 79.8217 250.473 80.5217 250.473 81.3616C250.473 82.295 250.831 83.0416 251.546 83.6016C252.293 84.1305 253.304 84.3949 254.579 84.3949C255.793 84.3949 256.882 84.1149 257.846 83.5549C258.81 82.9638 259.51 82.1083 259.946 80.9883L261.066 84.3482C260.537 85.966 259.573 87.1948 258.173 88.0348C256.773 88.8748 254.968 89.2948 252.76 89.2948Z" fill="#05164D"/>
<path d="M276.532 98.3479C275.225 98.3479 273.934 98.1457 272.659 97.7412C271.383 97.3368 270.341 96.7768 269.532 96.0613L272.192 90.8814C272.752 91.3792 273.39 91.768 274.105 92.048C274.852 92.328 275.583 92.468 276.299 92.468C277.325 92.468 278.134 92.2191 278.725 91.7214C279.347 91.2547 279.907 90.4614 280.405 89.3414L281.712 86.2615L282.272 85.4682L291.278 63.8154H298.278L286.938 90.4614C286.129 92.4836 285.196 94.0702 284.138 95.2213C283.112 96.3724 281.961 97.1812 280.685 97.6479C279.441 98.1145 278.056 98.3479 276.532 98.3479ZM280.825 89.9014L269.625 63.8154H277.139L285.818 84.8149L280.825 89.9014Z" fill="#05164D"/>
<path d="M312.511 89.2948C309.836 89.2948 307.456 88.7348 305.372 87.6148C303.318 86.4948 301.685 84.9704 300.472 83.0416C299.289 81.0817 298.698 78.8573 298.698 76.3684C298.698 73.8485 299.289 71.6241 300.472 69.6953C301.685 67.7353 303.318 66.2109 305.372 65.1221C307.456 64.0021 309.836 63.4421 312.511 63.4421C315.156 63.4421 317.52 64.0021 319.604 65.1221C321.689 66.2109 323.322 67.7198 324.504 69.6486C325.687 71.5775 326.278 73.8174 326.278 76.3684C326.278 78.8573 325.687 81.0817 324.504 83.0416C323.322 84.9704 321.689 86.4948 319.604 87.6148C317.52 88.7348 315.156 89.2948 312.511 89.2948ZM312.511 83.3216C313.725 83.3216 314.814 83.0416 315.778 82.4816C316.742 81.9216 317.505 81.1283 318.065 80.1017C318.625 79.0439 318.905 77.7995 318.905 76.3684C318.905 74.9063 318.625 73.6618 318.065 72.6352C317.505 71.6086 316.742 70.8153 315.778 70.2553C314.814 69.6953 313.725 69.4153 312.511 69.4153C311.298 69.4153 310.209 69.6953 309.245 70.2553C308.28 70.8153 307.503 71.6086 306.911 72.6352C306.352 73.6618 306.072 74.9063 306.072 76.3684C306.072 77.7995 306.352 79.0439 306.911 80.1017C307.503 81.1283 308.28 81.9216 309.245 82.4816C310.209 83.0416 311.298 83.3216 312.511 83.3216Z" fill="#05164D"/>
<path d="M346.403 63.4421C348.394 63.4421 350.168 63.8465 351.723 64.6554C353.31 65.4332 354.554 66.6465 355.456 68.2953C356.359 69.9131 356.81 71.9974 356.81 74.5485V88.9215H349.53V75.6685C349.53 73.6463 349.079 72.153 348.177 71.1886C347.305 70.2242 346.061 69.742 344.443 69.742C343.292 69.742 342.25 69.9908 341.317 70.4886C340.415 70.9553 339.699 71.6863 339.17 72.6819C338.672 73.6774 338.423 74.9529 338.423 76.5084V88.9215H331.144V63.8154H338.097V70.7686L336.79 68.6686C337.692 66.9887 338.983 65.6976 340.663 64.7954C342.343 63.8932 344.257 63.4421 346.403 63.4421Z" fill="#05164D"/>
<path d="M371.855 89.2948C369.708 89.2948 367.639 89.0459 365.648 88.5481C363.688 88.0193 362.133 87.3659 360.982 86.5882L363.408 81.3616C364.559 82.0772 365.913 82.6683 367.468 83.1349C369.055 83.5705 370.61 83.7883 372.135 83.7883C373.815 83.7883 374.997 83.586 375.681 83.1816C376.397 82.7772 376.755 82.2172 376.755 81.5016C376.755 80.9106 376.475 80.475 375.915 80.195C375.386 79.8839 374.67 79.6506 373.768 79.495C372.866 79.3395 371.87 79.1839 370.782 79.0284C369.724 78.8728 368.651 78.6706 367.562 78.4217C366.473 78.1417 365.477 77.7373 364.575 77.2084C363.673 76.6795 362.942 75.964 362.382 75.0618C361.853 74.1596 361.588 72.993 361.588 71.5619C361.588 69.9753 362.04 68.5753 362.942 67.362C363.875 66.1487 365.213 65.1998 366.955 64.5154C368.697 63.7999 370.782 63.4421 373.208 63.4421C374.919 63.4421 376.661 63.6288 378.435 64.0021C380.208 64.3754 381.686 64.9199 382.868 65.6354L380.441 70.8153C379.228 70.0997 377.999 69.6175 376.755 69.3686C375.541 69.0886 374.359 68.9486 373.208 68.9486C371.59 68.9486 370.408 69.1664 369.662 69.602C368.915 70.0375 368.542 70.5975 368.542 71.2819C368.542 71.9041 368.806 72.3708 369.335 72.6819C369.895 72.993 370.626 73.2419 371.528 73.4285C372.43 73.6152 373.41 73.7863 374.468 73.9418C375.557 74.0663 376.646 74.2685 377.735 74.5485C378.824 74.8285 379.804 75.2329 380.675 75.7618C381.577 76.2596 382.308 76.9595 382.868 77.8617C383.428 78.7328 383.708 79.8839 383.708 81.315C383.708 82.8705 383.241 84.2549 382.308 85.4682C381.375 86.6504 380.021 87.5837 378.248 88.2681C376.506 88.9526 374.375 89.2948 371.855 89.2948Z" fill="#05164D"/>
<path d="M139.316 122.002V108.007H141.316V122.002H139.316Z" fill="#4B5563"/>
<path d="M150.884 111.306C151.75 111.306 152.51 111.472 153.163 111.805C153.83 112.139 154.349 112.645 154.723 113.325C155.096 114.005 155.282 114.864 155.282 115.904V122.002H153.363V116.124C153.363 115.098 153.11 114.325 152.603 113.805C152.11 113.285 151.41 113.025 150.504 113.025C149.824 113.025 149.231 113.158 148.725 113.425C148.218 113.691 147.825 114.085 147.545 114.605C147.278 115.124 147.145 115.771 147.145 116.544V122.002H145.226V111.406H147.065V114.265L146.765 113.505C147.112 112.812 147.645 112.272 148.365 111.885C149.084 111.499 149.924 111.306 150.884 111.306Z" fill="#4B5563"/>
<path d="M161.418 122.002L156.78 111.406H158.779L162.898 121.002H161.938L166.137 111.406H168.016L163.378 122.002H161.418Z" fill="#4B5563"/>
<path d="M169.808 122.002V111.406H171.727V122.002H169.808ZM170.767 109.366C170.394 109.366 170.081 109.246 169.828 109.006C169.588 108.766 169.468 108.473 169.468 108.127C169.468 107.767 169.588 107.467 169.828 107.227C170.081 106.987 170.394 106.867 170.767 106.867C171.14 106.867 171.447 106.987 171.687 107.227C171.94 107.454 172.067 107.74 172.067 108.087C172.067 108.447 171.947 108.753 171.707 109.006C171.467 109.246 171.154 109.366 170.767 109.366Z" fill="#4B5563"/>
<path d="M178.431 122.122C177.551 122.122 176.711 122.002 175.912 121.762C175.125 121.522 174.505 121.229 174.052 120.882L174.852 119.363C175.305 119.67 175.865 119.929 176.531 120.143C177.198 120.356 177.878 120.463 178.571 120.463C179.464 120.463 180.103 120.336 180.49 120.083C180.89 119.829 181.09 119.476 181.09 119.023C181.09 118.69 180.97 118.43 180.73 118.243C180.49 118.057 180.17 117.917 179.77 117.823C179.384 117.73 178.951 117.65 178.471 117.584C177.991 117.504 177.511 117.41 177.031 117.304C176.551 117.184 176.111 117.024 175.712 116.824C175.312 116.611 174.992 116.324 174.752 115.964C174.512 115.591 174.392 115.098 174.392 114.485C174.392 113.845 174.572 113.285 174.932 112.805C175.292 112.325 175.798 111.959 176.451 111.705C177.118 111.439 177.904 111.306 178.811 111.306C179.504 111.306 180.203 111.392 180.91 111.566C181.63 111.725 182.216 111.959 182.669 112.265L181.85 113.785C181.37 113.465 180.87 113.245 180.35 113.125C179.83 113.005 179.31 112.945 178.791 112.945C177.951 112.945 177.324 113.085 176.911 113.365C176.498 113.631 176.291 113.978 176.291 114.405C176.291 114.764 176.411 115.044 176.651 115.244C176.905 115.431 177.224 115.578 177.611 115.684C178.011 115.791 178.451 115.884 178.931 115.964C179.41 116.031 179.89 116.124 180.37 116.244C180.85 116.351 181.283 116.504 181.67 116.704C182.069 116.904 182.389 117.184 182.629 117.544C182.883 117.903 183.009 118.383 183.009 118.983C183.009 119.623 182.823 120.176 182.449 120.643C182.076 121.109 181.55 121.476 180.87 121.742C180.19 121.995 179.377 122.122 178.431 122.122Z" fill="#4B5563"/>
<path d="M185.408 122.002V111.406H187.327V122.002H185.408ZM186.368 109.366C185.994 109.366 185.681 109.246 185.428 109.006C185.188 108.766 185.068 108.473 185.068 108.127C185.068 107.767 185.188 107.467 185.428 107.227C185.681 106.987 185.994 106.867 186.368 106.867C186.741 106.867 187.047 106.987 187.287 107.227C187.541 107.454 187.667 107.74 187.667 108.087C187.667 108.447 187.547 108.753 187.307 109.006C187.067 109.246 186.754 109.366 186.368 109.366Z" fill="#4B5563"/>
<path d="M196.61 122.122C195.704 122.122 194.884 121.922 194.151 121.522C193.431 121.109 192.858 120.503 192.432 119.703C192.018 118.903 191.812 117.903 191.812 116.704C191.812 115.504 192.025 114.505 192.452 113.705C192.891 112.905 193.471 112.305 194.191 111.905C194.924 111.506 195.73 111.306 196.61 111.306C197.65 111.306 198.57 111.532 199.369 111.985C200.169 112.439 200.802 113.072 201.269 113.885C201.735 114.684 201.968 115.624 201.968 116.704C201.968 117.783 201.735 118.73 201.269 119.543C200.802 120.356 200.169 120.989 199.369 121.442C198.57 121.895 197.65 122.122 196.61 122.122ZM190.992 122.002V107.167H192.911V114.225L192.711 116.684L192.831 119.143V122.002H190.992ZM196.45 120.443C197.13 120.443 197.737 120.289 198.27 119.983C198.816 119.676 199.243 119.243 199.549 118.683C199.869 118.11 200.029 117.45 200.029 116.704C200.029 115.944 199.869 115.291 199.549 114.744C199.243 114.185 198.816 113.751 198.27 113.445C197.737 113.138 197.13 112.985 196.45 112.985C195.784 112.985 195.177 113.138 194.631 113.445C194.098 113.751 193.671 114.185 193.351 114.744C193.045 115.291 192.891 115.944 192.891 116.704C192.891 117.45 193.045 118.11 193.351 118.683C193.671 119.243 194.098 119.676 194.631 119.983C195.177 120.289 195.784 120.443 196.45 120.443Z" fill="#4B5563"/>
<path d="M204.62 122.002V107.167H206.54V122.002H204.62Z" fill="#4B5563"/>
<path d="M214.923 122.122C213.79 122.122 212.79 121.889 211.924 121.422C211.071 120.956 210.404 120.316 209.925 119.503C209.458 118.69 209.225 117.757 209.225 116.704C209.225 115.651 209.451 114.718 209.905 113.905C210.371 113.092 211.004 112.459 211.804 112.005C212.617 111.539 213.53 111.306 214.543 111.306C215.569 111.306 216.476 111.532 217.262 111.985C218.049 112.439 218.662 113.078 219.102 113.905C219.555 114.718 219.781 115.671 219.781 116.764C219.781 116.844 219.775 116.937 219.761 117.044C219.761 117.15 219.755 117.25 219.741 117.344H210.724V115.964H218.742L217.962 116.444C217.975 115.764 217.835 115.158 217.542 114.625C217.249 114.091 216.842 113.678 216.323 113.385C215.816 113.078 215.223 112.925 214.543 112.925C213.877 112.925 213.284 113.078 212.764 113.385C212.244 113.678 211.837 114.098 211.544 114.645C211.251 115.178 211.104 115.791 211.104 116.484V116.804C211.104 117.51 211.264 118.143 211.584 118.703C211.917 119.25 212.377 119.676 212.964 119.983C213.55 120.289 214.223 120.443 214.983 120.443C215.609 120.443 216.176 120.336 216.682 120.123C217.202 119.909 217.655 119.59 218.042 119.163L219.102 120.403C218.622 120.962 218.022 121.389 217.302 121.682C216.596 121.975 215.803 122.122 214.923 122.122Z" fill="#4B5563"/>
<path d="M234.414 122.162C233.334 122.162 232.341 121.989 231.435 121.642C230.528 121.282 229.742 120.783 229.076 120.143C228.409 119.49 227.889 118.73 227.516 117.863C227.143 116.997 226.956 116.044 226.956 115.004C226.956 113.965 227.143 113.012 227.516 112.145C227.889 111.279 228.409 110.526 229.076 109.886C229.755 109.233 230.548 108.733 231.455 108.387C232.361 108.027 233.361 107.847 234.454 107.847C235.56 107.847 236.573 108.027 237.493 108.387C238.412 108.746 239.192 109.286 239.832 110.006L238.592 111.246C238.019 110.686 237.393 110.279 236.713 110.026C236.047 109.759 235.32 109.626 234.534 109.626C233.734 109.626 232.988 109.759 232.294 110.026C231.615 110.293 231.022 110.666 230.515 111.146C230.022 111.625 229.635 112.199 229.355 112.865C229.089 113.518 228.956 114.231 228.956 115.004C228.956 115.764 229.089 116.477 229.355 117.144C229.635 117.797 230.022 118.37 230.515 118.863C231.022 119.343 231.615 119.716 232.294 119.983C232.974 120.249 233.714 120.383 234.514 120.383C235.26 120.383 235.973 120.269 236.653 120.043C237.346 119.803 237.986 119.41 238.572 118.863L239.712 120.383C239.019 120.969 238.206 121.416 237.273 121.722C236.353 122.015 235.4 122.162 234.414 122.162ZM237.793 120.123V114.924H239.712V120.383L237.793 120.123Z" fill="#4B5563"/>
<path d="M243.26 122.002V111.406H245.1V114.285L244.92 113.565C245.213 112.832 245.706 112.272 246.399 111.885C247.092 111.499 247.945 111.306 248.958 111.306V113.165C248.878 113.152 248.798 113.145 248.718 113.145C248.652 113.145 248.585 113.145 248.518 113.145C247.492 113.145 246.679 113.452 246.079 114.065C245.479 114.678 245.18 115.564 245.18 116.724V122.002H243.26Z" fill="#4B5563"/>
<path d="M255.765 122.122C254.698 122.122 253.752 121.889 252.926 121.422C252.099 120.956 251.446 120.316 250.966 119.503C250.487 118.677 250.247 117.743 250.247 116.704C250.247 115.651 250.487 114.718 250.966 113.905C251.446 113.092 252.099 112.459 252.926 112.005C253.752 111.539 254.698 111.306 255.765 111.306C256.818 111.306 257.757 111.539 258.584 112.005C259.424 112.459 260.077 113.092 260.543 113.905C261.023 114.704 261.263 115.638 261.263 116.704C261.263 117.757 261.023 118.69 260.543 119.503C260.077 120.316 259.424 120.956 258.584 121.422C257.757 121.889 256.818 122.122 255.765 122.122ZM255.765 120.443C256.445 120.443 257.051 120.289 257.584 119.983C258.131 119.676 258.557 119.243 258.864 118.683C259.17 118.11 259.324 117.45 259.324 116.704C259.324 115.944 259.17 115.291 258.864 114.744C258.557 114.185 258.131 113.751 257.584 113.445C257.051 113.138 256.445 112.985 255.765 112.985C255.085 112.985 254.479 113.138 253.945 113.445C253.412 113.751 252.986 114.185 252.666 114.744C252.346 115.291 252.186 115.944 252.186 116.704C252.186 117.45 252.346 118.11 252.666 118.683C252.986 119.243 253.412 119.676 253.945 119.983C254.479 120.289 255.085 120.443 255.765 120.443Z" fill="#4B5563"/>
<path d="M265.864 122.002L261.925 111.406H263.745L267.243 121.002H266.384L270.022 111.406H271.642L275.201 121.002H274.361L277.94 111.406H279.659L275.701 122.002H273.861L270.522 113.245H271.082L267.703 122.002H265.864Z" fill="#4B5563"/>
<path d="M285.539 122.122C284.472 122.122 283.646 121.835 283.059 121.262C282.473 120.689 282.18 119.869 282.18 118.803V109.086H284.099V118.723C284.099 119.296 284.239 119.736 284.519 120.043C284.812 120.349 285.225 120.503 285.759 120.503C286.358 120.503 286.858 120.336 287.258 120.003L287.858 121.382C287.565 121.636 287.211 121.822 286.798 121.942C286.398 122.062 285.979 122.122 285.539 122.122ZM280.38 112.985V111.406H287.138V112.985H280.38Z" fill="#4B5563"/>
<path d="M295.837 111.306C296.703 111.306 297.463 111.472 298.116 111.805C298.782 112.139 299.302 112.645 299.675 113.325C300.048 114.005 300.235 114.864 300.235 115.904V122.002H298.316V116.124C298.316 115.098 298.062 114.325 297.556 113.805C297.063 113.285 296.363 113.025 295.457 113.025C294.777 113.025 294.184 113.158 293.677 113.425C293.171 113.691 292.778 114.085 292.498 114.605C292.231 115.124 292.098 115.771 292.098 116.544V122.002H290.178V107.167H292.098V114.265L291.718 113.505C292.064 112.812 292.598 112.272 293.317 111.885C294.037 111.499 294.877 111.306 295.837 111.306Z" fill="#4B5563"/>
<path d="M309.436 122.002V108.007H314.895C316.121 108.007 317.167 108.2 318.034 108.586C318.9 108.973 319.566 109.533 320.033 110.266C320.5 110.999 320.733 111.872 320.733 112.885C320.733 113.898 320.5 114.771 320.033 115.504C319.566 116.224 318.9 116.784 318.034 117.184C317.167 117.57 316.121 117.763 314.895 117.763H310.536L311.436 116.824V122.002H309.436ZM311.436 117.024L310.536 116.024H314.835C316.114 116.024 317.081 115.751 317.734 115.204C318.4 114.658 318.733 113.885 318.733 112.885C318.733 111.885 318.4 111.112 317.734 110.566C317.081 110.019 316.114 109.746 314.835 109.746H310.536L311.436 108.746V117.024Z" fill="#4B5563"/>
<path d="M329.87 122.002V119.763L329.77 119.343V115.524C329.77 114.711 329.531 114.085 329.051 113.645C328.584 113.192 327.878 112.965 326.931 112.965C326.305 112.965 325.692 113.072 325.092 113.285C324.492 113.485 323.986 113.758 323.572 114.105L322.773 112.665C323.319 112.225 323.972 111.892 324.732 111.665C325.505 111.426 326.312 111.306 327.151 111.306C328.604 111.306 329.724 111.659 330.51 112.365C331.297 113.072 331.69 114.151 331.69 115.604V122.002H329.87ZM326.392 122.122C325.605 122.122 324.912 121.989 324.312 121.722C323.726 121.456 323.273 121.089 322.953 120.623C322.633 120.143 322.473 119.603 322.473 119.003C322.473 118.43 322.606 117.91 322.873 117.444C323.153 116.977 323.599 116.604 324.212 116.324C324.839 116.044 325.678 115.904 326.731 115.904H330.09V117.284H326.811C325.852 117.284 325.205 117.444 324.872 117.763C324.539 118.083 324.372 118.47 324.372 118.923C324.372 119.443 324.579 119.863 324.992 120.183C325.405 120.489 325.978 120.643 326.711 120.643C327.431 120.643 328.058 120.483 328.591 120.163C329.137 119.843 329.531 119.376 329.77 118.763L330.15 120.083C329.897 120.709 329.451 121.209 328.811 121.582C328.171 121.942 327.365 122.122 326.392 122.122Z" fill="#4B5563"/>
<path d="M335.242 122.002V111.406H337.081V114.285L336.901 113.565C337.194 112.832 337.688 112.272 338.381 111.885C339.074 111.499 339.927 111.306 340.94 111.306V113.165C340.86 113.152 340.78 113.145 340.7 113.145C340.633 113.145 340.567 113.145 340.5 113.145C339.474 113.145 338.661 113.452 338.061 114.065C337.461 114.678 337.161 115.564 337.161 116.724V122.002H335.242Z" fill="#4B5563"/>
<path d="M347.374 122.122C346.308 122.122 345.481 121.835 344.895 121.262C344.308 120.689 344.015 119.869 344.015 118.803V109.086H345.934V118.723C345.934 119.296 346.074 119.736 346.354 120.043C346.647 120.349 347.061 120.503 347.594 120.503C348.194 120.503 348.693 120.336 349.093 120.003L349.693 121.382C349.4 121.636 349.047 121.822 348.633 121.942C348.234 122.062 347.814 122.122 347.374 122.122ZM342.216 112.985V111.406H348.973V112.985H342.216Z" fill="#4B5563"/>
<path d="M357.672 111.306C358.538 111.306 359.298 111.472 359.951 111.805C360.617 112.139 361.137 112.645 361.511 113.325C361.884 114.005 362.07 114.864 362.07 115.904V122.002H360.151V116.124C360.151 115.098 359.898 114.325 359.391 113.805C358.898 113.285 358.198 113.025 357.292 113.025C356.612 113.025 356.019 113.158 355.512 113.425C355.006 113.691 354.613 114.085 354.333 114.605C354.066 115.124 353.933 115.771 353.933 116.544V122.002H352.014V111.406H353.853V114.265L353.553 113.505C353.9 112.812 354.433 112.272 355.153 111.885C355.872 111.499 356.712 111.306 357.672 111.306Z" fill="#4B5563"/>
<path d="M370.341 122.122C369.208 122.122 368.208 121.889 367.342 121.422C366.489 120.956 365.822 120.316 365.343 119.503C364.876 118.69 364.643 117.757 364.643 116.704C364.643 115.651 364.869 114.718 365.323 113.905C365.789 113.092 366.422 112.459 367.222 112.005C368.035 111.539 368.948 111.306 369.961 111.306C370.987 111.306 371.894 111.532 372.68 111.985C373.467 112.439 374.08 113.078 374.52 113.905C374.973 114.718 375.199 115.671 375.199 116.764C375.199 116.844 375.193 116.937 375.179 117.044C375.179 117.15 375.173 117.25 375.159 117.344H366.142V115.964H374.16L373.38 116.444C373.393 115.764 373.253 115.158 372.96 114.625C372.667 114.091 372.26 113.678 371.74 113.385C371.234 113.078 370.641 112.925 369.961 112.925C369.295 112.925 368.701 113.078 368.182 113.385C367.662 113.678 367.255 114.098 366.962 114.645C366.669 115.178 366.522 115.791 366.522 116.484V116.804C366.522 117.51 366.682 118.143 367.002 118.703C367.335 119.25 367.795 119.676 368.382 119.983C368.968 120.289 369.641 120.443 370.401 120.443C371.027 120.443 371.594 120.336 372.1 120.123C372.62 119.909 373.073 119.59 373.46 119.163L374.52 120.403C374.04 120.962 373.44 121.389 372.72 121.682C372.014 121.975 371.221 122.122 370.341 122.122Z" fill="#4B5563"/>
<path d="M377.865 122.002V111.406H379.704V114.285L379.524 113.565C379.817 112.832 380.31 112.272 381.004 111.885C381.697 111.499 382.55 111.306 383.563 111.306V113.165C383.483 113.152 383.403 113.145 383.323 113.145C383.256 113.145 383.189 113.145 383.123 113.145C382.097 113.145 381.283 113.452 380.684 114.065C380.084 114.678 379.784 115.564 379.784 116.724V122.002H377.865Z" fill="#4B5563"/>
<mask id="mask0_674_1215" style="mask-type:luminance" maskUnits="userSpaceOnUse" x="16" y="60" width="28" height="58">
<path d="M20.7833 117.445C34.4324 103 21.2486 80.861 43.8938 60.7633C17.371 73.1674 11.0117 103.628 20.7833 117.445Z" fill="white"/>
</mask>
<g mask="url(#mask0_674_1215)">
<path d="M11.0117 60.6064H43.8937V117.288H11.0117V60.6064Z" fill="url(#paint0_linear_674_1215)"/>
</g>
<mask id="mask1_674_1215" style="mask-type:luminance" maskUnits="userSpaceOnUse" x="19" y="0" width="38" height="77">
<path d="M43.8942 76.7793C49.4779 65.0034 51.9596 50.0871 40.3268 40.3523C22.4898 25.2791 29.4695 21.1967 19.5428 0C37.2247 7.69363 53.2004 20.5687 56.1474 40.9804C57.6984 52.1283 54.2861 64.0613 43.8942 76.7793Z" fill="white"/>
</mask>
<g mask="url(#mask1_674_1215)">
<path d="M19.5423 -0.000823975H57.6979V76.7785H19.5423V-0.000823975Z" fill="url(#paint1_linear_674_1215)"/>
</g>
<mask id="mask2_674_1215" style="mask-type:luminance" maskUnits="userSpaceOnUse" x="0" y="9" width="104" height="68">
<path d="M43.8944 76.78C46.0658 66.1031 47.3067 51.6579 38.6209 48.2036C16.9063 39.4109 17.0614 43.8073 -1.75238e-05 9.42142C28.0738 11.9336 37.5351 27.6349 46.8414 34.0725C50.0985 36.2706 53.5108 37.5267 56.4578 36.7417C59.5599 36.1136 59.8701 31.8743 64.0579 29.8331C68.2457 27.7919 73.6743 28.891 76.7764 33.2874C82.9806 33.4444 95.3889 34.8575 103.92 36.8987C90.7358 35.1715 80.9642 36.1136 72.7437 39.7249C60.9558 45.0634 60.1803 60.2936 43.8944 76.78Z" fill="white"/>
</mask>
<g mask="url(#mask2_674_1215)">
<path d="M-1.52588e-05 9.42142H103.92V76.623H-1.52588e-05V9.42142Z" fill="url(#paint2_linear_674_1215)"/>
</g>
<mask id="mask3_674_1215" style="mask-type:luminance" maskUnits="userSpaceOnUse" x="22" y="28" width="82" height="61">
<path d="M38.6208 48.0448C30.8657 44.9045 25.9023 43.4914 22.0247 41.4502C22.3349 41.6072 49.0128 51.185 59.0946 34.8557C60.3354 33.2856 61.4211 31.0874 64.0579 29.8313C68.2457 27.7901 73.6743 28.8892 76.7764 33.2856C82.9806 33.4426 95.3889 34.8557 103.92 36.8968C90.8909 35.6407 80.9642 35.7978 72.7437 39.095C64.213 42.5493 63.2824 54.1683 54.1312 66.2583C49.6332 72.2248 40.1719 78.1913 39.7066 88.0831C36.1392 78.5053 40.4821 72.6958 43.274 67.0433C46.5311 60.6058 45.9107 51.028 38.6208 48.0448Z" fill="white"/>
</mask>
<g mask="url(#mask3_674_1215)">
<path d="M22.0248 27.9485H103.92V88.0845H22.0248V27.9485Z" fill="url(#paint3_linear_674_1215)"/>
</g>
<mask id="mask4_674_1215" style="mask-type:luminance" maskUnits="userSpaceOnUse" x="39" y="33" width="65" height="56">
<path d="M76.7764 33.4433C82.9806 33.4433 95.3889 34.8564 103.92 36.8976C90.8909 35.6415 80.9642 36.4266 72.7437 39.7238C65.4538 42.7071 68.5559 53.698 63.9028 64.5319C58.1639 77.4069 40.4821 76.9359 39.8617 88.0838C39.2413 72.5395 54.2863 73.1676 58.319 52.5989C60.0252 43.6492 65.4538 34.0714 76.7764 33.4433Z" fill="white"/>
</mask>
<g mask="url(#mask4_674_1215)">
<path d="M39.0862 33.4433H103.92V88.0838H39.0862V33.4433Z" fill="url(#paint4_linear_674_1215)"/>
</g>
<mask id="mask5_674_1215" style="mask-type:luminance" maskUnits="userSpaceOnUse" x="39" y="38" width="18" height="45">
<path d="M48.5474 56.6818C48.2372 52.1284 46.9964 47.889 44.0494 44.1207C48.3923 43.4927 52.5801 41.9225 55.8373 38.9393C55.9924 39.5674 56.1475 40.1954 56.1475 40.9805C56.923 46.79 56.4577 52.9135 54.2862 59.037C51.3393 67.3587 41.2575 73.6392 39.8616 82.5889C39.2412 72.2261 49.0127 65.6315 48.5474 56.6818Z" fill="white"/>
</mask>
<g mask="url(#mask5_674_1215)">
<path d="M39.2406 38.9387H56.9225V82.5883H39.2406V38.9387Z" fill="url(#paint5_linear_674_1215)"/>
</g>
<mask id="mask6_674_1215" style="mask-type:luminance" maskUnits="userSpaceOnUse" x="25" y="17" width="31" height="28">
<path d="M44.0496 44.1198C42.9639 42.8637 41.8781 41.6076 40.4822 40.3515C28.8494 30.6167 27.7637 25.4353 25.5922 17.1136C35.5189 22.7661 41.2577 30.1457 46.8415 34.071C49.6333 36.1122 52.7354 37.2112 55.3722 36.8972C55.5273 37.5253 55.6824 38.1533 55.8375 38.9384C52.4252 41.9216 48.2374 43.4918 44.0496 44.1198Z" fill="white"/>
</mask>
<g mask="url(#mask6_674_1215)">
<path d="M25.5922 17.1136H55.8375V44.1198H25.5922V17.1136Z" fill="url(#paint6_linear_674_1215)"/>
</g>
<mask id="mask7_674_1215" style="mask-type:luminance" maskUnits="userSpaceOnUse" x="27" y="60" width="26" height="73">
<path d="M43.8937 60.6065C25.1262 80.3902 41.257 113.834 52.7346 132.99C38.31 123.098 26.2119 108.967 27.1425 90.282C27.4527 80.2332 32.416 70.1843 43.8937 60.6065Z" fill="white"/>
</mask>
<g mask="url(#mask7_674_1215)">
<path d="M25.2813 60.6065H52.7346V132.99H25.2813V60.6065Z" fill="url(#paint7_linear_674_1215)"/>
</g>
<mask id="mask8_674_1215" style="mask-type:luminance" maskUnits="userSpaceOnUse" x="25" y="60" width="19" height="61">
<path d="M38.4651 120.586C38.7753 114.776 37.8447 108.653 35.8284 102.058C31.0201 86.9847 29.0038 75.6798 43.8938 60.6065C20.4731 76.7789 19.5425 100.331 38.4651 120.586Z" fill="white"/>
</mask>
<g mask="url(#mask8_674_1215)">
<path d="M19.5425 60.6065H43.8938V120.585H19.5425V60.6065Z" fill="url(#paint8_linear_674_1215)"/>
</g>
<mask id="mask9_674_1215" style="mask-type:luminance" maskUnits="userSpaceOnUse" x="8" y="60" width="36" height="46">
<path d="M8.84029 105.669C15.5098 99.2317 21.2486 94.8354 22.7996 86.6707C24.6609 77.2499 29.6242 70.1843 43.8938 60.6065C17.6812 67.9861 6.66884 94.0503 8.84029 105.669Z" fill="white"/>
</mask>
<g mask="url(#mask9_674_1215)">
<path d="M6.66883 60.6065H43.8938V105.669H6.66883V60.6065Z" fill="url(#paint9_linear_674_1215)"/>
</g>
<mask id="mask10_674_1215" style="mask-type:luminance" maskUnits="userSpaceOnUse" x="16" y="60" width="28" height="38">
<path d="M16.5955 97.9756C19.6976 94.6784 21.869 91.2241 22.7996 86.6707C24.6609 77.2499 29.6242 70.1843 43.8938 60.6065C26.8323 68.7712 17.9914 84.3155 16.5955 97.9756Z" fill="white"/>
</mask>
<g mask="url(#mask10_674_1215)">
<path d="M16.5955 60.6065H43.8938V97.9756H16.5955V60.6065Z" fill="url(#paint10_linear_674_1215)"/>
</g>
<path fill-rule="evenodd" clip-rule="evenodd" d="M68.7101 34.2286C69.3306 34.2286 69.7959 33.7575 69.7959 33.1295C69.7959 32.5014 69.3306 32.0304 68.7101 32.0304C68.0897 32.0304 67.6244 32.5014 67.6244 33.1295C67.6244 33.7575 68.0897 34.2286 68.7101 34.2286Z" fill="white"/>
<mask id="mask11_674_1215" style="mask-type:luminance" maskUnits="userSpaceOnUse" x="19" y="60" width="25" height="28">
<path d="M30.3997 82.7452C32.261 75.5226 35.6733 67.9859 43.8938 60.7633C31.0201 66.8868 22.7996 77.0927 19.0771 87.7696C23.1098 86.6705 26.9874 84.9433 30.3997 82.7452Z" fill="white"/>
</mask>
<g mask="url(#mask11_674_1215)">
<path d="M19.0771 60.6064H43.8937V87.6126H19.0771V60.6064Z" fill="url(#paint11_linear_674_1215)"/>
</g>
<mask id="mask12_674_1215" style="mask-type:luminance" maskUnits="userSpaceOnUse" x="27" y="22" width="18" height="23">
<path d="M44.5149 44.7477C43.4292 43.1776 42.0333 41.7645 40.4822 40.3514C31.6413 32.9717 28.8494 28.2614 27.1433 22.7659C35.5189 27.1623 42.0333 35.1699 44.5149 44.7477Z" fill="white"/>
</mask>
<g mask="url(#mask12_674_1215)">
<path d="M27.1433 22.7659H44.5149V44.7477H27.1433V22.7659Z" fill="url(#paint12_linear_674_1215)"/>
</g>
<mask id="mask13_674_1215" style="mask-type:luminance" maskUnits="userSpaceOnUse" x="4" y="18" width="42" height="41">
<path d="M45.2898 58.7216C44.6694 53.8542 42.8082 49.7719 38.6204 48.2017C19.2324 40.5081 17.216 43.1773 4.96281 19.4684C6.97916 19.1543 8.99551 18.8403 11.167 18.8403C30.2447 18.8403 45.6 34.5416 45.6 53.6972C45.6 55.4243 45.4449 56.9945 45.2898 58.7216Z" fill="white"/>
</mask>
<g mask="url(#mask13_674_1215)">
<path d="M4.96281 18.8403H45.6V58.7216H4.96281V18.8403Z" fill="url(#paint13_linear_674_1215)"/>
</g>
<mask id="mask14_674_1215" style="mask-type:luminance" maskUnits="userSpaceOnUse" x="22" y="41" width="24" height="19">
<path d="M38.6204 48.0459C30.8652 44.9057 25.9018 43.4926 22.0242 41.4514C22.3345 41.6084 33.657 45.6907 44.2041 43.9636C45.1347 47.1039 45.6 50.2441 45.6 53.5414C45.6 55.4255 45.4449 57.3097 45.1347 59.1939C45.2898 54.6405 43.2735 49.9301 38.6204 48.0459Z" fill="white"/>
</mask>
<g mask="url(#mask14_674_1215)">
<path d="M22.0242 41.4514H45.6V59.1939H22.0242V41.4514Z" fill="url(#paint14_linear_674_1215)"/>
</g>
<mask id="mask15_674_1215" style="mask-type:luminance" maskUnits="userSpaceOnUse" x="44" y="44" width="1" height="1">
<path d="M44.5149 44.7486C44.3598 44.5916 44.2047 44.2776 44.0496 44.1205H44.3598L44.5149 44.7486Z" fill="white"/>
</mask>
<g mask="url(#mask15_674_1215)">
<path d="M44.0496 44.1205H44.5149V44.7486H44.0496V44.1205Z" fill="url(#paint15_linear_674_1215)"/>
</g>
<mask id="mask16_674_1215" style="mask-type:luminance" maskUnits="userSpaceOnUse" x="27" y="22" width="18" height="23">
<path d="M44.0487 44.1197C42.963 42.8636 41.8773 41.6075 40.4814 40.3514C31.6404 32.9717 28.8486 28.2614 27.1424 22.7659C35.3629 27.1623 41.7222 34.8559 44.3589 44.1197H44.0487Z" fill="white"/>
</mask>
<g mask="url(#mask16_674_1215)">
<path d="M27.1424 22.7659H44.3589V44.1197H27.1424V22.7659Z" fill="url(#paint16_linear_674_1215)"/>
</g>
<mask id="mask17_674_1215" style="mask-type:luminance" maskUnits="userSpaceOnUse" x="28" y="60" width="16" height="25">
<path d="M43.8938 60.6065L43.7387 60.7636L43.5836 60.9206C39.0855 65.945 36.6039 71.7545 35.8284 78.035C33.5018 80.3902 30.865 82.4313 28.0732 84.0015C29.7793 76.1508 34.7426 68.3002 43.8938 60.6065Z" fill="white"/>
</mask>
<g mask="url(#mask17_674_1215)">
<path d="M27.9181 60.6065H43.8938V84.1585H27.9181V60.6065Z" fill="url(#paint17_linear_674_1215)"/>
</g>
<mask id="mask18_674_1215" style="mask-type:luminance" maskUnits="userSpaceOnUse" x="25" y="60" width="19" height="26">
<path d="M32.4161 81.175C33.1916 74.7375 36.4488 68.1429 43.8938 60.7633C33.6569 67.8289 27.6079 76.3076 25.7466 85.4144C28.2283 84.1583 30.3997 82.7452 32.4161 81.175Z" fill="white"/>
</mask>
<g mask="url(#mask18_674_1215)">
<path d="M25.7465 60.6064H43.8937V85.2575H25.7465V60.6064Z" fill="url(#paint18_linear_674_1215)"/>
</g>
<mask id="mask19_674_1215" style="mask-type:luminance" maskUnits="userSpaceOnUse" x="11" y="60" width="33" height="29">
<path d="M22.7996 86.5137C24.6609 77.0929 29.6242 70.1843 43.8938 60.6065C27.2977 65.1599 16.9057 77.2499 11.9424 88.5549C15.6649 88.5549 19.3874 87.7698 22.7996 86.5137Z" fill="white"/>
</mask>
<g mask="url(#mask19_674_1215)">
<path d="M11.9424 60.6065H43.8938V88.5549H11.9424V60.6065Z" fill="url(#paint19_linear_674_1215)"/>
</g>
<mask id="mask20_674_1215" style="mask-type:luminance" maskUnits="userSpaceOnUse" x="19" y="60" width="25" height="28">
<path d="M22.7996 86.5137C24.6609 77.0929 29.6242 70.1843 43.8938 60.6065C31.0201 66.73 22.7996 76.9359 19.0771 87.6128C20.318 87.2987 21.5588 86.9847 22.7996 86.5137Z" fill="white"/>
</mask>
<g mask="url(#mask20_674_1215)">
<path d="M19.0771 60.6065H43.8938V87.6128H19.0771V60.6065Z" fill="url(#paint20_linear_674_1215)"/>
</g>
<path d="M388.687 69.4523V63.7128H386.384V62.6427H392.281V63.7128H389.978V69.4523H388.687Z" fill="#4B5563"/>
<path d="M393.25 69.4523V62.6427H394.312L397.35 67.6137H396.794L399.782 62.6427H400.845L400.855 69.4523H399.634L399.624 64.5202H399.882L397.34 68.6741H396.764L394.183 64.5202H394.481V69.4523H393.25Z" fill="#4B5563"/>
<defs>
<linearGradient id="paint0_linear_674_1215" x1="19.9395" y1="89.2558" x2="42.6879" y2="88.6394" gradientUnits="userSpaceOnUse">
<stop stop-color="#E860F9"/>
<stop offset="0.56" stop-color="#0884D1"/>
<stop offset="1" stop-color="#0CBAB1"/>
</linearGradient>
<linearGradient id="paint1_linear_674_1215" x1="26.1578" y1="17.0871" x2="37.6096" y2="36.1627" gradientUnits="userSpaceOnUse">
<stop stop-color="#16BAEB"/>
<stop offset="1" stop-color="#0FC3E2"/>
</linearGradient>
<linearGradient id="paint2_linear_674_1215" x1="9.9271" y1="3.31785" x2="41.2631" y2="32.267" gradientUnits="userSpaceOnUse">
<stop stop-color="#B5D91E"/>
<stop offset="0.5" stop-color="#3BDAA9"/>
<stop offset="1" stop-color="#26A5FF"/>
</linearGradient>
<linearGradient id="paint3_linear_674_1215" x1="81.6566" y1="32.4265" x2="44.9381" y2="81.4924" gradientUnits="userSpaceOnUse">
<stop stop-color="#E860F9"/>
<stop offset="0.56" stop-color="#0884D1"/>
<stop offset="1" stop-color="#0CBAB1"/>
</linearGradient>
<linearGradient id="paint4_linear_674_1215" x1="61.2665" y1="73.2998" x2="95.4035" y2="32.2452" gradientUnits="userSpaceOnUse">
<stop stop-color="#E860F9"/>
<stop offset="0.56" stop-color="#0884D1"/>
<stop offset="1" stop-color="#0CBAB1"/>
</linearGradient>
<linearGradient id="paint5_linear_674_1215" x1="56.0858" y1="41.8853" x2="45.8255" y2="65.5718" gradientUnits="userSpaceOnUse">
<stop stop-color="#3512BE"/>
<stop offset="1" stop-color="#2A81EF"/>
</linearGradient>
<linearGradient id="paint6_linear_674_1215" x1="28.2572" y1="27.4909" x2="50.4513" y2="32.9442" gradientUnits="userSpaceOnUse">
<stop stop-color="#5086FF"/>
<stop offset="1" stop-color="#7C66FF"/>
</linearGradient>
<linearGradient id="paint7_linear_674_1215" x1="63.1852" y1="109.429" x2="47.1154" y2="101.32" gradientUnits="userSpaceOnUse">
<stop stop-color="#B5D91E"/>
<stop offset="0.5" stop-color="#3BDAA9"/>
<stop offset="1" stop-color="#26A5FF"/>
</linearGradient>
<linearGradient id="paint8_linear_674_1215" x1="26.3821" y1="90.233" x2="40.6286" y2="91.3363" gradientUnits="userSpaceOnUse">
<stop stop-color="#5086FF"/>
<stop offset="1" stop-color="#7C66FF"/>
</linearGradient>
<linearGradient id="paint9_linear_674_1215" x1="16.2825" y1="76.0331" x2="21.9704" y2="80.4546" gradientUnits="userSpaceOnUse">
<stop stop-color="#B5D91E"/>
<stop offset="0.5" stop-color="#3BDAA9"/>
<stop offset="1" stop-color="#26A5FF"/>
</linearGradient>
<linearGradient id="paint10_linear_674_1215" x1="12.9619" y1="71.6287" x2="25.7613" y2="77.2111" gradientUnits="userSpaceOnUse">
<stop stop-color="#BCDD35"/>
<stop offset="0.5" stop-color="#4FDEB2"/>
<stop offset="1" stop-color="#3CAEFF"/>
</linearGradient>
<linearGradient id="paint11_linear_674_1215" x1="19.5399" y1="74.5121" x2="42.2883" y2="73.8957" gradientUnits="userSpaceOnUse">
<stop stop-color="#F097FB"/>
<stop offset="0.56" stop-color="#5DAEE1"/>
<stop offset="1" stop-color="#60D2CC"/>
</linearGradient>
<linearGradient id="paint12_linear_674_1215" x1="26.052" y1="17.151" x2="37.5038" y2="36.2268" gradientUnits="userSpaceOnUse">
<stop stop-color="#66D2F2"/>
<stop offset="1" stop-color="#62D7EC"/>
</linearGradient>
<linearGradient id="paint13_linear_674_1215" x1="-0.353533" y1="14.4436" x2="30.9824" y2="43.3927" gradientUnits="userSpaceOnUse">
<stop stop-color="#CEE66B"/>
<stop offset="0.5" stop-color="#7FE7C7"/>
<stop offset="1" stop-color="#72C4FF"/>
</linearGradient>
<linearGradient id="paint14_linear_674_1215" x1="59.24" y1="15.6512" x2="22.5215" y2="64.7169" gradientUnits="userSpaceOnUse">
<stop stop-color="#F097FB"/>
<stop offset="0.56" stop-color="#5DAEE1"/>
<stop offset="1" stop-color="#60D2CC"/>
</linearGradient>
<linearGradient id="paint15_linear_674_1215" x1="46.9704" y1="37.9369" x2="36.71" y2="61.6232" gradientUnits="userSpaceOnUse">
<stop stop-color="#7A63D5"/>
<stop offset="1" stop-color="#73ACF4"/>
</linearGradient>
<linearGradient id="paint16_linear_674_1215" x1="27.3189" y1="31.3058" x2="49.513" y2="36.7592" gradientUnits="userSpaceOnUse">
<stop stop-color="#8DB0FF"/>
<stop offset="1" stop-color="#AA9AFF"/>
</linearGradient>
<linearGradient id="paint17_linear_674_1215" x1="72.3366" y1="91.2939" x2="56.2668" y2="83.1848" gradientUnits="userSpaceOnUse">
<stop stop-color="#CEE66B"/>
<stop offset="0.5" stop-color="#7FE7C7"/>
<stop offset="1" stop-color="#72C4FF"/>
</linearGradient>
<linearGradient id="paint18_linear_674_1215" x1="27.761" y1="72.4271" x2="42.0074" y2="73.5305" gradientUnits="userSpaceOnUse">
<stop stop-color="#8DB0FF"/>
<stop offset="1" stop-color="#AA9AFF"/>
</linearGradient>
<linearGradient id="paint19_linear_674_1215" x1="21.3896" y1="69.4633" x2="27.0776" y2="73.885" gradientUnits="userSpaceOnUse">
<stop stop-color="#CEE66B"/>
<stop offset="0.5" stop-color="#7FE7C7"/>
<stop offset="1" stop-color="#72C4FF"/>
</linearGradient>
<linearGradient id="paint20_linear_674_1215" x1="15.0471" y1="66.8476" x2="27.8465" y2="72.4301" gradientUnits="userSpaceOnUse">
<stop stop-color="#D3E97A"/>
<stop offset="0.5" stop-color="#8CE9CD"/>
<stop offset="1" stop-color="#80CAFF"/>
</linearGradient>
</defs>
</svg>
