<svg width="89" height="14" viewBox="0 0 89 14" fill="none" xmlns="http://www.w3.org/2000/svg">
<path d="M7.41168 0L9.0757 4.83688H14.4606L10.1041 7.82624L11.7682 12.6631L7.41168 9.67376L3.0552 12.6631L4.71923 7.82624L0.362753 4.83688H5.74765L7.41168 0Z" fill="#FFB81D"/>
<path d="M25.9412 0L27.6052 4.83688H32.9901L28.6337 7.82624L30.2977 12.6631L25.9412 9.67376L21.5847 12.6631L23.2488 7.82624L18.8923 4.83688H24.2772L25.9412 0Z" fill="#FFB81D"/>
<path d="M44.4706 0L46.1347 4.83688H51.5196L47.1631 7.82624L48.8271 12.6631L44.4706 9.67376L40.1142 12.6631L41.7782 7.82624L37.4217 4.83688H42.8066L44.4706 0Z" fill="#FFB81D"/>
<path d="M63.0001 0L64.6641 4.83688H70.049L65.6925 7.82624L67.3565 12.6631L63.0001 9.67376L58.6436 12.6631L60.3076 7.82624L55.9511 4.83688H61.336L63.0001 0Z" fill="#FFB81D"/>
<path d="M81.5295 0L83.1935 4.83688H88.5784L84.2219 7.82624L85.886 12.6631L81.5295 9.67376L77.173 12.6631L78.837 7.82624L74.4806 4.83688H79.8655L81.5295 0Z" fill="#FFB81D"/>
</svg>
