<svg width="44" height="44" viewBox="0 0 44 44" fill="none" xmlns="http://www.w3.org/2000/svg">
<path d="M0 18.4945C0 14.7677 3.56653 11.7466 7.96606 11.7466H36.034C40.4335 11.7466 44 14.7677 44 18.4945V28.2419C44 31.9687 40.4335 34.9898 36.034 34.9898H7.96606C3.56652 34.9898 0 31.9687 0 28.2419V18.4945Z" fill="#F3F4F6"/>
<g clip-path="url(#clip0_1349_5032)">
<path d="M17.1839 14.9022C14.9702 16.333 13.6137 18.7711 13.5645 21.4062C13.5645 21.7708 13.8599 22.0662 14.2241 22.0662C14.5887 22.0662 14.8841 21.7708 14.8841 21.4062C14.9294 19.2329 16.0446 17.2219 17.8641 16.0328C18.1704 15.8422 18.2667 15.441 18.081 15.132C17.8949 14.8234 17.4953 14.7207 17.1839 14.9022Z" fill="#0400F5"/>
<path d="M37.3173 18.767C35.7503 18.7691 34.4001 19.8716 34.0848 21.4063H26.0334C25.8808 20.6838 25.4894 20.0338 24.9221 19.5608L27.1516 15.468H29.4658C29.8047 17.1275 31.3449 18.2607 33.03 18.0904C34.7151 17.9203 35.9976 16.5016 35.9976 14.808C35.9976 13.1145 34.7151 11.6957 33.03 11.5257C31.3449 11.3553 29.8047 12.4889 29.4658 14.1484H27.4198V9.8025L29.6724 7.54983H32.7651C33.1037 9.20928 34.6442 10.3429 36.3293 10.1725C38.0144 10.0025 39.2969 8.58374 39.2969 6.89015C39.2969 5.19627 38.0144 3.77785 36.3293 3.6075C34.6442 3.43745 33.1037 4.57073 32.7651 6.23018H29.6724C29.3227 6.23109 28.9874 6.37003 28.7394 6.6168L28.1737 7.18284C27.71 7.01128 27.2382 6.86297 26.7598 6.73883V3.59089C26.7589 2.86235 26.1687 2.27215 25.4402 2.27124H20.1616C19.433 2.27215 18.8428 2.86235 18.8419 3.59089V6.73822C17.4075 7.104 16.0323 7.67216 14.7579 8.42486L12.5445 6.21115C12.2978 5.95683 11.958 5.81366 11.6033 5.81456H11.6021C11.2509 5.81305 10.9138 5.95411 10.6685 6.20571L6.94607 9.92755C6.69326 10.174 6.55039 10.5117 6.54918 10.8645C6.54828 11.2176 6.68903 11.5562 6.94033 11.8042L9.15887 14.023C8.40617 15.2977 7.83832 16.6729 7.47194 18.1073H4.32551C3.59697 18.1082 3.00677 18.6984 3.00586 19.4269V24.7055C3.00677 25.4341 3.59697 26.0243 4.32551 26.0252H7.47194C7.83832 27.4596 8.40617 28.8348 9.15887 30.1095L6.94607 32.3223C6.69326 32.5687 6.55039 32.9064 6.54918 33.2592C6.54828 33.6123 6.68903 33.9509 6.94033 34.1986L10.6628 37.9207C10.9089 38.1754 11.2481 38.3188 11.6024 38.3179H11.6036C11.9555 38.3194 12.2926 38.1784 12.5388 37.9268L14.7579 35.7079C16.0323 36.4606 17.4075 37.0288 18.8419 37.3946V40.5416C18.8428 41.2701 19.433 41.8603 20.1616 41.8612H25.4402C26.1687 41.8603 26.7589 41.2701 26.7598 40.5416V37.3937C27.2382 37.2695 27.71 37.1212 28.1737 36.9496L28.7394 37.5157C28.9874 37.7625 29.3227 37.9014 29.6724 37.9023H32.7651C33.1037 39.5618 34.6442 40.695 36.3293 40.525C38.0144 40.3546 39.2969 38.9362 39.2969 37.2423C39.2969 35.5487 38.0144 34.13 36.3293 33.96C34.6442 33.7896 33.1037 34.9232 32.7651 36.5827H29.6724L27.4198 34.33V29.9841H29.4658C29.8047 31.6436 31.3449 32.7772 33.03 32.6068C34.7151 32.4367 35.9976 31.018 35.9976 29.3244C35.9976 27.6309 34.7151 26.2121 33.03 26.0421C31.3449 25.8717 29.8047 27.005 29.4658 28.6645H27.1516L24.9221 24.5717C25.4894 24.0987 25.8808 23.4487 26.0334 22.7262H34.0848C34.4321 24.427 36.0381 25.5682 37.7589 25.3356C39.4793 25.1033 40.7256 23.5771 40.609 21.8448C40.4924 20.1126 39.0534 18.767 37.3173 18.767ZM35.9976 4.91053C37.0907 4.91053 37.9769 5.79674 37.9769 6.89015C37.9769 7.98326 37.0907 8.86947 35.9976 8.86947C34.9042 8.86947 34.018 7.98326 34.018 6.89015C34.0192 5.79735 34.9048 4.91174 35.9976 4.91053ZM35.9976 35.263C37.0907 35.263 37.9769 36.1492 37.9769 37.2423C37.9769 38.3357 37.0907 39.2219 35.9976 39.2219C34.9042 39.2219 34.018 38.3357 34.018 37.2423C34.0192 36.1495 34.9048 35.2642 35.9976 35.263ZM22.8009 24.0459C21.7078 24.0459 20.8212 23.1594 20.8212 22.0662C20.8212 20.9731 21.7078 20.0866 22.8009 20.0866C23.894 20.0866 24.7805 20.9731 24.7805 22.0662C24.7793 23.159 23.8937 24.0447 22.8009 24.0459ZM32.6984 12.8287C33.7915 12.8287 34.678 13.7149 34.678 14.808C34.678 15.9014 33.7915 16.7877 32.6984 16.7877C31.6053 16.7877 30.7187 15.9014 30.7187 14.808C30.7199 13.7152 31.6056 12.8299 32.6984 12.8287ZM25.957 36.229C25.6549 36.2957 25.4402 36.5636 25.4402 36.8729V40.5416H20.1616V36.8729C20.1616 36.5627 19.9456 36.2945 19.643 36.2284C17.9989 35.868 16.4316 35.221 15.0123 34.3167C14.7513 34.1518 14.4109 34.1892 14.1922 34.4073L11.6018 36.9937L7.87366 33.2616L10.4601 30.6752C10.6788 30.4565 10.7162 30.1155 10.5504 29.8548C9.64638 28.4355 8.99909 26.8679 8.63845 25.2245C8.5723 24.9215 8.30408 24.7058 7.99418 24.7055H4.32551V19.4269H7.99418C8.30408 19.4269 8.5723 19.211 8.63845 18.9083C8.99909 17.2646 9.64638 15.697 10.5504 14.2776C10.7162 14.017 10.6788 13.676 10.4601 13.4576L7.87366 10.8669L11.6058 7.13874L14.1922 9.72517C14.4109 9.94386 14.7519 9.98161 15.0126 9.81579C16.4319 8.91146 17.9992 8.26447 19.643 7.90443C19.9459 7.83798 20.1616 7.56946 20.1616 7.25956V3.59089H25.4402V7.25956C25.4402 7.56886 25.6549 7.83677 25.957 7.90352C26.365 7.99444 26.7574 8.10167 27.1368 8.21947L26.4867 8.86947C26.2382 9.11655 26.0992 9.45243 26.1001 9.8025V10.6576C21.248 9.25307 16.0386 11.0708 13.1139 15.1892C10.1889 19.3073 10.1889 24.8251 13.1139 28.9433C16.0386 33.0617 21.248 34.8794 26.1001 33.4749V34.33C26.0992 34.6801 26.2385 35.0159 26.4867 35.263L27.1368 35.9127C26.7574 36.0311 26.365 36.138 25.957 36.229ZM32.6984 27.3448C33.7915 27.3448 34.678 28.231 34.678 29.3244C34.678 30.4176 33.7915 31.3038 32.6984 31.3038C31.6053 31.3038 30.7187 30.4176 30.7187 29.3244C30.7199 28.2316 31.6056 27.346 32.6984 27.3448ZM26.1001 29.4924V32.087C21.744 33.5314 16.9535 31.9964 14.2487 28.2887C11.5435 24.5814 11.5435 19.5511 14.2487 15.8438C16.9535 12.1361 21.744 10.6011 26.1001 12.0455V14.6401L23.7647 18.9274C23.4533 18.8259 23.1283 18.7718 22.8009 18.767C20.9789 18.767 19.5016 20.2443 19.5016 22.0662C19.5016 23.8882 20.9789 25.3655 22.8009 25.3655C23.1283 25.3607 23.4533 25.3066 23.7647 25.2051L26.1001 29.4924ZM37.3173 24.0459C36.2239 24.0459 35.3377 23.1594 35.3377 22.0662C35.3377 20.9731 36.2239 20.0866 37.3173 20.0866C38.4104 20.0866 39.2966 20.9731 39.2966 22.0662C39.2954 23.159 38.4101 24.0447 37.3173 24.0459Z" fill="#0400F5"/>
</g>
<defs>
<clipPath id="clip0_1349_5032">
<rect width="39.59" height="39.59" fill="white" transform="translate(2.00195 2.27124)"/>
</clipPath>
</defs>
</svg>
