<svg width="44" height="44" viewBox="0 0 44 44" fill="none" xmlns="http://www.w3.org/2000/svg">
<path d="M0 18.4945C0 14.7677 3.56653 11.7466 7.96606 11.7466H36.034C40.4335 11.7466 44 14.7677 44 18.4945V28.2419C44 31.9687 40.4335 34.9898 36.034 34.9898H7.96606C3.56652 34.9898 0 31.9687 0 28.2419V18.4945Z" fill="#F3F4F6"/>
<g clip-path="url(#clip0_1349_5092)">
<path d="M27.5237 14.8616C23.6735 9.19723 18.5311 6.18665 15.8381 8.03128C15.5416 8.24011 15.2839 8.49926 15.0768 8.79698C15.0768 8.81873 8.84246 21.4353 8.84246 21.4353L5.36202 23.7933C4.82773 24.156 4.37012 24.6204 4.01535 25.16C3.66058 25.6996 3.4156 26.3038 3.2944 26.9381C3.17319 27.5724 3.17815 28.2244 3.30897 28.8568C3.4398 29.4891 3.69393 30.0895 4.05686 30.6237L4.21348 30.8543C4.94707 31.9229 6.07239 32.6592 7.34535 32.9036C8.61831 33.1479 9.93628 32.8805 11.0134 32.1594L16.6038 40.395C17.4261 41.4087 19.0053 42.418 20.9544 41.2303C21.2997 41.0064 21.5942 40.7127 21.819 40.368C22.0438 40.0233 22.1939 39.6353 22.2596 39.2291C22.3383 38.825 22.3362 38.4093 22.2533 38.0061C22.1704 37.6028 22.0084 37.22 21.7766 36.8798L16.8518 29.6144C16.8518 29.6144 28.4939 28.6877 28.5374 28.6703C28.9009 28.5942 29.2455 28.4463 29.5511 28.2352C30.9346 27.2955 31.4305 25.3247 30.952 22.6839C30.5213 20.252 29.2987 17.4981 27.5237 14.8616ZM5.47949 29.9972L5.32287 29.7666C5.07247 29.398 4.89723 28.9836 4.80718 28.5471C4.71714 28.1107 4.71405 27.6608 4.79811 27.2231C4.88216 26.7855 5.0517 26.3687 5.29702 25.9967C5.54235 25.6246 5.85863 25.3046 6.22778 25.055L9.23401 23.0102L13.2017 28.853L10.1955 30.8978C9.82676 31.1485 9.41224 31.3241 8.97562 31.4145C8.539 31.505 8.08883 31.5085 7.65085 31.4248C7.21288 31.3412 6.79568 31.1721 6.4231 30.9271C6.05053 30.6821 5.72988 30.3662 5.47949 29.9972ZM20.5237 37.7368C20.7615 38.0906 20.8492 38.5243 20.7676 38.9427C20.6861 39.3611 20.4419 39.7301 20.0886 39.9687C19.7342 40.2067 19.2998 40.2945 18.8807 40.213C18.4616 40.1314 18.0918 39.8872 17.8525 39.5336L12.2794 31.3241L14.5199 29.8014L15.1116 29.7536L20.5237 37.7368ZM14.6417 28.2613L10.3173 21.8921L14.4416 13.4825C14.8419 15.8449 16.0122 18.651 17.8829 21.4049C19.7536 24.1588 21.9289 26.2818 23.9737 27.5261L14.6417 28.2613ZM27.4759 27.2477C25.3963 27.1128 22.0116 24.7678 19.1446 20.5435C16.2776 16.3191 15.3465 12.3209 15.9861 10.3327C16.1016 9.95953 16.332 9.63237 16.6446 9.39798C16.9571 9.16358 17.3357 9.03394 17.7263 9.02756C19.7884 9.02756 23.2993 11.3856 26.249 15.7318C27.9109 18.1768 29.1204 20.7349 29.451 22.9711C30.0992 27.2477 27.4759 27.2477 27.4759 27.2477Z" fill="#0400F5"/>
<path d="M22.0872 15.0226C21.5543 14.918 21.0059 14.9206 20.474 15.0304C19.9421 15.1402 19.4375 15.355 18.9896 15.6621C18.9071 15.7193 18.8366 15.7921 18.7822 15.8765C18.7277 15.9609 18.6905 16.0551 18.6725 16.1539C18.6545 16.2527 18.6562 16.354 18.6774 16.4522C18.6986 16.5503 18.7389 16.6433 18.796 16.7258C18.8531 16.8084 18.926 16.8789 19.0104 16.9333C19.0947 16.9877 19.189 17.025 19.2878 17.0429C19.3865 17.0609 19.4879 17.0593 19.586 17.0381C19.6842 17.0169 19.7772 16.9766 19.8597 16.9194C20.1434 16.7269 20.4622 16.5921 20.7979 16.5228C21.1337 16.4535 21.4798 16.451 21.8165 16.5154C22.1533 16.5798 22.474 16.71 22.7604 16.8983C23.0468 17.0867 23.2934 17.3297 23.4859 17.6134C23.6784 17.897 23.8132 18.2158 23.8825 18.5516C23.9519 18.8873 23.9544 19.2334 23.89 19.5702C23.8255 19.9069 23.6954 20.2276 23.507 20.5141C23.3186 20.8005 23.0757 21.047 22.792 21.2395C22.6582 21.3319 22.5576 21.4647 22.5047 21.6184C22.4518 21.7721 22.4495 21.9387 22.4981 22.0938C22.5468 22.2489 22.6437 22.3843 22.7749 22.4804C22.9061 22.5764 23.0645 22.6279 23.227 22.6274C23.3821 22.6303 23.5342 22.5846 23.6621 22.4969C24.3388 22.0385 24.8642 21.3895 25.1718 20.6323C25.4793 19.8751 25.5552 19.0436 25.3898 18.2432C25.2244 17.4427 24.8252 16.7094 24.2427 16.1361C23.6602 15.5628 22.9206 15.1753 22.1177 15.0226H22.0872Z" fill="#0400F5"/>
<path d="M28.4639 9.56695H28.5379C28.7262 9.56687 28.9078 9.49701 29.0476 9.37086C29.1874 9.24471 29.2755 9.07122 29.2949 8.88391L29.8822 3.17599C29.8956 3.07506 29.8886 2.97247 29.8616 2.8743C29.8346 2.77613 29.7882 2.68436 29.7252 2.60444C29.6621 2.52451 29.5836 2.45804 29.4944 2.40897C29.4052 2.3599 29.3071 2.32922 29.2058 2.31874C29.1045 2.30826 29.0022 2.3182 28.9048 2.34798C28.8075 2.37775 28.7171 2.42675 28.639 2.49207C28.5609 2.5574 28.4967 2.63772 28.4502 2.72829C28.4037 2.81886 28.3758 2.91784 28.3682 3.01937L27.7853 8.73164C27.7646 8.93239 27.8244 9.13314 27.9517 9.28977C28.079 9.44641 28.2632 9.5461 28.4639 9.56695Z" fill="#0400F5"/>
<path d="M38.3058 8.39247C38.1941 8.22396 38.0202 8.10652 37.8221 8.06576C37.624 8.02501 37.4179 8.06426 37.2487 8.17494L31.9453 11.6554C31.8076 11.7463 31.7032 11.8795 31.6478 12.035C31.5923 12.1904 31.5889 12.3596 31.638 12.5172C31.6871 12.6747 31.786 12.8121 31.9199 12.9085C32.0538 13.005 32.2154 13.0553 32.3804 13.0519C32.5343 13.0554 32.6858 13.013 32.8155 12.9301L38.1188 9.44965C38.2833 9.3339 38.3953 9.15774 38.4304 8.95965C38.4654 8.76156 38.4207 8.55765 38.3058 8.39247Z" fill="#0400F5"/>
<path d="M39.9278 17.6851L33.7587 16.5757C33.5597 16.54 33.3546 16.5847 33.1885 16.7002C33.0225 16.8156 32.9091 16.9923 32.8734 17.1913C32.8376 17.3904 32.8823 17.5955 32.9978 17.7615C33.1132 17.9275 33.2899 18.0409 33.489 18.0767L39.6537 19.1861H39.7886C39.9825 19.1917 40.1714 19.1231 40.3165 18.9942C40.4615 18.8653 40.5519 18.6859 40.5691 18.4926C40.5864 18.2993 40.5291 18.1067 40.4091 17.9542C40.2891 17.8017 40.1154 17.7008 39.9234 17.6721L39.9278 17.6851Z" fill="#0400F5"/>
</g>
<defs>
<clipPath id="clip0_1349_5092">
<rect width="39.59" height="39.59" fill="white" transform="translate(2 2.27124)"/>
</clipPath>
</defs>
</svg>
