<svg width="44" height="44" viewBox="0 0 44 44" fill="none" xmlns="http://www.w3.org/2000/svg">
<path d="M0 18.4945C0 14.7677 3.56653 11.7466 7.96606 11.7466H36.034C40.4335 11.7466 44 14.7677 44 18.4945V28.2419C44 31.9687 40.4335 34.9898 36.034 34.9898H7.96606C3.56652 34.9898 0 31.9687 0 28.2419V18.4945Z" fill="#F3F4F6"/>
<path d="M40.0721 18.8655C40.0468 18.7224 39.972 18.5928 39.8607 18.4994C39.7494 18.4059 39.6087 18.3547 39.4634 18.3546H30.8687L31.2355 15.7323C31.839 15.4902 32.386 15.1259 32.8421 14.6623C33.2981 14.1987 33.6534 13.6458 33.8855 13.0384C34.7188 10.9636 33.4606 6.33651 33.314 5.81504C33.2883 5.72385 33.242 5.63979 33.1787 5.56932C33.1154 5.49885 33.0367 5.44386 32.9488 5.4086C32.8609 5.37333 32.7661 5.35873 32.6716 5.36592C32.5771 5.37311 32.4856 5.4019 32.404 5.45007C31.9382 5.72534 27.8301 8.19848 26.9969 10.2751C26.7459 10.8716 26.6201 11.5133 26.6275 12.1604C26.6348 12.8075 26.7751 13.4461 27.0396 14.0368L25.5092 16.1387V4.12689C25.5092 3.96283 25.444 3.80549 25.328 3.68948C25.212 3.57347 25.0546 3.5083 24.8906 3.5083H18.7046C18.5406 3.5083 18.3832 3.57347 18.2672 3.68948C18.1512 3.80549 18.086 3.96283 18.086 4.12689V17.3933L15.5244 10.3549C15.5019 10.2923 15.4693 10.2338 15.4279 10.1817L11.7782 5.58554C11.6975 5.48382 11.5869 5.41008 11.4619 5.37476C11.337 5.33944 11.2041 5.34433 11.0821 5.38874C10.9601 5.43315 10.8551 5.51483 10.7821 5.62221C10.7091 5.72958 10.6717 5.85721 10.6753 5.98701L10.8361 11.8513C10.8381 11.9178 10.8509 11.9836 10.8739 12.0461L13.1701 18.3546H4.13676C3.99199 18.3547 3.85186 18.4056 3.74075 18.4984C3.62964 18.5912 3.55459 18.72 3.52868 18.8624C3.14669 20.9959 3.14669 23.1803 3.52868 25.3137C3.55435 25.4565 3.62938 25.5857 3.74064 25.6787C3.8519 25.7718 3.99233 25.8228 4.13738 25.8228H7.38066C7.72995 27.1672 8.26525 28.4562 8.97107 29.6525L6.68227 31.9413C6.57961 32.044 6.51635 32.1796 6.50357 32.3242C6.49079 32.4689 6.5293 32.6134 6.61237 32.7325C7.84652 34.4974 9.38305 36.0302 11.151 37.26C11.2698 37.3432 11.4141 37.3819 11.5586 37.3694C11.7031 37.357 11.8387 37.2942 11.9416 37.192L14.239 34.9032C15.4398 35.6083 16.7329 36.1427 18.0811 36.4911V39.7245C18.0811 39.8695 18.1321 40.01 18.2252 40.1212C18.3182 40.2325 18.4474 40.3075 18.5902 40.3332C19.6462 40.5258 20.7174 40.6231 21.7908 40.6239C22.8704 40.6237 23.9479 40.5276 25.0106 40.3369C25.1537 40.3115 25.2832 40.2365 25.3766 40.125C25.4699 40.0136 25.521 39.8729 25.5209 39.7276V36.4942C26.8683 36.1444 28.1608 35.61 29.3618 34.9063L31.6506 37.1951C31.7531 37.2973 31.8882 37.3604 32.0325 37.3733C32.1767 37.3862 32.3209 37.3481 32.4399 37.2656C34.2102 36.0377 35.7476 34.5042 36.9798 32.7369C37.0631 32.6178 37.1018 32.4731 37.0891 32.3284C37.0764 32.1836 37.0132 32.0479 36.9105 31.9451L34.6217 29.6563C35.3314 28.4614 35.8671 27.1714 36.2127 25.8253H39.4616C39.6066 25.8253 39.747 25.7743 39.8583 25.6812C39.9696 25.5882 40.0446 25.459 40.0703 25.3162C40.446 23.1824 40.4467 20.9995 40.0721 18.8655ZM28.145 10.7341C28.6256 9.53712 30.9138 7.86815 32.3285 6.95325C32.7183 8.59252 33.2181 11.3805 32.7381 12.5775C32.0867 14.1976 30.526 15.1026 29.2622 14.5935C27.9984 14.0844 27.4949 12.3542 28.145 10.7341ZM30.4579 22.0661C30.4557 23.7047 29.9886 25.309 29.111 26.6927C28.2334 28.0764 26.9812 29.1828 25.4999 29.8833L30.2451 20.1912C30.3847 20.8064 30.4561 21.4352 30.4579 22.0661ZM27.798 15.0939C28.3767 15.6515 29.1483 15.9641 29.9519 15.9668L29.655 18.0886L26.536 16.8285L27.798 15.0939ZM25.9539 17.9283L29.3117 19.2824L23.8328 30.4747C23.1733 30.6365 22.497 30.7195 21.818 30.7221L25.9539 17.9283ZM19.3232 19.5917H21.179V18.3546H19.3232V15.8802H21.179V14.643H19.3232V12.1686H21.179V10.9314H19.3232V8.45705H21.179V7.21986H19.3232V4.74549H24.272V19.1129L21.6566 27.2042L19.3232 20.793V19.5917ZM11.962 7.80815L13.9235 10.2782L12.0486 10.9586L11.962 7.80815ZM14.5724 11.3589L21.0374 29.1181L20.5499 30.625C19.9488 30.5378 19.3586 30.3871 18.7894 30.1753L12.2478 12.2045L14.5724 11.3589ZM13.5586 19.4222L17.1841 29.3816C15.9465 28.6034 14.9263 27.5243 14.2186 26.245C13.5109 24.9658 13.1389 23.5281 13.1373 22.0661C13.1382 21.1682 13.2803 20.276 13.5586 19.4222ZM38.937 24.5856H35.7271C35.5863 24.5855 35.4496 24.6335 35.3397 24.7215C35.2298 24.8096 35.1533 24.9325 35.1227 25.07C34.782 26.6122 34.1716 28.0821 33.3195 29.4119C33.2435 29.5307 33.2104 29.6718 33.2256 29.812C33.2408 29.9522 33.3034 30.083 33.403 30.1827L35.6659 32.4449C34.6743 33.7783 33.4914 34.9581 32.1553 35.9461L29.8913 33.6876C29.7921 33.5887 29.6622 33.5264 29.523 33.5109C29.3838 33.4954 29.2434 33.5276 29.1249 33.6023C27.7859 34.4477 26.3119 35.0572 24.7669 35.4042C24.6299 35.4351 24.5076 35.5116 24.4199 35.6212C24.3322 35.7308 24.2844 35.867 24.2844 36.0074V39.2012C22.6377 39.4471 20.9637 39.4471 19.317 39.2012V36.0074C19.317 35.867 19.2692 35.7308 19.1815 35.6212C19.0938 35.5116 18.9715 35.4351 18.8345 35.4042C17.2891 35.0589 15.8148 34.4495 14.4766 33.6029C14.3581 33.5279 14.2177 33.4954 14.0783 33.5107C13.9389 33.526 13.8089 33.5881 13.7095 33.687L11.4405 35.9455C10.1051 34.9564 8.92174 33.777 7.92812 32.4449L10.1909 30.1827C10.2905 30.0832 10.3532 29.9527 10.3686 29.8128C10.384 29.6729 10.3512 29.5319 10.2757 29.4132C9.42797 28.0797 8.81728 26.6097 8.47062 25.0681C8.43972 24.9311 8.36311 24.8087 8.25338 24.721C8.14365 24.6333 8.00734 24.5856 7.86688 24.5856H4.66256C4.41821 22.93 4.41821 21.2474 4.66256 19.5917H12.2156C12.0055 20.3997 11.8995 21.2313 11.9001 22.0661C11.9001 24.6911 12.9429 27.2086 14.799 29.0647C16.6552 30.9208 19.1726 31.9636 21.7976 31.9636C24.4226 31.9636 26.9401 30.9208 28.7962 29.0647C30.6523 27.2086 31.6951 24.6911 31.6951 22.0661C31.6961 21.2313 31.5905 20.3998 31.3809 19.5917H38.9364C39.1766 21.2477 39.1768 22.9296 38.937 24.5856Z" fill="#0400F5"/>
</svg>
