<svg width="44" height="44" viewBox="0 0 44 44" fill="none" xmlns="http://www.w3.org/2000/svg">
<path d="M0 18.4945C0 14.7677 3.56653 11.7466 7.96606 11.7466H36.034C40.4335 11.7466 44 14.7677 44 18.4945V28.2419C44 31.9687 40.4335 34.9898 36.034 34.9898H7.96606C3.56652 34.9898 0 31.9687 0 28.2419V18.4945Z" fill="#F3F4F6"/>
<g clip-path="url(#clip0_1349_5144)">
<path d="M38.2029 6.29492H10.0751C9.32266 6.29492 8.68602 6.90262 8.68602 7.68395V10.9829H5.38708C4.60575 10.9829 3.99805 11.5906 3.99805 12.3719V36.4485C3.99805 37.2008 4.60575 37.8375 5.38708 37.8375H33.5149C34.2673 37.8375 34.904 37.2298 34.904 36.4485V33.1495H38.2029C38.9553 33.1495 39.5919 32.5418 39.5919 31.7605V7.68395C39.5919 6.90262 38.9842 6.29492 38.2029 6.29492ZM10.0751 7.45245H38.2029C38.3187 7.45245 38.4344 7.53926 38.4344 7.68395V11.6774H9.84355V7.68395C9.84355 7.53926 9.9593 7.45245 10.0751 7.45245ZM5.38708 12.1404H8.68602V16.3654H5.15557V12.3719C5.15557 12.2562 5.24239 12.1404 5.38708 12.1404ZM33.7464 36.4485C33.7464 36.5642 33.6596 36.68 33.5149 36.68H5.38708C5.27132 36.68 5.15557 36.5931 5.15557 36.4485V17.5229H8.68602V31.7605C8.68602 32.5129 9.29373 33.1495 10.0751 33.1495H33.7464V36.4485ZM38.2029 31.992H10.0751C9.9593 31.992 9.84355 31.9052 9.84355 31.7605V12.8349H38.4344V31.7605C38.4344 31.8762 38.3476 31.992 38.2029 31.992Z" fill="#0400F5"/>
<path d="M14.7339 10.0279H12.5924C12.2741 10.0279 12.0137 9.76744 12.0137 9.44912C12.0137 9.1308 12.2741 8.87036 12.5924 8.87036H14.7339C15.0522 8.87036 15.3126 9.1308 15.3126 9.44912C15.3126 9.76744 15.0522 10.0279 14.7339 10.0279Z" fill="#0400F5"/>
<path d="M19.6245 10.0279H17.4831C17.1647 10.0279 16.9043 9.76744 16.9043 9.44912C16.9043 9.1308 17.1647 8.87036 17.4831 8.87036H19.6245C19.9428 8.87036 20.2032 9.1308 20.2032 9.44912C20.2032 9.76744 19.9428 10.0279 19.6245 10.0279Z" fill="#0400F5"/>
<path d="M15.2559 22.4714L20.7541 25.3073V24.2077L16.5291 22.0952L20.7541 19.9827V18.8831L15.2559 21.6901V22.4714Z" fill="#0400F5"/>
<path d="M21.9688 25.6545H23.0105L26.2516 17.2625H25.1809L21.9688 25.6545Z" fill="#0400F5"/>
<path d="M27.4395 18.8831V19.9827L31.6934 22.0952L27.4395 24.2077V25.3073L32.9377 22.4714V21.6901L27.4395 18.8831Z" fill="#0400F5"/>
</g>
<defs>
<clipPath id="clip0_1349_5144">
<rect width="35.5939" height="35.5939" fill="white" transform="translate(3.99805 4.26929)"/>
</clipPath>
</defs>
</svg>
