<svg width="29" height="29" viewBox="0 0 29 29" fill="none" xmlns="http://www.w3.org/2000/svg">
<g clip-path="url(#clip0_913_6378)">
<path d="M14.5625 0C6.76154 0 0.4375 6.32404 0.4375 14.125C0.4375 20.7491 4.99818 26.3075 11.1505 27.8342V18.4416H8.23789V14.125H11.1505V12.265C11.1505 7.45744 13.3263 5.22907 18.0463 5.22907C18.9413 5.22907 20.4854 5.40479 21.1171 5.57994V9.49256C20.7837 9.45753 20.2046 9.44002 19.4853 9.44002C17.1694 9.44002 16.2745 10.3175 16.2745 12.5984V14.125H20.8882L20.0955 18.4416H16.2745V28.1466C23.2686 27.3019 28.6881 21.3468 28.6881 14.125C28.6875 6.32404 22.3635 0 14.5625 0Z" fill="#016BE3"/>
</g>
<defs>
<clipPath id="clip0_913_6378">
<rect width="28.25" height="28.25" fill="white" transform="translate(0.4375)"/>
</clipPath>
</defs>
</svg>
