<svg width="29" height="29" viewBox="0 0 29 29" fill="none" xmlns="http://www.w3.org/2000/svg">
<g clip-path="url(#clip0_913_6382)">
<path d="M28.7186 8.47515C28.7186 8.47515 28.4427 6.52744 27.593 5.67222C26.5171 4.54663 25.3143 4.54111 24.7625 4.4749C20.8119 4.18799 14.8805 4.18799 14.8805 4.18799H14.8695C14.8695 4.18799 8.93809 4.18799 4.9875 4.4749C4.43574 4.54111 3.23291 4.54663 2.15698 5.67222C1.30728 6.52744 1.03691 8.47515 1.03691 8.47515C1.03691 8.47515 0.75 10.7649 0.75 13.0492V15.19C0.75 17.4743 1.0314 19.7641 1.0314 19.7641C1.0314 19.7641 1.30728 21.7118 2.15146 22.567C3.22739 23.6926 4.63989 23.654 5.2689 23.7754C7.5311 23.9906 14.875 24.0568 14.875 24.0568C14.875 24.0568 20.8119 24.0458 24.7625 23.7644C25.3143 23.6981 26.5171 23.6926 27.593 22.567C28.4427 21.7118 28.7186 19.7641 28.7186 19.7641C28.7186 19.7641 29 17.4798 29 15.19V13.0492C29 10.7649 28.7186 8.47515 28.7186 8.47515ZM11.9562 17.7888V9.84902L19.587 13.8327L11.9562 17.7888Z" fill="#016BE3"/>
</g>
<defs>
<clipPath id="clip0_913_6382">
<rect width="28.25" height="28.25" fill="white" transform="translate(0.75)"/>
</clipPath>
</defs>
</svg>
