<svg width="29" height="29" viewBox="0 0 29 29" fill="none" xmlns="http://www.w3.org/2000/svg">
<g clip-path="url(#clip0_913_6381)">
<path d="M26.1588 0H2.08564C0.932471 0 0 0.910401 0 2.03599V26.2085C0 27.3341 0.932471 28.25 2.08564 28.25H26.1588C27.312 28.25 28.25 27.3341 28.25 26.214V2.03599C28.25 0.910401 27.312 0 26.1588 0ZM8.3812 24.0732H4.18784V10.5882H8.3812V24.0732ZM6.28452 8.75088C4.93823 8.75088 3.85127 7.66392 3.85127 6.32314C3.85127 4.98237 4.93823 3.89541 6.28452 3.89541C7.62529 3.89541 8.71226 4.98237 8.71226 6.32314C8.71226 7.6584 7.62529 8.75088 6.28452 8.75088ZM24.0732 24.0732H19.8854V17.5183C19.8854 15.9568 19.8578 13.9429 17.7059 13.9429C15.5265 13.9429 15.1954 15.6479 15.1954 17.408V24.0732H11.0131V10.5882H15.0299V12.4311H15.0851C15.6423 11.3717 17.0107 10.2517 19.0467 10.2517C23.2897 10.2517 24.0732 13.0436 24.0732 16.6741V24.0732Z" fill="#016BE3"/>
</g>
<defs>
<clipPath id="clip0_913_6381">
<rect width="28.25" height="28.25" fill="white"/>
</clipPath>
</defs>
</svg>
