<svg width="29" height="29" viewBox="0 0 29 29" fill="none" xmlns="http://www.w3.org/2000/svg">
<g clip-path="url(#clip0_913_6380)">
<path d="M14.4375 2.5436C18.2115 2.5436 18.6584 2.56016 20.1427 2.62637C21.5221 2.68706 22.2669 2.9188 22.7635 3.11191C23.4201 3.36572 23.8946 3.67471 24.3857 4.16577C24.8823 4.66235 25.1857 5.13135 25.4396 5.78794C25.6327 6.28452 25.8644 7.03491 25.9251 8.40879C25.9913 9.89853 26.0079 10.3455 26.0079 14.114C26.0079 17.888 25.9913 18.3349 25.9251 19.8191C25.8644 21.1985 25.6327 21.9434 25.4396 22.44C25.1857 23.0966 24.8768 23.5711 24.3857 24.0622C23.8891 24.5587 23.4201 24.8622 22.7635 25.116C22.2669 25.3091 21.5166 25.5409 20.1427 25.6016C18.6529 25.6678 18.206 25.6843 14.4375 25.6843C10.6635 25.6843 10.2166 25.6678 8.73233 25.6016C7.35293 25.5409 6.60806 25.3091 6.11147 25.116C5.45488 24.8622 4.98037 24.5532 4.48931 24.0622C3.99272 23.5656 3.68926 23.0966 3.43545 22.44C3.24233 21.9434 3.0106 21.193 2.9499 19.8191C2.88369 18.3294 2.86714 17.8825 2.86714 14.114C2.86714 10.3399 2.88369 9.89302 2.9499 8.40879C3.0106 7.02939 3.24233 6.28452 3.43545 5.78794C3.68926 5.13135 3.99824 4.65684 4.48931 4.16577C4.98589 3.66919 5.45488 3.36572 6.11147 3.11191C6.60806 2.9188 7.35845 2.68706 8.73233 2.62637C10.2166 2.56016 10.6635 2.5436 14.4375 2.5436ZM14.4375 0C10.6028 0 10.1228 0.0165527 8.61646 0.0827637C7.11567 0.148975 6.08389 0.391748 5.19004 0.739355C4.25757 1.10352 3.46856 1.58354 2.68506 2.37256C1.89605 3.15605 1.41602 3.94507 1.05186 4.87202C0.704248 5.77139 0.461475 6.79766 0.395264 8.29844C0.329053 9.81025 0.3125 10.2903 0.3125 14.125C0.3125 17.9597 0.329053 18.4397 0.395264 19.946C0.461475 21.4468 0.704248 22.4786 1.05186 23.3725C1.41602 24.3049 1.89605 25.0939 2.68506 25.8774C3.46856 26.6609 4.25757 27.1465 5.18452 27.5051C6.08389 27.8527 7.11016 28.0955 8.61094 28.1617C10.1172 28.2279 10.5973 28.2445 14.432 28.2445C18.2667 28.2445 18.7467 28.2279 20.253 28.1617C21.7538 28.0955 22.7856 27.8527 23.6794 27.5051C24.6064 27.1465 25.3954 26.6609 26.1789 25.8774C26.9624 25.0939 27.448 24.3049 27.8066 23.378C28.1542 22.4786 28.397 21.4523 28.4632 19.9516C28.5294 18.4453 28.5459 17.9652 28.5459 14.1305C28.5459 10.2958 28.5294 9.81577 28.4632 8.30947C28.397 6.80869 28.1542 5.7769 27.8066 4.88306C27.459 3.94507 26.979 3.15605 26.1899 2.37256C25.4064 1.58906 24.6174 1.10352 23.6905 0.744873C22.7911 0.397266 21.7648 0.154492 20.2641 0.0882813C18.7522 0.0165527 18.2722 0 14.4375 0Z" fill="#016BE3"/>
<path d="M14.4375 6.86914C10.4317 6.86914 7.18188 10.119 7.18188 14.1248C7.18188 18.1305 10.4317 21.3804 14.4375 21.3804C18.4433 21.3804 21.6931 18.1305 21.6931 14.1248C21.6931 10.119 18.4433 6.86914 14.4375 6.86914ZM14.4375 18.8313C11.8387 18.8313 9.73101 16.7235 9.73101 14.1248C9.73101 11.526 11.8387 9.41826 14.4375 9.41826C17.0363 9.41826 19.144 11.526 19.144 14.1248C19.144 16.7235 17.0363 18.8313 14.4375 18.8313Z" fill="#016BE3"/>
<path d="M23.6739 6.58257C23.6739 7.52056 22.9125 8.27647 21.98 8.27647C21.042 8.27647 20.2861 7.51504 20.2861 6.58257C20.2861 5.64458 21.0476 4.88867 21.98 4.88867C22.9125 4.88867 23.6739 5.6501 23.6739 6.58257Z" fill="#016BE3"/>
</g>
<defs>
<clipPath id="clip0_913_6380">
<rect width="28.25" height="28.25" fill="white" transform="translate(0.3125)"/>
</clipPath>
</defs>
</svg>
