<svg width="25" height="25" viewBox="0 0 25 25" fill="none" xmlns="http://www.w3.org/2000/svg">
<rect width="25" height="25" rx="5" fill="#EFF6FF"/>
<g clip-path="url(#clip0_48_6224)">
<path d="M12.2306 16.3941L14.2858 15.868C14.3548 15.856 14.4184 15.8228 14.4678 15.773L21.6223 8.61458C21.8124 8.42399 21.9191 8.16577 21.9191 7.89656C21.9191 7.62735 21.8124 7.36914 21.6223 7.17854L21.0447 6.59898C20.9503 6.50428 20.8381 6.42929 20.7145 6.37835C20.5909 6.32742 20.4584 6.30156 20.3247 6.30228C20.1913 6.30182 20.0592 6.32781 19.936 6.37873C19.8127 6.42966 19.7008 6.50452 19.6067 6.59898L18.4198 7.78579V5.54865C18.4196 5.36155 18.3824 5.17634 18.3104 5.00363C18.2385 4.83092 18.1332 4.67411 18.0005 4.54218C17.8678 4.41025 17.7104 4.30579 17.5373 4.23479C17.3642 4.16379 17.1788 4.12765 16.9917 4.12843H5.57061C5.19411 4.12895 4.83317 4.27875 4.56694 4.54498C4.30071 4.81121 4.15091 5.17215 4.15039 5.54865V17.939C4.15091 18.3155 4.30071 18.6764 4.56694 18.9426C4.83317 19.2089 5.19411 19.3587 5.57061 19.3592H10.9943L14.4104 21.8021C14.4621 21.8391 14.523 21.8613 14.5865 21.866C14.6499 21.8707 14.7134 21.8578 14.7701 21.8288C14.8267 21.7998 14.8742 21.7557 14.9074 21.7015C14.9406 21.6472 14.9582 21.5848 14.9583 21.5212V19.3592H16.9917C17.3682 19.3587 17.7291 19.2089 17.9954 18.9426C18.2616 18.6764 18.4114 18.3155 18.4119 17.939V14.0166C18.4119 13.9248 18.3755 13.8367 18.3105 13.7718C18.2456 13.7069 18.1576 13.6704 18.0658 13.6704C17.974 13.6704 17.8859 13.7069 17.821 13.7718C17.7561 13.8367 17.7196 13.9248 17.7196 14.0166V17.939C17.7196 18.0346 17.7008 18.1292 17.6642 18.2175C17.6276 18.3059 17.574 18.3861 17.5064 18.4537C17.4388 18.5213 17.3586 18.5749 17.2703 18.6115C17.182 18.6481 17.0873 18.6669 16.9917 18.6669H14.0563C13.9645 18.6669 13.8765 18.7034 13.8116 18.7683C13.7466 18.8332 13.7102 18.9212 13.7102 19.013C13.7102 19.1049 13.7466 19.1929 13.8116 19.2578C13.8765 19.3227 13.9645 19.3592 14.0563 19.3592H14.266V20.8486L11.299 18.7302C11.2412 18.6891 11.1721 18.667 11.1012 18.6669H5.5627C5.46711 18.6669 5.37245 18.6481 5.28414 18.6115C5.19582 18.5749 5.11558 18.5213 5.04799 18.4537C4.98039 18.3861 4.92678 18.3059 4.8902 18.2175C4.85361 18.1292 4.83479 18.0346 4.83479 17.939V5.54865C4.83478 5.45239 4.85387 5.35708 4.89094 5.26825C4.92802 5.17942 4.98234 5.09882 5.05078 5.03112C5.11921 4.96342 5.20039 4.90997 5.28962 4.87386C5.37885 4.83775 5.47436 4.81969 5.57061 4.82074H16.9917C17.1848 4.82074 17.3699 4.89743 17.5064 5.03394C17.6429 5.17045 17.7196 5.3556 17.7196 5.54865V8.48601L12.4521 13.7535C12.4028 13.8032 12.3697 13.8666 12.3572 13.9355L11.8073 15.9669C11.7898 16.0256 11.7887 16.0879 11.8041 16.1471C11.8194 16.2064 11.8506 16.2603 11.8943 16.3032C11.9381 16.3455 11.9919 16.3761 12.0507 16.392C12.1096 16.4079 12.1714 16.4087 12.2306 16.3941ZM19.5097 7.67502L20.5462 8.71151L14.2165 15.0412L13.1801 14.0067L19.5097 7.67502ZM12.8893 14.6812L13.5341 15.326L12.6381 15.5693L12.8893 14.6812ZM20.3247 6.99458C20.3673 6.99446 20.4095 7.00278 20.4489 7.01908C20.4883 7.03538 20.5241 7.05932 20.5541 7.08953L21.1317 7.66711C21.1618 7.69707 21.1857 7.73267 21.202 7.77188C21.2182 7.81108 21.2266 7.85312 21.2266 7.89557C21.2266 7.93803 21.2182 7.98006 21.202 8.01927C21.1857 8.05848 21.1618 8.09408 21.1317 8.12404L21.0348 8.22096L20.0003 7.18645L20.0972 7.08953C20.1268 7.0592 20.1622 7.03516 20.2013 7.01884C20.2403 7.00253 20.2823 6.99428 20.3247 6.99458Z" fill="#0400F5"/>
<path d="M7.41622 7.62932H10.2369C10.3287 7.62932 10.4167 7.59285 10.4816 7.52793C10.5466 7.46302 10.583 7.37497 10.583 7.28317C10.583 7.19136 10.5466 7.10331 10.4816 7.0384C10.4167 6.97348 10.3287 6.93701 10.2369 6.93701H7.41622C7.32442 6.93701 7.23637 6.97348 7.17145 7.0384C7.10654 7.10331 7.07007 7.19136 7.07007 7.28317C7.07007 7.37497 7.10654 7.46302 7.17145 7.52793C7.23637 7.59285 7.32442 7.62932 7.41622 7.62932Z" fill="#0400F5"/>
<path d="M13.9119 7.62932C14.0037 7.62932 14.0917 7.59285 14.1566 7.52793C14.2215 7.46302 14.258 7.37497 14.258 7.28317C14.258 7.19136 14.2215 7.10331 14.1566 7.0384C14.0917 6.97348 14.0037 6.93701 13.9119 6.93701H11.7558C11.664 6.93701 11.576 6.97348 11.5111 7.0384C11.4461 7.10331 11.4097 7.19136 11.4097 7.28317C11.4097 7.37497 11.4461 7.46302 11.5111 7.52793C11.576 7.59285 11.664 7.62932 11.7558 7.62932H13.9119Z" fill="#0400F5"/>
<path d="M7.41622 10.5273H8.74743C8.83924 10.5273 8.92728 10.4908 8.9922 10.4259C9.05711 10.361 9.09358 10.2729 9.09358 10.1811C9.09358 10.0893 9.05711 10.0013 8.9922 9.93635C8.92728 9.87143 8.83924 9.83496 8.74743 9.83496H7.41622C7.32442 9.83496 7.23637 9.87143 7.17145 9.93635C7.10654 10.0013 7.07007 10.0893 7.07007 10.1811C7.07007 10.2729 7.10654 10.361 7.17145 10.4259C7.23637 10.4908 7.32442 10.5273 7.41622 10.5273Z" fill="#0400F5"/>
<path d="M11.6274 13.0849C11.6274 12.9931 11.5909 12.9051 11.526 12.8402C11.4611 12.7752 11.373 12.7388 11.2812 12.7388H10.0766C9.98482 12.7388 9.89677 12.7752 9.83185 12.8402C9.76694 12.9051 9.73047 12.9931 9.73047 13.0849C9.73047 13.1767 9.76694 13.2648 9.83185 13.3297C9.89677 13.3946 9.98482 13.4311 10.0766 13.4311H11.2812C11.373 13.4311 11.4611 13.3946 11.526 13.3297C11.5909 13.2648 11.6274 13.1767 11.6274 13.0849Z" fill="#0400F5"/>
<path d="M7.41622 16.331H10.7433C10.8351 16.331 10.9231 16.2945 10.988 16.2296C11.0529 16.1647 11.0894 16.0766 11.0894 15.9848C11.0894 15.893 11.0529 15.805 10.988 15.7401C10.9231 15.6751 10.8351 15.6387 10.7433 15.6387H7.41622C7.32442 15.6387 7.23637 15.6751 7.17145 15.7401C7.10654 15.805 7.07007 15.893 7.07007 15.9848C7.07007 16.0766 7.10654 16.1647 7.17145 16.2296C7.23637 16.2945 7.32442 16.331 7.41622 16.331Z" fill="#0400F5"/>
<path d="M15.886 7.62932C15.9778 7.62932 16.0659 7.59285 16.1308 7.52793C16.1957 7.46302 16.2322 7.37497 16.2322 7.28317C16.2322 7.19136 16.1957 7.10331 16.1308 7.0384C16.0659 6.97348 15.9778 6.93701 15.886 6.93701H15.2214C15.1296 6.93701 15.0415 6.97348 14.9766 7.0384C14.9117 7.10331 14.8752 7.19136 14.8752 7.28317C14.8752 7.37497 14.9117 7.46302 14.9766 7.52793C15.0415 7.59285 15.1296 7.62932 15.2214 7.62932H15.886Z" fill="#0400F5"/>
<path d="M14.2582 10.185C14.2582 10.0932 14.2217 10.0052 14.1568 9.94025C14.0919 9.87534 14.0038 9.83887 13.912 9.83887H10.1538C10.1083 9.83887 10.0633 9.84782 10.0213 9.86522C9.97931 9.88261 9.94115 9.90811 9.909 9.94025C9.87686 9.9724 9.85136 10.0106 9.83397 10.0526C9.81657 10.0946 9.80762 10.1396 9.80762 10.185C9.80762 10.2305 9.81657 10.2755 9.83397 10.3175C9.85136 10.3595 9.87686 10.3976 9.909 10.4298C9.94115 10.4619 9.97931 10.4874 10.0213 10.5048C10.0633 10.5222 10.1083 10.5312 10.1538 10.5312H13.912C14.0038 10.5312 14.0919 10.4947 14.1568 10.4298C14.2217 10.3649 14.2582 10.2768 14.2582 10.185Z" fill="#0400F5"/>
<path d="M8.49409 12.7388H7.75826C7.66646 12.7388 7.57841 12.7752 7.5135 12.8402C7.44858 12.9051 7.41211 12.9931 7.41211 13.0849C7.41211 13.1767 7.44858 13.2648 7.5135 13.3297C7.57841 13.3946 7.66646 13.4311 7.75826 13.4311H8.50398C8.59578 13.4311 8.68383 13.3946 8.74875 13.3297C8.81366 13.2648 8.85013 13.1767 8.85013 13.0849C8.85013 12.9931 8.81366 12.9051 8.74875 12.8402C8.68383 12.7752 8.59578 12.7388 8.50398 12.7388H8.49409Z" fill="#0400F5"/>
</g>
<defs>
<clipPath id="clip0_48_6224">
<rect width="18" height="18" fill="white" transform="translate(4 4)"/>
</clipPath>
</defs>
</svg>
