<svg width="26" height="26" viewBox="0 0 26 26" fill="none" xmlns="http://www.w3.org/2000/svg">
<path fill-rule="evenodd" clip-rule="evenodd" d="M12.3771 6.94738C12.667 6.71285 13.0827 6.71285 13.3726 6.94738L18.1226 10.793C18.463 11.068 18.5154 11.5668 18.2403 11.9062C17.9652 12.2456 17.4665 12.2991 17.1271 12.024L17.0192 11.9369V15.4795C17.0192 15.6893 16.9361 15.8911 16.7876 16.0396C16.6392 16.188 16.4373 16.2711 16.2276 16.2711H9.52213C9.08473 16.2711 8.73047 15.9169 8.73047 15.4795V11.9369L8.62261 12.024C8.28319 12.2991 7.78444 12.2456 7.50934 11.9062C7.23425 11.5668 7.28669 11.068 7.6271 10.7929L12.3771 6.94738ZM10.3138 10.6554V14.6879H15.4359V10.6554L12.875 8.58124L10.3138 10.6554Z" fill="#110302"/>
<path fill-rule="evenodd" clip-rule="evenodd" d="M23.5623 17.5591V6.37498C23.5623 5.06379 22.4985 4 21.1873 4H4.56247C3.25128 4 2.18749 5.06379 2.18749 6.37498V17.5591C1.49577 17.8045 1 18.4635 1 19.2394C1 21.3165 2.68326 22.9998 4.76045 22.9998H20.9894C23.0665 22.9998 24.7498 21.3165 24.7498 19.2394C24.7498 18.4635 24.254 17.8045 23.5623 17.5591ZM4.56247 5.58332C4.12507 5.58332 3.77081 5.93758 3.77081 6.37498V17.4582H8.68595C8.87891 17.4582 9.06496 17.5285 9.20943 17.6561C10.1871 18.519 11.4686 19.0416 12.8749 19.0416C14.2811 19.0416 15.5625 18.5191 16.5403 17.6561C16.6848 17.5285 16.8709 17.4582 17.0638 17.4582H21.979V6.37498C21.979 5.93758 21.6247 5.58332 21.1873 5.58332H4.56247ZM17.3537 19.0415C16.1306 20.0311 14.5711 20.6249 12.8748 20.6249C11.1785 20.6249 9.61897 20.0311 8.39588 19.0415H2.78105C2.67219 19.0415 2.58313 19.1306 2.58313 19.2395C2.58313 20.4418 3.55787 21.4165 4.76021 21.4165H20.9891C22.1915 21.4165 23.1662 20.4418 23.1662 19.2395C23.1662 19.1306 23.0771 19.0415 22.9683 19.0415H17.3537Z" fill="#110302"/>
</svg>
