<svg width="25" height="25" viewBox="0 0 25 25" fill="none" xmlns="http://www.w3.org/2000/svg">
<rect width="25" height="25" rx="5" fill="#EFF6FF"/>
<g clip-path="url(#clip0_50_6255)">
<path d="M11.3955 19.957L11.3426 20.2153L11.3936 19.9567C11.2507 19.9285 11.112 20.0215 11.0839 20.1643C11.0557 20.3073 11.1487 20.4459 11.2917 20.474C11.2921 20.4741 11.2961 20.4748 11.2965 20.475C11.3132 20.4781 11.3298 20.4798 11.3463 20.4798C11.4703 20.4798 11.5809 20.3919 11.6049 20.2655C11.6324 20.1224 11.5386 19.9843 11.3955 19.957Z" fill="#0400F5"/>
<path d="M13.4113 20.0415L13.4375 20.3038L13.4105 20.0416C13.2656 20.0565 13.1603 20.186 13.1752 20.3309C13.1891 20.4665 13.3036 20.5676 13.4371 20.5676C13.4462 20.5676 13.4554 20.5671 13.4645 20.5662L13.4717 20.5654C13.6159 20.5485 13.7182 20.4185 13.7022 20.2743C13.686 20.1302 13.5555 20.0264 13.4113 20.0415Z" fill="#0400F5"/>
<path d="M12.4021 20.0751C12.4021 20.0751 12.3984 20.075 12.3983 20.075C12.253 20.0684 12.1316 20.1813 12.125 20.3267C12.1186 20.4721 12.2328 20.5953 12.3783 20.6019C12.3824 20.6022 12.3864 20.6022 12.3905 20.6022C12.5305 20.6022 12.6473 20.4919 12.6536 20.3505C12.6602 20.205 12.5477 20.0817 12.4021 20.0751Z" fill="#0400F5"/>
<path d="M10.4215 19.6891L10.4182 19.6879C10.2812 19.6387 10.1317 19.7104 10.0826 19.8474C10.0333 19.9845 10.1061 20.1361 10.2431 20.1854C10.2726 20.196 10.3027 20.2009 10.3322 20.2009C10.4403 20.2009 10.5418 20.134 10.5804 20.0264C10.6297 19.8893 10.5586 19.7383 10.4215 19.6891Z" fill="#0400F5"/>
<path d="M14.4066 19.8572L14.4716 20.1128L14.4058 19.8575C14.2647 19.8937 14.1799 20.0375 14.2161 20.1786C14.2468 20.2975 14.3539 20.3766 14.4713 20.3766C14.4931 20.3766 14.5152 20.3738 14.5373 20.3681C14.5384 20.3678 14.5431 20.3666 14.5444 20.3663C14.6843 20.3281 14.7661 20.1843 14.7288 20.0441C14.6914 19.904 14.5471 19.8207 14.4066 19.8572Z" fill="#0400F5"/>
<path d="M15.3597 19.5249L15.4642 19.7668L15.3589 19.5251C15.2254 19.5834 15.1643 19.7387 15.2224 19.8722C15.2657 19.9714 15.3626 20.0306 15.4644 20.0306C15.4994 20.0306 15.5352 20.0235 15.5694 20.0087C15.5705 20.0081 15.5748 20.0063 15.5759 20.0058C15.7081 19.946 15.7665 19.7911 15.7074 19.6586C15.6484 19.526 15.4927 19.4665 15.3597 19.5249Z" fill="#0400F5"/>
<path d="M9.4144 7.50525C9.45669 7.50525 9.49968 7.49509 9.53937 7.47394C9.66791 7.40542 9.71638 7.2457 9.64786 7.11716C9.57933 6.98876 9.41975 6.94001 9.29121 7.00867L9.28805 7.01032C9.15965 7.07885 9.11255 7.23774 9.18107 7.36628C9.22832 7.45499 9.32005 7.50525 9.4144 7.50525Z" fill="#0400F5"/>
<path d="M6.36438 10.4502C6.40352 10.4706 6.4454 10.4804 6.48674 10.4804C6.58163 10.4804 6.67337 10.429 6.72047 10.3391L6.72514 10.3299C6.78941 10.1991 6.73558 10.0411 6.60484 9.97692C6.47506 9.91293 6.31823 9.96566 6.25314 10.0946C6.18585 10.2234 6.23556 10.3826 6.36438 10.4502Z" fill="#0400F5"/>
<path d="M5.99323 11.4421C6.02125 11.4516 6.04967 11.4562 6.07783 11.4562C6.18769 11.4562 6.29027 11.3868 6.32749 11.2769L6.33092 11.2665C6.37377 11.1274 6.29563 10.9798 6.15638 10.9371C6.01836 10.8945 5.87183 10.9711 5.82775 11.1084C5.78147 11.2462 5.85549 11.3956 5.99323 11.4421Z" fill="#0400F5"/>
<path d="M6.88468 9.52763C6.93151 9.56169 6.98576 9.57817 7.03959 9.57817C7.12102 9.57817 7.2015 9.5404 7.253 9.46954L7.25643 9.46487C7.34103 9.34649 7.31342 9.18225 7.19532 9.09765C7.07708 9.01292 6.91228 9.04011 6.82742 9.15822L7.03986 9.3145L6.82659 9.15932C6.7409 9.27714 6.76699 9.44208 6.88468 9.52763Z" fill="#0400F5"/>
<path d="M8.51913 8.07451C8.57447 8.07451 8.63023 8.05707 8.67788 8.02081C8.79543 7.93484 8.82084 7.76991 8.73487 7.65236C8.64877 7.5348 8.48383 7.5094 8.36642 7.59537L8.35983 7.60017C8.24392 7.6882 8.22085 7.85396 8.30888 7.97C8.36079 8.03839 8.43948 8.07451 8.51913 8.07451Z" fill="#0400F5"/>
<path d="M5.75791 15.4409C5.79279 15.5542 5.89689 15.6269 6.00949 15.6269C6.03518 15.6269 6.06141 15.623 6.08722 15.615C6.22565 15.5726 6.30379 15.4259 6.26232 15.2872C6.22263 15.1488 6.07912 15.0675 5.93946 15.1056C5.79897 15.1439 5.71616 15.2889 5.75448 15.4294C5.7553 15.4321 5.75708 15.4382 5.75791 15.4409Z" fill="#0400F5"/>
<path d="M7.72269 8.76957C7.79122 8.76957 7.85974 8.74306 7.91152 8.69033C8.01438 8.58733 8.01438 8.42034 7.91152 8.31748C7.80852 8.21449 7.64153 8.21449 7.53853 8.31748L7.53414 8.32188C7.43224 8.42583 7.4343 8.59255 7.53826 8.69445C7.58948 8.74471 7.65609 8.76957 7.72269 8.76957Z" fill="#0400F5"/>
<path d="M6.04915 14.2912C6.03061 14.148 5.89974 14.0464 5.75637 14.0634C5.6119 14.0807 5.50862 14.2118 5.52579 14.3564L5.5273 14.367C5.54653 14.498 5.659 14.592 5.78768 14.592C5.80031 14.592 5.81322 14.591 5.82627 14.5891C5.96977 14.5682 6.06934 14.4347 6.04915 14.2912Z" fill="#0400F5"/>
<path d="M5.71796 13.5361C5.72071 13.5361 5.72331 13.5363 5.72592 13.5363C5.86792 13.5363 5.9852 13.4233 5.98932 13.2803L5.9896 13.269C5.9896 13.1233 5.87149 13.0054 5.72592 13.0054C5.58132 13.0054 5.46404 13.1216 5.46225 13.2656C5.45841 13.4109 5.5728 13.5319 5.71796 13.5361Z" fill="#0400F5"/>
<path d="M5.77585 12.4784C5.79164 12.4812 5.80716 12.4826 5.82267 12.4826C5.94792 12.4826 6.05902 12.3929 6.08195 12.2653C6.08264 12.2615 6.08319 12.2576 6.08374 12.2538C6.10502 12.1097 6.00546 11.9757 5.86126 11.9545C5.71885 11.9334 5.58551 12.0313 5.56257 12.1733C5.53758 12.3164 5.63289 12.4528 5.77585 12.4784Z" fill="#0400F5"/>
<path d="M18.2138 9.61071C18.2649 9.68487 18.347 9.72456 18.4308 9.72456C18.4823 9.72456 18.5345 9.70945 18.58 9.67801C18.6999 9.59561 18.7303 9.43136 18.6479 9.31134L18.4287 9.458L18.6471 9.3101C18.5652 9.18953 18.4012 9.15808 18.2808 9.23979C18.1602 9.3215 18.1288 9.48547 18.2105 9.60605L18.2138 9.61071Z" fill="#0400F5"/>
<path d="M19.5601 12.2644C19.4154 12.2806 19.3113 12.4112 19.3276 12.5559L19.329 12.5673C19.3478 12.6987 19.4607 12.7936 19.5898 12.7936C19.6021 12.7936 19.6148 12.7928 19.6274 12.791C19.7704 12.7706 19.8701 12.6389 19.8515 12.496C19.8349 12.3517 19.7039 12.2482 19.5601 12.2644Z" fill="#0400F5"/>
<path d="M19.1153 11.5204L19.1164 11.5238C19.1501 11.6387 19.2552 11.7132 19.3692 11.7132C19.3938 11.7132 19.4188 11.7097 19.4436 11.7023C19.5834 11.6613 19.6633 11.5147 19.6223 11.3749L19.6212 11.3715C19.5801 11.2317 19.4336 11.1518 19.2938 11.193C19.1541 11.234 19.0742 11.3806 19.1153 11.5204Z" fill="#0400F5"/>
<path d="M18.7427 10.5343C18.7887 10.6278 18.8828 10.6823 18.9805 10.6823C19.0194 10.6823 19.059 10.6737 19.0962 10.6553C19.2268 10.591 19.281 10.4339 19.2166 10.3032L18.9777 10.4146L19.2163 10.3026C19.1545 10.1708 18.9976 10.1141 18.8657 10.1759C18.7339 10.2377 18.677 10.3946 18.7388 10.5265L18.7427 10.5343Z" fill="#0400F5"/>
<path d="M17.5496 8.78732C17.6012 8.84005 17.6695 8.86642 17.7379 8.86642C17.8045 8.86642 17.8711 8.84143 17.9224 8.79103C18.0257 8.68995 18.028 8.52475 17.9285 8.42065C17.8297 8.31422 17.6633 8.30777 17.5564 8.40637C17.4495 8.50511 17.4429 8.67196 17.5416 8.77894L17.5496 8.78732Z" fill="#0400F5"/>
<path d="M19.6458 13.3653C19.5009 13.3616 19.3796 13.4752 19.3745 13.6201C19.368 13.7644 19.4788 13.8873 19.6232 13.8954C19.6283 13.8957 19.6331 13.8958 19.6382 13.8958C19.7771 13.8958 19.8934 13.7872 19.9012 13.6467L19.9016 13.6359C19.9057 13.4904 19.7912 13.3696 19.6458 13.3653Z" fill="#0400F5"/>
<path d="M15.8635 7.49247L15.8698 7.4959C15.9091 7.51677 15.9513 7.52666 15.9928 7.52666C16.0866 7.52666 16.1773 7.47612 16.225 7.38755C16.2936 7.25969 16.2453 7.09984 16.1179 7.03063L15.9903 7.26134L16.117 7.03008C15.9893 6.96004 15.8291 7.00687 15.759 7.13459C15.6891 7.26217 15.7358 7.42257 15.8635 7.49247Z" fill="#0400F5"/>
<path d="M16.7553 8.07104L16.7594 8.0742C16.807 8.11031 16.8629 8.12775 16.9185 8.12775C16.9982 8.12775 17.0769 8.09177 17.1288 8.02338C17.2168 7.90734 17.194 7.742 17.0781 7.65397L17.0763 7.65273C16.9608 7.56402 16.7954 7.58572 16.7066 7.70121C16.6179 7.81671 16.6398 7.98232 16.7553 8.07104Z" fill="#0400F5"/>
<path d="M21.8372 17.3569L20.5995 16.1169C20.4942 16.0115 20.3542 15.9534 20.2052 15.9534C20.0564 15.9534 19.9163 16.0115 19.8111 16.1169L19.7824 16.1456L19.7011 16.0643C19.6007 15.9637 19.523 15.8465 19.4702 15.719C19.4656 15.7021 19.4594 15.6856 19.4514 15.6701C19.411 15.5566 19.39 15.4359 19.39 15.3119V14.9612C19.4141 14.9738 19.4403 14.983 19.4684 14.9878C19.4836 14.9904 19.4985 14.9917 19.5134 14.9917C19.6385 14.9917 19.7491 14.9024 19.7724 14.7755C19.8005 14.633 19.7081 14.4944 19.5654 14.4658C19.5026 14.4533 19.4406 14.4642 19.3884 14.4925C19.3722 14.1178 19.2191 13.7679 18.9526 13.501L17.7518 12.2981C17.4824 12.0282 17.1241 11.8797 16.743 11.8797C16.448 11.8797 16.1671 11.9691 15.93 12.1345L15.8026 12.0064V8.99067C15.8026 8.62716 15.6706 8.27642 15.4311 8.00327C15.2607 7.80909 15.1669 7.5597 15.1669 7.30097V7.08001H15.185C15.4924 7.08001 15.7424 6.82994 15.7424 6.52246V4.76849C15.7424 4.46101 15.4924 4.21094 15.185 4.21094H10.2597C9.95238 4.21094 9.70231 4.46101 9.70231 4.76849V6.52246C9.70231 6.82994 9.95238 7.08001 10.2597 7.08001H10.3004V7.19564C10.3004 7.47991 10.1898 7.74716 9.98919 7.94807L9.45759 8.48063C9.17551 8.76325 9.02019 9.13885 9.02019 9.53847V11.2396C9.02019 11.4707 9.07568 11.6889 9.17332 11.8823C8.82368 11.9025 8.4978 12.0482 8.24813 12.2981L7.04733 13.501C6.76525 13.7836 6.60994 14.1593 6.60994 14.5588V15.3119C6.60994 15.5962 6.49952 15.8634 6.29889 16.0643L6.21855 16.1448C6.21814 16.1451 6.21786 16.1454 6.21759 16.1456L6.18902 16.1169C6.08369 16.0115 5.94375 15.9534 5.79475 15.9534C5.64589 15.9534 5.50581 16.0115 5.40062 16.1169L4.16273 17.3569C3.94576 17.5743 3.94576 17.928 4.16273 18.1454L4.58667 18.5699C4.68953 18.673 4.85652 18.6732 4.95952 18.5703C5.06251 18.4673 5.06279 18.3005 4.95979 18.1973L4.53599 17.7727C4.52405 17.7608 4.52405 17.7414 4.53599 17.7295L5.77388 16.4895C5.78541 16.478 5.80423 16.4778 5.81576 16.4895L6.03096 16.7051H6.03109L8.96952 19.6486L9.2987 19.9785C9.31064 19.9904 9.31064 20.0098 9.2987 20.0217L8.06095 21.2617C8.04928 21.2734 8.03047 21.2734 8.01893 21.2617L5.70631 18.9451C5.60345 18.842 5.43646 18.8418 5.33346 18.9447C5.23033 19.0477 5.23019 19.2145 5.33305 19.3177L7.64581 21.6343C7.751 21.7397 7.89108 21.7978 8.04008 21.7978C8.18894 21.7978 8.32888 21.7397 8.43421 21.6343L9.67196 20.3943C9.88894 20.1771 9.88894 19.8233 9.67196 19.6059L9.6585 19.5925L9.81464 19.436C9.99701 19.2533 10.2393 19.1434 10.4968 19.1268C10.8592 19.1033 11.2002 18.9487 11.4568 18.6914L12.5939 17.5519C12.9218 17.4658 13.1771 17.1987 13.2465 16.8641C13.3634 16.9198 13.494 16.9511 13.6318 16.9511C14.1277 16.9511 14.5312 16.5472 14.5312 16.0506V15.4245C14.6446 15.4763 14.7706 15.5054 14.9032 15.5054C15.3991 15.5054 15.8025 15.1015 15.8025 14.6049V12.754L16.6135 13.5691C16.665 13.6208 16.7327 13.6467 16.8004 13.6467C16.8677 13.6467 16.935 13.6211 16.9865 13.5699C17.0896 13.4672 17.0901 13.3003 16.9873 13.1971L16.3111 12.5175C16.442 12.4455 16.5895 12.407 16.743 12.407C16.9831 12.407 17.2088 12.5007 17.3786 12.6708L18.5794 13.8735C18.762 14.0566 18.8627 14.2999 18.8627 14.5588V15.3119C18.8627 15.7369 19.0279 16.1364 19.3278 16.4369L19.4097 16.5189L19.0272 16.902L16.714 19.2192L16.5851 19.09C16.5837 19.0887 16.5825 19.0874 16.5811 19.0861L16.5585 19.0633C16.2854 18.7899 15.9228 18.6255 15.5374 18.6005C15.303 18.5853 15.0824 18.4853 14.9156 18.3183L14.0492 17.4566C13.9459 17.3539 13.7789 17.3543 13.6762 17.4575C13.5736 17.5608 13.574 17.7278 13.6773 17.8304L14.5431 18.6914C14.7998 18.9487 15.1408 19.1033 15.5034 19.1268C15.7607 19.1434 16.003 19.2533 16.1853 19.4359L16.1981 19.4487C16.205 19.4565 16.2122 19.4638 16.2199 19.4706L16.3415 19.5923L16.328 19.6059C16.111 19.8233 16.111 20.1769 16.328 20.3943L17.5658 21.6343C17.6711 21.7397 17.811 21.7978 17.96 21.7978C18.1089 21.7978 18.249 21.7397 18.3543 21.6343L21.8372 18.1453C22.0542 17.9279 22.0542 17.5743 21.8372 17.3569ZM19.5668 14.735L19.5618 14.7342L19.5138 14.7244L19.5668 14.735ZM11.0836 18.3189C10.9175 18.4853 10.697 18.5853 10.4627 18.6005C10.0772 18.6255 9.71453 18.7899 9.44152 19.0633L9.28593 19.2192L9.14585 19.0788C9.14406 19.0771 9.14228 19.0751 9.14049 19.0735L6.5903 16.5189L6.67215 16.4369C6.97207 16.1364 7.13728 15.7369 7.13728 15.3119V14.5588C7.13728 14.2999 7.2378 14.0566 7.42059 13.8735L8.62139 12.6708C8.79113 12.5007 9.0169 12.407 9.25695 12.407C9.41089 12.407 9.55894 12.4457 9.69022 12.5184L9.01292 13.1968C8.91006 13.2998 8.91019 13.4668 9.01319 13.5696C9.06469 13.621 9.13212 13.6467 9.19955 13.6467C9.26711 13.6467 9.33468 13.6208 9.38618 13.5694L10.1952 12.7588V16.0506C10.1952 16.5472 10.5987 16.9511 11.0945 16.9511C11.2343 16.9511 11.3667 16.9189 11.4848 16.8618C11.5384 17.1231 11.7054 17.3434 11.9317 17.4689L11.0836 18.3189ZM15.2752 14.6051C15.2752 14.8108 15.1083 14.9782 14.9032 14.9782C14.6981 14.9782 14.5312 14.8108 14.5312 14.6051V11.6639C14.5312 11.5183 14.4132 11.4002 14.2675 11.4002C14.1218 11.4002 14.0039 11.5183 14.0039 11.6639V16.0507C14.0039 16.2565 13.837 16.4237 13.6318 16.4237C13.4477 16.4237 13.2948 16.2889 13.2653 16.1124V11.6609C13.2653 11.5152 13.1473 11.3972 13.0016 11.3972C12.9548 11.3972 12.9107 11.4096 12.8725 11.431C12.7892 11.4754 12.7325 11.563 12.7325 11.6639V16.0506C12.7325 16.0841 12.7344 16.1169 12.738 16.1495V16.6808C12.738 16.8865 12.5711 17.0539 12.3659 17.0539C12.1609 17.0539 11.9941 16.8865 11.9941 16.6808V11.6577C11.9941 11.5122 11.8759 11.3941 11.7304 11.3941C11.5847 11.3941 11.4666 11.5122 11.4666 11.6577V16.0506C11.4666 16.2563 11.2997 16.4237 11.0947 16.4237C10.8895 16.4237 10.7227 16.2563 10.7227 16.0506V11.1459C10.7227 11.0002 10.6046 10.8821 10.459 10.8821C10.3133 10.8821 10.1953 11.0002 10.1953 11.1459V12.0531C10.1732 12.0602 10.1518 12.0703 10.1319 12.0835C9.79088 11.9553 9.54754 11.6255 9.54754 11.2396V9.53847C9.54754 9.27961 9.6482 9.03626 9.83085 8.8532L10.3624 8.32064C10.6625 8.02017 10.8277 7.62068 10.8277 7.19564V7.08001H11.3578C11.5035 7.08001 11.6215 6.96191 11.6215 6.81634C11.6215 6.67063 11.5035 6.55267 11.3578 6.55267H10.2597C10.2431 6.55267 10.2296 6.53907 10.2296 6.52246V4.76849C10.2296 4.75188 10.2431 4.73828 10.2597 4.73828H15.1849C15.2016 4.73828 15.2151 4.75188 15.2151 4.76849V6.52246C15.2151 6.53921 15.2016 6.55267 15.1849 6.55267H12.5957C12.4501 6.55267 12.332 6.67063 12.332 6.81634C12.332 6.96191 12.4501 7.08001 12.5957 7.08001H14.6396V7.30097C14.6396 7.68769 14.7798 8.06054 15.0345 8.35113C15.1897 8.52801 15.2752 8.75515 15.2752 8.99067V14.6051ZM21.464 17.7727L17.981 21.2617C17.9753 21.2676 17.9683 21.2705 17.96 21.2705C17.9519 21.2705 17.9449 21.2676 17.939 21.2617L16.7013 20.0217C16.6893 20.0098 16.6893 19.9904 16.7013 19.9785L16.9005 19.7788L16.9007 19.7787L18.9226 17.7533L20.1842 16.4895C20.1957 16.4778 20.2146 16.4778 20.2261 16.4895L21.464 17.7295C21.4759 17.7414 21.4759 17.7608 21.464 17.7727Z" fill="#0400F5"/>
<path d="M11.0947 5.36426C10.9399 5.36426 10.814 5.49046 10.814 5.64551C10.814 5.80069 10.9399 5.92676 11.0947 5.92676C11.2496 5.92676 11.3755 5.80069 11.3755 5.64551C11.3755 5.49046 11.2496 5.36426 11.0947 5.36426Z" fill="#0400F5"/>
<path d="M20.2916 17.3833C20.1367 17.3833 20.0107 17.5095 20.0107 17.6646C20.0107 17.8196 20.1367 17.9458 20.2916 17.9458C20.4463 17.9458 20.5723 17.8196 20.5723 17.6646C20.5723 17.5095 20.4463 17.3833 20.2916 17.3833Z" fill="#0400F5"/>
<path d="M8.39406 20.0737C8.39406 19.9187 8.26813 19.7925 8.11336 19.7925C7.95845 19.7925 7.83252 19.9187 7.83252 20.0737C7.83252 20.2288 7.95845 20.355 8.11336 20.355C8.26813 20.355 8.39406 20.2288 8.39406 20.0737Z" fill="#0400F5"/>
</g>
<defs>
<clipPath id="clip0_50_6255">
<rect width="18" height="18" fill="white" transform="translate(4 4)"/>
</clipPath>
</defs>
</svg>
