<svg width="25" height="25" viewBox="0 0 25 25" fill="none" xmlns="http://www.w3.org/2000/svg">
<rect width="25" height="25" rx="5" fill="#EFF6FF"/>
<path d="M18.9705 5.83231C18.8345 5.78063 18.6821 5.84901 18.6304 5.98513C18.5787 6.12126 18.6471 6.27352 18.7832 6.32527C19.3393 6.53659 19.7129 7.07825 19.7129 7.67316C19.7129 8.46755 19.0664 9.11383 18.2718 9.11383C17.4774 9.11383 16.8311 8.46752 16.8311 7.67316C16.8311 7.07821 17.2046 6.5367 17.7604 6.32566C17.8965 6.27394 17.965 6.12168 17.9133 5.98555C17.8616 5.84939 17.7093 5.78095 17.5732 5.83262C16.814 6.12091 16.3038 6.86056 16.3038 7.67316C16.3038 8.0314 16.4005 8.36732 16.5685 8.65697L14.3258 10.3915C14.0294 10.0994 13.6411 9.90059 13.2087 9.84241V7.91848C14.1697 7.78918 14.9133 6.9642 14.9133 5.96836C14.9133 4.88298 14.0303 4 12.9449 4C11.8596 4 10.9766 4.88298 10.9766 5.96833C10.9766 6.9642 11.7202 7.78914 12.6813 7.91845V9.84237C12.2489 9.90055 11.8605 10.0993 11.5641 10.3915L9.32146 8.65694C9.4894 8.36729 9.58611 8.0314 9.58611 7.67313C9.58611 6.58775 8.70327 5.70473 7.6181 5.70473C6.80564 5.70473 6.06588 6.21498 5.77728 6.97439C5.72553 7.11052 5.79398 7.26278 5.93011 7.31453C6.0662 7.36621 6.21853 7.29787 6.27025 7.16171C6.48157 6.60568 7.02322 6.23207 7.61814 6.23207C8.41253 6.23207 9.0588 6.87852 9.0588 7.67313C9.0588 8.46752 8.41249 9.11379 7.61814 9.11379C7.02319 9.11379 6.48168 8.74036 6.27063 8.18454C6.21892 8.04842 6.06666 7.9799 5.93053 8.03161C5.79441 8.08333 5.72596 8.23559 5.7776 8.37171C6.06588 9.13098 6.80553 9.6411 7.61814 9.6411C8.15557 9.6411 8.64319 9.42433 8.99872 9.07393L11.2414 10.8085C11.0734 11.0982 10.9767 11.4342 10.9767 11.7925C10.9767 12.5018 11.362 13.1555 11.9712 13.5031V15.9679H11.5243C10.9874 15.9679 10.5505 16.4049 10.5505 16.942V18.1848C10.5505 20.2885 12.262 22 14.3657 22C15.3846 22 16.3427 21.6031 17.0633 20.8825C17.7837 20.1621 18.1804 19.2041 18.1804 18.1849V17.9834C18.1804 17.8378 18.0624 17.7198 17.9168 17.7198C17.7711 17.7198 17.6531 17.8378 17.6531 17.9834V18.1849C17.6531 19.0632 17.3112 19.8888 16.6904 20.5096C16.0693 21.1306 15.2437 21.4727 14.3656 21.4727C12.5527 21.4727 11.0778 19.9977 11.0778 18.1848V16.9421C11.0778 16.6957 11.2781 16.4952 11.5243 16.4952H11.971V16.9749L11.7641 17.1817C11.6611 17.2847 11.6611 17.4517 11.7641 17.5546C11.8156 17.6061 11.8831 17.6318 11.9506 17.6318C12.018 17.6318 12.0855 17.6061 12.1371 17.5546L12.4211 17.2705C12.4706 17.2211 12.4984 17.154 12.4984 17.0841L12.4985 12.5029C12.4985 12.3835 12.5449 12.2714 12.6296 12.1867C12.7136 12.1025 12.8256 12.0561 12.9449 12.0561C13.1911 12.0561 13.3914 12.2565 13.3914 12.5029L13.3915 16.6579C13.3915 16.8036 13.5096 16.9216 13.6552 16.9216C13.8009 16.9216 13.9189 16.8036 13.9189 16.6579C13.9189 16.6579 13.9188 14.7398 13.9188 14.7397C13.9193 14.618 13.9677 14.5045 14.0554 14.4199C14.1433 14.335 14.2589 14.2903 14.3818 14.295C14.6191 14.3035 14.8121 14.5114 14.8121 14.7585L14.8121 16.6579C14.8121 16.8036 14.9301 16.9216 15.0757 16.9216C15.2214 16.9216 15.3394 16.8036 15.3394 16.6579C15.3394 16.6579 15.3394 15.5072 15.3394 15.5042C15.3394 15.3819 15.3879 15.2678 15.476 15.1827C15.564 15.0979 15.68 15.0531 15.8025 15.0579C16.0397 15.0663 16.2327 15.2741 16.2327 15.5211L16.2326 16.6579C16.2326 16.8036 16.3506 16.9216 16.4963 16.9216C16.6419 16.9216 16.76 16.8036 16.76 16.6579C16.76 16.6579 16.7601 16.2323 16.7601 16.2316C16.7601 16.1094 16.8085 15.9953 16.8964 15.9104C16.9843 15.8254 17.0992 15.7812 17.2232 15.7853C17.4602 15.7937 17.6531 16.0016 17.6531 16.2488V16.7529C17.6531 16.8986 17.7711 17.0166 17.9167 17.0166C18.0624 17.0166 18.1804 16.8986 18.1804 16.7529V16.2488C18.1804 15.721 17.7594 15.2767 17.2418 15.2583C17.0674 15.2522 16.8982 15.2916 16.7487 15.3715C16.6783 14.912 16.2892 14.5475 15.8214 14.5309C15.6485 14.5241 15.4813 14.5632 15.3328 14.6415C15.2779 14.1599 14.8882 13.7854 14.4007 13.768C14.2305 13.7613 14.0655 13.7991 13.9188 13.8751V13.5031C14.528 13.1555 14.9133 12.5018 14.9133 11.7925C14.9133 11.4342 14.8166 11.0982 14.6485 10.8085L16.8912 9.07396C17.2468 9.4244 17.7344 9.64114 18.2718 9.64114C19.3572 9.64114 20.2402 8.75829 20.2402 7.67313C20.2402 6.86066 19.73 6.12091 18.9705 5.83231ZM11.504 5.96833C11.504 5.17376 12.1504 4.52734 12.9449 4.52734C13.7395 4.52734 14.3859 5.1738 14.3859 5.96833C14.3859 6.76286 13.7395 7.40928 12.9449 7.40928C12.1504 7.40928 11.504 6.76289 11.504 5.96833ZM13.9188 12.8533V12.5029C13.9188 11.9657 13.4819 11.5287 12.9449 11.5287C12.6845 11.5287 12.4399 11.6301 12.2564 11.814C12.0725 11.998 11.9711 12.2427 11.9711 12.5029V12.8533C11.6792 12.5843 11.504 12.2013 11.504 11.7925C11.504 10.998 12.1504 10.3516 12.9449 10.3516C13.7395 10.3516 14.3859 10.998 14.3859 11.7925C14.3859 12.2013 14.2107 12.5843 13.9188 12.8533Z" fill="#0400F5"/>
</svg>
