<svg width="350" height="69" viewBox="0 0 350 69" fill="none" xmlns="http://www.w3.org/2000/svg">
<path d="M185.297 64.8384L181.284 52.8981H183.051L186.738 63.9173H185.846L189.671 52.8981H191.249L194.987 63.9173H194.13L197.869 52.8981H199.498L195.485 64.8384H193.684L190.185 54.6209H190.648L187.133 64.8384H185.297Z" fill="#4B5563"/>
<path d="M204.391 64.9407C203.476 64.9407 202.664 64.7417 201.956 64.3437C201.247 63.9457 200.686 63.3999 200.275 62.7062C199.863 62.0011 199.657 61.2051 199.657 60.3181C199.657 59.4198 199.863 58.6237 200.275 57.9301C200.686 57.2364 201.247 56.6962 201.956 56.3096C202.664 55.9116 203.476 55.7126 204.391 55.7126C205.294 55.7126 206.1 55.9116 206.809 56.3096C207.529 56.6962 208.09 57.2364 208.49 57.9301C208.902 58.6124 209.107 59.4084 209.107 60.3181C209.107 61.2165 208.902 62.0125 208.49 62.7062C208.09 63.3999 207.529 63.9457 206.809 64.3437C206.1 64.7417 205.294 64.9407 204.391 64.9407ZM204.391 63.5079C204.974 63.5079 205.494 63.3771 205.952 63.1156C206.42 62.854 206.786 62.4844 207.049 62.0068C207.312 61.5178 207.444 60.9549 207.444 60.3181C207.444 59.6699 207.312 59.1127 207.049 58.6465C206.786 58.1689 206.42 57.7993 205.952 57.5377C205.494 57.2762 204.974 57.1454 204.391 57.1454C203.808 57.1454 203.288 57.2762 202.83 57.5377C202.373 57.7993 202.007 58.1689 201.733 58.6465C201.458 59.1127 201.321 59.6699 201.321 60.3181C201.321 60.9549 201.458 61.5178 201.733 62.0068C202.007 62.4844 202.373 62.854 202.83 63.1156C203.288 63.3771 203.808 63.5079 204.391 63.5079Z" fill="#4B5563"/>
<path d="M211.213 64.8384V55.7979H212.791V58.2541L212.636 57.6401C212.888 57.0146 213.311 56.537 213.905 56.2072C214.5 55.8775 215.232 55.7126 216.101 55.7126V57.2989C216.032 57.2876 215.964 57.2819 215.895 57.2819C215.838 57.2819 215.781 57.2819 215.723 57.2819C214.843 57.2819 214.146 57.5434 213.631 58.0665C213.117 58.5896 212.859 59.3458 212.859 60.3352V64.8384H211.213Z" fill="#4B5563"/>
<path d="M219.296 62.655L219.331 60.5569L224.561 55.7979H226.551L222.538 59.7211L221.646 60.4716L219.296 62.655ZM217.958 64.8384V52.1816H219.605V64.8384H217.958ZM224.904 64.8384L221.337 60.4375L222.4 59.1241L226.928 64.8384H224.904Z" fill="#4B5563"/>
<path d="M233.03 64.8384V52.8981H234.745V64.8384H233.03Z" fill="#4B5563"/>
<path d="M242.781 55.7126C243.524 55.7126 244.176 55.8547 244.736 56.139C245.308 56.4233 245.754 56.8554 246.074 57.4354C246.394 58.0153 246.554 58.7488 246.554 59.6358V64.8384H244.908V59.8234C244.908 58.9478 244.69 58.2883 244.256 57.8448C243.833 57.4013 243.233 57.1795 242.455 57.1795C241.872 57.1795 241.363 57.2932 240.929 57.5207C240.494 57.7481 240.157 58.0836 239.917 58.5271C239.688 58.9706 239.574 59.5221 239.574 60.1817V64.8384H237.927V55.7979H239.505V58.2371L239.248 57.5889C239.545 56.9976 240.003 56.537 240.62 56.2072C241.238 55.8775 241.958 55.7126 242.781 55.7126Z" fill="#4B5563"/>
<path d="M252.551 64.9407C251.636 64.9407 250.928 64.6962 250.424 64.2072C249.921 63.7183 249.67 63.0189 249.67 62.1092V53.8192H251.316V62.0409C251.316 62.5299 251.436 62.9052 251.676 63.1667C251.928 63.4283 252.282 63.5591 252.74 63.5591C253.254 63.5591 253.683 63.4169 254.026 63.1326L254.541 64.3096C254.289 64.5257 253.986 64.6849 253.632 64.7872C253.289 64.8896 252.928 64.9407 252.551 64.9407ZM248.126 57.1454V55.7979H253.923V57.1454H248.126Z" fill="#4B5563"/>
<path d="M260.106 64.9407C259.134 64.9407 258.276 64.7417 257.533 64.3437C256.801 63.9457 256.23 63.3999 255.818 62.7062C255.418 62.0125 255.218 61.2165 255.218 60.3181C255.218 59.4198 255.412 58.6237 255.801 57.9301C256.201 57.2364 256.744 56.6962 257.43 56.3096C258.128 55.9116 258.911 55.7126 259.78 55.7126C260.66 55.7126 261.438 55.9059 262.112 56.2925C262.787 56.6792 263.313 57.225 263.69 57.9301C264.079 58.6237 264.273 59.4368 264.273 60.3693C264.273 60.4375 264.268 60.5171 264.256 60.6081C264.256 60.6991 264.25 60.7844 264.239 60.864H256.504V59.687H263.381L262.713 60.0964C262.724 59.5164 262.604 58.999 262.352 58.5441C262.101 58.0893 261.752 57.7367 261.306 57.4866C260.872 57.225 260.363 57.0942 259.78 57.0942C259.208 57.0942 258.699 57.225 258.253 57.4866C257.807 57.7367 257.459 58.0949 257.207 58.5612C256.956 59.0161 256.83 59.5392 256.83 60.1305V60.4034C256.83 61.0061 256.967 61.5463 257.241 62.0239C257.527 62.4901 257.922 62.854 258.425 63.1156C258.928 63.3771 259.505 63.5079 260.157 63.5079C260.694 63.5079 261.18 63.4169 261.615 63.235C262.061 63.053 262.45 62.7801 262.781 62.4162L263.69 63.4738C263.278 63.9514 262.764 64.3153 262.147 64.5655C261.541 64.8156 260.86 64.9407 260.106 64.9407Z" fill="#4B5563"/>
<path d="M266.388 64.8384V52.1816H268.034V64.8384H266.388Z" fill="#4B5563"/>
<path d="M271.007 64.8384V52.1816H272.653V64.8384H271.007Z" fill="#4B5563"/>
<path d="M275.625 64.8384V55.7979H277.272V64.8384H275.625ZM276.448 54.058C276.128 54.058 275.86 53.9556 275.642 53.7509C275.436 53.5463 275.334 53.2961 275.334 53.0004C275.334 52.6934 275.436 52.4375 275.642 52.2328C275.86 52.0281 276.128 51.9258 276.448 51.9258C276.768 51.9258 277.031 52.0281 277.237 52.2328C277.455 52.4261 277.563 52.6706 277.563 52.9663C277.563 53.2733 277.46 53.5349 277.254 53.7509C277.049 53.9556 276.78 54.058 276.448 54.058Z" fill="#4B5563"/>
<path d="M284.223 68.2499C283.388 68.2499 282.576 68.1305 281.787 67.8917C281.01 67.6643 280.375 67.3345 279.884 66.9023L280.672 65.6401C281.096 66.004 281.616 66.2883 282.233 66.493C282.851 66.709 283.497 66.8171 284.171 66.8171C285.246 66.8171 286.035 66.5669 286.538 66.0665C287.041 65.5662 287.293 64.8043 287.293 63.7808V61.8704L287.464 60.0793L287.378 58.2712V55.7979H288.939V63.6102C288.939 65.2023 288.539 66.3736 287.739 67.1241C286.938 67.8746 285.766 68.2499 284.223 68.2499ZM284.017 64.4631C283.136 64.4631 282.348 64.2812 281.65 63.9173C280.964 63.542 280.415 63.0246 280.004 62.365C279.603 61.7055 279.403 60.9436 279.403 60.0793C279.403 59.2037 279.603 58.4418 280.004 57.7936C280.415 57.134 280.964 56.6223 281.65 56.2584C282.348 55.8945 283.136 55.7126 284.017 55.7126C284.794 55.7126 285.503 55.8718 286.143 56.1902C286.784 56.4972 287.293 56.9748 287.67 57.623C288.059 58.2712 288.253 59.09 288.253 60.0793C288.253 61.0573 288.059 61.8704 287.67 62.5185C287.293 63.1667 286.784 63.6557 286.143 63.9855C285.503 64.3039 284.794 64.4631 284.017 64.4631ZM284.205 63.0303C284.811 63.0303 285.349 62.9052 285.818 62.655C286.286 62.4048 286.652 62.058 286.915 61.6145C287.19 61.171 287.327 60.6593 287.327 60.0793C287.327 59.4994 287.19 58.9876 286.915 58.5441C286.652 58.1006 286.286 57.7595 285.818 57.5207C285.349 57.2705 284.811 57.1454 284.205 57.1454C283.6 57.1454 283.056 57.2705 282.576 57.5207C282.107 57.7595 281.736 58.1006 281.461 58.5441C281.198 58.9876 281.067 59.4994 281.067 60.0793C281.067 60.6593 281.198 61.171 281.461 61.6145C281.736 62.058 282.107 62.4048 282.576 62.655C283.056 62.9052 283.6 63.0303 284.205 63.0303Z" fill="#4B5563"/>
<path d="M295.961 64.9407C294.989 64.9407 294.132 64.7417 293.388 64.3437C292.657 63.9457 292.085 63.3999 291.673 62.7062C291.273 62.0125 291.073 61.2165 291.073 60.3181C291.073 59.4198 291.267 58.6237 291.656 57.9301C292.056 57.2364 292.599 56.6962 293.285 56.3096C293.983 55.9116 294.766 55.7126 295.635 55.7126C296.516 55.7126 297.293 55.9059 297.968 56.2925C298.642 56.6792 299.168 57.225 299.545 57.9301C299.934 58.6237 300.129 59.4368 300.129 60.3693C300.129 60.4375 300.123 60.5171 300.111 60.6081C300.111 60.6991 300.106 60.7844 300.094 60.864H292.359V59.687H299.237L298.568 60.0964C298.579 59.5164 298.459 58.999 298.208 58.5441C297.956 58.0893 297.607 57.7367 297.162 57.4866C296.727 57.225 296.218 57.0942 295.635 57.0942C295.063 57.0942 294.555 57.225 294.109 57.4866C293.663 57.7367 293.314 58.0949 293.063 58.5612C292.811 59.0161 292.685 59.5392 292.685 60.1305V60.4034C292.685 61.0061 292.822 61.5463 293.097 62.0239C293.383 62.4901 293.777 62.854 294.28 63.1156C294.783 63.3771 295.361 63.5079 296.012 63.5079C296.55 63.5079 297.036 63.4169 297.47 63.235C297.916 63.053 298.305 62.7801 298.636 62.4162L299.545 63.4738C299.134 63.9514 298.619 64.3153 298.002 64.5655C297.396 64.8156 296.716 64.9407 295.961 64.9407Z" fill="#4B5563"/>
<path d="M307.097 55.7126C307.84 55.7126 308.492 55.8547 309.052 56.139C309.624 56.4233 310.07 56.8554 310.39 57.4354C310.71 58.0153 310.87 58.7488 310.87 59.6358V64.8384H309.224V59.8234C309.224 58.9478 309.006 58.2883 308.572 57.8448C308.149 57.4013 307.549 57.1795 306.771 57.1795C306.188 57.1795 305.679 57.2932 305.245 57.5207C304.81 57.7481 304.473 58.0836 304.233 58.5271C304.004 58.9706 303.89 59.5221 303.89 60.1817V64.8384H302.243V55.7979H303.821V58.2371L303.564 57.5889C303.861 56.9976 304.319 56.537 304.936 56.2072C305.553 55.8775 306.274 55.7126 307.097 55.7126Z" fill="#4B5563"/>
<path d="M317.707 64.9407C316.781 64.9407 315.952 64.7417 315.22 64.3437C314.5 63.9457 313.934 63.3999 313.523 62.7062C313.111 62.0125 312.905 61.2165 312.905 60.3181C312.905 59.4198 313.111 58.6237 313.523 57.9301C313.934 57.2364 314.5 56.6962 315.22 56.3096C315.952 55.9116 316.781 55.7126 317.707 55.7126C318.531 55.7126 319.262 55.8775 319.903 56.2072C320.554 56.5256 321.057 57.0033 321.412 57.6401L320.16 58.4418C319.863 57.9983 319.497 57.6742 319.062 57.4695C318.639 57.2534 318.182 57.1454 317.69 57.1454C317.096 57.1454 316.564 57.2762 316.095 57.5377C315.626 57.7993 315.255 58.1689 314.98 58.6465C314.706 59.1127 314.569 59.6699 314.569 60.3181C314.569 60.9663 314.706 61.5292 314.98 62.0068C315.255 62.4844 315.626 62.854 316.095 63.1156C316.564 63.3771 317.096 63.5079 317.69 63.5079C318.182 63.5079 318.639 63.4055 319.062 63.2008C319.497 62.9848 319.863 62.655 320.16 62.2115L321.412 62.9962C321.057 63.6216 320.554 64.1049 319.903 64.4461C319.262 64.7758 318.531 64.9407 317.707 64.9407Z" fill="#4B5563"/>
<path d="M327.285 64.9407C326.314 64.9407 325.456 64.7417 324.713 64.3437C323.981 63.9457 323.409 63.3999 322.998 62.7062C322.598 62.0125 322.398 61.2165 322.398 60.3181C322.398 59.4198 322.592 58.6237 322.981 57.9301C323.381 57.2364 323.924 56.6962 324.61 56.3096C325.307 55.9116 326.091 55.7126 326.96 55.7126C327.84 55.7126 328.618 55.9059 329.292 56.2925C329.967 56.6792 330.493 57.225 330.87 57.9301C331.259 58.6237 331.453 59.4368 331.453 60.3693C331.453 60.4375 331.447 60.5171 331.436 60.6081C331.436 60.6991 331.43 60.7844 331.419 60.864H323.684V59.687H330.561L329.892 60.0964C329.904 59.5164 329.784 58.999 329.532 58.5441C329.281 58.0893 328.932 57.7367 328.486 57.4866C328.052 57.225 327.543 57.0942 326.96 57.0942C326.388 57.0942 325.879 57.225 325.433 57.4866C324.987 57.7367 324.639 58.0949 324.387 58.5612C324.136 59.0161 324.01 59.5392 324.01 60.1305V60.4034C324.01 61.0061 324.147 61.5463 324.421 62.0239C324.707 62.4901 325.102 62.854 325.605 63.1156C326.108 63.3771 326.685 63.5079 327.337 63.5079C327.874 63.5079 328.36 63.4169 328.795 63.235C329.241 63.053 329.629 62.7801 329.961 62.4162L330.87 63.4738C330.458 63.9514 329.944 64.3153 329.326 64.5655C328.72 64.8156 328.04 64.9407 327.285 64.9407Z" fill="#4B5563"/>
<path d="M337.079 19.0526V12.4486H334.479V11.5114H340.751V12.4486H338.151V19.0526H337.079Z" fill="#6B7280"/>
<path d="M341.93 19.0526V11.5114H342.819L346.22 17.2104H345.743L349.101 11.5114H349.989L350 19.0526H348.96L348.95 13.1381H349.199L346.209 18.1369H345.711L342.699 13.1381H342.97V19.0526H341.93Z" fill="#6B7280"/>
<path d="M64.4034 39.2522L54.8496 10.7463H62.5836L69.4077 34.4447L67.1899 34.6709L73.7296 10.7463H79.3027L85.7287 33.9922H83.9658L90.6762 10.7463H98.1827L88.6289 39.2522H82.0323L75.7769 18.8908L77.028 19.2302L71.0569 39.2522H64.4034Z" fill="#5D2BFF"/>
<path d="M112.632 40.1006C107.931 40.1006 104.405 38.7997 102.055 36.198C99.7041 33.5963 98.5288 29.8445 98.5288 24.9427C98.5288 19.7015 99.723 15.8932 102.111 13.5177C104.538 11.1422 108.026 9.95445 112.575 9.95445C115.76 9.95445 118.413 10.52 120.537 11.6512C122.66 12.7447 124.233 14.4038 125.257 16.6285C126.318 18.8531 126.849 21.6245 126.849 24.9427C126.849 29.8445 125.617 33.5963 123.152 36.198C120.726 38.7997 117.219 40.1006 112.632 40.1006ZM112.632 34.2184C114.3 34.2184 115.646 33.8414 116.67 33.0872C117.731 32.3331 118.508 31.2773 119.001 29.9199C119.494 28.5248 119.74 26.8657 119.74 24.9427C119.74 22.7934 119.475 21.0401 118.944 19.6827C118.451 18.3252 117.674 17.326 116.613 16.685C115.589 16.044 114.262 15.7235 112.632 15.7235C110.964 15.7235 109.618 16.0629 108.594 16.7416C107.571 17.4203 106.812 18.4384 106.32 19.7958C105.865 21.1532 105.637 22.8688 105.637 24.9427C105.637 27.9592 106.187 30.2593 107.286 31.8429C108.386 33.4266 110.168 34.2184 112.632 34.2184Z" fill="#5D2BFF"/>
<path d="M131.284 39.2522V13.5177C131.814 13.1783 132.743 12.7259 134.07 12.1603C135.435 11.5947 137.008 11.1045 138.79 10.6897C140.572 10.2372 142.373 10.011 144.193 10.011C145.557 10.011 146.638 10.1241 147.434 10.3504C148.268 10.5389 148.913 10.784 149.368 11.0856V16.5153C148.609 16.4022 147.737 16.308 146.752 16.2325C145.804 16.1571 144.818 16.1383 143.794 16.176C142.809 16.176 141.842 16.2137 140.894 16.2891C139.984 16.3645 139.188 16.4588 138.506 16.5719V39.2522H131.284Z" fill="#5D2BFF"/>
<path d="M158.414 23.1328L169.504 10.7463H178.318L162.111 26.9223L158.414 23.1328ZM159.95 39.2522H152.784V0H160.007L159.95 39.2522ZM163.589 20.3614L179.398 39.2522H170.243L158.471 25.1689L163.589 20.3614Z" fill="#5D2BFF"/>
<path d="M191.421 40.1006C189.373 40.1006 187.629 39.8744 186.189 39.4219C184.748 39.0071 183.364 38.4981 182.037 37.8948V31.447C182.909 32.0126 183.819 32.5594 184.767 33.0872C185.753 33.5774 186.795 33.9733 187.895 34.275C189.032 34.5766 190.245 34.7275 191.534 34.7275C193.051 34.7275 194.169 34.4447 194.89 33.8791C195.648 33.2758 196.027 32.5593 196.027 31.7298C196.027 30.938 195.743 30.3347 195.174 29.9199C194.605 29.4674 193.866 29.0904 192.956 28.7887C192.046 28.4871 191.079 28.1854 190.056 27.8838C189.108 27.6575 188.141 27.3559 187.156 26.9788C186.208 26.6018 185.336 26.0927 184.54 25.4517C183.744 24.8107 183.099 24 182.606 23.0197C182.151 22.0016 181.924 20.7761 181.924 19.3433C181.924 17.6465 182.265 16.2137 182.947 15.0448C183.63 13.8759 184.521 12.9332 185.62 12.2168C186.72 11.5004 187.933 10.9914 189.26 10.6897C190.587 10.3504 191.876 10.1807 193.127 10.1807C195.288 10.2561 197.032 10.52 198.358 10.9725C199.685 11.3873 200.936 11.934 202.112 12.6127L202.169 18.4384C200.842 17.7219 199.553 17.0809 198.302 16.5153C197.051 15.912 195.629 15.6104 194.037 15.6104C192.558 15.6104 191.402 15.8743 190.568 16.4022C189.771 16.8924 189.373 17.59 189.373 18.4949C189.373 19.2867 189.62 19.9278 190.113 20.4179C190.606 20.9081 191.25 21.2852 192.046 21.5491C192.842 21.8131 193.714 22.077 194.662 22.341C195.61 22.6049 196.596 22.9065 197.619 23.2459C198.643 23.5476 199.591 24 200.463 24.6033C201.335 25.2066 202.036 26.0173 202.567 27.0354C203.135 28.0157 203.42 29.3355 203.42 30.9945C203.382 33.1815 202.794 34.9537 201.657 36.3111C200.519 37.6308 199.022 38.5924 197.164 39.1957C195.344 39.799 193.43 40.1006 191.421 40.1006Z" fill="black"/>
<path d="M218.924 40.1572C215.967 40.1572 213.711 39.4407 212.156 38.0079C210.602 36.5374 209.825 34.4258 209.825 31.6733V16.4022H205.389V10.7463H209.825V2.88453H217.274V10.7463H223.928V16.4022H217.274V30.5421C217.274 31.711 217.502 32.5782 217.957 33.1438C218.412 33.7094 219.208 33.9922 220.345 33.9922C220.952 33.9922 221.577 33.8979 222.222 33.7094C222.904 33.4832 223.473 33.2192 223.928 32.9176V39.1391C223.17 39.5162 222.336 39.7801 221.426 39.9309C220.554 40.0817 219.72 40.1572 218.924 40.1572Z" fill="black"/>
<path d="M239.307 40.1006C237.715 40.1006 236.198 39.9498 234.758 39.6481C233.317 39.3465 232.028 38.8563 230.891 38.1776C229.753 37.4612 228.843 36.4997 228.161 35.2931C227.517 34.0487 227.194 32.5028 227.194 30.6552C227.194 28.7322 227.592 27.1108 228.389 25.7911C229.185 24.4337 230.341 23.4156 231.857 22.7369C233.412 22.0205 235.307 21.6622 237.544 21.6622C238.909 21.6622 240.179 21.7942 241.354 22.0582C242.53 22.2844 243.591 22.6049 244.539 23.0197C245.487 23.4344 246.264 23.8869 246.871 24.3771L247.382 28.3928C246.586 27.8649 245.563 27.4502 244.311 27.1485C243.098 26.8091 241.771 26.6395 240.331 26.6395C238.321 26.6395 236.824 26.96 235.838 27.601C234.853 28.242 234.36 29.2412 234.36 30.5986C234.36 31.5413 234.625 32.3331 235.156 32.9741C235.687 33.5774 236.369 34.0487 237.203 34.3881C238.037 34.6898 238.909 34.8406 239.819 34.8406C241.904 34.8406 243.402 34.7086 244.311 34.4447C245.259 34.143 245.733 33.5209 245.733 32.5782V21.3229C245.733 19.4753 245.146 18.1367 243.97 17.3072C242.795 16.4399 241.146 16.0063 239.023 16.0063C237.393 16.0063 235.724 16.2891 234.018 16.8547C232.312 17.3826 230.929 18.0801 229.867 18.9474V12.4431C230.891 11.8021 232.426 11.2365 234.473 10.7463C236.521 10.2561 238.719 10.011 241.07 10.011C242.056 10.011 243.098 10.1053 244.198 10.2938C245.297 10.4823 246.34 10.784 247.325 11.1988C248.349 11.6135 249.278 12.198 250.112 12.9521C250.946 13.6685 251.609 14.5923 252.102 15.7235C252.595 16.817 252.842 18.1556 252.842 19.7392V33.2569C252.842 35.0291 252.273 36.4242 251.136 37.4423C249.998 38.4227 248.425 39.1014 246.416 39.4784C244.406 39.8932 242.037 40.1006 239.307 40.1006Z" fill="black"/>
<path d="M269.811 40.1572C266.854 40.1572 264.598 39.4407 263.044 38.0079C261.49 36.5374 260.712 34.4258 260.712 31.6733V16.4022H256.277V10.7463H260.712V2.88453H268.162V10.7463H274.816V16.4022H268.162V30.5421C268.162 31.711 268.39 32.5782 268.844 33.1438C269.299 33.7094 270.096 33.9922 271.233 33.9922C271.84 33.9922 272.465 33.8979 273.11 33.7094C273.792 33.4832 274.361 33.2192 274.816 32.9176V39.1391C274.057 39.5162 273.223 39.7801 272.313 39.9309C271.441 40.0817 270.607 40.1572 269.811 40.1572Z" fill="black"/>
<path d="M292.583 40.1006C289.929 40.1006 287.617 39.6858 285.645 38.8563C283.712 37.9891 282.195 36.707 281.096 35.0103C280.034 33.3135 279.504 31.1454 279.504 28.5059V10.7463H286.726V27.7707C286.726 29.8822 287.2 31.447 288.147 32.4651C289.095 33.4832 290.574 33.9922 292.583 33.9922C294.668 33.9922 296.166 33.4832 297.076 32.4651C298.023 31.447 298.497 29.8822 298.497 27.7707V10.7463H305.321V28.5059C305.321 32.4274 304.184 35.3496 301.909 37.2726C299.673 39.1579 296.564 40.1006 292.583 40.1006Z" fill="black"/>
<path d="M319.695 40.1006C317.648 40.1006 315.904 39.8744 314.463 39.4219C313.022 39.0071 311.639 38.4981 310.312 37.8948V31.447C311.184 32.0126 312.093 32.5594 313.041 33.0872C314.027 33.5774 315.07 33.9733 316.169 34.275C317.306 34.5766 318.52 34.7275 319.809 34.7275C321.325 34.7275 322.443 34.4447 323.164 33.8791C323.922 33.2758 324.301 32.5593 324.301 31.7298C324.301 30.938 324.017 30.3347 323.448 29.9199C322.879 29.4674 322.14 29.0904 321.23 28.7887C320.32 28.4871 319.354 28.1854 318.33 27.8838C317.382 27.6575 316.415 27.3559 315.43 26.9788C314.482 26.6018 313.61 26.0927 312.814 25.4517C312.018 24.8107 311.373 24 310.88 23.0197C310.425 22.0016 310.198 20.7761 310.198 19.3433C310.198 17.6465 310.539 16.2137 311.222 15.0448C311.904 13.8759 312.795 12.9332 313.894 12.2168C314.994 11.5004 316.207 10.9914 317.534 10.6897C318.861 10.3504 320.15 10.1807 321.401 10.1807C323.562 10.2561 325.306 10.52 326.633 10.9725C327.96 11.3873 329.211 11.934 330.386 12.6127L330.443 18.4384C329.116 17.7219 327.827 17.0809 326.576 16.5153C325.325 15.912 323.903 15.6104 322.311 15.6104C320.832 15.6104 319.676 15.8743 318.842 16.4022C318.046 16.8924 317.648 17.59 317.648 18.4949C317.648 19.2867 317.894 19.9278 318.387 20.4179C318.88 20.9081 319.524 21.2852 320.32 21.5491C321.116 21.8131 321.988 22.077 322.936 22.341C323.884 22.6049 324.87 22.9065 325.893 23.2459C326.917 23.5476 327.865 24 328.737 24.6033C329.609 25.2066 330.31 26.0173 330.841 27.0354C331.409 28.0157 331.694 29.3355 331.694 30.9945C331.656 33.1815 331.068 34.9537 329.931 36.3111C328.794 37.6308 327.296 38.5924 325.438 39.1957C323.619 39.799 321.704 40.1006 319.695 40.1006Z" fill="black"/>
<path fill-rule="evenodd" clip-rule="evenodd" d="M5.17288 21.5743C4.71371 25.3862 5.60359 29.2381 7.68963 32.4682C9.77567 35.6983 12.9276 38.1049 16.6039 39.2746C20.2801 40.4442 24.2511 40.3037 27.8346 38.8774C31.4181 37.451 34.3902 34.8278 36.2403 31.4585C38.0905 28.0892 38.7031 24.1842 37.9729 20.4144C37.2427 16.6446 35.2153 13.2454 32.2391 10.801C29.9188 8.8953 27.1347 7.66262 24.1913 7.21186L24.1913 10.2517C24.1913 11.6401 23.0597 12.7656 21.6639 12.7656C20.268 12.7656 19.1364 11.6401 19.1364 10.2517L19.1364 4.86468C19.1364 3.29016 20.4282 1.96459 22.0726 1.99544C26.9618 2.08716 31.6807 3.822 35.4576 6.92402C39.3397 10.1124 41.9841 14.5461 42.9365 19.4632C43.8889 24.3803 43.0899 29.4738 40.6767 33.8686C38.2634 38.2634 34.3867 41.6849 29.7126 43.5454C25.0386 45.4058 19.859 45.589 15.0639 44.0634C10.2687 42.5378 6.15752 39.3988 3.4366 35.1856C0.715678 30.9724 -0.445039 25.9482 0.153889 20.9762C0.752817 16.0042 3.07399 11.3949 6.71858 7.94038C7.72909 6.98255 9.32891 7.02088 10.2919 8.026C11.2549 9.03111 11.2163 10.6224 10.2058 11.5802C7.41163 14.2287 5.63206 17.7625 5.17288 21.5743Z" fill="black"/>
<path fill-rule="evenodd" clip-rule="evenodd" d="M12.6558 14.2198C13.6428 13.2381 15.2431 13.2381 16.2301 14.2198L24.1736 22.1208C25.1606 23.1026 25.1606 24.6943 24.1736 25.6761C23.1865 26.6578 21.5862 26.6578 20.5992 25.6761L12.6558 17.7751C11.6688 16.7933 11.6688 15.2016 12.6558 14.2198Z" fill="#5D2BFF"/>
</svg>
