<svg width="94" height="53" viewBox="0 0 94 53" fill="none" xmlns="http://www.w3.org/2000/svg">
<rect width="94" height="53" rx="5" fill="#020218" fill-opacity="0.39"/>
<path d="M26.2978 33.5853V39.2296H24.5131V25.2874H29.2397C30.4403 25.2874 31.457 25.6897 32.3006 26.4945C33.1551 27.2993 33.5769 28.2781 33.5769 29.4309C33.5769 30.6163 33.1551 31.5951 32.3006 32.389C31.4786 33.1829 30.4511 33.5744 29.2397 33.5744H26.2978V33.5853ZM26.2978 27.0057V31.8779H29.283C29.9968 31.8779 30.5809 31.6386 31.046 31.1601C31.5219 30.6816 31.7598 30.1052 31.7598 29.4418C31.7598 28.7892 31.5219 28.2237 31.046 27.7452C30.5809 27.2558 29.9968 27.0057 29.283 27.0057H26.2978Z" fill="white"/>
<path d="M38.3467 29.3765C39.6662 29.3765 40.7045 29.7354 41.4617 30.4423C42.2188 31.1492 42.6081 32.1171 42.6081 33.3569V39.2405H40.8992V37.9137H40.8235C40.088 39.0012 39.1038 39.545 37.8816 39.545C36.8324 39.545 35.9563 39.2296 35.2533 38.6097C34.5503 37.9898 34.1933 37.2068 34.1933 36.2715C34.1933 35.2818 34.5611 34.4988 35.3074 33.9115C36.0537 33.3242 37.0379 33.0306 38.2818 33.0306C39.3417 33.0306 40.207 33.2264 40.8992 33.6179V33.2046C40.8992 32.5847 40.6505 32.0518 40.1637 31.6168C39.677 31.1818 39.093 30.9643 38.444 30.9643C37.4489 30.9643 36.6594 31.3884 36.0861 32.2258L34.5178 31.2362C35.3723 30.0072 36.6486 29.3765 38.3467 29.3765ZM36.0429 36.315C36.0429 36.7826 36.2375 37.1741 36.6377 37.4786C37.0271 37.794 37.4922 37.9463 38.0222 37.9463C38.7685 37.9463 39.4391 37.6635 40.0231 37.1089C40.6072 36.5542 40.8992 35.8908 40.8992 35.1404C40.3476 34.6945 39.5689 34.477 38.5738 34.477C37.8491 34.477 37.2434 34.651 36.7675 34.999C36.2808 35.3579 36.0429 35.793 36.0429 36.315Z" fill="white"/>
<path d="M44.6199 29.6918H46.3288V31.247H46.4045C46.9345 30.029 48.0269 29.4199 49.6818 29.4199L50.0495 29.4634V31.334L49.26 31.2579C48.4379 31.2579 47.7565 31.5189 47.2157 32.03C46.6749 32.5412 46.4154 33.1937 46.4154 33.9876V39.2513H44.6307V29.6918H44.6199ZM55.7387 39.3927C54.96 39.3927 54.3218 39.1534 53.8135 38.6749C53.3051 38.1964 53.0455 37.5221 53.0239 36.6738V31.334H51.3582V29.7027H53.0239V26.7772H54.8085V29.7027H57.134V31.334H54.8085V36.0866C54.8085 36.7282 54.9275 37.1524 55.1763 37.3807C55.425 37.6091 55.6954 37.7179 56.0091 37.7179C56.1497 37.7179 56.2903 37.707 56.4309 37.6744C56.5715 37.6418 56.6905 37.5982 56.8095 37.5439L57.3719 39.1426C56.896 39.3057 56.3552 39.3927 55.7387 39.3927Z" fill="white"/>
<path d="M58.9294 29.6918H60.6384V31.0186H60.7141C60.9845 30.5509 61.4063 30.1594 61.9687 29.8549C62.5312 29.5395 63.1152 29.3873 63.7209 29.3873C64.8782 29.3873 65.7759 29.7244 66.4033 30.3878C67.0306 31.0512 67.3443 32.0082 67.3443 33.2372V39.2404H65.5596V33.3568C65.5164 31.8016 64.7376 31.0186 63.2126 31.0186C62.4987 31.0186 61.9038 31.3122 61.4279 31.8886C60.952 32.465 60.7141 33.161 60.7141 33.9658V39.2404H58.9294V29.6918Z" fill="white"/>
<path d="M73.6932 39.545C72.2979 39.545 71.1514 39.0664 70.2429 38.0985C69.3343 37.1415 68.8909 35.9235 68.8909 34.4553C68.8909 32.998 69.3343 31.7908 70.2104 30.8229C71.0865 29.855 72.2114 29.3765 73.585 29.3765C74.9911 29.3765 76.1159 29.8332 76.9488 30.7468C77.7816 31.6603 78.2034 32.9436 78.2034 34.5967L78.1818 34.7924H70.7188C70.7404 35.7277 71.0541 36.4781 71.649 37.0545C72.2438 37.6309 72.9577 37.9137 73.7797 37.9137C74.9154 37.9137 75.8023 37.3373 76.4512 36.1953L78.0412 36.9784C77.6194 37.7831 77.0245 38.4139 76.2674 38.8707C75.4994 39.3166 74.645 39.545 73.6932 39.545ZM70.8486 33.3134H76.289C76.2349 32.65 75.9645 32.1062 75.4886 31.6712C75.0019 31.2362 74.3529 31.0186 73.5417 31.0186C72.8712 31.0186 72.2871 31.2253 71.8112 31.6385C71.3245 32.0518 71 32.6173 70.8486 33.3134Z" fill="white"/>
<path d="M81.5997 39.2404H79.815V29.6918H81.5239V31.247H81.5997C81.7835 30.7358 82.1513 30.3117 82.7137 29.9528C83.2761 29.5939 83.8277 29.4199 84.3685 29.4199C84.8877 29.4199 85.3203 29.4961 85.6881 29.6483L85.1473 31.3775C84.931 31.2905 84.574 31.2361 84.0981 31.2361C83.4275 31.2361 82.8435 31.508 82.3459 32.0518C81.8484 32.5955 81.5997 33.2372 81.5997 33.9658V39.2404Z" fill="white"/>
<path d="M28.5475 17.1417V18.3597H31.4462C31.3488 19.1319 31.0352 19.73 30.4944 20.1542C29.9644 20.5783 29.3154 20.7849 28.5475 20.7849C27.6498 20.7849 26.9035 20.4695 26.287 19.8388C25.6705 19.2189 25.3676 18.4467 25.3676 17.5441C25.3676 16.6414 25.6705 15.8801 26.287 15.2493C26.9035 14.6186 27.6498 14.3032 28.5475 14.3032C29.3803 14.3032 30.105 14.5968 30.7323 15.1732L31.5868 14.3141C30.7323 13.4984 29.7156 13.0851 28.5475 13.0851C27.7579 13.0851 27.0116 13.2918 26.2978 13.6942C25.5947 14.0966 25.0431 14.6403 24.6429 15.3364C24.2428 16.0215 24.0481 16.7502 24.0481 17.5441C24.0481 18.338 24.2428 19.0775 24.6429 19.7626C25.0431 20.4478 25.5947 20.9916 26.2978 21.394C27.0008 21.7963 27.7471 22.003 28.5475 22.003C29.7481 22.003 30.7323 21.6223 31.5219 20.8719C32.3006 20.1215 32.69 19.1427 32.69 17.9029C32.69 17.6093 32.6684 17.3592 32.6251 17.1417H28.5475Z" fill="#016BE3"/>
<path d="M35.978 16.2607C35.1668 16.2607 34.4854 16.5326 33.9338 17.0873C33.3822 17.631 33.1118 18.3162 33.1118 19.1319C33.1118 19.9366 33.393 20.6218 33.9446 21.1764C34.4963 21.7311 35.1668 22.003 35.978 22.003C36.7892 22.003 37.4598 21.7311 38.0114 21.1764C38.5631 20.6218 38.8443 19.9366 38.8443 19.1319C38.8443 18.3162 38.5631 17.631 38.0114 17.0873C37.4706 16.5326 36.7892 16.2607 35.978 16.2607ZM37.1137 20.3716C36.8001 20.7088 36.4215 20.8719 35.978 20.8719C35.5238 20.8719 35.1452 20.7088 34.8316 20.3716C34.5179 20.0345 34.3665 19.6212 34.3665 19.1319C34.3665 18.6207 34.5179 18.2074 34.8316 17.8921C35.1452 17.5549 35.5238 17.3918 35.978 17.3918C36.4323 17.3918 36.8109 17.5549 37.1245 17.8921C37.4382 18.2074 37.5896 18.6207 37.5896 19.1319C37.5896 19.6104 37.4382 20.0236 37.1137 20.3716Z" fill="#EF372C"/>
<path d="M53.1971 13.3896H51.9424V21.8181H53.1971V13.3896Z" fill="#00AC4E"/>
<path d="M42.2297 16.2607C41.4185 16.2607 40.7371 16.5326 40.1855 17.0873C39.6339 17.631 39.3635 18.3162 39.3635 19.1319C39.3635 19.9366 39.6447 20.6218 40.1963 21.1764C40.7479 21.7311 41.4185 22.003 42.2297 22.003C43.0409 22.003 43.7115 21.7311 44.2631 21.1764C44.8147 20.6218 45.0959 19.9366 45.0959 19.1319C45.0959 18.3162 44.8147 17.631 44.2631 17.0873C43.7115 16.5326 43.0301 16.2607 42.2297 16.2607ZM43.3654 20.3716C43.0517 20.7088 42.6731 20.8719 42.2297 20.8719C41.7754 20.8719 41.3969 20.7088 41.0832 20.3716C40.7695 20.0345 40.6181 19.6212 40.6181 19.1319C40.6181 18.6207 40.7695 18.2074 41.0832 17.8921C41.3969 17.5549 41.7754 17.3918 42.2297 17.3918C42.684 17.3918 43.0625 17.5549 43.3762 17.8921C43.6898 18.2074 43.8413 18.6207 43.8413 19.1319C43.8413 19.6104 43.679 20.0236 43.3654 20.3716Z" fill="#FDB614"/>
<path d="M56.6257 20.8719C55.9984 20.8719 55.5333 20.5783 55.2413 20.0019L59.0593 18.4141L58.9295 18.0878C58.8322 17.8159 58.7024 17.5767 58.5402 17.3483C58.3779 17.1199 58.1941 16.935 57.9886 16.7719C57.7831 16.6087 57.5451 16.4891 57.2963 16.4021C57.0476 16.3151 56.7772 16.2716 56.4959 16.2716C55.728 16.2716 55.0899 16.5435 54.5707 17.0873C54.0624 17.6419 53.8028 18.3271 53.8028 19.1427C53.8028 19.9584 54.0732 20.6326 54.614 21.1873C55.1548 21.7419 55.8254 22.0138 56.6366 22.0138C57.6424 22.0138 58.432 21.5897 59.0161 20.7414L58.0426 20.0889C57.6749 20.6 57.2098 20.8719 56.6257 20.8719ZM55.4684 17.8485C55.7821 17.5332 56.139 17.37 56.5284 17.37C56.7772 17.37 56.9935 17.4244 57.1882 17.5332C57.3829 17.6419 57.5127 17.7942 57.5884 17.9682L55.0358 19.034C55.025 18.5554 55.1656 18.1639 55.4684 17.8485Z" fill="#EF372C"/>
<path d="M49.8874 16.9024H49.8441C49.4872 16.4783 48.9788 16.2607 48.3407 16.2607C47.6052 16.2607 46.9671 16.5435 46.4154 17.109C45.8746 17.6745 45.6042 18.3488 45.6042 19.1427C45.6042 19.9258 45.8746 20.6 46.4154 21.1656C46.9671 21.7202 47.616 22.003 48.3407 22.003C48.9788 22.003 49.4872 21.7854 49.8441 21.3504H49.8874V21.6441C49.8874 22.8512 49.379 23.4494 48.3623 23.4494C48.0378 23.4494 47.7458 23.3515 47.497 23.1666C47.2483 22.9817 47.0536 22.7316 46.9238 22.4271L45.8314 22.8839C45.9395 23.134 46.0801 23.3624 46.2424 23.569C46.4046 23.7756 46.5993 23.9497 46.8156 24.1019C47.032 24.2542 47.2699 24.3629 47.5295 24.4499C47.7891 24.5369 48.0595 24.5696 48.3515 24.5696C49.206 24.5696 49.8657 24.3085 50.3416 23.7974C50.8175 23.2754 51.0555 22.5467 51.0555 21.5897V16.4456H49.8657V16.9024H49.8874ZM49.5304 20.3825C49.2384 20.7088 48.8707 20.8719 48.4488 20.8719C48.0054 20.8719 47.6268 20.7088 47.3132 20.3716C47.0103 20.0345 46.8589 19.6321 46.8589 19.1427C46.8589 18.6533 47.0103 18.2401 47.324 17.9029C47.6376 17.5658 48.0162 17.3918 48.4488 17.3918C48.8815 17.3918 49.2384 17.5549 49.5304 17.8921C49.8225 18.2292 49.9739 18.6533 49.9739 19.1427C49.9739 19.6212 49.8225 20.0345 49.5304 20.3825Z" fill="#016BE3"/>
<path d="M17.115 9.08295H8.02962V43.819H17.115V9.08295Z" fill="#016BE3"/>
</svg>
