<svg width="94" height="53" viewBox="0 0 94 53" fill="none" xmlns="http://www.w3.org/2000/svg">
<rect width="94" height="53" rx="5" fill="#020218" fill-opacity="0.39"/>
<g clip-path="url(#clip0_2238_2421)">
<path d="M12.6446 19.8337C12.6446 20.6829 12.8299 21.3348 13.0722 21.7293C13.3899 22.2459 13.8637 22.4647 14.3467 22.4647C14.9697 22.4647 15.5397 22.3093 16.638 20.7819C17.5179 19.5576 18.5548 17.8391 19.2524 16.7618L20.4338 14.9366C21.2545 13.6691 22.2044 12.26 23.2935 11.3048C24.1827 10.5253 25.1418 10.0922 26.1071 10.0922C27.7277 10.0922 29.2714 11.0365 30.4528 12.8075C31.7458 14.7472 32.3734 17.1903 32.3734 19.7115C32.3734 21.2103 32.0796 22.3116 31.5796 23.1817C31.0966 24.0231 30.1552 24.8638 28.5715 24.8638V22.4647C29.9275 22.4647 30.2659 21.2119 30.2659 19.778C30.2659 17.7347 29.7921 15.4672 28.7484 13.8469C28.0077 12.6977 27.0478 11.9955 25.9917 11.9955C24.8495 11.9955 23.9304 12.8616 22.8974 14.4061C22.3482 15.2266 21.7844 16.2266 21.1514 17.355L20.4546 18.5963C19.0547 21.092 18.7001 21.6604 18.0002 22.5985C16.7734 24.2412 15.7258 24.8638 14.3467 24.8638C12.7107 24.8638 11.6762 24.1515 11.0355 23.078C10.5125 22.2033 10.2556 21.0556 10.2556 19.7478L12.6446 19.8337Z" fill="#0081FB"/>
<path d="M12.1395 12.9769C13.2348 11.2793 14.8154 10.0922 16.6283 10.0922C17.6782 10.0922 18.7219 10.4046 19.8118 11.2994C21.004 12.2777 22.2747 13.8887 23.8599 16.5437L24.4283 17.4965C25.8005 19.795 26.5812 20.9775 27.038 21.5351C27.6257 22.2513 28.0372 22.4647 28.5717 22.4647C29.9278 22.4647 30.2662 21.2119 30.2662 19.778L32.3737 19.7115C32.3737 21.2103 32.0799 22.3116 31.5799 23.1817C31.0969 24.0231 30.1554 24.8638 28.5717 24.8638C27.5872 24.8638 26.715 24.6488 25.7505 23.7339C25.009 23.0316 24.1422 21.7842 23.4753 20.6628L21.4917 17.331C20.4964 15.659 19.5834 14.4123 19.055 13.8477C18.4866 13.2406 17.7559 12.5074 16.5898 12.5074C15.6461 12.5074 14.8446 13.1733 14.1739 14.1919L12.1395 12.9769Z" fill="url(#paint0_linear_2238_2421)"/>
<path d="M16.5896 12.5074C15.6458 12.5074 14.8444 13.1733 14.1737 14.1919C13.2253 15.6311 12.6446 17.7749 12.6446 19.8337C12.6446 20.6829 12.8299 21.3348 13.0722 21.7293L11.0355 23.078C10.5125 22.2033 10.2556 21.0556 10.2556 19.7478C10.2556 17.3697 10.9048 14.891 12.1392 12.9769C13.2345 11.2793 14.8151 10.0922 16.628 10.0922L16.5896 12.5074Z" fill="url(#paint1_linear_2238_2421)"/>
<path d="M37.0177 10.5593H39.7813L44.48 19.1068L49.1796 10.5593H51.8832V24.604H49.6288V13.84L45.5076 21.2939H43.3925L39.2721 13.84V24.604H37.0177V10.5593ZM58.9471 15.7959C57.3303 15.7959 56.3566 17.0194 56.1235 18.5344H61.6107C61.4976 16.9738 60.6023 15.7959 58.9471 15.7959ZM53.8883 19.3975C53.8883 16.2097 55.9374 13.8895 58.9863 13.8895C61.9852 13.8895 63.7758 16.1803 63.7758 19.5677V20.1903H56.1235C56.395 21.8383 57.4826 22.9489 59.2363 22.9489C60.6354 22.9489 61.5099 22.5197 62.3391 21.7347L63.5366 23.2095C62.4083 24.2528 60.973 24.8545 59.1563 24.8545C55.8558 24.8545 53.8883 22.4346 53.8883 19.3975ZM66.5094 15.997H64.4342V14.1409H66.5094V11.0713H68.6846V14.1409H71.8373V15.997H68.6846V20.7015C68.6846 22.3078 69.1953 22.8785 70.4506 22.8785C71.0236 22.8785 71.352 22.829 71.8373 22.7478V24.5838C71.2328 24.7555 70.6559 24.8344 70.0314 24.8344C67.6831 24.8344 66.5094 23.5444 66.5094 20.9621V15.997ZM80.9964 17.8021C80.5596 16.693 79.585 15.8763 78.1529 15.8763C76.2915 15.8763 75.1001 17.2042 75.1001 19.3674C75.1001 21.4764 76.1969 22.8685 78.0637 22.8685C79.5312 22.8685 80.5788 22.01 80.9964 20.942V17.8021ZM83.1716 24.604H81.0364V23.1392C80.4396 24.0015 79.3535 24.8545 77.5945 24.8545C74.7655 24.8545 72.8749 22.4733 72.8749 19.3674C72.8749 16.2321 74.8109 13.8895 77.7145 13.8895C79.1497 13.8895 80.2757 14.4665 81.0364 15.485V14.1409H83.1716V24.604Z" fill="white"/>
</g>
<path d="M12.4456 38.7398C12.1123 38.7398 11.8089 38.6731 11.5356 38.5398C11.2623 38.4064 11.0423 38.2264 10.8756 37.9998C10.7089 37.7731 10.6256 37.5164 10.6256 37.2298C10.6256 36.7698 10.8123 36.4031 11.1856 36.1298C11.5589 35.8564 12.0456 35.6764 12.6456 35.5898L14.1356 35.3798V35.0898C14.1356 34.7698 14.0423 34.5198 13.8556 34.3398C13.6756 34.1598 13.3789 34.0698 12.9656 34.0698C12.6656 34.0698 12.4223 34.1298 12.2356 34.2498C12.0556 34.3698 11.9289 34.5231 11.8556 34.7098C11.8156 34.8098 11.7456 34.8598 11.6456 34.8598H11.1956C11.1223 34.8598 11.0656 34.8398 11.0256 34.7998C10.9923 34.7531 10.9756 34.6998 10.9756 34.6398C10.9756 34.5398 11.0123 34.4164 11.0856 34.2698C11.1656 34.1231 11.2856 33.9798 11.4456 33.8398C11.6056 33.6998 11.8089 33.5831 12.0556 33.4898C12.3089 33.3898 12.6156 33.3398 12.9756 33.3398C13.3756 33.3398 13.7123 33.3931 13.9856 33.4998C14.2589 33.5998 14.4723 33.7364 14.6256 33.9098C14.7856 34.0831 14.8989 34.2798 14.9656 34.4998C15.0389 34.7198 15.0756 34.9431 15.0756 35.1698V38.4098C15.0756 38.4764 15.0523 38.5331 15.0056 38.5798C14.9656 38.6198 14.9123 38.6398 14.8456 38.6398H14.3856C14.3123 38.6398 14.2556 38.6198 14.2156 38.5798C14.1756 38.5331 14.1556 38.4764 14.1556 38.4098V37.9798C14.0689 38.0998 13.9523 38.2198 13.8056 38.3398C13.6589 38.4531 13.4756 38.5498 13.2556 38.6298C13.0356 38.7031 12.7656 38.7398 12.4456 38.7398ZM12.6556 37.9898C12.9289 37.9898 13.1789 37.9331 13.4056 37.8198C13.6323 37.6998 13.8089 37.5164 13.9356 37.2698C14.0689 37.0231 14.1356 36.7131 14.1356 36.3398V36.0598L12.9756 36.2298C12.5023 36.2964 12.1456 36.4098 11.9056 36.5698C11.6656 36.7231 11.5456 36.9198 11.5456 37.1598C11.5456 37.3464 11.5989 37.5031 11.7056 37.6298C11.8189 37.7498 11.9589 37.8398 12.1256 37.8998C12.2989 37.9598 12.4756 37.9898 12.6556 37.9898ZM18.4132 38.7398C18.0465 38.7398 17.7298 38.6764 17.4632 38.5498C17.1965 38.4164 16.9765 38.2398 16.8032 38.0198C16.6365 37.7931 16.5098 37.5364 16.4232 37.2498C16.3432 36.9631 16.2965 36.6598 16.2832 36.3398C16.2765 36.2331 16.2732 36.1331 16.2732 36.0398C16.2732 35.9464 16.2765 35.8464 16.2832 35.7398C16.2965 35.4264 16.3432 35.1264 16.4232 34.8398C16.5098 34.5531 16.6365 34.2964 16.8032 34.0698C16.9765 33.8431 17.1965 33.6664 17.4632 33.5398C17.7298 33.4064 18.0465 33.3398 18.4132 33.3398C18.8065 33.3398 19.1332 33.4098 19.3932 33.5498C19.6532 33.6898 19.8665 33.8631 20.0332 34.0698V31.7698C20.0332 31.7031 20.0532 31.6498 20.0932 31.6098C20.1398 31.5631 20.1965 31.5398 20.2632 31.5398H20.7432C20.8098 31.5398 20.8632 31.5631 20.9032 31.6098C20.9498 31.6498 20.9732 31.7031 20.9732 31.7698V38.4098C20.9732 38.4764 20.9498 38.5331 20.9032 38.5798C20.8632 38.6198 20.8098 38.6398 20.7432 38.6398H20.2932C20.2198 38.6398 20.1632 38.6198 20.1232 38.5798C20.0832 38.5331 20.0632 38.4764 20.0632 38.4098V37.9898C19.8965 38.2031 19.6798 38.3831 19.4132 38.5298C19.1465 38.6698 18.8132 38.7398 18.4132 38.7398ZM18.6232 37.9298C18.9565 37.9298 19.2232 37.8531 19.4232 37.6998C19.6232 37.5464 19.7732 37.3531 19.8732 37.1198C19.9732 36.8798 20.0265 36.6364 20.0332 36.3898C20.0398 36.2831 20.0432 36.1564 20.0432 36.0098C20.0432 35.8564 20.0398 35.7264 20.0332 35.6198C20.0265 35.3864 19.9698 35.1564 19.8632 34.9298C19.7632 34.7031 19.6098 34.5164 19.4032 34.3698C19.2032 34.2231 18.9432 34.1498 18.6232 34.1498C18.2832 34.1498 18.0132 34.2264 17.8132 34.3798C17.6132 34.5264 17.4698 34.7231 17.3832 34.9698C17.2965 35.2098 17.2465 35.4698 17.2332 35.7498C17.2265 35.9431 17.2265 36.1364 17.2332 36.3298C17.2465 36.6098 17.2965 36.8731 17.3832 37.1198C17.4698 37.3598 17.6132 37.5564 17.8132 37.7098C18.0132 37.8564 18.2832 37.9298 18.6232 37.9298ZM24.2604 38.7398C23.8871 38.7398 23.5671 38.6931 23.3004 38.5998C23.0338 38.5064 22.8171 38.3931 22.6504 38.2598C22.4838 38.1264 22.3571 37.9931 22.2704 37.8598C22.1904 37.7264 22.1471 37.6198 22.1404 37.5398C22.1338 37.4664 22.1571 37.4098 22.2104 37.3698C22.2638 37.3298 22.3171 37.3098 22.3704 37.3098H22.8104C22.8504 37.3098 22.8804 37.3164 22.9004 37.3298C22.9271 37.3364 22.9604 37.3631 23.0004 37.4098C23.0871 37.5031 23.1838 37.5964 23.2904 37.6898C23.3971 37.7831 23.5271 37.8598 23.6804 37.9198C23.8404 37.9798 24.0371 38.0098 24.2704 38.0098C24.6104 38.0098 24.8904 37.9464 25.1104 37.8198C25.3304 37.6864 25.4404 37.4931 25.4404 37.2398C25.4404 37.0731 25.3938 36.9398 25.3004 36.8398C25.2138 36.7398 25.0538 36.6498 24.8204 36.5698C24.5938 36.4898 24.2804 36.4064 23.8804 36.3198C23.4804 36.2264 23.1638 36.1131 22.9304 35.9798C22.6971 35.8398 22.5304 35.6764 22.4304 35.4898C22.3304 35.2964 22.2804 35.0798 22.2804 34.8398C22.2804 34.5931 22.3538 34.3564 22.5004 34.1298C22.6471 33.8964 22.8604 33.7064 23.1404 33.5598C23.4271 33.4131 23.7838 33.3398 24.2104 33.3398C24.5571 33.3398 24.8538 33.3831 25.1004 33.4698C25.3471 33.5564 25.5504 33.6664 25.7104 33.7998C25.8704 33.9264 25.9904 34.0531 26.0704 34.1798C26.1504 34.3064 26.1938 34.4131 26.2004 34.4998C26.2071 34.5664 26.1871 34.6231 26.1404 34.6698C26.0938 34.7098 26.0404 34.7298 25.9804 34.7298H25.5604C25.5138 34.7298 25.4738 34.7198 25.4404 34.6998C25.4138 34.6798 25.3871 34.6564 25.3604 34.6298C25.2938 34.5431 25.2138 34.4564 25.1204 34.3698C25.0338 34.2831 24.9171 34.2131 24.7704 34.1598C24.6304 34.0998 24.4438 34.0698 24.2104 34.0698C23.8771 34.0698 23.6271 34.1398 23.4604 34.2798C23.2938 34.4198 23.2104 34.5964 23.2104 34.8098C23.2104 34.9364 23.2471 35.0498 23.3204 35.1498C23.3938 35.2498 23.5338 35.3398 23.7404 35.4198C23.9471 35.4998 24.2538 35.5864 24.6604 35.6798C25.1004 35.7664 25.4471 35.8831 25.7004 36.0298C25.9538 36.1764 26.1338 36.3464 26.2404 36.5398C26.3471 36.7331 26.4004 36.9564 26.4004 37.2098C26.4004 37.4898 26.3171 37.7464 26.1504 37.9798C25.9904 38.2131 25.7504 38.3998 25.4304 38.5398C25.1171 38.6731 24.7271 38.7398 24.2604 38.7398ZM30.3693 38.6398C30.2959 38.6398 30.2393 38.6198 30.1993 38.5798C30.1593 38.5331 30.1393 38.4764 30.1393 38.4098V31.8798C30.1393 31.8064 30.1593 31.7498 30.1993 31.7098C30.2393 31.6631 30.2959 31.6398 30.3693 31.6398H34.4993C34.5726 31.6398 34.6293 31.6631 34.6693 31.7098C34.7093 31.7498 34.7293 31.8064 34.7293 31.8798V32.2598C34.7293 32.3331 34.7093 32.3898 34.6693 32.4298C34.6293 32.4698 34.5726 32.4898 34.4993 32.4898H31.0993V34.6798H34.2793C34.3526 34.6798 34.4093 34.7031 34.4493 34.7498C34.4893 34.7898 34.5093 34.8464 34.5093 34.9198V35.2898C34.5093 35.3564 34.4893 35.4131 34.4493 35.4598C34.4093 35.4998 34.3526 35.5198 34.2793 35.5198H31.0993V37.7898H34.5793C34.6526 37.7898 34.7093 37.8098 34.7493 37.8498C34.7893 37.8898 34.8093 37.9464 34.8093 38.0198V38.4098C34.8093 38.4764 34.7893 38.5331 34.7493 38.5798C34.7093 38.6198 34.6526 38.6398 34.5793 38.6398H30.3693ZM35.8337 38.6398C35.7804 38.6398 35.7304 38.6198 35.6837 38.5798C35.6437 38.5398 35.6237 38.4898 35.6237 38.4298C35.6237 38.4098 35.627 38.3864 35.6337 38.3598C35.647 38.3264 35.667 38.2898 35.6937 38.2498L37.4337 35.9798L35.8037 33.8298C35.777 33.7898 35.757 33.7564 35.7437 33.7298C35.737 33.7031 35.7337 33.6764 35.7337 33.6498C35.7337 33.5898 35.7537 33.5398 35.7937 33.4998C35.8337 33.4598 35.8837 33.4398 35.9437 33.4398H36.4537C36.527 33.4398 36.5804 33.4598 36.6137 33.4998C36.6537 33.5331 36.687 33.5664 36.7137 33.5998L38.0437 35.3298L39.3737 33.6098C39.4004 33.5764 39.4304 33.5398 39.4637 33.4998C39.5037 33.4598 39.5604 33.4398 39.6337 33.4398H40.1237C40.1837 33.4398 40.2337 33.4598 40.2737 33.4998C40.3137 33.5398 40.3337 33.5898 40.3337 33.6498C40.3337 33.6764 40.327 33.7031 40.3137 33.7298C40.307 33.7564 40.2904 33.7898 40.2637 33.8298L38.6137 35.9998L40.3537 38.2498C40.3804 38.2898 40.397 38.3231 40.4037 38.3498C40.417 38.3764 40.4237 38.4031 40.4237 38.4298C40.4237 38.4898 40.4037 38.5398 40.3637 38.5798C40.3237 38.6198 40.2737 38.6398 40.2137 38.6398H39.6837C39.617 38.6398 39.5637 38.6231 39.5237 38.5898C39.4837 38.5564 39.4504 38.5231 39.4237 38.4898L38.0137 36.6598L36.6037 38.4898C36.577 38.5164 36.5437 38.5498 36.5037 38.5898C36.4704 38.6231 36.417 38.6398 36.3437 38.6398H35.8337ZM41.7043 40.5398C41.6377 40.5398 41.581 40.5164 41.5343 40.4698C41.4943 40.4298 41.4743 40.3764 41.4743 40.3098V33.6698C41.4743 33.6031 41.4943 33.5498 41.5343 33.5098C41.581 33.4631 41.6377 33.4398 41.7043 33.4398H42.1643C42.231 33.4398 42.2843 33.4631 42.3243 33.5098C42.371 33.5498 42.3943 33.6031 42.3943 33.6698V34.1098C42.5543 33.8898 42.7677 33.7064 43.0343 33.5598C43.301 33.4131 43.6343 33.3398 44.0343 33.3398C44.4077 33.3398 44.7243 33.4031 44.9843 33.5298C45.251 33.6564 45.4677 33.8298 45.6343 34.0498C45.8077 34.2698 45.9377 34.5198 46.0243 34.7998C46.111 35.0798 46.1577 35.3798 46.1643 35.6998C46.171 35.8064 46.1743 35.9198 46.1743 36.0398C46.1743 36.1598 46.171 36.2731 46.1643 36.3798C46.1577 36.6931 46.111 36.9931 46.0243 37.2798C45.9377 37.5598 45.8077 37.8098 45.6343 38.0298C45.4677 38.2431 45.251 38.4164 44.9843 38.5498C44.7243 38.6764 44.4077 38.7398 44.0343 38.7398C43.6477 38.7398 43.321 38.6698 43.0543 38.5298C42.7943 38.3831 42.581 38.2031 42.4143 37.9898V40.3098C42.4143 40.3764 42.3943 40.4298 42.3543 40.4698C42.3143 40.5164 42.2577 40.5398 42.1843 40.5398H41.7043ZM43.8243 37.9298C44.171 37.9298 44.441 37.8564 44.6343 37.7098C44.8343 37.5564 44.9777 37.3598 45.0643 37.1198C45.151 36.8731 45.201 36.6098 45.2143 36.3298C45.221 36.1364 45.221 35.9431 45.2143 35.7498C45.201 35.4698 45.151 35.2098 45.0643 34.9698C44.9777 34.7231 44.8343 34.5264 44.6343 34.3798C44.441 34.2264 44.171 34.1498 43.8243 34.1498C43.4977 34.1498 43.231 34.2264 43.0243 34.3798C42.8243 34.5331 42.6743 34.7298 42.5743 34.9698C42.481 35.2031 42.4277 35.4431 42.4143 35.6898C42.4077 35.7964 42.4043 35.9231 42.4043 36.0698C42.4043 36.2164 42.4077 36.3464 42.4143 36.4598C42.421 36.6931 42.4743 36.9231 42.5743 37.1498C42.681 37.3764 42.8377 37.5631 43.0443 37.7098C43.251 37.8564 43.511 37.9298 43.8243 37.9298ZM49.4914 38.7398C48.8047 38.7398 48.258 38.5298 47.8514 38.1098C47.4447 37.6831 47.2214 37.1031 47.1814 36.3698C47.1747 36.2831 47.1714 36.1731 47.1714 36.0398C47.1714 35.8998 47.1747 35.7864 47.1814 35.6998C47.208 35.2264 47.318 34.8131 47.5114 34.4598C47.7047 34.0998 47.968 33.8231 48.3014 33.6298C48.6414 33.4364 49.038 33.3398 49.4914 33.3398C49.998 33.3398 50.4214 33.4464 50.7614 33.6598C51.108 33.8731 51.3714 34.1764 51.5514 34.5698C51.7314 34.9631 51.8214 35.4231 51.8214 35.9498V36.1198C51.8214 36.1931 51.798 36.2498 51.7514 36.2898C51.7114 36.3298 51.658 36.3498 51.5914 36.3498H48.1314C48.1314 36.3564 48.1314 36.3698 48.1314 36.3898C48.1314 36.4098 48.1314 36.4264 48.1314 36.4398C48.1447 36.7131 48.2047 36.9698 48.3114 37.2098C48.418 37.4431 48.5714 37.6331 48.7714 37.7798C48.9714 37.9264 49.2114 37.9998 49.4914 37.9998C49.7314 37.9998 49.9314 37.9631 50.0914 37.8898C50.2514 37.8164 50.3814 37.7364 50.4814 37.6498C50.5814 37.5564 50.648 37.4864 50.6814 37.4398C50.7414 37.3531 50.788 37.3031 50.8214 37.2898C50.8547 37.2698 50.908 37.2598 50.9814 37.2598H51.4614C51.528 37.2598 51.5814 37.2798 51.6214 37.3198C51.668 37.3531 51.688 37.4031 51.6814 37.4698C51.6747 37.5698 51.6214 37.6931 51.5214 37.8398C51.4214 37.9798 51.278 38.1198 51.0914 38.2598C50.9047 38.3998 50.678 38.5164 50.4114 38.6098C50.1447 38.6964 49.838 38.7398 49.4914 38.7398ZM48.1314 35.6598H50.8714V35.6298C50.8714 35.3298 50.8147 35.0631 50.7014 34.8298C50.5947 34.5964 50.438 34.4131 50.2314 34.2798C50.0247 34.1398 49.778 34.0698 49.4914 34.0698C49.2047 34.0698 48.958 34.1398 48.7514 34.2798C48.5514 34.4131 48.398 34.5964 48.2914 34.8298C48.1847 35.0631 48.1314 35.3298 48.1314 35.6298V35.6598ZM53.2471 38.6398C53.1804 38.6398 53.1237 38.6198 53.0771 38.5798C53.0371 38.5331 53.0171 38.4764 53.0171 38.4098V33.6798C53.0171 33.6131 53.0371 33.5564 53.0771 33.5098C53.1237 33.4631 53.1804 33.4398 53.2471 33.4398H53.7071C53.7737 33.4398 53.8304 33.4631 53.8771 33.5098C53.9237 33.5564 53.9471 33.6131 53.9471 33.6798V34.1198C54.0804 33.8931 54.2637 33.7231 54.4971 33.6098C54.7304 33.4964 55.0104 33.4398 55.3371 33.4398H55.7371C55.8037 33.4398 55.8571 33.4631 55.8971 33.5098C55.9371 33.5498 55.9571 33.6031 55.9571 33.6698V34.0798C55.9571 34.1464 55.9371 34.1998 55.8971 34.2398C55.8571 34.2798 55.8037 34.2998 55.7371 34.2998H55.1371C54.7771 34.2998 54.4937 34.4064 54.2871 34.6198C54.0804 34.8264 53.9771 35.1098 53.9771 35.4698V38.4098C53.9771 38.4764 53.9537 38.5331 53.9071 38.5798C53.8604 38.6198 53.8037 38.6398 53.7371 38.6398H53.2471ZM58.8459 38.6398C58.4726 38.6398 58.1692 38.5698 57.9359 38.4298C57.7026 38.2831 57.5326 38.0798 57.4259 37.8198C57.3192 37.5531 57.2659 37.2398 57.2659 36.8798V34.2398H56.4859C56.4192 34.2398 56.3626 34.2198 56.3159 34.1798C56.2759 34.1331 56.2559 34.0764 56.2559 34.0098V33.6698C56.2559 33.6031 56.2759 33.5498 56.3159 33.5098C56.3626 33.4631 56.4192 33.4398 56.4859 33.4398H57.2659V31.7698C57.2659 31.7031 57.2859 31.6498 57.3259 31.6098C57.3726 31.5631 57.4292 31.5398 57.4959 31.5398H57.9659C58.0326 31.5398 58.0859 31.5631 58.1259 31.6098C58.1726 31.6498 58.1959 31.7031 58.1959 31.7698V33.4398H59.4359C59.5026 33.4398 59.5559 33.4631 59.5959 33.5098C59.6426 33.5498 59.6659 33.6031 59.6659 33.6698V34.0098C59.6659 34.0764 59.6426 34.1331 59.5959 34.1798C59.5559 34.2198 59.5026 34.2398 59.4359 34.2398H58.1959V36.8098C58.1959 37.1231 58.2492 37.3698 58.3559 37.5498C58.4626 37.7298 58.6526 37.8198 58.9259 37.8198H59.5359C59.6026 37.8198 59.6559 37.8431 59.6959 37.8898C59.7426 37.9298 59.7659 37.9831 59.7659 38.0498V38.4098C59.7659 38.4764 59.7426 38.5331 59.6959 38.5798C59.6559 38.6198 59.6026 38.6398 59.5359 38.6398H58.8459Z" fill="white"/>
<defs>
<linearGradient id="paint0_linear_2238_2421" x1="14.9477" y1="19.1407" x2="30.1774" y2="19.9057" gradientUnits="userSpaceOnUse">
<stop stop-color="#0064E1"/>
<stop offset="0.4" stop-color="#0064E1"/>
<stop offset="0.83" stop-color="#0073EE"/>
<stop offset="1" stop-color="#0082FB"/>
</linearGradient>
<linearGradient id="paint1_linear_2238_2421" x1="13.7168" y1="20.8422" x2="13.7168" y2="15.1965" gradientUnits="userSpaceOnUse">
<stop stop-color="#0082FB"/>
<stop offset="1" stop-color="#0064E0"/>
</linearGradient>
<clipPath id="clip0_2238_2421">
<rect width="72.9159" height="14.7716" fill="white" transform="translate(10.2556 10.0922)"/>
</clipPath>
</defs>
</svg>
