<svg width="94" height="53" viewBox="0 0 94 53" fill="none" xmlns="http://www.w3.org/2000/svg">
<g opacity="0.9">
<rect width="94" height="53" rx="5" fill="#020218" fill-opacity="0.39"/>
</g>
<path d="M72.4986 30.943H71.6897V32.3475H70.7474V30.943H68.0183V30.1962L70.7385 25.9737H71.6897V30.1429H72.4986V30.943ZM70.7474 28.4183C70.7474 28.2761 70.7474 28.1398 70.7474 28.0094C70.7533 27.879 70.7592 27.7546 70.7652 27.636C70.7711 27.5116 70.7741 27.399 70.7741 27.2982C70.78 27.1915 70.7859 27.0967 70.7918 27.0138H70.7563C70.7089 27.1323 70.6526 27.2538 70.5874 27.3782C70.5281 27.5027 70.4688 27.6123 70.4096 27.7071L68.9161 30.1429H70.7474V28.4183ZM73.1926 31.823C73.1926 31.5919 73.2489 31.4289 73.3615 31.3341C73.48 31.2393 73.6252 31.1919 73.7971 31.1919C73.963 31.1919 74.1053 31.2393 74.2238 31.3341C74.3482 31.4289 74.4105 31.5919 74.4105 31.823C74.4105 32.0542 74.3482 32.2201 74.2238 32.3209C74.1053 32.4216 73.963 32.472 73.7971 32.472C73.6252 32.472 73.48 32.4216 73.3615 32.3209C73.2489 32.2201 73.1926 32.0542 73.1926 31.823ZM77.3511 25.9114C77.7066 25.9114 78.0207 25.9707 78.2934 26.0892C78.5719 26.2018 78.7882 26.3707 78.9423 26.5959C79.1023 26.8211 79.1823 27.1026 79.1823 27.4405C79.1823 27.6953 79.132 27.9175 79.0312 28.1072C78.9364 28.2968 78.803 28.4657 78.6312 28.6139C78.4652 28.7561 78.2815 28.8806 78.08 28.9873C78.3111 29.1117 78.5245 29.2539 78.7201 29.414C78.9156 29.568 79.0727 29.7488 79.1912 29.9562C79.3157 30.1636 79.3779 30.4126 79.3779 30.703C79.3779 31.0585 79.2949 31.3667 79.129 31.6275C78.969 31.8823 78.7378 32.0808 78.4356 32.2231C78.1334 32.3653 77.7748 32.4364 77.36 32.4364C76.9155 32.4364 76.5391 32.3683 76.231 32.232C75.9287 32.0957 75.7006 31.9031 75.5465 31.6541C75.3924 31.3993 75.3153 31.0911 75.3153 30.7296C75.3153 30.4392 75.3687 30.1874 75.4753 29.974C75.588 29.7607 75.7331 29.5769 75.9109 29.4228C76.0947 29.2688 76.2962 29.1384 76.5154 29.0317C76.3258 28.9132 76.1539 28.7798 75.9998 28.6317C75.8458 28.4776 75.7243 28.3027 75.6354 28.1072C75.5524 27.9116 75.5109 27.6864 75.5109 27.4316C75.5109 27.0997 75.5909 26.8241 75.7509 26.6048C75.9109 26.3796 76.1302 26.2078 76.4088 26.0892C76.6873 25.9707 77.0014 25.9114 77.3511 25.9114ZM76.2399 30.7118C76.2399 31.0022 76.3317 31.2423 76.5154 31.4319C76.6992 31.6156 76.9747 31.7075 77.3422 31.7075C77.5911 31.7075 77.7955 31.666 77.9556 31.583C78.1156 31.4941 78.2371 31.3756 78.32 31.2274C78.4089 31.0734 78.4534 30.8985 78.4534 30.703C78.4534 30.5074 78.406 30.3355 78.3111 30.1874C78.2163 30.0392 78.0859 29.9088 77.92 29.7962C77.76 29.6777 77.5763 29.571 77.3688 29.4762L77.2533 29.4228C77.0399 29.5236 76.8562 29.6362 76.7021 29.7607C76.554 29.8851 76.4384 30.0244 76.3554 30.1785C76.2784 30.3326 76.2399 30.5103 76.2399 30.7118ZM77.3333 26.6493C77.0725 26.6493 76.8562 26.7204 76.6843 26.8626C76.5184 27.0049 76.4354 27.2123 76.4354 27.4849C76.4354 27.6805 76.4769 27.8464 76.5599 27.9827C76.6488 28.119 76.7614 28.2376 76.8977 28.3383C77.0399 28.4331 77.194 28.525 77.36 28.6139C77.5259 28.5309 77.6741 28.442 77.8044 28.3472C77.9407 28.2464 78.0474 28.1279 78.1245 27.9916C78.2074 27.8494 78.2489 27.6805 78.2489 27.4849C78.2489 27.2123 78.163 27.0049 77.9911 26.8626C77.8252 26.7204 77.6059 26.6493 77.3333 26.6493Z" fill="#F0F0F0"/>
<path d="M16.876 9.1278C17.2724 9.1278 17.5997 9.18081 17.8578 9.28683C18.116 9.39285 18.3072 9.55187 18.4317 9.76391C18.5608 9.97133 18.6253 10.2341 18.6253 10.5521C18.6253 10.8056 18.5815 11.02 18.4939 11.1951C18.411 11.3657 18.3003 11.5063 18.1621 11.6169C18.0284 11.7229 17.8832 11.8082 17.7265 11.8727L19.0332 14.0645H18.1621L17.0627 12.0663H16.3091V14.0645H15.5416V9.1278H16.876ZM16.8414 9.76391H16.3091V11.444H16.8553C17.0811 11.444 17.2655 11.4118 17.4084 11.3472C17.5559 11.2827 17.6642 11.1859 17.7334 11.0569C17.8071 10.9278 17.844 10.7688 17.844 10.5798C17.844 10.3816 17.8071 10.2248 17.7334 10.1096C17.6642 9.98977 17.5536 9.90219 17.4015 9.84688C17.254 9.79156 17.0673 9.76391 16.8414 9.76391ZM21.0218 10.2686C21.4597 10.2686 21.7893 10.3724 22.0105 10.5798C22.2364 10.7826 22.3493 11.1029 22.3493 11.5408V14.0645H21.8169L21.6717 13.546H21.6441C21.5381 13.6796 21.4321 13.7903 21.326 13.8778C21.2246 13.9654 21.1048 14.0299 20.9665 14.0714C20.8328 14.1129 20.6669 14.1337 20.4687 14.1337C20.2613 14.1337 20.0746 14.0945 19.9086 14.0161C19.7427 13.9331 19.6113 13.8087 19.5145 13.6428C19.4177 13.4722 19.3693 13.2602 19.3693 13.0066C19.3693 12.6287 19.503 12.3406 19.7704 12.1424C20.0423 11.9442 20.4549 11.8358 21.008 11.8174L21.6026 11.7967V11.5892C21.6026 11.3127 21.545 11.1191 21.4297 11.0085C21.3191 10.8978 21.1624 10.8425 20.9596 10.8425C20.789 10.8425 20.6208 10.8702 20.4549 10.9255C20.2889 10.9808 20.1276 11.0476 19.9709 11.126L19.7427 10.5936C19.9132 10.5014 20.1068 10.4254 20.3235 10.3654C20.5447 10.3009 20.7775 10.2686 21.0218 10.2686ZM21.1532 12.2876C20.7752 12.306 20.5125 12.3775 20.365 12.5019C20.2175 12.6218 20.1437 12.7923 20.1437 13.0136C20.1437 13.2072 20.1944 13.3477 20.2958 13.4353C20.4018 13.5229 20.5378 13.5667 20.7038 13.5667C20.9573 13.5667 21.1693 13.486 21.3399 13.3247C21.515 13.1634 21.6026 12.9214 21.6026 12.5987V12.2737L21.1532 12.2876ZM24.6996 13.539C24.7964 13.539 24.8909 13.5298 24.9831 13.5114C25.0753 13.4929 25.1559 13.4722 25.2251 13.4492V14.0023C25.1467 14.0392 25.043 14.0691 24.9139 14.0922C24.7895 14.1198 24.6581 14.1337 24.5198 14.1337C24.3262 14.1337 24.1488 14.0991 23.9874 14.0299C23.8261 13.9608 23.6971 13.841 23.6003 13.6704C23.5035 13.4999 23.4551 13.2625 23.4551 12.9582V10.8978H22.978V10.5659L23.4896 10.2894L23.7455 9.50117H24.2087V10.3378H25.1974V10.8978H24.2087V12.9444C24.2087 13.1472 24.2548 13.297 24.347 13.3938C24.4392 13.4906 24.5567 13.539 24.6996 13.539ZM27.3283 10.2686C27.6371 10.2686 27.9045 10.3378 28.1303 10.4761C28.3562 10.6097 28.529 10.8033 28.6489 11.0569C28.7733 11.3104 28.8356 11.61 28.8356 11.9557V12.3567H26.4917C26.5009 12.7393 26.5931 13.032 26.7682 13.2348C26.9434 13.4376 27.19 13.539 27.5081 13.539C27.7339 13.539 27.9344 13.5183 28.1096 13.4768C28.2894 13.4307 28.4714 13.3639 28.6558 13.2763V13.8847C28.4806 13.9677 28.3009 14.0299 28.1165 14.0714C27.9367 14.1129 27.7178 14.1337 27.4597 14.1337C27.1232 14.1337 26.8236 14.0622 26.5608 13.9193C26.2981 13.7764 26.093 13.5644 25.9455 13.2832C25.798 12.9974 25.7242 12.6471 25.7242 12.2323C25.7242 11.8128 25.791 11.4579 25.9247 11.1675C26.0584 10.8771 26.2451 10.6558 26.4848 10.5037C26.7291 10.347 27.0102 10.2686 27.3283 10.2686ZM27.3283 10.8356C27.0932 10.8356 26.9042 10.9209 26.7613 11.0914C26.6184 11.262 26.5355 11.504 26.5124 11.8174H28.0958C28.0958 11.6238 28.0681 11.4533 28.0128 11.3058C27.9575 11.1583 27.8722 11.043 27.757 10.9601C27.6463 10.8771 27.5034 10.8356 27.3283 10.8356ZM34.4921 12.1977C34.4921 12.5065 34.4529 12.7808 34.3746 13.0205C34.2962 13.2602 34.1833 13.463 34.0358 13.6289C33.8929 13.7949 33.7177 13.9216 33.5103 14.0092C33.3029 14.0922 33.0701 14.1337 32.812 14.1337C32.5769 14.1337 32.3579 14.0922 32.1551 14.0092C31.9523 13.9216 31.7772 13.7949 31.6296 13.6289C31.4821 13.463 31.3669 13.2602 31.2839 13.0205C31.2056 12.7808 31.1664 12.5042 31.1664 12.1908C31.1664 11.7805 31.2332 11.4325 31.3669 11.1467C31.5006 10.861 31.6919 10.6443 31.9408 10.4968C32.1943 10.3447 32.4939 10.2686 32.8396 10.2686C33.1623 10.2686 33.4481 10.3447 33.697 10.4968C33.9459 10.6443 34.1395 10.861 34.2778 11.1467C34.4207 11.4325 34.4921 11.7828 34.4921 12.1977ZM31.9408 12.1977C31.9408 12.4743 31.9707 12.7139 32.0307 12.9168C32.0952 13.115 32.192 13.2671 32.3211 13.3731C32.4547 13.4791 32.623 13.5321 32.8258 13.5321C33.0332 13.5321 33.2015 13.4791 33.3305 13.3731C33.4642 13.2671 33.561 13.115 33.6209 12.9168C33.6855 12.7139 33.7177 12.4743 33.7177 12.1977C33.7177 11.9119 33.6855 11.6722 33.6209 11.4786C33.5564 11.285 33.4596 11.1375 33.3305 11.0361C33.2015 10.9301 33.0309 10.8771 32.8189 10.8771C32.5101 10.8771 32.2865 10.9923 32.1482 11.2228C32.0099 11.4533 31.9408 11.7782 31.9408 12.1977ZM37.1691 10.2686C37.5747 10.2686 37.8858 10.377 38.1025 10.5936C38.3237 10.8102 38.4344 11.1583 38.4344 11.6376V14.0645H37.6876V11.7414C37.6876 11.451 37.63 11.2343 37.5148 11.0914C37.4042 10.9439 37.2313 10.8702 36.9962 10.8702C36.6505 10.8702 36.4131 10.9831 36.2841 11.209C36.155 11.4348 36.0905 11.7598 36.0905 12.1839V14.0645H35.3437V10.3378H35.9314L36.0352 10.8356H36.0766C36.155 10.7065 36.2495 10.6005 36.3601 10.5175C36.4707 10.4346 36.5952 10.3724 36.7335 10.3309C36.8718 10.2894 37.017 10.2686 37.1691 10.2686Z" fill="#F0F0F0"/>
<path d="M28.7376 19.0267H30.9854V33.0569H28.7376V19.0267Z" fill="white"/>
<path d="M38.8039 28.6114C38.8039 30.7852 37.0448 30.9829 36.4584 30.9829C35.0902 30.9829 34.8948 29.6983 34.8948 29.0066V23.5719H32.647V28.9078C32.647 30.1924 33.0379 31.3781 33.8197 32.0698C34.5039 32.7615 35.3834 33.0579 36.4584 33.0579C37.2403 33.0579 38.2175 32.8603 38.8039 32.2674V33.0579H41.0517V23.5719H38.8039V28.6114Z" fill="white"/>
<path d="M45.4486 20.1136H43.2008V23.5717H41.5395V25.7454H43.2008V33.057H45.4486V25.7454H47.11V23.5717H45.4486V20.1136Z" fill="white"/>
<path d="M54.1475 30.1924C53.6589 30.5877 52.9748 30.8841 52.2907 30.8841C50.727 30.8841 49.652 29.6983 49.652 28.1173C49.652 26.5363 50.727 25.4494 52.2907 25.4494C52.9748 25.4494 53.6589 25.647 54.1475 26.1411L54.4407 26.4375L56.0044 24.9553L55.6135 24.6589C54.7339 23.8684 53.5612 23.3743 52.2907 23.3743C49.5543 23.3743 47.502 25.4494 47.502 28.2162C47.502 30.9829 49.5543 33.058 52.2907 33.058C53.5612 33.058 54.7339 32.5639 55.6135 31.7734L56.0044 31.477L54.4407 29.896L54.1475 30.1924Z" fill="white"/>
<path d="M63.9208 24.3621C63.2367 23.6705 62.5526 23.3741 61.4776 23.3741C60.6958 23.3741 59.9139 23.5717 59.3276 24.1645V19.0267H57.0798V33.0569H59.3276V27.8203C59.3276 25.6466 60.7935 25.449 61.3799 25.449C62.7481 25.449 62.6504 26.7334 62.6504 27.425V32.9581H64.8981V27.5239C64.8981 26.2394 64.6049 25.0537 63.9208 24.3621Z" fill="white"/>
<path d="M52.1926 29.7962C53.0562 29.7962 53.7563 29.0884 53.7563 28.2152C53.7563 27.3421 53.0562 26.6342 52.1926 26.6342C51.329 26.6342 50.6289 27.3421 50.6289 28.2152C50.6289 29.0884 51.329 29.7962 52.1926 29.7962Z" fill="#EF4335"/>
<path d="M25.6103 29.5988C24.8285 30.3892 23.6557 30.8832 22.3853 30.8832C19.9421 30.8832 18.1829 28.9071 18.1829 26.2394C18.1829 23.5717 19.9421 21.5956 22.483 21.5956C23.6557 21.5956 24.8285 22.0896 25.7081 22.9789L26.0012 23.2753L27.4672 21.7932L27.174 21.4968C25.9035 20.2123 24.2421 19.5207 22.483 19.5207C18.7693 19.4219 16.0329 22.386 16.0329 26.2394C16.0329 30.0928 18.7693 33.0569 22.3853 33.0569C24.1444 33.0569 25.9035 32.3653 27.0763 31.0808L27.3694 30.7844L25.9035 29.3023L25.6103 29.5988Z" fill="white"/>
<path d="M32.4237 38.7556L31.5218 40.6112C31.476 40.7057 31.4082 40.7873 31.3243 40.8492C31.2404 40.9111 31.143 40.9514 31.0404 40.9666L29.0246 41.2642C28.9301 41.2781 28.8414 41.3186 28.7683 41.3811C28.6953 41.4435 28.641 41.5255 28.6115 41.6177C28.582 41.71 28.5786 41.8087 28.6015 41.9029C28.6244 41.997 28.6728 42.0827 28.7412 42.1503L30.2004 43.5949C30.2745 43.6683 30.33 43.7589 30.362 43.8589C30.394 43.9588 30.4016 44.0652 30.3842 44.1689L30.0398 46.2087C30.0238 46.3042 30.0344 46.4023 30.0704 46.492C30.1064 46.5817 30.1665 46.6594 30.2437 46.7162C30.3209 46.7731 30.4122 46.8069 30.5073 46.8138C30.6025 46.8207 30.6976 46.8005 30.782 46.7554L32.5852 45.7924C32.6769 45.7434 32.779 45.7179 32.8827 45.7179C32.9863 45.7179 33.0884 45.7434 33.1802 45.7924L34.9833 46.7554C35.0677 46.8005 35.1629 46.8207 35.258 46.8138C35.3531 46.8069 35.4445 46.7731 35.5217 46.7162C35.5989 46.6594 35.6589 46.5817 35.6949 46.492C35.731 46.4023 35.7416 46.3042 35.7256 46.2087L35.3811 44.1689C35.3637 44.0652 35.3713 43.9588 35.4033 43.8589C35.4353 43.7589 35.4908 43.6683 35.5649 43.5949L37.0241 42.1503C37.0925 42.0827 37.1409 41.997 37.1639 41.9029C37.1868 41.8087 37.1833 41.71 37.1538 41.6177C37.1243 41.5255 37.07 41.4435 36.997 41.3811C36.924 41.3186 36.8352 41.2781 36.7407 41.2642L34.7242 40.9666C34.6216 40.9514 34.5241 40.9111 34.4402 40.8492C34.3564 40.7873 34.2886 40.7057 34.2427 40.6112L33.3409 38.7556C33.2986 38.6687 33.2333 38.5955 33.1523 38.5443C33.0712 38.4931 32.9777 38.466 32.8823 38.466C32.7868 38.466 32.6933 38.4931 32.6123 38.5443C32.5312 38.5955 32.4659 38.6687 32.4237 38.7556Z" fill="#FFAF00"/>
<path d="M44.9607 38.7556L44.0589 40.6113C44.013 40.7057 43.9452 40.7874 43.8613 40.8493C43.7774 40.9112 43.68 40.9514 43.5774 40.9666L41.5608 41.2642C41.4663 41.2781 41.3776 41.3186 41.3046 41.3811C41.2316 41.4436 41.1772 41.5256 41.1478 41.6178C41.1183 41.71 41.1148 41.8088 41.1377 41.9029C41.1606 41.997 41.209 42.0827 41.2774 42.1504L42.7366 43.5949C42.8107 43.6683 42.8662 43.7589 42.8982 43.8589C42.9302 43.9589 42.9379 44.0652 42.9205 44.1689L42.576 46.2087C42.56 46.3042 42.5706 46.4024 42.6066 46.492C42.6427 46.5817 42.7027 46.6594 42.7799 46.7162C42.8571 46.7731 42.9484 46.8069 43.0436 46.8138C43.1387 46.8207 43.2338 46.8005 43.3182 46.7554L45.1214 45.7925C45.2131 45.7435 45.3152 45.7179 45.4189 45.7179C45.5226 45.7179 45.6247 45.7435 45.7164 45.7925L47.5196 46.7554C47.604 46.8005 47.6991 46.8207 47.7942 46.8138C47.8894 46.8069 47.9807 46.7731 48.0579 46.7162C48.1351 46.6594 48.1951 46.5817 48.2312 46.492C48.2672 46.4024 48.2778 46.3042 48.2618 46.2087L47.9173 44.1689C47.8999 44.0652 47.9075 43.9589 47.9396 43.8589C47.9716 43.7589 48.027 43.6683 48.1011 43.5949L49.5603 42.1504C49.6288 42.0827 49.6772 41.997 49.7001 41.9029C49.723 41.8088 49.7195 41.71 49.69 41.6178C49.6605 41.5256 49.6062 41.4436 49.5332 41.3811C49.4602 41.3186 49.3714 41.2781 49.277 41.2642L47.2604 40.9666C47.1578 40.9514 47.0603 40.9112 46.9765 40.8493C46.8926 40.7874 46.8248 40.7057 46.7789 40.6113L45.8771 38.7556C45.8348 38.6689 45.7695 38.5959 45.6885 38.5449C45.6076 38.4939 45.5142 38.4669 45.4189 38.4669C45.3236 38.4669 45.2302 38.4939 45.1493 38.5449C45.0683 38.5959 45.003 38.6689 44.9607 38.7556Z" fill="#FFAF00"/>
<path d="M57.4961 38.7548L56.5943 40.6104C56.5484 40.7048 56.4806 40.7865 56.3968 40.8484C56.3129 40.9103 56.2154 40.9506 56.1128 40.9657L54.0965 41.2634C54.0021 41.2772 53.9133 41.3177 53.8403 41.3802C53.7673 41.4427 53.7129 41.5247 53.6835 41.6169C53.654 41.7091 53.6505 41.8079 53.6734 41.902C53.6963 41.9961 53.7447 42.0819 53.8131 42.1495L55.2724 43.594C55.3464 43.6674 55.4019 43.758 55.4339 43.858C55.4659 43.958 55.4736 44.0644 55.4562 44.168L55.1117 46.2079C55.0957 46.3033 55.1063 46.4015 55.1423 46.4912C55.1784 46.5808 55.2384 46.6585 55.3156 46.7154C55.3928 46.7722 55.4841 46.806 55.5793 46.813C55.6744 46.8199 55.7695 46.7996 55.8539 46.7545L57.6571 45.7916C57.7488 45.7426 57.8509 45.717 57.9546 45.717C58.0583 45.717 58.1604 45.7426 58.2521 45.7916L60.0553 46.7545C60.1397 46.7996 60.2348 46.8199 60.3299 46.813C60.4251 46.806 60.5164 46.7722 60.5936 46.7154C60.6708 46.6585 60.7308 46.5808 60.7669 46.4912C60.8029 46.4015 60.8135 46.3033 60.7975 46.2079L60.453 44.168C60.4356 44.0644 60.4432 43.958 60.4753 43.858C60.5073 43.758 60.5627 43.6674 60.6368 43.594L62.096 42.1495C62.1645 42.0819 62.2129 41.9961 62.2358 41.902C62.2587 41.8079 62.2552 41.7091 62.2257 41.6169C62.1962 41.5247 62.1419 41.4427 62.0689 41.3802C61.9959 41.3177 61.9071 41.2772 61.8127 41.2634L59.7961 40.9657C59.6935 40.9506 59.5961 40.9103 59.5122 40.8484C59.4283 40.7865 59.3605 40.7048 59.3146 40.6104L58.4133 38.7548C58.3711 38.6678 58.3058 38.5946 58.2247 38.5435C58.1437 38.4923 58.0502 38.4651 57.9547 38.4651C57.8593 38.4651 57.7658 38.4923 57.6847 38.5435C57.6037 38.5946 57.5384 38.6678 57.4961 38.7548Z" fill="#FFAF00"/>
<path d="M70.9524 38.7558L71.8542 40.6115C71.9001 40.7059 71.9679 40.7876 72.0518 40.8495C72.1356 40.9114 72.2331 40.9516 72.3357 40.9668L74.352 41.2644C74.4465 41.2783 74.5352 41.3188 74.6082 41.3813C74.6812 41.4438 74.7356 41.5258 74.7651 41.618C74.7946 41.7102 74.798 41.809 74.7751 41.9031C74.7522 41.9972 74.7038 42.083 74.6354 42.1506L73.1762 43.5951C73.1021 43.6685 73.0466 43.7591 73.0146 43.8591C72.9826 43.9591 72.975 44.0655 72.9924 44.1691L73.3368 46.209C73.3528 46.3044 73.3422 46.4026 73.3062 46.4923C73.2701 46.5819 73.2101 46.6596 73.1329 46.7165C73.0557 46.7733 72.9644 46.8071 72.8692 46.814C72.7741 46.821 72.679 46.8007 72.5946 46.7556L70.7914 45.7927C70.6997 45.7437 70.5976 45.7181 70.4939 45.7181C70.3903 45.7181 70.2882 45.7437 70.1964 45.7927L68.3933 46.7556C68.3089 46.8007 68.2137 46.821 68.1186 46.814C68.0235 46.8071 67.9321 46.7733 67.8549 46.7165C67.7777 46.6596 67.7177 46.5819 67.6817 46.4923C67.6456 46.4026 67.635 46.3044 67.651 46.209L67.9955 44.1691C68.0129 44.0655 68.0053 43.9591 67.9733 43.8591C67.9412 43.7591 67.8858 43.6685 67.8117 43.5951L66.3525 42.1506C66.2841 42.083 66.2356 41.9972 66.2127 41.9031C66.1898 41.809 66.1933 41.7102 66.2228 41.618C66.2523 41.5258 66.3066 41.4438 66.3796 41.3813C66.4526 41.3188 66.5414 41.2783 66.6359 41.2644L68.6524 40.9668C68.755 40.9516 68.8525 40.9114 68.9363 40.8495C69.0202 40.7876 69.088 40.7059 69.1339 40.6115L70.0333 38.7558C70.0753 38.6684 70.1407 38.5947 70.2219 38.5432C70.3032 38.4916 70.397 38.4643 70.4928 38.4643C70.5886 38.4643 70.6825 38.4916 70.7638 38.5432C70.845 38.5947 70.9104 38.6684 70.9524 38.7558Z" fill="#FFAF00"/>
<path d="M72.5946 46.7559L71.3665 46.0999V39.6073L71.8539 40.6104C71.8998 40.7048 71.9676 40.7865 72.0515 40.8484C72.1353 40.9103 72.2328 40.9506 72.3354 40.9657L74.3519 41.2634C74.4464 41.2773 74.5352 41.3178 74.6082 41.3802C74.6812 41.4427 74.7355 41.5247 74.765 41.6169C74.7945 41.7092 74.798 41.8079 74.7751 41.902C74.7522 41.9962 74.7038 42.0819 74.6353 42.1495L73.1761 43.5941C73.102 43.6675 73.0466 43.7581 73.0146 43.8581C72.9826 43.958 72.9749 44.0644 72.9923 44.168L73.3368 46.2079C73.3531 46.3035 73.3427 46.4018 73.3068 46.4917C73.2709 46.5816 73.2109 46.6595 73.1336 46.7165C73.0564 46.7736 72.9649 46.8075 72.8696 46.8145C72.7744 46.8214 72.6791 46.8012 72.5946 46.7559Z" fill="#FDE3AC"/>
<path d="M19.8895 38.7567L18.9877 40.6126C18.9418 40.7071 18.874 40.7888 18.7901 40.8507C18.7062 40.9126 18.6088 40.9528 18.5062 40.968L16.4896 41.2656C16.3952 41.2795 16.3064 41.32 16.2334 41.3825C16.1604 41.4449 16.106 41.5269 16.0766 41.6192C16.0471 41.7114 16.0436 41.8101 16.0665 41.9043C16.0894 41.9984 16.1378 42.0841 16.2063 42.1517L17.6655 43.5963C17.7396 43.6697 17.795 43.7603 17.827 43.8603C17.859 43.9602 17.8667 44.0666 17.8493 44.1703L17.5048 46.2101C17.4888 46.3056 17.4994 46.4037 17.5354 46.4934C17.5715 46.5831 17.6315 46.6608 17.7087 46.7176C17.7859 46.7745 17.8772 46.8083 17.9724 46.8152C18.0675 46.8221 18.1626 46.8019 18.247 46.7568L20.0502 45.7938C20.1419 45.7449 20.244 45.7193 20.3477 45.7193C20.4514 45.7193 20.5535 45.7449 20.6452 45.7938L22.4484 46.7568C22.5328 46.8019 22.6279 46.8221 22.723 46.8152C22.8182 46.8083 22.9095 46.7745 22.9867 46.7176C23.0639 46.6608 23.1239 46.5831 23.16 46.4934C23.196 46.4037 23.2066 46.3056 23.1906 46.2101L22.8461 44.1703C22.8287 44.0666 22.8363 43.9602 22.8684 43.8603C22.9004 43.7603 22.9558 43.6697 23.0299 43.5963L24.4891 42.1517C24.5576 42.0841 24.606 41.9984 24.6289 41.9043C24.6518 41.8101 24.6483 41.7114 24.6188 41.6192C24.5893 41.5269 24.535 41.4449 24.462 41.3825C24.389 41.32 24.3002 41.2795 24.2058 41.2656L22.1903 40.9677C22.0877 40.9525 21.9902 40.9123 21.9064 40.8504C21.8225 40.7885 21.7547 40.7068 21.7088 40.6124L20.807 38.7567C20.7648 38.6697 20.6994 38.5965 20.6184 38.5452C20.5373 38.494 20.4437 38.4669 20.3482 38.4669C20.2527 38.4669 20.1592 38.494 20.0781 38.5452C19.997 38.5965 19.9317 38.6697 19.8895 38.7567Z" fill="#E2E2E2"/>
<path d="M20.7885 38.7564L21.6904 40.612C21.7362 40.7064 21.804 40.7881 21.8879 40.85C21.9718 40.9119 22.0692 40.9522 22.1718 40.9673L24.1884 41.265C24.2829 41.2789 24.3716 41.3193 24.4447 41.3818C24.5177 41.4443 24.572 41.5263 24.6015 41.6185C24.631 41.7107 24.6344 41.8095 24.6115 41.9036C24.5886 41.9977 24.5402 42.0835 24.4718 42.1511L23.0126 43.5956C22.9385 43.669 22.883 43.7596 22.851 43.8596C22.819 43.9596 22.8114 44.066 22.8288 44.1696L23.1732 46.2095C23.1892 46.305 23.1786 46.4031 23.1426 46.4928C23.1066 46.5825 23.0465 46.6601 22.9693 46.717C22.8921 46.7738 22.8008 46.8076 22.7057 46.8146C22.6105 46.8215 22.5154 46.8012 22.431 46.7561L20.6279 45.7932C20.5361 45.7442 20.434 45.7186 20.3303 45.7186C20.2267 45.7186 20.1246 45.7442 20.0328 45.7932L18.2297 46.7561C18.1453 46.8012 18.0501 46.8215 17.955 46.8146C17.8599 46.8076 17.7685 46.7738 17.6913 46.717C17.6141 46.6601 17.5541 46.5825 17.5181 46.4928C17.482 46.4031 17.4714 46.305 17.4874 46.2095L17.8319 44.1696C17.8493 44.066 17.8417 43.9596 17.8097 43.8596C17.7777 43.7596 17.7222 43.669 17.6481 43.5956L16.1889 42.1511C16.1205 42.0835 16.0721 41.9977 16.0491 41.9036C16.0262 41.8095 16.0297 41.7107 16.0592 41.6185C16.0887 41.5263 16.143 41.4443 16.216 41.3818C16.289 41.3193 16.3778 41.2789 16.4723 41.265L18.4888 40.9673C18.5914 40.9522 18.6889 40.9119 18.7728 40.85C18.8566 40.7881 18.9244 40.7064 18.9703 40.612L19.8721 38.7564C19.9144 38.6697 19.9798 38.5967 20.0607 38.5457C20.1417 38.4946 20.2351 38.4676 20.3303 38.4676C20.4256 38.4676 20.519 38.4946 20.6 38.5457C20.6809 38.5967 20.7462 38.6697 20.7885 38.7564Z" fill="#FFAF00"/>
</svg>
