<svg width="23" height="20" viewBox="0 0 23 20" fill="none" xmlns="http://www.w3.org/2000/svg">
<path fill-rule="evenodd" clip-rule="evenodd" d="M11.1191 17.0638L5.4825 19.8828C4.95869 20.1449 4.31076 19.9532 4.03519 19.4496C3.92545 19.2512 3.88763 19.024 3.92758 18.8031L5.00936 12.8326L0.454488 8.60465C0.0308853 8.21153 0.0217756 7.56662 0.43513 7.16321C0.599544 7.00261 0.815092 6.89812 1.04833 6.86593L7.35113 5.99954L10.1695 0.568401C10.4314 0.0637328 11.0804 -0.143658 11.6042 0.105428C11.8157 0.204559 11.9868 0.367305 12.091 0.568401L14.9094 5.99954L21.2122 6.86593C21.4103 6.8929 21.5964 6.97214 21.7496 7.09466C21.9027 7.21718 22.0166 7.37807 22.0785 7.55907C22.1403 7.74007 22.1476 7.93393 22.0994 8.11865C22.0512 8.30337 21.9496 8.47155 21.806 8.60411L17.2511 12.8321L18.3329 18.8025C18.3569 18.9345 18.3532 19.0696 18.3222 19.2001C18.2911 19.3307 18.2333 19.4542 18.152 19.5635C18.0707 19.6728 17.9676 19.7658 17.8484 19.8371C17.7293 19.9084 17.5966 19.9567 17.4578 19.9792C17.2255 20.0171 16.9864 19.9814 16.778 19.8709L11.1414 17.0519L11.1191 17.0638Z" fill="#0400F5"/>
</svg>
